<svg height="512pt" viewBox="0 0 512 512.001" width="512pt" xmlns="http://www.w3.org/2000/svg"><path d="m420.75 350.074219-18.25-6.867188c-12.1875-4.585937-20.566406-15.484375-21.871094-28.4375l-3.878906-38.613281v-20.15625h-66.601562l-.367188 32.40625c.121094 6.816406-2.441406 13.25-7.21875 18.117188-4.777344 4.863281-11.160156 7.542968-17.980469 7.542968-4.945312 0-9.738281-1.4375-13.867187-4.15625l-80.714844-53.910156h-82.578125v29.558594h.117187l130.179688 118.601562h54.613281c29.652344 0 57.527344 11.546875 78.5 32.519532l.996094.992187zm0 0" fill="#fd9e28"/><path d="m402.5 343.207031c-12.1875-4.585937-20.566406-15.484375-21.871094-28.4375l-3.878906-38.613281v-20.15625h-66.601562l-.367188 32.40625c.121094 6.816406-2.441406 13.25-7.21875 18.117188-4.777344 4.863281-11.160156 7.542968-17.980469 7.542968-4.945312 0-9.738281-1.4375-13.867187-4.15625l-53.214844-35.542968v111.371093l20.21875 18.421875h54.613281c29.652344 0 57.527344 11.546875 78.5 32.519532l.996094.992187 48.921875-87.597656zm0 0" fill="#f1892e"/><path d="m425.78125 512-79.941406-51.511719 86.492187-140.253906 79.667969 51.175781zm0 0" fill="#fa235e"/><g fill="#fed330"><path d="m266.671875 110.554688h-30c0-14.050782 5.695313-21.957032 9.460937-27.191407 2.773438-3.84375 3.808594-5.285156 3.808594-9.65625 0-4.375-1.039062-5.816406-3.808594-9.664062-3.765624-5.230469-9.460937-13.140625-9.460937-27.191407 0-14.050781 5.695313-21.957031 9.460937-27.191406 2.769532-3.84375 3.808594-5.285156 3.808594-9.660156h30c0 14.050781-5.695312 21.957031-9.460937 27.191406-2.769531 3.847656-3.808594 5.285156-3.808594 9.660156s1.039063 5.816407 3.808594 9.664063c3.765625 5.230469 9.460937 13.140625 9.460937 27.191406s-5.695312 21.957031-9.460937 27.1875c-2.769531 3.847657-3.808594 5.285157-3.808594 9.660157zm0 0"/><path d="m206.09375 123.757812h-30c0-12.070312 4.835938-18.785156 8.035156-23.230468 2.109375-2.929688 2.382813-3.304688 2.382813-5.699219s-.273438-2.769531-2.382813-5.699219c-3.199218-4.445312-8.035156-11.160156-8.035156-23.230468 0-12.074219 4.835938-18.789063 8.035156-23.230469 2.109375-2.929688 2.382813-3.308594 2.382813-5.703125h30c0 12.070312-4.835938 18.789062-8.035157 23.230468-2.109374 2.929688-2.382812 3.308594-2.382812 5.703126 0 2.394531.273438 2.769531 2.382812 5.699218 3.199219 4.445313 8.035157 11.160156 8.035157 23.230469s-4.835938 18.785156-8.035157 23.230469c-2.109374 2.929687-2.382812 3.304687-2.382812 5.699218zm0 0"/><path d="m329.492188 123.757812h-30c0-12.070312 4.832031-18.785156 8.035156-23.230468 2.105468-2.929688 2.378906-3.304688 2.378906-5.699219s-.273438-2.769531-2.382812-5.699219c-3.199219-4.445312-8.03125-11.160156-8.03125-23.230468 0-12.074219 4.832031-18.789063 8.03125-23.230469 2.109374-2.929688 2.382812-3.308594 2.382812-5.703125h30c0 12.070312-4.835938 18.789062-8.035156 23.230468-2.109375 2.929688-2.378906 3.308594-2.378906 5.703126 0 2.394531.269531 2.769531 2.378906 5.699218 3.199218 4.445313 8.035156 11.160156 8.035156 23.230469s-4.835938 18.785156-8.035156 23.230469c-2.109375 2.929687-2.378906 3.304687-2.378906 5.699218zm0 0"/></g><path d="m266.671875 36.855469c0-4.375 1.039063-5.816407 3.808594-9.664063 3.765625-5.230468 9.460937-13.140625 9.460937-27.191406h-21.566406v110.554688h8.296875c0-4.375 1.039063-5.8125 3.808594-9.660157 3.765625-5.230469 9.460937-13.136719 9.460937-27.1875s-5.695312-21.960937-9.460937-27.191406c-2.769531-3.847656-3.808594-5.285156-3.808594-9.660156zm0 0" fill="#fd9e28"/><path d="m329.492188 123.757812h-30c0-12.070312 4.832031-18.785156 8.035156-23.230468 2.105468-2.929688 2.378906-3.304688 2.378906-5.699219s-.273438-2.769531-2.382812-5.699219c-3.199219-4.445312-8.03125-11.160156-8.03125-23.230468 0-12.074219 4.832031-18.789063 8.03125-23.230469 2.109374-2.929688 2.382812-3.308594 2.382812-5.703125h30c0 12.070312-4.835938 18.789062-8.035156 23.230468-2.109375 2.929688-2.378906 3.308594-2.378906 5.703126 0 2.394531.269531 2.769531 2.378906 5.699218 3.199218 4.445313 8.035156 11.160156 8.035156 23.230469s-4.835938 18.785156-8.035156 23.230469c-2.109375 2.929687-2.378906 3.304687-2.378906 5.699218zm0 0" fill="#fd9e28"/><path d="m512 289.367188h-512v-120h512zm0 0" fill="#faecd9"/><path d="m512 289.367188h-256.003906v-120h256.003906zm0 0" fill="#f3d6b1"/><path d="m241 169.367188h30v60h-30zm0 0" fill="#b7724a"/><path d="m255.925781 169.367188h15.074219v60h-15.074219zm0 0" fill="#a0401a"/></svg>