<?xml version="1.0" encoding="iso-8859-1"?>
<!-- Generator: Adobe Illustrator 19.0.0, SVG Export Plug-In . SVG Version: 6.00 Build 0)  -->
<svg version="1.1" id="Capa_1" xmlns="http://www.w3.org/2000/svg" xmlns:xlink="http://www.w3.org/1999/xlink" x="0px" y="0px"
	 viewBox="0 0 512 512" style="enable-background:new 0 0 512 512;" xml:space="preserve">
<g>
	<g>
		<g>
			<path d="M508.875,259.125l-85.333-85.333c-2-2-4.708-3.125-7.542-3.125h-74.667v-32c0-5.896-4.771-10.667-10.667-10.667h-70.271
				c-3.375,0-6.542,1.594-8.563,4.292c-2,2.708-2.625,6.198-1.667,9.427c3.875,12.938,5.833,26.271,5.833,39.615
				C256,257.792,193.792,320,117.333,320c-5.958,0-12.25-0.5-19.813-1.594c-3.125-0.396-6.167,0.479-8.5,2.5
				c-2.354,2.031-3.688,4.969-3.688,8.063v33.698c0,23.531,19.146,42.667,42.667,42.667h1.078
				C134.034,429.647,155.57,448,181.333,448c25.763,0,47.299-18.353,52.255-42.667h130.156C368.701,429.647,390.237,448,416,448
				c25.763,0,47.299-18.353,52.255-42.667h33.078c5.896,0,10.667-4.771,10.667-10.667v-128
				C512,263.833,510.875,261.125,508.875,259.125z M181.333,426.667c-17.646,0-32-14.354-32-32s14.354-32,32-32
				c17.646,0,32,14.354,32,32S198.979,426.667,181.333,426.667z M416,426.667c-17.646,0-32-14.354-32-32s14.354-32,32-32
				c17.646,0,32,14.354,32,32S433.646,426.667,416,426.667z M437.333,298.667h-64c-5.896,0-10.667-4.771-10.667-10.667v-64
				c0-5.896,4.771-10.667,10.667-10.667c5.896,0,10.667,4.771,10.667,10.667v53.333h53.333c5.896,0,10.667,4.771,10.667,10.667
				S443.229,298.667,437.333,298.667z"/>
			<path d="M234.667,181.333C234.667,116.635,182.021,64,117.333,64S0,116.635,0,181.333s52.646,117.333,117.333,117.333
				S234.667,246.031,234.667,181.333z M106.667,181.333v-64c0-5.896,4.771-10.667,10.667-10.667c5.896,0,10.667,4.771,10.667,10.667
				v59.583l28.875,28.875c4.167,4.167,4.167,10.917,0,15.083c-2.083,2.083-4.813,3.125-7.542,3.125
				c-2.729,0-5.458-1.042-7.542-3.125l-32-32C107.792,186.875,106.667,184.167,106.667,181.333z"/>
		</g>
	</g>
</g>
<g>
</g>
<g>
</g>
<g>
</g>
<g>
</g>
<g>
</g>
<g>
</g>
<g>
</g>
<g>
</g>
<g>
</g>
<g>
</g>
<g>
</g>
<g>
</g>
<g>
</g>
<g>
</g>
<g>
</g>
</svg>
