<svg height="512pt" viewBox="0 -50 512 511" width="512pt" xmlns="http://www.w3.org/2000/svg"><path d="m414.144531 225.773438h-35.550781c-9.175781 0-18.164062-5.082032-22.78125-14.179688-16.445312-32.894531-42.089844-68.863281-65.792969-97.167969-9.972656-11.90625-15.664062-10.3125-80.320312-21.34375-24.476563-7.117187-42.199219-30.078125-42.199219-54.742187 0-6.480469 1.476562-12.210938 1.476562-16.238282 0-19.679687-23.238281-28.527343-36.421874-15.347656l-38.4375 38.4375c-2.964844 2.96875-2.964844 7.777344 0 10.746094 2.96875 2.964844 7.78125 2.964844 10.746093 0l38.433594-38.4375c3.996094-3.988281 11.246094-1.054688 10.425781 5.527344-.941406 7.410156-1.421875 10.289062-1.421875 15.308594 0 31.453124 22.558594 60.671874 53.636719 69.472656.261719.074218.527344.136718.792969.183594l57.453125 9.800781-18.785156 10.84375c-9.664063 5.578125-15.664063 15.976562-15.664063 27.144531 0 23.914062 26.074219 39.175781 46.980469 27.097656l32.410156-18.714844c2.15625 3.054688 4.253906 6.105469 6.304688 9.136719l-22.082032 12.75c-14.828125 8.570313-20.167968 27.6875-11.460937 42.78125 5.578125 9.660157 15.980469 15.660157 27.148437 15.660157 10.710938 0 15.085938-3.882813 38.863282-17.613282 7.65625 8.824219 18.855468 14.089844 30.691406 14.089844h35.554687c44.613281 0 81.0625 35.535156 82.582031 79.789062-39.164062 0-215.070312.007813-216.832031.007813-4.769531 0-7.664062-.191406-11.589843-4.125-26.566407-26.566406-45.207032-45.195313-57.746094-57.730469-2.96875-2.96875-7.78125-2.96875-10.746094.003906-2.96875 2.96875-2.964844 7.777344.003906 10.746094 22.398438 22.390625 41.582032 41.566406 57.734375 57.722656 7.90625 7.917969 15.679688 8.582032 22.34375 8.582032 1.765625 0 177.867188-.007813 216.90625-.011719v13.105469c0 5.9375-4.832031 10.769531-10.769531 10.769531h-198.648438c-19.359374 0-37.992187-7.054687-53.738281-22.785156-27.234375-27.222657-81.171875-81.140625-187.976562-187.941407-8.226563-8.230468-11.019531-22.949218-4.78125-29.1875l4.578125-4.578124c143.421875 143.417968 133.78125 135.101562 138.265625 135.101562 6.726562 0 10.164062-8.183594 5.371093-12.972656-28.183593-28.175782-67.800781-67.785156-132.890624-132.875l27.160156-27.160156c2.964844-2.96875 2.964844-7.777344 0-10.746094-2.96875-2.964844-7.78125-2.964844-10.746094 0-4.949219 4.949218-38.777344 38.777344-42.488281 42.488281-13.195313 13.199219-8.492188 37.398437 4.785156 50.675781 44.984375 44.984375 143.304687 143.296875 188.902344 188.871094 16.988281 16.964844 39.558593 26.308594 63.558593 26.308594h198.648438c14.320312 0 25.96875-11.648438 25.96875-25.96875v-25.433594c0-53.957031-43.898438-97.851562-97.855469-97.851562zm-153.070312-53.890626c-16.421875 0-22.339844-21.855468-8.078125-30.078124l27.042968-15.613282c6.460938 7.789063 13.300782 16.460938 20.109376 25.609375-33.53125 19.359375-33.394532 20.082031-39.074219 20.082031zm47.960937 57.414063c-16.4375 0-22.367187-21.828125-8.082031-30.085937l22.820313-13.175782c5.820312 9.195313 11.214843 18.414063 16.167968 27.894532-24.644531 14.226562-25.355468 15.367187-30.90625 15.367187zm0 0"/><path d="m27.355469 281.367188c0 4.195312 3.402343 7.597656 7.601562 7.597656h66.871094c4.195313 0 7.597656-3.402344 7.597656-7.597656 0-4.199219-3.402343-7.601563-7.597656-7.601563h-66.871094c-4.199219 0-7.601562 3.402344-7.601562 7.601563zm0 0"/><path d="m146.40625 359.890625h-91.1875c-4.195312 0-7.597656 3.398437-7.597656 7.597656s3.402344 7.597657 7.597656 7.597657h91.1875c4.199219 0 7.601562-3.398438 7.601562-7.597657s-3.402343-7.597656-7.601562-7.597656zm0 0"/><path d="m205.679688 367.488281c0-4.199219-3.402344-7.597656-7.597657-7.597656h-21.277343c-4.199219 0-7.601563 3.398437-7.601563 7.597656s3.402344 7.597657 7.601563 7.597657h21.277343c4.195313 0 7.597657-3.398438 7.597657-7.597657zm0 0"/><path d="m65.859375 317.839844c0-4.195313-3.402344-7.597656-7.601563-7.597656h-50.660156c-4.195312 0-7.597656 3.402343-7.597656 7.597656 0 4.199218 3.402344 7.601562 7.597656 7.601562h50.660156c4.199219 0 7.601563-3.402344 7.601563-7.601562zm0 0"/><path d="m255.832031 396.363281h-50.660156c-4.195313 0-7.597656 3.402344-7.597656 7.601563 0 4.195312 3.402343 7.597656 7.597656 7.597656h50.660156c4.199219 0 7.601563-3.402344 7.601563-7.597656 0-4.199219-3.402344-7.601563-7.601563-7.601563zm0 0"/><path d="m20.769531 229.1875h36.476563c4.195312 0 7.597656-3.402344 7.597656-7.601562 0-4.195313-3.402344-7.597657-7.597656-7.597657h-36.476563c-4.195312 0-7.597656 3.402344-7.597656 7.597657 0 4.199218 3.402344 7.601562 7.597656 7.601562zm0 0"/></svg>