<?xml version="1.0" encoding="utf-8"?>
<!-- Generator: Adobe Illustrator 16.0.0, SVG Export Plug-In . SVG Version: 6.00 Build 0)  -->
<!DOCTYPE svg PUBLIC "-//W3C//DTD SVG 1.1//EN" "http://www.w3.org/Graphics/SVG/1.1/DTD/svg11.dtd">
<svg version="1.1" id="Layer_1" xmlns="http://www.w3.org/2000/svg" xmlns:xlink="http://www.w3.org/1999/xlink" x="0px" y="0px"
	 width="60.062px" height="68.166px" viewBox="0 0 60.062 68.166" enable-background="new 0 0 60.062 68.166" xml:space="preserve">
<g>
	<path fill-rule="evenodd" clip-rule="evenodd" fill="#FEFEFE" d="M30.052,4.541c0.455,0,0.91,0,1.365,0c0,1.236,0,2.472,0,3.709
		c0,0.303,0,0.303,0.293,0.303c5.864,0,11.728,0.004,17.592-0.009c0.405,0,0.691,0.104,0.988,0.394
		c2.211,2.152,4.441,4.283,6.67,6.417c0.12,0.115,0.164,0.229,0.164,0.395c-0.004,3.557-0.013,7.116,0,10.673
		c0.008,1.965-0.036,3.924-0.354,5.869c-0.062,0.385-0.09,0.779-0.227,1.151c-0.113,0-0.228,0.002-0.341,0.002
		c-17.107,0-34.215,0-51.321,0c-0.016-0.051-0.034-0.102-0.045-0.153c-0.271-1.46-0.459-2.933-0.493-4.417
		c-0.036-1.66-0.018-3.322-0.018-4.982c-0.002-2.723,0-5.446-0.001-8.169c0-0.113-0.006-0.217,0.094-0.311
		c0.842-0.797,1.68-1.599,2.516-2.402c1.476-1.418,2.951-2.838,4.418-4.265c0.15-0.146,0.296-0.196,0.498-0.196
		c5.947,0.004,11.894,0.003,17.841,0.003c0.061,0,0.121-0.005,0.182,0.001c0.131,0.015,0.171-0.042,0.169-0.169
		c-0.006-0.349-0.003-0.698-0.002-1.046C30.044,6.406,30.047,5.473,30.052,4.541z M40.505,23.311
		c0.041-0.271-0.106-0.281-0.279-0.262c-0.045,0.004-0.092,0.007-0.137,0c-0.177-0.031-0.209,0.047-0.207,0.212
		c0.01,0.66,0.004,1.319,0.004,1.979c0,0.506-0.001,0.502,0.505,0.479c0.114-0.005,0.136-0.043,0.135-0.146
		c-0.006-0.311-0.003-0.622-0.002-0.932c0-0.211-0.019-0.425,0.053-0.63c0.084-0.25,0.331-0.387,0.552-0.298
		c0.197,0.078,0.252,0.255,0.258,0.442c0.01,0.371,0.009,0.743,0.01,1.114c0,0.454,0,0.444,0.447,0.453
		c0.169,0.003,0.196-0.058,0.191-0.207c-0.01-0.379-0.005-0.758-0.003-1.137c0.001-0.167,0.022-0.334,0.113-0.479
		c0.095-0.154,0.237-0.229,0.423-0.204c0.186,0.025,0.273,0.155,0.312,0.317c0.027,0.116,0.034,0.24,0.035,0.36
		c0.005,0.395,0.007,0.789-0.001,1.183c-0.003,0.131,0.039,0.176,0.167,0.165c0.112-0.01,0.228-0.005,0.34-0.001
		c0.08,0.002,0.131-0.013,0.129-0.109c-0.013-0.599,0.051-1.201-0.03-1.794c-0.11-0.815-0.784-0.92-1.268-0.71
		c-0.143,0.061-0.231,0.249-0.351,0.267c-0.132,0.021-0.196-0.213-0.348-0.273C41.172,22.944,40.829,22.989,40.505,23.311z
		 M33.739,18.501c0.014-0.005,0.027-0.011,0.041-0.017c0.387,0.583,0.786,1.159,1.157,1.751c0.137,0.217,0.281,0.307,0.541,0.294
		c0.19-0.01,0.216-0.071,0.215-0.236c-0.006-0.917-0.003-1.834-0.003-2.751c0-0.502,0-0.496-0.497-0.493
		c-0.142,0.001-0.178,0.042-0.176,0.181c0.009,0.553,0.005,1.106,0.001,1.66c0,0.052,0.036,0.119-0.039,0.165
		c-0.383-0.573-0.776-1.138-1.141-1.72c-0.137-0.219-0.285-0.306-0.543-0.291c-0.181,0.01-0.204,0.065-0.203,0.222
		c0.007,0.933,0.003,1.865,0.003,2.797c0,0.461,0,0.452,0.457,0.461c0.172,0.003,0.192-0.06,0.19-0.207
		C33.735,19.712,33.739,19.107,33.739,18.501z M22.842,25.307c0.005,0.657-0.341,0.915-0.949,0.729
		c-0.133-0.041-0.254-0.098-0.363-0.183c-0.046-0.037-0.074-0.056-0.123,0.01c-0.279,0.375-0.219,0.592,0.216,0.75
		c0.035,0.014,0.072,0.023,0.108,0.033c0.827,0.211,1.674,0.013,1.74-1.143c0.044-0.772,0.008-1.546,0.019-2.32
		c0-0.042,0.015-0.113-0.038-0.117c-0.173-0.013-0.348-0.025-0.521-0.009c-0.138,0.013-0.009,0.177-0.097,0.235
		c-0.471-0.484-1.271-0.313-1.577,0.266c-0.137,0.256-0.185,0.524-0.174,0.81c0.016,0.469,0.177,0.869,0.604,1.098
		C22.092,25.684,22.489,25.63,22.842,25.307z M26.025,18.792c0,0.516,0.007,1.031-0.003,1.547c-0.003,0.153,0.046,0.187,0.19,0.185
		c0.508-0.009,1.017-0.003,1.524-0.003c0.522,0,0.518,0,0.49-0.52c-0.006-0.115-0.048-0.141-0.149-0.139
		c-0.258,0.004-0.516,0.001-0.772,0.001c-0.663,0-0.661,0-0.626-0.656c0.006-0.11,0.038-0.142,0.145-0.139
		c0.235,0.006,0.471,0.001,0.706,0.001c0.502,0,0.499,0,0.47-0.497c-0.009-0.11-0.043-0.144-0.148-0.141
		c-0.204,0.005-0.409,0.001-0.615,0.001c-0.574,0-0.571,0-0.557-0.587c0.003-0.118,0.034-0.154,0.153-0.151
		c0.295,0.008,0.591,0.003,0.887,0.003c0.447,0,0.442,0,0.443-0.453c0-0.138-0.021-0.199-0.183-0.195
		c-0.591,0.01-1.183,0.01-1.773,0c-0.162-0.003-0.187,0.057-0.185,0.195C26.029,17.761,26.025,18.276,26.025,18.792z M17.852,25.697
		c0.652,0.079,0.652,0.079,0.851-0.506c0.006-0.021,0.015-0.043,0.019-0.065c0.019-0.119,0.089-0.15,0.206-0.146
		c0.288,0.009,0.577,0.02,0.863-0.002c0.218-0.017,0.317,0.055,0.38,0.264c0.144,0.484,0.153,0.474,0.642,0.479
		c0.173,0.002,0.2-0.034,0.139-0.199c-0.354-0.953-0.699-1.909-1.047-2.865c-0.147-0.405-0.146-0.396-0.567-0.41
		c-0.176-0.006-0.268,0.033-0.317,0.217c-0.062,0.232-0.162,0.454-0.244,0.68C18.468,23.993,18.159,24.844,17.852,25.697z
		 M32.185,23.11c0.055-0.164,0.096-0.326,0.163-0.477c0.055-0.125,0.001-0.179-0.095-0.233c-0.359-0.201-0.744-0.247-1.143-0.192
		c-0.486,0.066-0.83,0.424-0.882,0.898c-0.062,0.572,0.133,0.902,0.655,1.096c0.212,0.078,0.434,0.132,0.646,0.211
		c0.183,0.067,0.356,0.162,0.311,0.405c-0.044,0.229-0.225,0.283-0.425,0.3c-0.391,0.034-0.721-0.114-1.033-0.351
		c-0.06,0.159-0.107,0.311-0.174,0.453c-0.062,0.132-0.02,0.202,0.096,0.273c0.433,0.269,0.901,0.347,1.393,0.24
		c0.486-0.105,0.788-0.482,0.813-0.964c0.028-0.51-0.18-0.811-0.701-1.003c-0.234-0.085-0.474-0.155-0.707-0.239
		c-0.138-0.05-0.233-0.143-0.229-0.303c0.005-0.171,0.097-0.284,0.253-0.339c0.071-0.024,0.146-0.037,0.221-0.042
		C31.655,22.822,31.92,22.945,32.185,23.11z M31.372,20.521c-0.229-0.392-0.441-0.756-0.653-1.119
		c-0.129-0.222-0.36-0.446-0.357-0.667c0.002-0.23,0.228-0.46,0.358-0.688c0.188-0.325,0.376-0.647,0.577-0.992
		c-0.157,0-0.282,0.017-0.4-0.004c-0.25-0.043-0.38,0.07-0.483,0.288c-0.13,0.274-0.297,0.53-0.46,0.815
		c-0.199-0.343-0.376-0.652-0.556-0.958c-0.035-0.062-0.055-0.144-0.155-0.142c-0.215,0.003-0.43,0.001-0.681,0.001
		c0.273,0.47,0.502,0.913,0.779,1.325c0.18,0.268,0.183,0.468,0.001,0.738c-0.3,0.441-0.551,0.915-0.838,1.402
		c0.199,0,0.366-0.012,0.528,0.003c0.174,0.016,0.27-0.04,0.351-0.202c0.164-0.333,0.357-0.65,0.55-0.992
		c0.21,0.372,0.402,0.714,0.598,1.056c0.036,0.063,0.056,0.139,0.157,0.136C30.904,20.516,31.122,20.521,31.372,20.521z
		 M27.838,24.611c0.105,0,0.212,0,0.319,0c0.571,0,0.571,0,0.482-0.574c-0.083-0.536-0.479-0.969-0.929-1.015
		c-0.595-0.061-1.052,0.228-1.243,0.799c-0.131,0.385-0.129,0.773,0.014,1.157c0.248,0.663,1.002,0.975,1.646,0.681
		c0.396-0.181,0.423-0.299,0.169-0.641c-0.085-0.116-0.129-0.129-0.251-0.031c-0.324,0.259-0.779,0.161-0.955-0.18
		c-0.065-0.127-0.083-0.209,0.111-0.199C27.412,24.619,27.626,24.611,27.838,24.611z M38.684,25.468
		c-0.04,0.236,0.078,0.274,0.259,0.25c0.052-0.008,0.107-0.008,0.158,0c0.156,0.023,0.206-0.03,0.203-0.195
		c-0.01-0.675-0.004-1.35-0.004-2.025c0-0.467,0-0.459-0.47-0.453c-0.151,0.001-0.172,0.06-0.169,0.189
		c0.007,0.364,0.003,0.729,0.002,1.093c0,0.167-0.006,0.334-0.086,0.487c-0.092,0.176-0.23,0.274-0.438,0.262
		c-0.205-0.012-0.305-0.136-0.362-0.319c-0.039-0.126-0.035-0.254-0.036-0.382c-0.003-0.387-0.007-0.774,0.002-1.161
		c0.002-0.131-0.039-0.176-0.167-0.167c-0.113,0.009-0.229,0.006-0.342,0.001c-0.097-0.005-0.134,0.027-0.133,0.128
		c0.007,0.546-0.011,1.093,0.014,1.639c0.022,0.497,0.295,0.834,0.699,0.922C38.141,25.808,38.427,25.721,38.684,25.468z
		 M34.017,23.017c-0.346,0.002-0.573,0.09-0.8,0.312c-0.505,0.494-0.55,1.478-0.093,2.019c0.418,0.493,1.185,0.557,1.621,0.134
		c0.294-0.287,0.288-0.381-0.043-0.602c-0.013-0.008-0.025-0.018-0.037-0.027c-0.098-0.076-0.16-0.107-0.257,0.036
		c-0.218,0.328-0.645,0.303-0.837-0.041c-0.167-0.296-0.166-0.613-0.009-0.912c0.169-0.326,0.587-0.402,0.786-0.122
		c0.162,0.227,0.27,0.155,0.419,0.031c0.034-0.029,0.073-0.052,0.114-0.073c0.102-0.052,0.111-0.116,0.057-0.219
		C34.743,23.178,34.431,23.011,34.017,23.017z M35.971,23.359c0.108-0.36-0.104-0.311-0.277-0.31c-0.038,0-0.076,0.004-0.113-0.001
		c-0.164-0.026-0.2,0.05-0.198,0.204c0.008,0.667,0.004,1.335,0.004,2.002c0,0.478-0.001,0.472,0.479,0.465
		c0.133-0.001,0.162-0.046,0.159-0.169c-0.007-0.372-0.007-0.744-0.002-1.115c0.006-0.394,0.145-0.665,0.428-0.682
		c0.321-0.019,0.317-0.188,0.296-0.412c-0.007-0.06-0.008-0.122,0-0.181c0.02-0.131-0.046-0.15-0.156-0.142
		C36.358,23.035,36.187,23.166,35.971,23.359z M32.393,18.813c0-0.432,0-0.864,0-1.296c0-0.47-0.001-0.462-0.475-0.467
		c-0.152-0.001-0.186,0.046-0.185,0.19c0.006,0.932,0.003,1.864,0.003,2.795c0,0.499,0,0.495,0.495,0.488
		c0.13-0.001,0.167-0.036,0.164-0.165C32.389,19.843,32.393,19.328,32.393,18.813z M25.928,23.866c0-0.478,0-0.955,0-1.433
		c0-0.405,0-0.397-0.404-0.408c-0.174-0.004-0.231,0.038-0.229,0.223c0.01,1.008,0.004,2.017,0.004,3.024
		c0,0.451,0,0.443,0.45,0.448c0.157,0.001,0.185-0.053,0.183-0.194C25.924,24.972,25.928,24.419,25.928,23.866z M24.699,24.393
		c0-0.303,0-0.605,0-0.908c0-0.441,0-0.433-0.439-0.438c-0.168-0.002-0.195,0.059-0.193,0.208c0.007,0.666,0.003,1.332,0.003,1.997
		c0,0.481,0,0.475,0.472,0.468c0.136-0.002,0.162-0.047,0.161-0.17C24.694,25.164,24.699,24.778,24.699,24.393z M24.777,22.236
		c-0.002-0.26-0.158-0.421-0.403-0.416c-0.234,0.006-0.387,0.183-0.383,0.443c0.006,0.257,0.167,0.423,0.407,0.416
		C24.637,22.673,24.778,22.507,24.777,22.236z"/>
	<path fill-rule="evenodd" clip-rule="evenodd" fill="#1B9CD8" d="M30.052,4.541c-0.005,0.932-0.008,1.865-0.012,2.797
		c-0.001,0.349-0.004,0.698,0.002,1.046c0.002,0.127-0.038,0.184-0.169,0.169c-0.061-0.006-0.121-0.001-0.182-0.001
		c-5.947,0-11.894,0.001-17.841-0.003c-0.202,0-0.348,0.05-0.498,0.196c-1.467,1.427-2.942,2.846-4.418,4.265
		c-0.836,0.803-1.674,1.604-2.516,2.402c-0.1,0.094-0.094,0.198-0.094,0.311c0.001,2.723-0.001,5.446,0.001,8.169
		c0,1.661-0.019,3.322,0.018,4.982c0.034,1.484,0.223,2.958,0.493,4.417c0.011,0.052,0.029,0.103,0.045,0.153
		c0,0.022-0.006,0.046-0.002,0.067c0.326,1.605,0.758,3.182,1.328,4.718c0.148,0.402,0.276,0.813,0.489,1.189
		c-0.013,0.082,0.032,0.147,0.062,0.215c0.357,0.844,0.745,1.673,1.17,2.487c1.656,3.184,3.767,6.04,6.235,8.636
		c1.528,1.607,3.178,3.081,4.93,4.441c3.29,2.556,6.853,4.656,10.656,6.349c0.214,0.096,0.299,0.203,0.297,0.448
		c-0.012,1.077,0,2.154,0.005,3.231c-0.196,0-0.395,0-0.592,0c-0.367-0.11-0.744-0.185-1.099-0.341
		c-1.602-0.708-3.169-1.483-4.701-2.327c-4.065-2.241-7.797-4.937-11.138-8.16c-1.536-1.481-2.959-3.065-4.266-4.752
		c-2.658-3.43-4.748-7.17-6.134-11.29c-0.901-2.68-1.476-5.428-1.676-8.252c-0.016-0.22,0.019-0.449-0.078-0.661
		c0-4.78,0-9.56,0-14.34c0.186-0.76,0.558-1.42,1.096-1.982c1.192-1.248,2.397-2.485,3.6-3.726c1.064-1.099,2.138-2.189,3.192-3.298
		c0.593-0.625,1.238-1.157,2.088-1.392c0.224-0.062,0.451-0.109,0.678-0.164C17.365,4.541,23.708,4.541,30.052,4.541z"/>
	<path fill-rule="evenodd" clip-rule="evenodd" fill="#1A2E59" d="M50.447,4.541c0.131,0.077,0.283,0.066,0.424,0.102
		c0.799,0.2,1.478,0.597,2.052,1.193c1.313,1.366,2.638,2.722,3.957,4.083c1.055,1.089,2.115,2.172,3.155,3.276
		c0.487,0.518,0.85,1.121,0.994,1.833c0.017,0.088,0.025,0.18,0.025,0.27c0.001,4.529,0.021,9.058-0.009,13.586
		c-0.012,1.92-0.293,3.818-0.696,5.696c-1.236,5.744-3.821,10.839-7.45,15.425c-3.074,3.883-6.722,7.144-10.816,9.917
		c-2.812,1.906-5.78,3.529-8.883,4.91c-0.386,0.171-0.792,0.269-1.19,0.396c-0.197,0-0.396,0-0.593,0
		c0-1.138,0.005-2.275-0.003-3.413c-0.002-0.148,0.089-0.173,0.183-0.215c1.072-0.472,2.125-0.981,3.16-1.528
		c4.565-2.409,8.715-5.381,12.313-9.101c2.057-2.126,3.871-4.44,5.396-6.977c0.881-1.465,1.662-2.982,2.3-4.57
		c0.606-1.454,1.099-2.945,1.467-4.477c0.121-0.498,0.262-0.992,0.313-1.504c0.137-0.372,0.165-0.766,0.227-1.151
		c0.317-1.944,0.361-3.904,0.354-5.869c-0.013-3.558-0.004-7.116,0-10.673c0-0.166-0.044-0.28-0.164-0.395
		c-2.229-2.134-4.459-4.265-6.67-6.417c-0.297-0.29-0.583-0.395-0.988-0.394C43.438,8.557,37.574,8.553,31.71,8.553
		c-0.293,0-0.293,0-0.293-0.303c0-1.237,0-2.473,0-3.709C37.762,4.541,44.104,4.541,50.447,4.541z"/>
	<path fill-rule="evenodd" clip-rule="evenodd" fill="#FDFDFE" d="M54.765,39.423c-0.638,1.588-1.419,3.105-2.3,4.57
		c-1.524,2.537-3.339,4.85-5.396,6.977c-3.598,3.719-7.747,6.692-12.313,9.101c-1.035,0.547-2.088,1.056-3.16,1.528
		c-0.094,0.042-0.185,0.067-0.183,0.215c0.008,1.137,0.003,2.275,0.003,3.413c-0.455,0-0.91,0-1.365,0
		c-0.005-1.077-0.017-2.154-0.005-3.231c0.002-0.246-0.083-0.352-0.297-0.448c-3.804-1.693-7.366-3.793-10.656-6.349
		c-1.752-1.36-3.401-2.834-4.93-4.441c-2.469-2.597-4.579-5.452-6.235-8.636c-0.425-0.813-0.813-1.643-1.17-2.487
		c-0.029-0.068-0.074-0.134-0.062-0.215c0.046,0,0.091-0.001,0.137-0.001c15.901,0,31.803,0,47.703,0
		C54.613,39.418,54.688,39.421,54.765,39.423z M51.707,41.199c-14.021,0-28.009,0-42.026,0c0.125,0.246,0.238,0.474,0.355,0.698
		c2.305,4.353,5.443,8.021,9.207,11.167c3.423,2.863,7.21,5.143,11.277,6.968c0.119,0.054,0.22,0.058,0.341,0
		c0.592-0.284,1.193-0.549,1.782-0.84c3.455-1.703,6.684-3.758,9.633-6.243c3.313-2.792,6.142-6,8.348-9.738
		C51.007,42.562,51.37,41.901,51.707,41.199z"/>
	<path fill-rule="evenodd" clip-rule="evenodd" fill="#5A7595" d="M54.765,39.423c-0.076-0.001-0.151-0.004-0.228-0.004
		c-15.9,0-31.802,0-47.703,0c-0.046,0-0.091,0.001-0.137,0.001c-0.213-0.375-0.341-0.787-0.489-1.189
		c-0.57-1.536-1.002-3.112-1.328-4.718c-0.004-0.021,0.002-0.045,0.002-0.067c17.106,0,34.214,0,51.321,0
		c0.113,0,0.228-0.002,0.341-0.002c-0.051,0.512-0.191,1.006-0.313,1.504C55.863,36.478,55.371,37.969,54.765,39.423z M23.38,36.627
		c-0.231-0.47-0.459-0.89-0.648-1.327c-0.105-0.247-0.246-0.336-0.512-0.312c-0.164,0.016-0.219,0.044-0.216,0.218
		c0.009,0.744,0.003,1.487,0.003,2.23c0,0.441,0,0.435,0.448,0.434c0.138,0,0.185-0.034,0.181-0.177
		c-0.011-0.396-0.004-0.793-0.004-1.19c0.196,0.309,0.359,0.622,0.51,0.941c0.054,0.113,0.124,0.149,0.246,0.15
		c0.126,0.001,0.167-0.063,0.213-0.16c0.146-0.31,0.301-0.616,0.451-0.924c0.017,0.005,0.033,0.009,0.051,0.014c0,0.3,0,0.6,0,0.899
		c0,0.458,0,0.454,0.455,0.447c0.124-0.002,0.172-0.028,0.171-0.163c-0.005-0.85-0.003-1.7-0.004-2.549
		c0-0.051,0.02-0.11-0.031-0.149c-0.12-0.091-0.541,0.02-0.609,0.161C23.856,35.639,23.629,36.109,23.38,36.627z M39.021,37.848
		c-0.136-0.245-0.251-0.475-0.387-0.691c-0.087-0.134-0.065-0.203,0.048-0.317c0.352-0.35,0.366-0.787,0.222-1.225
		c-0.126-0.383-0.428-0.586-0.825-0.611c-0.354-0.021-0.712-0.004-1.067-0.008c-0.089-0.001-0.14,0.018-0.14,0.123
		c0.002,0.872,0.001,1.744,0.001,2.615c0,0.06-0.007,0.132,0.084,0.129c0.188-0.004,0.402,0.064,0.557-0.028
		c0.106-0.065,0.024-0.27,0.036-0.411c0.006-0.045-0.003-0.092,0.003-0.136c0.008-0.068-0.036-0.172,0.077-0.181
		c0.098-0.007,0.217-0.053,0.29,0.064c0.032,0.051,0.059,0.105,0.089,0.158c0.306,0.561,0.306,0.561,0.942,0.535
		C38.966,37.863,38.979,37.857,39.021,37.848z M35.047,37.866c0.166,0,0.333,0,0.499,0c0.487,0,0.483,0,0.461-0.49
		c-0.007-0.124-0.051-0.153-0.163-0.15c-0.273,0.005-0.547-0.013-0.819,0.006c-0.207,0.016-0.25-0.055-0.249-0.25
		c0-0.201,0.043-0.292,0.261-0.262c0.111,0.016,0.227,0.003,0.341,0.003c0.462,0,0.456,0,0.448-0.459
		c-0.003-0.147-0.06-0.177-0.189-0.172c-0.236,0.007-0.472,0.003-0.706,0c-0.056,0-0.117,0.02-0.146-0.067
		c-0.081-0.25,0.014-0.39,0.277-0.39c0.144,0,0.287,0,0.432,0c0.488,0,0.485,0,0.466-0.482c-0.003-0.115-0.031-0.16-0.153-0.159
		c-0.516,0.005-1.031,0.004-1.547,0.001c-0.1,0-0.152,0.017-0.152,0.135c0.004,0.864,0.004,1.729,0,2.593
		c0,0.108,0.035,0.146,0.143,0.144C34.515,37.862,34.78,37.866,35.047,37.866z M28.138,37.866c-0.297-0.828-0.58-1.617-0.864-2.406
		c-0.175-0.486-0.176-0.482-0.691-0.466c-0.11,0.003-0.159,0.038-0.193,0.141c-0.072,0.223-0.158,0.441-0.237,0.662
		c-0.244,0.681-0.487,1.364-0.739,2.069c0.091,0,0.159,0,0.226,0c0.445,0.001,0.448,0.002,0.598-0.417
		c0.035-0.102,0.086-0.141,0.196-0.137c0.22,0.009,0.44,0.009,0.658,0c0.115-0.004,0.172,0.028,0.21,0.145
		c0.139,0.412,0.146,0.41,0.584,0.409C27.959,37.866,28.035,37.866,28.138,37.866z M29.801,34.934c0,0.004-0.001,0.008-0.001,0.012
		c-0.053,0-0.105-0.003-0.159,0c-0.496,0.027-0.844,0.336-0.9,0.799c-0.06,0.477,0.147,0.778,0.65,0.945
		c0.164,0.056,0.33,0.107,0.494,0.164c0.1,0.034,0.177,0.094,0.17,0.213c-0.009,0.131-0.108,0.18-0.215,0.199
		c-0.19,0.035-0.373-0.006-0.558-0.064c-0.133-0.041-0.26-0.223-0.364-0.147c-0.103,0.075-0.112,0.271-0.177,0.407
		c-0.06,0.127-0.009,0.192,0.099,0.251c0.373,0.209,0.774,0.262,1.187,0.174c0.425-0.09,0.689-0.436,0.704-0.865
		c0.013-0.413-0.192-0.688-0.629-0.834c-0.149-0.05-0.305-0.088-0.455-0.139c-0.122-0.042-0.263-0.088-0.228-0.258
		c0.032-0.162,0.17-0.196,0.314-0.204c0.203-0.01,0.387,0.054,0.563,0.147c0.061,0.031,0.106,0.083,0.164-0.019
		c0.253-0.457,0.188-0.617-0.321-0.736C30.027,34.952,29.913,34.948,29.801,34.934z M32.015,36.756c0,0.212,0,0.424,0,0.636
		c0,0.482,0,0.477,0.49,0.478c0.146,0,0.193-0.038,0.191-0.189c-0.008-0.597,0.007-1.196-0.009-1.794
		c-0.007-0.206,0.054-0.253,0.252-0.248c0.502,0.013,0.501,0.003,0.47-0.497c-0.005-0.104-0.031-0.147-0.143-0.146
		c-0.613,0.004-1.228,0.003-1.841,0.001c-0.097,0-0.125,0.036-0.134,0.132c-0.043,0.515-0.046,0.515,0.457,0.516
		c0.03,0,0.063,0.003,0.091-0.001c0.144-0.021,0.18,0.047,0.177,0.181C32.009,36.135,32.015,36.445,32.015,36.756z"/>
	<path fill-rule="evenodd" clip-rule="evenodd" fill="#1B305A" d="M40.505,23.311c0.324-0.322,0.667-0.367,1.048-0.214
		c0.151,0.061,0.216,0.294,0.348,0.273c0.119-0.019,0.208-0.206,0.351-0.267c0.483-0.209,1.157-0.104,1.268,0.71
		c0.081,0.593,0.018,1.196,0.03,1.794c0.002,0.096-0.049,0.111-0.129,0.109c-0.112-0.004-0.228-0.009-0.34,0.001
		c-0.128,0.011-0.17-0.034-0.167-0.165c0.008-0.394,0.006-0.788,0.001-1.183c-0.001-0.12-0.008-0.244-0.035-0.36
		c-0.038-0.163-0.126-0.292-0.312-0.317c-0.186-0.025-0.328,0.049-0.423,0.204c-0.091,0.146-0.112,0.312-0.113,0.479
		c-0.002,0.379-0.007,0.758,0.003,1.137c0.005,0.149-0.022,0.21-0.191,0.207c-0.447-0.008-0.447,0.001-0.447-0.453
		c-0.001-0.371,0-0.743-0.01-1.114c-0.006-0.188-0.061-0.364-0.258-0.442c-0.221-0.089-0.468,0.049-0.552,0.298
		c-0.071,0.206-0.053,0.419-0.053,0.63c-0.001,0.311-0.004,0.622,0.002,0.932c0.001,0.103-0.021,0.142-0.135,0.146
		c-0.506,0.023-0.505,0.027-0.505-0.479c0-0.66,0.006-1.32-0.004-1.979c-0.002-0.165,0.03-0.243,0.207-0.212
		c0.045,0.008,0.092,0.005,0.137,0C40.398,23.03,40.546,23.041,40.505,23.311z"/>
	<path fill-rule="evenodd" clip-rule="evenodd" fill="#1C315B" d="M33.739,18.501c0,0.605-0.004,1.211,0.004,1.817
		c0.002,0.147-0.019,0.21-0.19,0.207c-0.457-0.009-0.457,0-0.457-0.461c0-0.932,0.004-1.864-0.003-2.797
		c-0.001-0.157,0.022-0.212,0.203-0.222c0.258-0.015,0.406,0.072,0.543,0.291c0.364,0.582,0.758,1.146,1.141,1.72
		c0.075-0.046,0.039-0.112,0.039-0.165c0.004-0.554,0.008-1.107-0.001-1.66c-0.002-0.139,0.034-0.18,0.176-0.181
		c0.497-0.003,0.497-0.01,0.497,0.493c0,0.917-0.003,1.834,0.003,2.751c0.001,0.165-0.024,0.226-0.215,0.236
		c-0.26,0.013-0.404-0.077-0.541-0.294c-0.371-0.593-0.771-1.168-1.157-1.751C33.767,18.49,33.753,18.496,33.739,18.501z"/>
	<path fill-rule="evenodd" clip-rule="evenodd" fill="#1C315B" d="M22.842,25.307c-0.353,0.323-0.75,0.377-1.155,0.16
		c-0.427-0.229-0.588-0.629-0.604-1.098c-0.011-0.286,0.037-0.554,0.174-0.81c0.306-0.579,1.106-0.75,1.577-0.266
		c0.088-0.058-0.041-0.222,0.097-0.235c0.173-0.016,0.348-0.004,0.521,0.009c0.053,0.004,0.038,0.074,0.038,0.117
		c-0.011,0.773,0.025,1.547-0.019,2.32c-0.066,1.156-0.913,1.354-1.74,1.143c-0.036-0.009-0.073-0.019-0.108-0.033
		c-0.435-0.157-0.495-0.374-0.216-0.75c0.049-0.065,0.077-0.047,0.123-0.01c0.109,0.085,0.23,0.143,0.363,0.183
		C22.501,26.222,22.847,25.964,22.842,25.307z M21.722,24.299c0,0.378,0.244,0.649,0.579,0.644c0.324-0.005,0.553-0.272,0.552-0.646
		c0-0.372-0.229-0.639-0.554-0.644C21.965,23.65,21.721,23.922,21.722,24.299z"/>
	<path fill-rule="evenodd" clip-rule="evenodd" fill="#1B305A" d="M26.025,18.792c0-0.516,0.004-1.031-0.003-1.546
		c-0.002-0.138,0.022-0.198,0.185-0.195c0.591,0.01,1.183,0.01,1.773,0c0.161-0.003,0.183,0.058,0.183,0.195
		c-0.001,0.453,0.004,0.453-0.443,0.453c-0.296,0-0.592,0.005-0.887-0.003c-0.119-0.003-0.15,0.033-0.153,0.151
		c-0.015,0.587-0.018,0.587,0.557,0.587c0.206,0,0.411,0.004,0.615-0.001c0.105-0.003,0.14,0.031,0.148,0.141
		c0.029,0.497,0.032,0.497-0.47,0.497c-0.235,0-0.471,0.005-0.706-0.001c-0.106-0.003-0.139,0.028-0.145,0.139
		c-0.035,0.657-0.037,0.656,0.626,0.656c0.257,0,0.515,0.003,0.772-0.001c0.102-0.001,0.144,0.024,0.149,0.139
		c0.027,0.52,0.032,0.52-0.49,0.52c-0.508,0-1.017-0.005-1.524,0.003c-0.145,0.002-0.193-0.032-0.19-0.185
		C26.032,19.823,26.025,19.308,26.025,18.792z"/>
	<path fill-rule="evenodd" clip-rule="evenodd" fill="#1C315B" d="M17.852,25.697c0.308-0.854,0.616-1.705,0.923-2.554
		c0.082-0.227,0.183-0.448,0.244-0.68c0.05-0.184,0.142-0.223,0.317-0.217c0.421,0.013,0.42,0.004,0.567,0.41
		c0.348,0.956,0.693,1.913,1.047,2.865c0.062,0.165,0.034,0.201-0.139,0.199c-0.488-0.005-0.498,0.005-0.642-0.479
		c-0.063-0.209-0.162-0.281-0.38-0.264c-0.286,0.022-0.575,0.011-0.863,0.002c-0.117-0.003-0.188,0.028-0.206,0.146
		c-0.004,0.022-0.013,0.044-0.019,0.065C18.504,25.776,18.504,25.776,17.852,25.697z M18.992,24.338c0.298,0,0.572,0,0.864,0
		c-0.145-0.423-0.283-0.83-0.434-1.273C19.273,23.509,19.136,23.913,18.992,24.338z"/>
	<path fill-rule="evenodd" clip-rule="evenodd" fill="#1C315B" d="M32.185,23.11c-0.265-0.165-0.529-0.289-0.838-0.266
		c-0.075,0.005-0.149,0.017-0.221,0.042c-0.156,0.055-0.248,0.168-0.253,0.339c-0.005,0.16,0.091,0.253,0.229,0.303
		c0.233,0.084,0.473,0.154,0.707,0.239c0.521,0.192,0.729,0.493,0.701,1.003c-0.025,0.481-0.327,0.858-0.813,0.964
		c-0.491,0.107-0.96,0.029-1.393-0.24c-0.115-0.071-0.157-0.141-0.096-0.273c0.066-0.142,0.114-0.294,0.174-0.453
		c0.313,0.236,0.643,0.385,1.033,0.351c0.2-0.017,0.381-0.071,0.425-0.3c0.046-0.243-0.128-0.337-0.311-0.405
		c-0.212-0.079-0.434-0.133-0.646-0.211c-0.522-0.193-0.717-0.524-0.655-1.096c0.052-0.475,0.396-0.832,0.882-0.898
		c0.398-0.054,0.783-0.008,1.143,0.192c0.096,0.054,0.149,0.108,0.095,0.233C32.28,22.785,32.239,22.947,32.185,23.11z"/>
	<path fill-rule="evenodd" clip-rule="evenodd" fill="#1C315B" d="M31.372,20.521c-0.25,0-0.468-0.004-0.685,0.001
		c-0.102,0.003-0.121-0.074-0.157-0.136c-0.195-0.341-0.388-0.684-0.598-1.056c-0.192,0.341-0.386,0.659-0.55,0.992
		c-0.081,0.163-0.177,0.218-0.351,0.202c-0.162-0.016-0.329-0.003-0.528-0.003c0.287-0.487,0.538-0.96,0.838-1.402
		c0.182-0.27,0.179-0.47-0.001-0.738c-0.277-0.412-0.506-0.855-0.779-1.325c0.251,0,0.466,0.002,0.681-0.001
		c0.101-0.002,0.12,0.08,0.155,0.142c0.18,0.306,0.356,0.615,0.556,0.958c0.163-0.285,0.33-0.542,0.46-0.815
		c0.104-0.218,0.233-0.331,0.483-0.288c0.118,0.021,0.243,0.004,0.4,0.004c-0.201,0.345-0.39,0.667-0.577,0.992
		c-0.131,0.228-0.356,0.458-0.358,0.688c-0.003,0.221,0.229,0.445,0.357,0.667C30.931,19.765,31.144,20.128,31.372,20.521z"/>
	<path fill-rule="evenodd" clip-rule="evenodd" fill="#1C315B" d="M27.838,24.611c-0.212,0-0.426,0.008-0.637-0.003
		c-0.194-0.01-0.177,0.072-0.111,0.199c0.176,0.341,0.631,0.439,0.955,0.18c0.122-0.098,0.166-0.084,0.251,0.031
		c0.254,0.341,0.227,0.46-0.169,0.641c-0.644,0.294-1.397-0.018-1.646-0.681c-0.143-0.384-0.145-0.772-0.014-1.157
		c0.191-0.571,0.648-0.86,1.243-0.799c0.449,0.046,0.846,0.479,0.929,1.015c0.089,0.574,0.089,0.574-0.482,0.574
		C28.05,24.611,27.943,24.611,27.838,24.611z M27.532,24.145c0.129,0,0.258-0.005,0.387,0.001c0.139,0.008,0.149-0.052,0.11-0.165
		c-0.075-0.218-0.252-0.363-0.462-0.374c-0.246-0.012-0.397,0.117-0.499,0.324c-0.077,0.157-0.054,0.24,0.146,0.215
		C27.319,24.135,27.426,24.145,27.532,24.145z"/>
	<path fill-rule="evenodd" clip-rule="evenodd" fill="#1C315B" d="M38.684,25.468c-0.257,0.253-0.543,0.34-0.87,0.269
		c-0.404-0.087-0.677-0.425-0.699-0.922c-0.024-0.545-0.007-1.092-0.014-1.639c-0.001-0.101,0.036-0.133,0.133-0.128
		c0.113,0.005,0.229,0.008,0.342-0.001c0.128-0.009,0.169,0.036,0.167,0.167c-0.009,0.387-0.005,0.774-0.002,1.161
		c0.001,0.127-0.003,0.255,0.036,0.382c0.058,0.183,0.157,0.307,0.362,0.319c0.208,0.012,0.347-0.086,0.438-0.262
		c0.08-0.153,0.086-0.32,0.086-0.487c0.001-0.364,0.005-0.729-0.002-1.093c-0.003-0.129,0.018-0.188,0.169-0.189
		c0.47-0.006,0.47-0.014,0.47,0.453c0,0.675-0.006,1.35,0.004,2.025c0.003,0.165-0.047,0.218-0.203,0.195
		c-0.051-0.008-0.106-0.008-0.158,0C38.762,25.742,38.644,25.705,38.684,25.468z"/>
	<path fill-rule="evenodd" clip-rule="evenodd" fill="#1C315B" d="M34.017,23.017c0.414-0.005,0.727,0.161,0.922,0.538
		c0.055,0.103,0.045,0.167-0.057,0.219c-0.041,0.021-0.08,0.043-0.114,0.073c-0.149,0.124-0.257,0.196-0.419-0.031
		c-0.199-0.28-0.617-0.204-0.786,0.122c-0.157,0.299-0.158,0.616,0.009,0.912c0.192,0.344,0.619,0.368,0.837,0.041
		c0.097-0.144,0.159-0.112,0.257-0.036c0.012,0.009,0.024,0.019,0.037,0.027c0.331,0.221,0.337,0.315,0.043,0.602
		c-0.437,0.422-1.203,0.358-1.621-0.134c-0.457-0.541-0.412-1.525,0.093-2.019C33.443,23.107,33.671,23.019,34.017,23.017z"/>
	<path fill-rule="evenodd" clip-rule="evenodd" fill="#1C315B" d="M35.971,23.359c0.216-0.193,0.388-0.324,0.619-0.34
		c0.11-0.008,0.176,0.011,0.156,0.142c-0.008,0.059-0.007,0.122,0,0.181c0.021,0.224,0.025,0.393-0.296,0.412
		c-0.283,0.018-0.422,0.288-0.428,0.682c-0.005,0.371-0.005,0.743,0.002,1.115c0.003,0.123-0.026,0.168-0.159,0.169
		c-0.48,0.006-0.479,0.012-0.479-0.465c0-0.667,0.004-1.335-0.004-2.002c-0.002-0.154,0.034-0.23,0.198-0.204
		c0.037,0.005,0.075,0.001,0.113,0.001C35.867,23.048,36.079,22.999,35.971,23.359z"/>
	<path fill-rule="evenodd" clip-rule="evenodd" fill="#1A2E59" d="M32.393,18.813c0,0.515-0.004,1.03,0.003,1.546
		c0.003,0.129-0.034,0.163-0.164,0.165c-0.495,0.007-0.495,0.011-0.495-0.488c0-0.931,0.003-1.864-0.003-2.795
		c-0.001-0.144,0.032-0.191,0.185-0.19c0.474,0.005,0.475-0.003,0.475,0.467C32.393,17.949,32.393,18.381,32.393,18.813z"/>
	<path fill-rule="evenodd" clip-rule="evenodd" fill="#1A2E59" d="M25.928,23.866c0,0.553-0.004,1.106,0.003,1.66
		c0.002,0.141-0.025,0.195-0.183,0.194c-0.45-0.004-0.45,0.003-0.45-0.448c0-1.008,0.006-2.016-0.004-3.024
		c-0.002-0.185,0.056-0.227,0.229-0.223c0.404,0.011,0.404,0.003,0.404,0.408C25.928,22.911,25.928,23.389,25.928,23.866z"/>
	<path fill-rule="evenodd" clip-rule="evenodd" fill="#1A2E59" d="M24.699,24.393c0,0.385-0.005,0.771,0.003,1.157
		c0.001,0.123-0.025,0.168-0.161,0.17c-0.472,0.006-0.472,0.013-0.472-0.468c0-0.665,0.004-1.331-0.003-1.997
		c-0.002-0.149,0.025-0.211,0.193-0.208c0.439,0.005,0.439-0.003,0.439,0.438C24.699,23.788,24.699,24.09,24.699,24.393z"/>
	<path fill-rule="evenodd" clip-rule="evenodd" fill="#1C315B" d="M24.777,22.236c0.001,0.271-0.141,0.438-0.379,0.444
		c-0.24,0.007-0.401-0.159-0.407-0.416c-0.004-0.261,0.148-0.438,0.383-0.443C24.619,21.815,24.775,21.976,24.777,22.236z"/>
	<path fill-rule="evenodd" clip-rule="evenodd" fill="#1A2E59" d="M51.707,41.199c-0.337,0.702-0.7,1.363-1.083,2.013
		c-2.206,3.739-5.034,6.946-8.348,9.738c-2.949,2.485-6.178,4.54-9.633,6.243c-0.589,0.291-1.19,0.556-1.782,0.84
		c-0.121,0.057-0.222,0.053-0.341,0c-4.067-1.825-7.854-4.105-11.277-6.968c-3.764-3.147-6.902-6.814-9.207-11.167
		c-0.117-0.224-0.23-0.452-0.355-0.698C23.698,41.199,37.686,41.199,51.707,41.199z M35.015,50.976
		c0.364,0.479,0.689,0.905,1.015,1.331c0.239,0.313,0.475,0.628,0.72,0.936c0.136,0.168,0.32,0.239,0.527,0.161
		c0.205-0.078,0.286-0.239,0.285-0.464c-0.006-0.948-0.003-1.896-0.004-2.844c0-0.29-0.159-0.479-0.399-0.478
		c-0.248,0.001-0.392,0.173-0.396,0.479c-0.002,0.235,0,0.47,0,0.706c0,0.375,0,0.749,0,1.124c-0.28-0.289-0.512-0.591-0.744-0.896
		c-0.303-0.398-0.601-0.799-0.908-1.194c-0.153-0.197-0.383-0.259-0.609-0.184c-0.17,0.057-0.266,0.171-0.266,0.353
		c-0.002,1.023-0.006,2.048,0.002,3.072c0.001,0.265,0.269,0.429,0.52,0.337c0.2-0.074,0.259-0.234,0.259-0.433
		C35.014,52.336,35.015,51.692,35.015,50.976z M26.5,50.862c-0.106-0.467,0.005-0.782,0.31-0.948
		c0.305-0.165,0.66-0.116,0.887,0.151c0.584,0.687,1.156,1.383,1.736,2.072c0.094,0.11,0.088,0.193-0.002,0.295
		c-0.189,0.217-0.372,0.438-0.558,0.659c-0.406,0.479-0.813,0.958-1.218,1.439c-0.124,0.147-0.156,0.315-0.048,0.481
		c0.099,0.155,0.251,0.214,0.434,0.17c0.125-0.031,0.201-0.13,0.279-0.223c0.653-0.787,1.307-1.573,1.957-2.361
		c0.188-0.229,0.199-0.381,0.019-0.611c-0.66-0.849-1.352-1.672-2.061-2.481c-0.377-0.433-1.011-0.458-1.479-0.107
		C26.319,49.725,26.201,50.32,26.5,50.862z M31.85,53.442c0.172,0.005,0.302-0.066,0.379-0.211c0.091-0.165,0.06-0.327-0.053-0.468
		c-0.224-0.277-0.452-0.55-0.684-0.821c-0.335-0.396-0.335-0.394-0.011-0.785c0.256-0.309,0.515-0.617,0.76-0.935
		c0.139-0.181,0.117-0.386-0.024-0.512c-0.157-0.142-0.385-0.13-0.554,0.028c-0.028,0.025-0.052,0.055-0.076,0.085
		c-0.4,0.485-0.803,0.969-1.199,1.457c-0.187,0.229-0.185,0.399,0.005,0.631c0.375,0.458,0.753,0.911,1.131,1.366
		C31.609,53.38,31.712,53.452,31.85,53.442z M25.596,51.159c-0.568,0-1.137-0.001-1.704,0c-0.306,0.001-0.447,0.124-0.448,0.384
		c-0.001,0.255,0.147,0.388,0.447,0.389c1.129,0.002,2.257,0.002,3.385,0c0.313,0,0.466-0.136,0.462-0.4
		c-0.003-0.251-0.152-0.373-0.461-0.374C26.716,51.158,26.155,51.159,25.596,51.159z M25.364,52.633c0-0.004,0-0.008,0-0.013
		c-0.387,0-0.773,0-1.159,0c-0.183,0-0.367-0.022-0.541,0.048c-0.186,0.075-0.271,0.221-0.237,0.417
		c0.031,0.191,0.146,0.312,0.354,0.313c0.145,0.001,0.289,0,0.433,0.004c0.909,0.032,1.816,0.021,2.727-0.005
		c0.135-0.005,0.226-0.08,0.285-0.194c0.144-0.278-0.044-0.564-0.384-0.569C26.35,52.627,25.856,52.633,25.364,52.633z
		 M33.61,51.542c0-0.493,0.001-0.985-0.001-1.477c0-0.271-0.143-0.428-0.383-0.435c-0.247-0.006-0.403,0.157-0.403,0.44
		c-0.004,0.978-0.003,1.955,0,2.932c0,0.276,0.162,0.441,0.41,0.433c0.242-0.007,0.375-0.161,0.376-0.439
		C33.611,52.511,33.61,52.026,33.61,51.542z M34.663,46.985c-0.02,0.198,0.026,0.287,0.216,0.264
		c0.208-0.023,0.114-0.169,0.114-0.256c0.008-0.841,0.003-1.683,0.007-2.524c0-0.124-0.009-0.191-0.166-0.191
		c-0.159,0-0.187,0.056-0.183,0.196c0.01,0.291,0.003,0.583,0.003,0.896c-0.614-0.55-1.246-0.149-1.396,0.342
		c-0.115,0.375-0.114,0.747,0.071,1.103c0.163,0.311,0.426,0.464,0.775,0.456C34.317,47.266,34.488,47.156,34.663,46.985z
		 M36.749,46.988c0.51,0.397,1.034,0.356,1.307-0.103c0.272-0.458,0.274-0.941-0.002-1.401c-0.252-0.42-0.764-0.501-1.162-0.212
		c-0.029,0.021-0.05,0.085-0.119,0.038c0-0.289-0.008-0.584,0.004-0.879c0.006-0.154-0.077-0.148-0.184-0.148
		c-0.1,0-0.167-0.001-0.166,0.14c0.008,0.895,0.006,1.79,0.001,2.685c-0.001,0.112,0.04,0.129,0.143,0.143
		C36.782,47.276,36.762,47.147,36.749,46.988z M20.984,45.839c-0.003,0.468,0.132,0.881,0.503,1.189
		c0.442,0.367,1.147,0.317,1.505-0.084c0.124-0.139,0.004-0.194-0.053-0.281c-0.08-0.117-0.124-0.036-0.188,0.021
		c-0.342,0.304-0.808,0.295-1.124-0.019c-0.4-0.397-0.408-1.206-0.013-1.618c0.325-0.338,0.784-0.355,1.134-0.041
		c0.057,0.052,0.104,0.153,0.183,0.021c0.053-0.089,0.202-0.14,0.055-0.287c-0.305-0.302-0.665-0.386-1.063-0.291
		C21.343,44.589,20.988,45.129,20.984,45.839z M32.224,46.329c0.188,0,0.379-0.004,0.567,0.002c0.098,0.004,0.137-0.029,0.137-0.127
		c0.001-0.246-0.042-0.48-0.17-0.695c-0.313-0.526-1.011-0.556-1.355-0.048c-0.257,0.377-0.283,0.793-0.12,1.212
		c0.228,0.595,0.949,0.79,1.411,0.398c0.134-0.113,0.107-0.199,0.017-0.32c-0.111-0.148-0.152,0.004-0.204,0.043
		c-0.335,0.25-0.813,0.105-0.944-0.292c-0.035-0.105-0.046-0.188,0.116-0.177C31.858,46.338,32.041,46.329,32.224,46.329z
		 M24.261,46.329c0.091,0,0.182,0,0.273,0c0.501,0,0.541-0.057,0.389-0.557c-0.125-0.419-0.413-0.663-0.786-0.668
		c-0.389-0.006-0.691,0.228-0.825,0.648c-0.111,0.345-0.098,0.688,0.06,1.016c0.253,0.532,0.99,0.671,1.401,0.282
		c0.132-0.126,0.05-0.205-0.018-0.302c-0.094-0.134-0.135,0.002-0.186,0.041c-0.35,0.269-0.84,0.107-0.966-0.317
		c-0.034-0.117-0.002-0.148,0.112-0.144C23.897,46.333,24.079,46.329,24.261,46.329z M39.247,46.78
		c-0.048-0.124-0.07-0.179-0.09-0.236c-0.154-0.433-0.313-0.865-0.46-1.3c-0.062-0.182-0.214-0.142-0.318-0.112
		c-0.119,0.033-0.02,0.137,0.003,0.201c0.212,0.597,0.426,1.193,0.644,1.788c0.078,0.213-0.042,0.367-0.16,0.507
		c-0.094,0.11-0.229,0.084-0.354,0.021c-0.057-0.028-0.119-0.16-0.183-0.002c-0.044,0.106-0.141,0.201,0.026,0.301
		c0.294,0.177,0.651,0.103,0.826-0.194c0.12-0.203,0.181-0.43,0.26-0.65c0.219-0.602,0.44-1.203,0.658-1.805
		c0.034-0.094,0.084-0.177-0.096-0.185c-0.168-0.007-0.203,0.088-0.244,0.206C39.597,45.788,39.433,46.253,39.247,46.78z
		 M24.526,50.459c0.234,0,0.469,0.007,0.703-0.002c0.264-0.01,0.411-0.152,0.414-0.381c0.003-0.239-0.15-0.396-0.42-0.401
		c-0.454-0.007-0.907-0.008-1.361,0c-0.286,0.006-0.445,0.165-0.44,0.407c0.005,0.229,0.165,0.368,0.447,0.375
		C24.089,50.465,24.308,50.459,24.526,50.459z M29.087,46.333c0,0.25,0.006,0.501-0.003,0.751c-0.004,0.128,0.034,0.167,0.163,0.166
		c0.128-0.001,0.168-0.036,0.166-0.166c-0.008-0.44-0.003-0.879-0.003-1.319c0-0.308,0.001-0.313,0.307-0.311
		c0.138,0.001,0.209-0.02,0.2-0.185c-0.008-0.123-0.052-0.151-0.163-0.152c-0.11,0-0.267,0.06-0.32-0.033
		c-0.063-0.108-0.051-0.266,0.028-0.389c0.072-0.113,0.196-0.141,0.3-0.089c0.147,0.074,0.179,0.031,0.224-0.108
		c0.054-0.164-0.049-0.185-0.147-0.216c-0.408-0.128-0.736,0.133-0.753,0.592c-0.004,0.104,0.068,0.269-0.149,0.245
		c-0.119-0.013-0.159,0.035-0.157,0.155c0.003,0.114,0.014,0.198,0.157,0.177s0.155,0.062,0.153,0.176
		C29.083,45.863,29.087,46.098,29.087,46.333z M26.823,46.186c0.021,0.209-0.038,0.461,0.039,0.706
		c0.108,0.339,0.51,0.485,0.811,0.306c0.13-0.078,0.069-0.164,0.036-0.248c-0.016-0.039-0.001-0.116-0.111-0.078
		c-0.315,0.11-0.442,0.013-0.449-0.33c-0.006-0.265,0.015-0.532-0.006-0.795c-0.018-0.232,0.045-0.336,0.291-0.297
		c0.11,0.017,0.221,0.033,0.221-0.157c0.001-0.177-0.087-0.19-0.209-0.169c-0.257,0.044-0.343-0.064-0.299-0.308
		c0.023-0.129-0.035-0.163-0.163-0.167c-0.163-0.006-0.165,0.08-0.161,0.197c0.007,0.145,0.05,0.312-0.206,0.283
		c-0.118-0.013-0.07,0.109-0.077,0.174c-0.004,0.064-0.019,0.161,0.086,0.146c0.218-0.033,0.206,0.099,0.2,0.244
		C26.82,45.843,26.823,45.995,26.823,46.186z M25.717,45.42c-0.003-0.188,0.015-0.322-0.193-0.303
		c-0.207,0.019-0.117,0.164-0.118,0.252c-0.009,0.575,0.001,1.151-0.009,1.727c-0.002,0.149,0.066,0.149,0.178,0.151
		c0.11,0.002,0.161-0.019,0.157-0.146c-0.011-0.303-0.005-0.606-0.004-0.909c0.002-0.441,0.109-0.591,0.528-0.714
		c0.181-0.053,0.07-0.188,0.087-0.282c0.02-0.127-0.091-0.095-0.157-0.085C26.007,45.137,25.861,45.226,25.717,45.42z
		 M28.454,46.197c0-0.311-0.005-0.621,0.003-0.931c0.003-0.132-0.06-0.146-0.165-0.147c-0.11-0.002-0.165,0.02-0.163,0.148
		c0.007,0.613,0.007,1.227-0.001,1.839c-0.001,0.135,0.061,0.142,0.164,0.141c0.103-0.001,0.17-0.005,0.165-0.142
		C28.448,46.804,28.454,46.5,28.454,46.197z M30.453,46.174c0,0.31,0.008,0.621-0.002,0.931c-0.005,0.133,0.056,0.144,0.161,0.142
		c0.101-0.001,0.168-0.002,0.167-0.14c-0.007-0.613-0.006-1.226-0.001-1.839c0.001-0.13-0.057-0.148-0.163-0.149
		c-0.108-0.001-0.168,0.016-0.164,0.146C30.46,45.568,30.453,45.871,30.453,46.174z M30.829,44.466
		c-0.009-0.141-0.07-0.24-0.215-0.243c-0.161-0.002-0.224,0.112-0.225,0.254c0,0.143,0.07,0.259,0.226,0.253
		C30.771,44.725,30.823,44.605,30.829,44.466z M28.506,44.455c0.002-0.132-0.067-0.227-0.208-0.23
		c-0.157-0.005-0.227,0.113-0.227,0.251c0.001,0.136,0.061,0.263,0.222,0.254C28.445,44.723,28.509,44.613,28.506,44.455z"/>
	<path fill-rule="evenodd" clip-rule="evenodd" fill="#F8F9FA" d="M23.38,36.627c0.249-0.518,0.477-0.988,0.704-1.458
		c0.068-0.141,0.489-0.252,0.609-0.161c0.051,0.039,0.031,0.098,0.031,0.149c0.001,0.849-0.001,1.699,0.004,2.549
		c0.001,0.135-0.047,0.161-0.171,0.163c-0.455,0.007-0.455,0.011-0.455-0.447c0-0.3,0-0.6,0-0.899
		c-0.018-0.005-0.034-0.009-0.051-0.014c-0.15,0.309-0.306,0.614-0.451,0.924c-0.046,0.097-0.087,0.161-0.213,0.16
		c-0.122-0.001-0.192-0.037-0.246-0.15c-0.15-0.319-0.313-0.632-0.51-0.941c0,0.397-0.007,0.794,0.004,1.19
		c0.004,0.144-0.043,0.177-0.181,0.177c-0.448,0.001-0.448,0.007-0.448-0.434c0-0.743,0.006-1.486-0.003-2.23
		c-0.003-0.174,0.052-0.202,0.216-0.218c0.266-0.024,0.406,0.065,0.512,0.312C22.921,35.737,23.148,36.157,23.38,36.627z"/>
	<path fill-rule="evenodd" clip-rule="evenodd" fill="#FAFAFB" d="M39.021,37.848c-0.041,0.01-0.055,0.016-0.07,0.016
		c-0.637,0.026-0.637,0.026-0.942-0.535c-0.03-0.053-0.057-0.107-0.089-0.158c-0.073-0.117-0.192-0.071-0.29-0.064
		c-0.113,0.009-0.069,0.113-0.077,0.181c-0.006,0.044,0.003,0.091-0.003,0.136c-0.012,0.141,0.07,0.346-0.036,0.411
		c-0.154,0.092-0.369,0.024-0.557,0.028c-0.091,0.003-0.084-0.069-0.084-0.129c0-0.872,0.001-1.743-0.001-2.615
		c0-0.105,0.051-0.124,0.14-0.123c0.355,0.003,0.713-0.014,1.067,0.008c0.397,0.024,0.699,0.228,0.825,0.611
		c0.145,0.438,0.13,0.875-0.222,1.225c-0.113,0.114-0.135,0.183-0.048,0.317C38.77,37.373,38.885,37.603,39.021,37.848z
		 M37.55,36.052c0,0.045,0.008,0.091-0.001,0.135c-0.033,0.211,0.037,0.315,0.264,0.273c0.029-0.005,0.06,0,0.091-0.001
		c0.266-0.006,0.397-0.143,0.393-0.41c-0.005-0.292-0.155-0.391-0.526-0.409c-0.339-0.017-0.185,0.224-0.22,0.367
		C37.547,36.021,37.55,36.036,37.55,36.052z"/>
	<path fill-rule="evenodd" clip-rule="evenodd" fill="#F8F9FA" d="M35.047,37.866c-0.267,0-0.532-0.004-0.798,0.001
		c-0.107,0.002-0.143-0.036-0.143-0.144c0.004-0.864,0.004-1.729,0-2.593c0-0.118,0.053-0.136,0.152-0.135
		c0.516,0.003,1.031,0.004,1.547-0.001c0.122-0.001,0.15,0.044,0.153,0.159c0.02,0.482,0.022,0.482-0.466,0.482
		c-0.145,0-0.288,0-0.432,0c-0.264,0-0.358,0.14-0.277,0.39c0.028,0.087,0.09,0.067,0.146,0.067c0.234,0.003,0.47,0.007,0.706,0
		c0.13-0.005,0.187,0.025,0.189,0.172c0.008,0.459,0.014,0.459-0.448,0.459c-0.114,0-0.229,0.013-0.341-0.003
		c-0.218-0.031-0.261,0.061-0.261,0.262c-0.001,0.196,0.042,0.266,0.249,0.25c0.272-0.02,0.546-0.001,0.819-0.006
		c0.112-0.002,0.156,0.027,0.163,0.15c0.022,0.49,0.026,0.49-0.461,0.49C35.38,37.866,35.213,37.866,35.047,37.866z"/>
	<path fill-rule="evenodd" clip-rule="evenodd" fill="#FAFAFB" d="M28.138,37.866c-0.103,0-0.179,0-0.254,0
		c-0.438,0-0.445,0.002-0.584-0.409c-0.038-0.117-0.095-0.149-0.21-0.145c-0.218,0.009-0.438,0.009-0.658,0
		c-0.11-0.004-0.161,0.035-0.196,0.137c-0.149,0.42-0.152,0.419-0.598,0.417c-0.066,0-0.135,0-0.226,0
		c0.252-0.705,0.495-1.388,0.739-2.069c0.079-0.221,0.165-0.439,0.237-0.662c0.034-0.103,0.083-0.138,0.193-0.141
		c0.516-0.016,0.517-0.02,0.691,0.466C27.558,36.249,27.841,37.039,28.138,37.866z M26.793,35.909
		c-0.017,0.001-0.034,0.002-0.052,0.004c-0.07,0.214-0.142,0.429-0.212,0.643c-0.016,0.048-0.056,0.12,0.021,0.129
		c0.143,0.016,0.287,0.01,0.431,0.004c0.071-0.003,0.047-0.06,0.034-0.102C26.941,36.361,26.866,36.135,26.793,35.909z"/>
	<path fill-rule="evenodd" clip-rule="evenodd" fill="#F8F9FA" d="M29.801,34.934c0.112,0.014,0.227,0.018,0.338,0.043
		c0.51,0.119,0.574,0.279,0.321,0.736c-0.058,0.102-0.104,0.05-0.164,0.019c-0.176-0.093-0.359-0.157-0.563-0.147
		c-0.145,0.008-0.282,0.042-0.314,0.204c-0.035,0.17,0.105,0.216,0.228,0.258c0.15,0.051,0.306,0.089,0.455,0.139
		c0.437,0.146,0.642,0.421,0.629,0.834c-0.015,0.43-0.279,0.775-0.704,0.865c-0.412,0.087-0.813,0.035-1.187-0.174
		c-0.107-0.059-0.158-0.124-0.099-0.251c0.064-0.136,0.074-0.333,0.177-0.407c0.104-0.075,0.231,0.106,0.364,0.147
		c0.185,0.058,0.367,0.099,0.558,0.064c0.106-0.019,0.206-0.067,0.215-0.199c0.007-0.119-0.07-0.179-0.17-0.213
		c-0.164-0.056-0.33-0.108-0.494-0.164c-0.503-0.167-0.71-0.468-0.65-0.945c0.057-0.463,0.404-0.772,0.9-0.799
		c0.054-0.003,0.106,0,0.159,0C29.8,34.942,29.801,34.938,29.801,34.934z"/>
	<path fill-rule="evenodd" clip-rule="evenodd" fill="#FAFAFB" d="M32.015,36.756c0-0.311-0.006-0.621,0.002-0.932
		c0.003-0.134-0.033-0.202-0.177-0.181c-0.028,0.004-0.061,0.001-0.091,0.001c-0.503-0.001-0.5-0.001-0.457-0.516
		c0.009-0.096,0.037-0.132,0.134-0.132c0.613,0.002,1.228,0.003,1.841-0.001c0.111,0,0.138,0.042,0.143,0.146
		c0.031,0.5,0.032,0.51-0.47,0.497c-0.198-0.006-0.259,0.042-0.252,0.248c0.016,0.598,0.001,1.197,0.009,1.794
		c0.002,0.151-0.045,0.189-0.191,0.189c-0.49-0.001-0.49,0.004-0.49-0.478C32.015,37.18,32.015,36.968,32.015,36.756z"/>
	<path fill-rule="evenodd" clip-rule="evenodd" fill="#F8F9FA" d="M21.722,24.299c-0.001-0.377,0.243-0.649,0.577-0.645
		c0.324,0.005,0.554,0.271,0.554,0.644c0.001,0.373-0.228,0.64-0.552,0.646C21.966,24.948,21.722,24.678,21.722,24.299z"/>
	<path fill-rule="evenodd" clip-rule="evenodd" fill="#F8F9FA" d="M18.992,24.338c0.144-0.425,0.281-0.829,0.431-1.273
		c0.15,0.443,0.289,0.85,0.434,1.273C19.564,24.338,19.29,24.338,18.992,24.338z"/>
	<path fill-rule="evenodd" clip-rule="evenodd" fill="#EDEEF1" d="M27.532,24.145c-0.106,0-0.213-0.01-0.318,0.002
		c-0.199,0.024-0.223-0.059-0.146-0.215c0.102-0.207,0.253-0.336,0.499-0.324c0.21,0.011,0.387,0.156,0.462,0.374
		c0.039,0.113,0.028,0.173-0.11,0.165C27.79,24.139,27.661,24.145,27.532,24.145z"/>
	<path fill-rule="evenodd" clip-rule="evenodd" fill="#F8F9FA" d="M35.015,50.976c0,0.716-0.001,1.36,0.001,2.004
		c0,0.199-0.059,0.358-0.259,0.433c-0.251,0.092-0.519-0.072-0.52-0.337c-0.008-1.024-0.004-2.048-0.002-3.072
		c0-0.181,0.096-0.296,0.266-0.353c0.227-0.075,0.456-0.013,0.609,0.184c0.308,0.395,0.605,0.796,0.908,1.194
		c0.232,0.304,0.464,0.607,0.744,0.896c0-0.375,0-0.749,0-1.124c0-0.235-0.002-0.47,0-0.706c0.004-0.306,0.147-0.478,0.396-0.479
		c0.24,0,0.399,0.188,0.399,0.478c0.001,0.948-0.002,1.896,0.004,2.844c0.001,0.225-0.08,0.387-0.285,0.464
		c-0.207,0.078-0.392,0.007-0.527-0.161c-0.245-0.308-0.48-0.623-0.72-0.936C35.704,51.881,35.379,51.455,35.015,50.976z"/>
	<path fill-rule="evenodd" clip-rule="evenodd" fill="#F8F9FA" d="M26.5,50.862c-0.299-0.542-0.181-1.137,0.257-1.464
		c0.468-0.351,1.102-0.325,1.479,0.107c0.709,0.809,1.4,1.632,2.061,2.481c0.181,0.23,0.17,0.382-0.019,0.611
		c-0.65,0.788-1.304,1.575-1.957,2.361c-0.078,0.093-0.154,0.192-0.279,0.223c-0.183,0.044-0.335-0.015-0.434-0.17
		c-0.108-0.167-0.076-0.334,0.048-0.481c0.405-0.481,0.812-0.96,1.218-1.439c0.186-0.22,0.368-0.442,0.558-0.659
		c0.09-0.103,0.096-0.186,0.002-0.295c-0.58-0.689-1.152-1.385-1.736-2.072c-0.227-0.268-0.582-0.316-0.887-0.151
		C26.505,50.08,26.394,50.395,26.5,50.862z"/>
	<path fill-rule="evenodd" clip-rule="evenodd" fill="#F8F9FA" d="M31.85,53.442c-0.138,0.01-0.24-0.063-0.326-0.166
		c-0.378-0.455-0.756-0.909-1.131-1.366c-0.189-0.231-0.191-0.402-0.005-0.631c0.396-0.488,0.799-0.972,1.199-1.457
		c0.024-0.03,0.048-0.06,0.076-0.085c0.169-0.158,0.396-0.169,0.554-0.028c0.142,0.126,0.163,0.331,0.024,0.512
		c-0.245,0.318-0.504,0.626-0.76,0.935c-0.324,0.392-0.324,0.389,0.011,0.785c0.231,0.271,0.46,0.544,0.684,0.821
		c0.112,0.141,0.144,0.303,0.053,0.468C32.151,53.376,32.021,53.448,31.85,53.442z"/>
	<path fill-rule="evenodd" clip-rule="evenodd" fill="#FDFDFE" d="M25.596,51.159c0.56,0,1.12-0.001,1.681,0
		c0.309,0.001,0.458,0.123,0.461,0.374c0.004,0.264-0.148,0.399-0.462,0.4c-1.128,0.001-2.256,0.002-3.385,0
		c-0.3,0-0.448-0.133-0.447-0.389c0.001-0.261,0.143-0.383,0.448-0.384C24.459,51.158,25.027,51.159,25.596,51.159z"/>
	<path fill-rule="evenodd" clip-rule="evenodd" fill="#EFF0F3" d="M25.364,52.633c0.492,0,0.985-0.005,1.478,0.002
		c0.34,0.005,0.527,0.291,0.384,0.569c-0.06,0.114-0.15,0.189-0.285,0.194c-0.91,0.026-1.817,0.037-2.727,0.005
		c-0.144-0.005-0.288-0.003-0.433-0.004c-0.208-0.001-0.323-0.122-0.354-0.313c-0.033-0.195,0.052-0.342,0.237-0.417
		c0.174-0.07,0.358-0.047,0.541-0.048c0.386-0.001,0.772,0,1.159,0C25.364,52.625,25.364,52.629,25.364,52.633z"/>
	<path fill-rule="evenodd" clip-rule="evenodd" fill="#FDFDFE" d="M33.61,51.542c0,0.485,0.001,0.97-0.001,1.454
		c-0.001,0.279-0.134,0.433-0.376,0.439c-0.248,0.008-0.41-0.157-0.41-0.433c-0.003-0.978-0.004-1.955,0-2.932
		c0-0.283,0.156-0.446,0.403-0.44c0.24,0.006,0.383,0.164,0.383,0.435C33.611,50.557,33.61,51.049,33.61,51.542z"/>
	<path fill-rule="evenodd" clip-rule="evenodd" fill="#EDEEF1" d="M34.663,46.985c-0.175,0.171-0.346,0.281-0.559,0.285
		c-0.35,0.008-0.612-0.146-0.775-0.456c-0.186-0.356-0.187-0.729-0.071-1.103c0.15-0.491,0.782-0.892,1.396-0.342
		c0-0.313,0.007-0.604-0.003-0.896c-0.004-0.141,0.023-0.197,0.183-0.196c0.157,0,0.166,0.068,0.166,0.191
		c-0.004,0.841,0.001,1.683-0.007,2.524c0,0.087,0.094,0.233-0.114,0.256C34.689,47.271,34.644,47.183,34.663,46.985z
		 M34.657,46.204c-0.003,0-0.006,0-0.009,0c0-0.068,0.009-0.137-0.001-0.204c-0.042-0.305-0.257-0.525-0.524-0.541
		c-0.28-0.017-0.485,0.155-0.573,0.474c-0.048,0.172-0.048,0.342,0.003,0.514c0.09,0.298,0.31,0.49,0.561,0.477
		c0.254-0.013,0.483-0.242,0.532-0.538C34.655,46.326,34.653,46.265,34.657,46.204z"/>
	<path fill-rule="evenodd" clip-rule="evenodd" fill="#EFF0F3" d="M36.749,46.988c0.013,0.159,0.033,0.289-0.179,0.262
		c-0.103-0.013-0.144-0.03-0.143-0.143c0.005-0.895,0.007-1.79-0.001-2.685c-0.001-0.142,0.066-0.14,0.166-0.14
		c0.106,0,0.189-0.006,0.184,0.148c-0.012,0.295-0.004,0.591-0.004,0.879c0.069,0.048,0.09-0.016,0.119-0.038
		c0.398-0.29,0.91-0.208,1.162,0.212c0.276,0.459,0.274,0.942,0.002,1.401C37.783,47.344,37.259,47.385,36.749,46.988z
		 M36.77,46.186c0.001,0.415,0.212,0.706,0.529,0.736c0.313,0.03,0.554-0.229,0.611-0.657c0.002-0.008,0.004-0.015,0.005-0.022
		c0.049-0.457-0.271-0.832-0.662-0.778C36.96,45.504,36.769,45.79,36.77,46.186z"/>
	<path fill-rule="evenodd" clip-rule="evenodd" fill="#F3F4F6" d="M20.984,45.839c0.004-0.71,0.358-1.25,0.939-1.389
		c0.397-0.095,0.758-0.012,1.063,0.291c0.147,0.147-0.002,0.198-0.055,0.287c-0.078,0.132-0.126,0.031-0.183-0.021
		c-0.35-0.315-0.809-0.298-1.134,0.041c-0.396,0.412-0.388,1.221,0.013,1.618c0.316,0.313,0.782,0.323,1.124,0.019
		c0.063-0.057,0.107-0.138,0.188-0.021c0.057,0.086,0.177,0.142,0.053,0.281c-0.357,0.402-1.063,0.451-1.505,0.084
		C21.116,46.72,20.981,46.308,20.984,45.839z"/>
	<path fill-rule="evenodd" clip-rule="evenodd" fill="#EFF0F3" d="M32.224,46.329c-0.183,0-0.365,0.009-0.546-0.002
		c-0.162-0.011-0.151,0.072-0.116,0.177c0.131,0.397,0.609,0.542,0.944,0.292c0.052-0.039,0.093-0.191,0.204-0.043
		c0.091,0.121,0.117,0.207-0.017,0.32c-0.462,0.392-1.184,0.197-1.411-0.398c-0.163-0.419-0.137-0.835,0.12-1.212
		c0.345-0.508,1.043-0.478,1.355,0.048c0.128,0.215,0.171,0.449,0.17,0.695c0,0.098-0.039,0.131-0.137,0.127
		C32.603,46.324,32.412,46.329,32.224,46.329z M31.537,46.02c0.319,0,0.638-0.003,0.954,0.002c0.118,0.001,0.118-0.05,0.094-0.141
		c-0.072-0.262-0.303-0.457-0.535-0.446C31.781,45.446,31.583,45.668,31.537,46.02z"/>
	<path fill-rule="evenodd" clip-rule="evenodd" fill="#F0F1F4" d="M24.261,46.329c-0.182,0-0.363,0.004-0.545-0.001
		c-0.114-0.004-0.146,0.026-0.112,0.144c0.126,0.424,0.616,0.586,0.966,0.317c0.051-0.039,0.092-0.175,0.186-0.041
		c0.067,0.097,0.149,0.175,0.018,0.302c-0.411,0.39-1.148,0.25-1.401-0.282c-0.157-0.328-0.171-0.671-0.06-1.016
		c0.134-0.42,0.437-0.654,0.825-0.648c0.373,0.005,0.661,0.249,0.786,0.668c0.152,0.5,0.112,0.557-0.389,0.557
		C24.442,46.329,24.352,46.329,24.261,46.329z M24.096,46.02c0.137,0,0.273-0.01,0.407,0.002c0.157,0.014,0.158-0.066,0.127-0.175
		c-0.063-0.217-0.285-0.403-0.492-0.413c-0.207-0.009-0.407,0.134-0.503,0.355c-0.068,0.153-0.085,0.262,0.146,0.232
		C23.884,46.009,23.99,46.02,24.096,46.02z"/>
	<path fill-rule="evenodd" clip-rule="evenodd" fill="#F0F1F4" d="M39.247,46.78c0.186-0.526,0.35-0.992,0.512-1.459
		c0.041-0.118,0.076-0.213,0.244-0.206c0.18,0.008,0.13,0.09,0.096,0.185c-0.218,0.602-0.439,1.203-0.658,1.805
		c-0.079,0.22-0.14,0.447-0.26,0.65c-0.175,0.297-0.532,0.371-0.826,0.194c-0.167-0.101-0.07-0.195-0.026-0.301
		c0.063-0.158,0.126-0.026,0.183,0.002c0.126,0.063,0.261,0.089,0.354-0.021c0.118-0.14,0.238-0.294,0.16-0.507
		c-0.218-0.595-0.432-1.191-0.644-1.788c-0.022-0.064-0.122-0.168-0.003-0.201c0.104-0.03,0.257-0.07,0.318,0.112
		c0.147,0.435,0.306,0.867,0.46,1.3C39.177,46.601,39.199,46.656,39.247,46.78z"/>
	<path fill-rule="evenodd" clip-rule="evenodd" fill="#EDEEF1" d="M24.526,50.459c-0.219,0-0.438,0.005-0.657-0.001
		c-0.282-0.008-0.442-0.146-0.447-0.375c-0.005-0.243,0.154-0.401,0.44-0.407c0.454-0.008,0.907-0.007,1.361,0
		c0.27,0.005,0.423,0.163,0.42,0.401c-0.003,0.229-0.15,0.371-0.414,0.381C24.995,50.467,24.761,50.459,24.526,50.459z"/>
	<path fill-rule="evenodd" clip-rule="evenodd" fill="#EDEEF1" d="M29.087,46.333c0-0.234-0.004-0.47,0.002-0.705
		c0.002-0.115-0.01-0.198-0.153-0.176s-0.154-0.063-0.157-0.177c-0.002-0.12,0.038-0.167,0.157-0.155
		c0.218,0.024,0.146-0.141,0.149-0.245c0.017-0.458,0.345-0.72,0.753-0.592c0.099,0.031,0.201,0.052,0.147,0.216
		c-0.045,0.139-0.076,0.182-0.224,0.108c-0.104-0.052-0.228-0.024-0.3,0.089c-0.079,0.123-0.091,0.28-0.028,0.389
		c0.054,0.092,0.21,0.032,0.32,0.033c0.111,0,0.155,0.029,0.163,0.152c0.009,0.165-0.063,0.186-0.2,0.185
		c-0.306-0.003-0.307,0.003-0.307,0.311c0,0.439-0.005,0.879,0.003,1.319c0.002,0.13-0.038,0.165-0.166,0.166
		c-0.129,0.001-0.167-0.038-0.163-0.166C29.093,46.834,29.087,46.583,29.087,46.333z"/>
	<path fill-rule="evenodd" clip-rule="evenodd" fill="#EDEEF1" d="M26.823,46.186c0-0.191-0.003-0.343,0.002-0.494
		c0.006-0.146,0.018-0.277-0.2-0.244c-0.104,0.015-0.09-0.082-0.086-0.146c0.007-0.065-0.041-0.188,0.077-0.174
		c0.256,0.029,0.213-0.138,0.206-0.283c-0.004-0.117-0.002-0.203,0.161-0.197c0.128,0.005,0.187,0.039,0.163,0.167
		c-0.044,0.243,0.042,0.352,0.299,0.308c0.122-0.021,0.21-0.008,0.209,0.169c0,0.19-0.11,0.174-0.221,0.157
		c-0.246-0.039-0.309,0.065-0.291,0.297c0.021,0.264,0,0.53,0.006,0.795c0.007,0.343,0.134,0.44,0.449,0.33
		c0.11-0.038,0.096,0.04,0.111,0.078c0.033,0.084,0.094,0.17-0.036,0.248c-0.301,0.179-0.702,0.033-0.811-0.306
		C26.785,46.647,26.844,46.395,26.823,46.186z"/>
	<path fill-rule="evenodd" clip-rule="evenodd" fill="#F3F4F6" d="M25.717,45.42c0.145-0.194,0.29-0.283,0.469-0.309
		c0.066-0.01,0.177-0.042,0.157,0.085c-0.017,0.094,0.094,0.229-0.087,0.282c-0.419,0.123-0.526,0.273-0.528,0.714
		c-0.001,0.303-0.007,0.606,0.004,0.909c0.004,0.127-0.047,0.148-0.157,0.146c-0.111-0.002-0.18-0.002-0.178-0.151
		c0.01-0.575,0-1.151,0.009-1.727c0.001-0.089-0.089-0.234,0.118-0.252C25.731,45.098,25.714,45.231,25.717,45.42z"/>
	<path fill-rule="evenodd" clip-rule="evenodd" fill="#F0F1F4" d="M28.454,46.197c0,0.303-0.006,0.606,0.003,0.908
		c0.005,0.137-0.063,0.141-0.165,0.142c-0.104,0-0.165-0.006-0.164-0.141c0.008-0.613,0.008-1.226,0.001-1.839
		c-0.002-0.128,0.053-0.15,0.163-0.148c0.105,0.001,0.168,0.016,0.165,0.147C28.449,45.576,28.454,45.887,28.454,46.197z"/>
	<path fill-rule="evenodd" clip-rule="evenodd" fill="#F0F1F4" d="M30.453,46.174c0-0.303,0.007-0.606-0.002-0.909
		c-0.004-0.131,0.056-0.147,0.164-0.146c0.106,0,0.164,0.019,0.163,0.149c-0.005,0.613-0.006,1.226,0.001,1.839
		c0.001,0.138-0.066,0.139-0.167,0.14c-0.105,0.002-0.166-0.009-0.161-0.142C30.461,46.795,30.453,46.484,30.453,46.174z"/>
	<path fill-rule="evenodd" clip-rule="evenodd" fill="#EDEEF1" d="M30.829,44.466c-0.006,0.14-0.059,0.259-0.214,0.265
		c-0.155,0.006-0.226-0.11-0.226-0.253c0.001-0.142,0.063-0.256,0.225-0.254C30.759,44.226,30.82,44.325,30.829,44.466z"/>
	<path fill-rule="evenodd" clip-rule="evenodd" fill="#F0F1F4" d="M28.506,44.455c0.003,0.158-0.061,0.268-0.213,0.275
		c-0.161,0.009-0.221-0.118-0.222-0.254c0-0.138,0.069-0.256,0.227-0.251C28.438,44.228,28.508,44.323,28.506,44.455z"/>
	<path fill-rule="evenodd" clip-rule="evenodd" fill="#5A7595" d="M37.55,36.052c0-0.016-0.003-0.031,0-0.046
		c0.035-0.144-0.119-0.384,0.22-0.367c0.371,0.019,0.521,0.117,0.526,0.409c0.005,0.268-0.127,0.404-0.393,0.41
		c-0.031,0.001-0.062-0.004-0.091,0.001c-0.227,0.042-0.297-0.062-0.264-0.273C37.558,36.143,37.55,36.097,37.55,36.052z"/>
	<path fill-rule="evenodd" clip-rule="evenodd" fill="#5A7595" d="M26.793,35.909c0.073,0.226,0.148,0.453,0.222,0.679
		c0.013,0.042,0.037,0.098-0.034,0.102c-0.144,0.006-0.288,0.012-0.431-0.004c-0.076-0.009-0.036-0.081-0.021-0.129
		c0.07-0.214,0.142-0.429,0.212-0.643C26.759,35.911,26.776,35.91,26.793,35.909z"/>
	<path fill-rule="evenodd" clip-rule="evenodd" fill="#1C315B" d="M34.657,46.204c-0.004,0.061-0.002,0.123-0.012,0.182
		c-0.049,0.296-0.278,0.525-0.532,0.538c-0.251,0.013-0.471-0.178-0.561-0.477c-0.051-0.172-0.051-0.341-0.003-0.514
		c0.088-0.319,0.293-0.491,0.573-0.474c0.268,0.015,0.482,0.235,0.524,0.541c0.01,0.067,0.001,0.136,0.001,0.204
		C34.651,46.204,34.654,46.204,34.657,46.204z"/>
	<path fill-rule="evenodd" clip-rule="evenodd" fill="#1C315B" d="M36.77,46.186c-0.001-0.396,0.19-0.681,0.483-0.721
		c0.392-0.054,0.711,0.321,0.662,0.778c-0.001,0.007-0.003,0.015-0.005,0.022c-0.058,0.428-0.298,0.687-0.611,0.657
		C36.981,46.892,36.771,46.6,36.77,46.186z"/>
	<path fill-rule="evenodd" clip-rule="evenodd" fill="#1C315B" d="M31.537,46.02c0.046-0.352,0.244-0.573,0.513-0.585
		c0.232-0.011,0.463,0.185,0.535,0.446c0.024,0.091,0.024,0.142-0.094,0.141C32.175,46.016,31.856,46.02,31.537,46.02z"/>
	<path fill-rule="evenodd" clip-rule="evenodd" fill="#1C315B" d="M24.096,46.02c-0.105,0-0.212-0.011-0.315,0.002
		c-0.23,0.03-0.214-0.08-0.146-0.232c0.096-0.222,0.296-0.365,0.503-0.355c0.207,0.01,0.429,0.195,0.492,0.413
		c0.031,0.109,0.03,0.189-0.127,0.175C24.369,46.01,24.232,46.02,24.096,46.02z"/>
</g>
</svg>
