<?xml version="1.0" encoding="utf-8"?>
<!-- Generator: Adobe Illustrator 16.0.0, SVG Export Plug-In . SVG Version: 6.00 Build 0)  -->
<!DOCTYPE svg PUBLIC "-//W3C//DTD SVG 1.1//EN" "http://www.w3.org/Graphics/SVG/1.1/DTD/svg11.dtd">
<svg version="1.1" id="Layer_1" xmlns="http://www.w3.org/2000/svg" xmlns:xlink="http://www.w3.org/1999/xlink" x="0px" y="0px"
	 width="72px" height="72px" viewBox="0 0 72 72" enable-background="new 0 0 72 72" xml:space="preserve">
<g>
	<path fill-rule="evenodd" clip-rule="evenodd" fill="#019DDF" d="M35.263,7.434c0.04,0.073,0.022,0.151,0.022,0.227
		c0,1.188-0.008,2.375,0.008,3.563c0.003,0.247-0.076,0.285-0.299,0.284c-6.068-0.006-12.136-0.004-18.203-0.008
		c-0.196,0-0.339,0.05-0.485,0.192c-2.252,2.173-4.505,4.342-6.771,6.5c-0.269,0.257-0.388,0.507-0.386,0.891
		c0.016,4.017,0.011,8.034,0.01,12.051c0,1.854,0.192,3.689,0.525,5.512c0.009,0.045,0.025,0.089,0.039,0.133
		c0.129,0.75,0.305,1.488,0.507,2.221c0.363,1.32,0.783,2.62,1.333,3.876c0.368,0.973,0.824,1.904,1.307,2.824
		c1.902,3.616,4.361,6.813,7.271,9.674c1.343,1.32,2.762,2.552,4.253,3.698c3.306,2.54,6.883,4.623,10.687,6.318
		c0.159,0.072,0.214,0.153,0.211,0.325c-0.009,0.871-0.006,1.742-0.003,2.613c0.002,0.261-0.025,0.522,0.019,0.783
		c-0.154,0-0.309,0-0.462,0c-0.475-0.121-0.948-0.231-1.399-0.433c-3.163-1.414-6.191-3.068-9.058-5.017
		c-4.438-3.017-8.352-6.593-11.591-10.887c-2.655-3.518-4.715-7.353-6.054-11.561c-0.813-2.555-1.329-5.169-1.521-7.845
		c-0.016-0.223,0.017-0.456-0.08-0.669c0-4.858,0-9.716,0-14.574c0.011-0.01,0.03-0.018,0.031-0.028
		c0.152-0.74,0.528-1.365,1.037-1.904c1.003-1.064,2.027-2.11,3.045-3.162c1.318-1.361,2.653-2.706,3.954-4.085
		c0.809-0.859,1.739-1.433,2.936-1.52c0.1,0.004,0.2,0.011,0.3,0.011c5.681,0,11.359,0,17.04,0
		C34.076,7.438,34.67,7.436,35.263,7.434z"/>
	<path fill-rule="evenodd" clip-rule="evenodd" fill="#012A5A" d="M62.236,36.776c0.147-0.48,0.196-0.979,0.271-1.472
		c0.269-1.795,0.324-3.603,0.321-5.415c-0.007-3.685-0.004-7.371,0.002-11.056c0.001-0.176-0.05-0.3-0.177-0.422
		c-1.752-1.679-3.5-3.363-5.249-5.045c-0.577-0.555-1.157-1.108-1.729-1.67c-0.14-0.139-0.282-0.199-0.484-0.198
		c-6.075,0.005-12.149,0.003-18.226,0.009c-0.218,0-0.28-0.043-0.276-0.272c0.014-1.264,0.008-2.528,0.011-3.792
		c0.077-0.001,0.153-0.005,0.23-0.005c6.231,0,12.463,0,18.694-0.001c0.077,0,0.153-0.004,0.23-0.008
		c0.979,0.083,1.843,0.445,2.529,1.146c2.076,2.119,4.141,4.249,6.198,6.383c0.55,0.57,1.147,1.1,1.598,1.76
		c0.337,0.494,0.604,1.018,0.645,1.631c-0.004,0.046-0.011,0.092-0.011,0.138c-0.001,4.305-0.001,8.609,0.001,12.914
		c0,0.063-0.031,0.141,0.045,0.188c0,0.139,0,0.278,0,0.417c-0.077,0.036-0.043,0.107-0.046,0.162
		c-0.051,1.527-0.211,3.042-0.476,4.545c-0.74,4.186-2.212,8.103-4.329,11.782c-2.847,4.943-6.596,9.102-11.029,12.663
		c-3.414,2.74-7.123,5.007-11.073,6.882c-0.749,0.354-1.483,0.748-2.295,0.957c-0.167,0.043-0.347,0.024-0.501,0.114
		c-0.139,0-0.278,0-0.417,0c0-1.165,0.003-2.329-0.003-3.492c-0.002-0.132,0.069-0.167,0.164-0.21
		c1.104-0.487,2.19-1.013,3.257-1.576c5.419-2.861,10.241-6.488,14.24-11.159c2.516-2.938,4.563-6.169,6.05-9.746
		c0.03-0.076,0.063-0.153,0.094-0.229c0.541-1.331,0.997-2.689,1.346-4.083C61.994,38.008,62.164,37.401,62.236,36.776z"/>
	<path fill-rule="evenodd" clip-rule="evenodd" fill="#8196AD" d="M55.848,7.392c0.003,0.012,0.006,0.024,0.007,0.037
		c-0.077,0.003-0.153,0.008-0.23,0.008C49.393,7.438,43.161,7.438,36.93,7.438c-0.077,0-0.153,0.003-0.23,0.005
		c-0.003-0.017-0.003-0.034-0.006-0.051C43.078,7.392,49.463,7.392,55.848,7.392z"/>
	<path fill-rule="evenodd" clip-rule="evenodd" fill="#7FCDEE" d="M16.144,7.427c0-0.012,0.002-0.024,0.008-0.035
		c6.37,0,12.739,0,19.108,0c0.006,0.014,0.007,0.028,0.003,0.042c-0.593,0.002-1.187,0.004-1.779,0.004c-5.681,0-11.359,0-17.04,0
		C16.344,7.438,16.243,7.431,16.144,7.427z"/>
	<path fill-rule="evenodd" clip-rule="evenodd" fill="#8196AD" d="M66.824,18.349l0.021-0.009l0.015,0.017c0,4.411,0,8.821,0,13.232
		c-0.076-0.048-0.045-0.125-0.045-0.188c-0.002-4.305-0.002-8.609-0.001-12.914C66.813,18.441,66.82,18.395,66.824,18.349z"/>
	<path fill-rule="evenodd" clip-rule="evenodd" fill="#597494" d="M60.401,42.928c-0.028-0.063-0.086-0.056-0.14-0.056
		c-0.06-0.003-0.122-0.001-0.185-0.001c-16.078,0-32.158,0-48.238,0c-0.092,0-0.185,0.003-0.276,0.004
		c-0.55-1.256-0.97-2.556-1.333-3.876c-0.202-0.733-0.378-1.472-0.507-2.221c17.45,0,34.9,0,52.351,0
		c0.055,0,0.108-0.001,0.163-0.001c-0.072,0.625-0.242,1.232-0.396,1.839c-0.349,1.394-0.805,2.752-1.346,4.083
		C60.464,42.774,60.432,42.852,60.401,42.928z M31.605,39.759c0.312,0.461,0.6,0.858,0.854,1.275
		c0.126,0.208,0.273,0.269,0.504,0.262c0.188-0.007,0.252-0.05,0.25-0.247c-0.012-0.74-0.006-1.479-0.006-2.219
		c0-0.478,0-0.471-0.475-0.475c-0.16-0.001-0.211,0.044-0.207,0.207c0.011,0.419,0.004,0.84,0.004,1.328
		c-0.308-0.456-0.591-0.848-0.841-1.257c-0.128-0.21-0.27-0.296-0.519-0.281c-0.186,0.011-0.251,0.049-0.247,0.247
		c0.011,0.739,0.004,1.479,0.004,2.218c0,0.479,0,0.472,0.476,0.475c0.161,0,0.211-0.044,0.206-0.207
		C31.599,40.666,31.605,40.246,31.605,39.759z M49.516,39.796c-0.018,0.007-0.033,0.012-0.049,0.02
		c-0.267-0.393-0.545-0.778-0.792-1.182c-0.128-0.208-0.269-0.299-0.518-0.281c-0.175,0.012-0.236,0.046-0.233,0.234
		c0.011,0.753,0.005,1.508,0.005,2.263c0,0.443,0,0.431,0.432,0.444c0.203,0.007,0.241-0.069,0.236-0.251
		c-0.015-0.396-0.004-0.792-0.004-1.2c0.109,0.033,0.131,0.113,0.173,0.173c0.224,0.331,0.462,0.654,0.664,0.998
		c0.132,0.224,0.292,0.297,0.541,0.282c0.174-0.01,0.222-0.058,0.22-0.228c-0.008-0.748-0.004-1.494-0.004-2.24
		c0-0.479,0-0.473-0.479-0.471c-0.146,0.001-0.2,0.04-0.197,0.195C49.522,38.966,49.516,39.382,49.516,39.796z M34.166,39.815
		c0,0.431-0.001,0.862,0.001,1.294c0,0.072-0.021,0.177,0.095,0.174c0.512-0.016,1.039,0.095,1.535-0.087
		c0.555-0.203,0.784-0.663,0.826-1.225c0.063-0.855-0.375-1.539-1.191-1.597c-0.375-0.026-0.752-0.008-1.13-0.014
		c-0.141-0.002-0.137,0.088-0.137,0.185C34.166,38.97,34.166,39.393,34.166,39.815z M44.435,39.86
		c0.01,0.083,0.018,0.199,0.034,0.313c0.089,0.594,0.511,1.043,1.077,1.154c0.52,0.1,1.052-0.142,1.318-0.644
		c0.318-0.602,0.314-1.219-0.053-1.799c-0.425-0.671-1.327-0.781-1.904-0.244C44.565,38.957,44.446,39.374,44.435,39.86z
		 M26.933,39.796c0.015-0.137-0.02-0.296-0.058-0.452c-0.149-0.61-0.644-1.026-1.229-1.04c-0.584-0.016-1.07,0.351-1.265,0.956
		c-0.141,0.434-0.126,0.869,0.058,1.284c0.216,0.493,0.595,0.784,1.143,0.797c0.546,0.013,0.937-0.254,1.181-0.738
		C26.886,40.358,26.938,40.096,26.933,39.796z M29.979,39.418c0-0.234,0-0.412,0-0.588c0-0.483,0-0.476-0.493-0.474
		c-0.157,0.002-0.194,0.053-0.193,0.202c0.01,0.484,0.003,0.969,0.005,1.455c0.001,0.132-0.011,0.262-0.064,0.383
		c-0.066,0.156-0.185,0.249-0.354,0.25c-0.178,0.002-0.31-0.08-0.377-0.25c-0.066-0.167-0.081-0.343-0.081-0.521
		c-0.002-0.44,0-0.878-0.002-1.318c-0.001-0.064,0.031-0.172-0.05-0.182c-0.189-0.019-0.383-0.012-0.574-0.001
		c-0.065,0.003-0.06,0.08-0.059,0.133c0.009,0.608-0.034,1.218,0.033,1.824c0.066,0.607,0.469,0.995,1.035,1.015
		c0.615,0.02,1.021-0.32,1.139-0.947C30.01,40.053,29.96,39.706,29.979,39.418z M39.482,41.288c0.03,0,0.062,0,0.092,0
		c0.268,0,0.268,0,0.176-0.254c-0.268-0.746-0.534-1.492-0.802-2.236c-0.16-0.445-0.161-0.438-0.64-0.442
		c-0.153,0-0.216,0.059-0.26,0.195c-0.095,0.292-0.204,0.58-0.308,0.868c-0.199,0.558-0.399,1.115-0.597,1.672
		c-0.023,0.066-0.11,0.157,0.041,0.194c0.398,0.098,0.596-0.003,0.708-0.386c0.042-0.142,0.101-0.204,0.255-0.192
		c0.184,0.013,0.371,0.019,0.553-0.001c0.194-0.02,0.261,0.061,0.318,0.236C39.153,41.352,39.049,41.279,39.482,41.288z
		 M22.722,38.36c-0.239,0-0.479,0.011-0.717-0.003c-0.172-0.009-0.223,0.043-0.221,0.219c0.01,0.816,0.012,1.633-0.001,2.448
		c-0.004,0.209,0.047,0.278,0.266,0.27c0.424-0.017,0.425-0.003,0.425-0.432c0-0.574,0-0.574,0.57-0.574c0.476,0,0.47,0,0.468-0.468
		c-0.001-0.138-0.03-0.191-0.178-0.184c-0.223,0.013-0.447-0.004-0.67,0.007c-0.152,0.008-0.199-0.044-0.193-0.196
		c0.017-0.514-0.063-0.412,0.428-0.424c0.092-0.002,0.185,0,0.276,0c0.489,0,0.482,0,0.477-0.489
		c-0.002-0.153-0.061-0.178-0.19-0.174C23.214,38.367,22.968,38.36,22.722,38.36z M40.771,40.152c0,0.216,0,0.432,0,0.647
		c0,0.5,0,0.494,0.498,0.493c0.148-0.001,0.198-0.04,0.195-0.194c-0.01-0.494-0.009-0.986-0.001-1.479
		c0.002-0.189-0.086-0.433,0.041-0.552c0.097-0.09,0.336-0.027,0.512-0.034c0.058-0.003,0.156,0.024,0.161-0.047
		c0.018-0.19,0.012-0.382,0.004-0.574c-0.003-0.052-0.071-0.049-0.116-0.049c-0.624-0.001-1.247,0.001-1.871-0.001
		c-0.102-0.001-0.125,0.045-0.133,0.139c-0.041,0.53-0.042,0.53,0.479,0.532c0.023,0,0.047,0.003,0.07,0
		c0.138-0.02,0.166,0.05,0.164,0.173C40.767,39.521,40.771,39.837,40.771,40.152z M43.588,39.849c0-0.339,0-0.677,0-1.016
		c0-0.481,0-0.475-0.486-0.477c-0.163,0-0.208,0.05-0.207,0.21c0.009,0.738,0.004,1.477,0.004,2.215c0,0.532,0,0.525,0.524,0.511
		c0.133-0.004,0.17-0.046,0.168-0.175C43.583,40.694,43.588,40.271,43.588,39.849z"/>
	<path fill-rule="evenodd" clip-rule="evenodd" fill="#07305E" d="M45.935,26.494c0.422-0.395,1.001-0.468,1.428,0.096
		c0.175-0.232,0.399-0.383,0.694-0.406c0.561-0.042,0.939,0.305,0.978,0.953c0.033,0.56,0.012,1.124,0.013,1.687
		c0.001,0.065,0,0.125-0.092,0.123c-0.154-0.003-0.309-0.001-0.462-0.001c-0.131,0-0.093-0.099-0.094-0.167
		c-0.003-0.416-0.002-0.832-0.001-1.248c0.001-0.117-0.012-0.23-0.041-0.342c-0.048-0.171-0.146-0.292-0.328-0.313
		c-0.187-0.021-0.327,0.065-0.42,0.226c-0.078,0.138-0.097,0.29-0.097,0.445c0.002,0.401-0.005,0.801,0.003,1.202
		c0.003,0.144-0.026,0.201-0.188,0.2c-0.464-0.002-0.46,0.006-0.466-0.45c-0.005-0.393,0.03-0.786-0.021-1.177
		c-0.04-0.308-0.176-0.451-0.398-0.451c-0.229,0-0.418,0.19-0.45,0.472c-0.047,0.407-0.016,0.816-0.02,1.224
		c-0.006,0.378-0.003,0.359-0.374,0.384c-0.247,0.016-0.289-0.069-0.284-0.293c0.015-0.717,0.018-1.434-0.003-2.149
		c-0.006-0.253,0.077-0.326,0.307-0.288c0.029,0.005,0.062,0.004,0.092,0C45.884,26.195,46.003,26.226,45.935,26.494z"/>
	<path fill-rule="evenodd" clip-rule="evenodd" fill="#07305E" d="M40.387,22.159c0-0.606,0.005-1.212-0.004-1.819
		c-0.002-0.163,0.025-0.228,0.211-0.223c0.457,0.012,0.457,0.001,0.457,0.458c0,0.947-0.004,1.895,0.005,2.842
		c0.002,0.186-0.041,0.239-0.236,0.249c-0.249,0.014-0.386-0.077-0.514-0.282c-0.339-0.541-0.703-1.066-1.058-1.597
		c-0.041-0.061-0.083-0.121-0.169-0.17c0,0.203,0,0.407,0,0.61c0,0.416-0.006,0.832,0.002,1.248
		c0.003,0.139-0.036,0.184-0.181,0.186c-0.488,0.005-0.488,0.011-0.488-0.474c0-0.948,0.006-1.896-0.005-2.843
		c-0.002-0.189,0.06-0.219,0.233-0.229c0.243-0.015,0.387,0.063,0.519,0.273c0.379,0.605,0.787,1.192,1.183,1.787
		C40.356,22.168,40.373,22.164,40.387,22.159z"/>
	<path fill-rule="evenodd" clip-rule="evenodd" fill="#052E5D" d="M26.578,29.018c0.359,0.248,0.725,0.413,1.134,0.209
		c0.271-0.134,0.289-0.406,0.282-0.702c-0.384,0.339-0.793,0.382-1.205,0.136c-0.459-0.273-0.594-0.727-0.581-1.231
		c0.009-0.391,0.133-0.742,0.439-1.006c0.396-0.342,0.902-0.322,1.358,0.051c0.088-0.064-0.049-0.228,0.084-0.246
		c0.172-0.023,0.353-0.003,0.527,0.004c0.013,0,0.033,0.049,0.033,0.076c-0.023,0.892,0.076,1.79-0.053,2.677
		c-0.095,0.652-0.538,0.989-1.198,0.973c-0.333-0.009-0.655-0.076-0.942-0.268c-0.108-0.072-0.14-0.141-0.072-0.262
		C26.456,29.303,26.509,29.167,26.578,29.018z M28.003,27.502c0.002-0.388-0.223-0.661-0.552-0.67
		c-0.33-0.009-0.59,0.286-0.587,0.667c0.002,0.372,0.248,0.655,0.572,0.658C27.764,28.16,28.001,27.886,28.003,27.502z"/>
	<path fill-rule="evenodd" clip-rule="evenodd" fill="#07305E" d="M31.234,21.885c0-0.532,0.003-1.063-0.004-1.595
		c-0.001-0.127,0.03-0.173,0.166-0.171c0.616,0.007,1.233,0.007,1.85,0c0.134-0.002,0.164,0.042,0.167,0.17
		c0.007,0.499,0.012,0.499-0.483,0.499c-0.285,0-0.569,0.006-0.855-0.002c-0.133-0.004-0.167,0.042-0.17,0.171
		c-0.017,0.583-0.02,0.583,0.565,0.583c0.2,0,0.4,0.005,0.601-0.001c0.109-0.003,0.161,0.014,0.166,0.146
		c0.018,0.505,0.022,0.505-0.479,0.505c-0.239,0-0.479,0.004-0.718-0.001c-0.098-0.002-0.146,0.028-0.133,0.13
		c0.001,0.008,0,0.016,0,0.023c-0.03,0.641-0.03,0.641,0.614,0.641c0.269,0,0.539,0.009,0.808-0.003
		c0.176-0.008,0.157,0.116,0.129,0.195c-0.058,0.158,0.17,0.451-0.126,0.469c-0.653,0.041-1.31,0.009-1.966,0.016
		c-0.147,0.001-0.133-0.083-0.133-0.178C31.234,22.949,31.234,22.417,31.234,21.885z"/>
	<path fill-rule="evenodd" clip-rule="evenodd" fill="#07305E" d="M26.146,28.93c-0.035,0.008-0.042,0.01-0.05,0.011
		c-0.639,0.027-0.643,0.028-0.845-0.573c-0.044-0.129-0.098-0.186-0.243-0.182c-0.321,0.012-0.646,0.01-0.97,0
		c-0.13-0.004-0.204,0.033-0.228,0.164c-0.008,0.045-0.028,0.088-0.042,0.131c-0.158,0.47-0.158,0.464-0.655,0.466
		c-0.168,0.001-0.191-0.031-0.132-0.192c0.283-0.754,0.551-1.514,0.825-2.271c0.109-0.303,0.229-0.603,0.329-0.91
		c0.04-0.122,0.094-0.168,0.226-0.168c0.502-0.002,0.502-0.008,0.67,0.457C25.4,26.88,25.77,27.896,26.146,28.93z M24.529,26.25
		c-0.09,0.255-0.169,0.444-0.224,0.641c-0.062,0.218-0.271,0.496-0.156,0.632c0.098,0.115,0.433,0.025,0.662,0.036
		c0.141,0.007,0.149-0.047,0.109-0.163C24.794,27.036,24.674,26.673,24.529,26.25z"/>
	<path fill-rule="evenodd" clip-rule="evenodd" fill="#07305E" d="M33.816,20.141c0.04-0.012,0.047-0.015,0.053-0.017
		c0.508-0.101,0.866,0.055,1.046,0.572c0.067,0.19,0.201,0.357,0.314,0.551c0.182-0.318,0.358-0.607,0.511-0.908
		c0.084-0.164,0.181-0.252,0.37-0.219c0.147,0.026,0.357-0.074,0.429,0.045c0.057,0.096-0.111,0.248-0.182,0.373
		c-0.218,0.38-0.437,0.76-0.666,1.132c-0.07,0.115-0.07,0.198-0.002,0.313c0.324,0.54,0.64,1.084,0.983,1.671
		c-0.263,0-0.494,0.002-0.727-0.001c-0.086-0.001-0.104-0.082-0.137-0.14c-0.197-0.345-0.393-0.691-0.606-1.065
		c-0.2,0.36-0.393,0.689-0.565,1.026c-0.074,0.145-0.164,0.2-0.325,0.187c-0.168-0.014-0.337-0.003-0.506-0.003
		c-0.044-0.086,0.024-0.134,0.057-0.187c0.278-0.478,0.554-0.958,0.847-1.428c0.085-0.139,0.082-0.235,0-0.372
		C34.408,21.171,34.121,20.664,33.816,20.141z"/>
	<path fill-rule="evenodd" clip-rule="evenodd" fill="#052E5D" d="M36.599,28.999c-0.36-0.002-0.696-0.096-1.008-0.282
		c-0.127-0.076-0.172-0.154-0.103-0.297c0.064-0.13,0.068-0.33,0.167-0.393c0.111-0.071,0.232,0.112,0.359,0.166
		c0.247,0.102,0.494,0.164,0.762,0.125c0.192-0.028,0.346-0.107,0.376-0.313c0.028-0.218-0.127-0.32-0.3-0.384
		c-0.23-0.085-0.469-0.148-0.698-0.234c-0.479-0.179-0.682-0.485-0.664-0.987c0.017-0.484,0.299-0.865,0.754-0.992
		c0.449-0.125,0.882-0.063,1.299,0.144c0.138,0.068,0.171,0.15,0.109,0.29c-0.059,0.133-0.062,0.326-0.159,0.396
		c-0.096,0.07-0.229-0.099-0.357-0.141c-0.208-0.068-0.418-0.103-0.635-0.061c-0.183,0.036-0.309,0.133-0.332,0.331
		c-0.022,0.197,0.091,0.3,0.257,0.359c0.237,0.084,0.482,0.153,0.719,0.241c0.499,0.186,0.717,0.509,0.682,0.997
		c-0.036,0.522-0.339,0.879-0.839,0.995C36.859,28.987,36.73,29.006,36.599,28.999z"/>
	<path fill-rule="evenodd" clip-rule="evenodd" fill="#052E5D" d="M33.432,28.089c0.069,0.09,0.125,0.187,0.203,0.259
		c0.181,0.17,0.091,0.284-0.06,0.402c-0.568,0.445-1.477,0.249-1.805-0.411c-0.269-0.539-0.254-1.089,0.053-1.612
		c0.225-0.383,0.576-0.57,1.023-0.542c0.42,0.027,0.716,0.247,0.906,0.619c0.138,0.269,0.171,0.554,0.169,0.851
		c-0.001,0.128-0.048,0.152-0.163,0.151c-0.446-0.005-0.894,0.005-1.339-0.006c-0.174-0.004-0.175,0.053-0.117,0.18
		c0.158,0.351,0.601,0.47,0.943,0.25C33.309,28.188,33.366,28.138,33.432,28.089z M33.301,27.333
		c-0.08-0.358-0.249-0.535-0.506-0.547c-0.229-0.011-0.456,0.167-0.526,0.408c-0.026,0.091-0.027,0.144,0.094,0.141
		C32.67,27.329,32.978,27.333,33.301,27.333z"/>
	<path fill-rule="evenodd" clip-rule="evenodd" fill="#052E5D" d="M44.105,28.655c-0.16,0.156-0.296,0.263-0.475,0.302
		c-0.554,0.119-1.02-0.208-1.106-0.799c-0.089-0.605-0.022-1.215-0.04-1.823c-0.001-0.044-0.009-0.105,0.055-0.107
		c0.178-0.006,0.354-0.009,0.531-0.002c0.098,0.004,0.061,0.093,0.061,0.146c0.004,0.393-0.001,0.786,0.004,1.179
		c0.002,0.13,0.015,0.262,0.041,0.39c0.036,0.179,0.137,0.306,0.331,0.338c0.197,0.031,0.346-0.045,0.451-0.207
		c0.121-0.183,0.124-0.395,0.128-0.601c0.007-0.362,0.008-0.725-0.001-1.087c-0.003-0.133,0.039-0.165,0.168-0.166
		c0.483-0.006,0.483-0.011,0.483,0.473c0,0.679-0.005,1.356,0.005,2.035c0.002,0.166-0.031,0.25-0.213,0.219
		c-0.046-0.008-0.094-0.006-0.139,0C44.203,28.968,44.05,28.954,44.105,28.655z"/>
	<path fill-rule="evenodd" clip-rule="evenodd" fill="#052E5D" d="M38.127,27.587c-0.001-0.729,0.387-1.262,1.01-1.387
		c0.483-0.096,0.949,0.118,1.154,0.524c0.05,0.1,0.076,0.183-0.056,0.237c-0.043,0.017-0.081,0.046-0.116,0.076
		c-0.151,0.118-0.258,0.205-0.423-0.033c-0.202-0.289-0.624-0.209-0.801,0.122c-0.159,0.298-0.161,0.611,0,0.908
		c0.196,0.363,0.632,0.392,0.865,0.052c0.09-0.13,0.15-0.119,0.247-0.034c0.022,0.02,0.052,0.034,0.077,0.052
		c0.31,0.206,0.314,0.258,0.055,0.546c-0.527,0.582-1.539,0.372-1.876-0.391C38.17,28.046,38.125,27.821,38.127,27.587z"/>
	<path fill-rule="evenodd" clip-rule="evenodd" fill="#07305E" d="M37.713,21.873c0,0.539-0.004,1.077,0.002,1.615
		c0.002,0.128-0.031,0.169-0.165,0.172c-0.511,0.009-0.511,0.015-0.511-0.498c0-0.946,0.004-1.893-0.004-2.838
		c-0.001-0.162,0.043-0.208,0.206-0.206c0.472,0.006,0.472-0.001,0.472,0.463C37.713,21.011,37.713,21.442,37.713,21.873z"/>
	<path fill-rule="evenodd" clip-rule="evenodd" fill="#012A5A" d="M31.142,27.066c0,0.561-0.004,1.123,0.003,1.685
		c0.003,0.142-0.024,0.199-0.186,0.197c-0.466-0.004-0.466,0.004-0.466-0.468c0-1.024,0.005-2.047-0.003-3.07
		c-0.001-0.165,0.028-0.224,0.21-0.219c0.441,0.013,0.441,0.002,0.441,0.444C31.142,26.112,31.142,26.589,31.142,27.066z"/>
	<path fill-rule="evenodd" clip-rule="evenodd" fill="#052E5D" d="M41.379,26.501c0.169-0.175,0.354-0.271,0.573-0.311
		c0.122-0.023,0.194-0.001,0.181,0.145c-0.008,0.084-0.009,0.17,0,0.254c0.024,0.212,0.004,0.343-0.279,0.342
		c-0.263-0.001-0.436,0.269-0.443,0.61c-0.011,0.408-0.009,0.815-0.002,1.223c0.003,0.138-0.032,0.184-0.179,0.185
		c-0.473,0.003-0.473,0.01-0.473-0.462c0-0.685,0.005-1.369-0.004-2.053c-0.003-0.168,0.034-0.246,0.212-0.212
		c0.037,0.007,0.076,0.004,0.114,0C41.276,26.198,41.435,26.217,41.379,26.501z"/>
	<path fill-rule="evenodd" clip-rule="evenodd" fill="#012B5A" d="M29.893,27.588c0,0.4-0.004,0.801,0.002,1.201
		c0.002,0.118-0.029,0.155-0.154,0.159c-0.496,0.013-0.496,0.019-0.496-0.484c0-0.685,0.006-1.371-0.003-2.056
		c-0.001-0.151,0.039-0.191,0.189-0.189c0.462,0.004,0.462-0.002,0.462,0.468C29.893,26.987,29.893,27.288,29.893,27.588z"/>
	<path fill-rule="evenodd" clip-rule="evenodd" fill="#07305E" d="M29.555,25.853c-0.229-0.006-0.399-0.199-0.395-0.448
		c0.006-0.252,0.181-0.434,0.414-0.432c0.237,0.001,0.408,0.186,0.404,0.436C29.974,25.675,29.798,25.858,29.555,25.853z"/>
	<path fill-rule="evenodd" clip-rule="evenodd" fill="#012B5A" d="M57.345,44.658c-0.583,1.192-1.226,2.303-1.926,3.38
		c-1.473,2.271-3.188,4.345-5.113,6.247c-3.281,3.246-7.007,5.887-11.086,8.033c-1.007,0.53-2.031,1.024-3.069,1.489
		c-0.101,0.046-0.187,0.072-0.3,0.022c-4.826-2.163-9.252-4.944-13.143-8.543c-3.142-2.904-5.779-6.203-7.768-10.003
		c-0.078-0.15-0.146-0.307-0.232-0.451c-0.092-0.153-0.034-0.188,0.114-0.176c0.046,0.005,0.093,0.001,0.138,0.001
		c14.031,0,28.063,0,42.093,0C57.137,44.658,57.22,44.658,57.345,44.658z M42.359,55.572c-0.015,0.005-0.03,0.009-0.046,0.013
		c-0.255-0.333-0.509-0.667-0.764-1c-0.289-0.38-0.574-0.763-0.87-1.137c-0.159-0.202-0.396-0.267-0.62-0.19
		c-0.193,0.067-0.273,0.215-0.273,0.41c-0.001,1.009-0.003,2.018,0.001,3.027c0.002,0.248,0.175,0.412,0.405,0.408
		c0.232-0.003,0.384-0.165,0.387-0.423c0.006-0.593,0.006-1.186,0.011-1.779c0.001-0.072-0.029-0.15,0.04-0.238
		c0.07,0.091,0.133,0.172,0.197,0.255c0.501,0.654,0.998,1.31,1.501,1.963c0.148,0.191,0.385,0.272,0.57,0.188
		c0.194-0.087,0.271-0.244,0.269-0.464c-0.008-0.964-0.003-1.927-0.004-2.889c0-0.311-0.143-0.484-0.396-0.483
		c-0.26,0-0.4,0.162-0.407,0.48c-0.004,0.292-0.001,0.584-0.001,0.879C42.359,54.918,42.359,55.245,42.359,55.572z M31.885,54.354
		c0-0.044,0-0.072,0-0.101c-0.007-0.392,0.15-0.659,0.457-0.775c0.325-0.121,0.604-0.041,0.859,0.262
		c0.562,0.666,1.114,1.336,1.679,1.998c0.117,0.138,0.137,0.241,0.008,0.377c-0.136,0.145-0.259,0.305-0.389,0.458
		c-0.461,0.547-0.922,1.096-1.385,1.641c-0.129,0.153-0.156,0.318-0.059,0.49c0.091,0.158,0.242,0.208,0.416,0.181
		c0.148-0.023,0.233-0.141,0.322-0.246c0.64-0.77,1.279-1.538,1.918-2.311c0.273-0.329,0.284-0.45,0.01-0.786
		c-0.652-0.8-1.312-1.593-1.975-2.385c-0.367-0.439-1.021-0.516-1.504-0.19C31.798,53.267,31.608,53.937,31.885,54.354z
		 M37.857,53.643c0.006-0.213-0.08-0.333-0.224-0.39c-0.189-0.074-0.364-0.022-0.497,0.137c-0.426,0.518-0.853,1.033-1.274,1.553
		c-0.157,0.194-0.161,0.378-0.007,0.567c0.398,0.49,0.804,0.975,1.208,1.458c0.101,0.12,0.231,0.177,0.392,0.143
		c0.348-0.074,0.461-0.421,0.225-0.715c-0.294-0.366-0.595-0.728-0.903-1.08c-0.092-0.106-0.083-0.169,0.003-0.27
		c0.314-0.368,0.619-0.746,0.928-1.12C37.787,53.83,37.857,53.729,37.857,53.643z M31.011,54.788c-0.585,0-1.169-0.004-1.755,0.003
		c-0.322,0.003-0.506,0.227-0.423,0.509c0.07,0.232,0.261,0.281,0.476,0.281c1.132,0,2.263,0,3.395-0.001
		c0.076,0,0.155-0.008,0.229-0.029c0.188-0.056,0.274-0.195,0.269-0.383c-0.006-0.178-0.096-0.31-0.275-0.354
		c-0.08-0.02-0.167-0.023-0.251-0.023C32.12,54.787,31.565,54.788,31.011,54.788z M38.358,55.173c0,0.492-0.001,0.983,0.001,1.477
		c0.001,0.286,0.154,0.458,0.402,0.456c0.244-0.002,0.407-0.177,0.407-0.459c0.004-0.984,0.004-1.971,0-2.956
		c-0.001-0.297-0.149-0.45-0.409-0.45c-0.255,0-0.399,0.161-0.4,0.454C38.357,54.188,38.358,54.68,38.358,55.173z M30.75,57.074
		c0.522,0,1.046,0.004,1.568-0.002c0.243-0.003,0.397-0.163,0.397-0.389c-0.002-0.215-0.152-0.384-0.375-0.386
		c-1.039-0.007-2.078-0.01-3.117-0.003c-0.275,0.001-0.434,0.18-0.419,0.416c0.013,0.228,0.176,0.362,0.445,0.363
		C29.749,57.075,30.25,57.074,30.75,57.074z M35.69,48.919c-0.723-0.478-1.344-0.068-1.436,0.661
		c-0.025,0.206-0.018,0.414,0.031,0.619c0.162,0.7,0.787,0.938,1.371,0.522c0.01-0.008,0.028,0,0.055,0
		c-0.037,0.212,0.119,0.152,0.232,0.161c0.16,0.014,0.117-0.104,0.117-0.186c0.001-0.9-0.002-1.801,0.005-2.7
		c0.001-0.154-0.054-0.177-0.187-0.173c-0.12,0.005-0.202,0.001-0.194,0.166C35.7,48.289,35.69,48.588,35.69,48.919z M42.444,48.879
		c-0.059,0.025-0.078,0.001-0.104-0.015c-0.496-0.322-1.047-0.143-1.252,0.412c-0.136,0.368-0.127,0.743,0.011,1.106
		c0.153,0.404,0.522,0.612,0.912,0.534c0.159-0.031,0.301-0.103,0.461-0.255c-0.042,0.27,0.113,0.218,0.234,0.221
		c0.185,0.003,0.107-0.139,0.108-0.217c0.006-0.876,0-1.755,0.006-2.632c0.002-0.148-0.019-0.212-0.192-0.214
		c-0.191-0.003-0.188,0.09-0.185,0.225C42.449,48.326,42.444,48.607,42.444,48.879z M26.328,50.863
		c-0.011-0.037-0.021-0.074-0.036-0.107c-0.331-0.877-0.666-1.751-0.994-2.628c-0.043-0.116-0.095-0.165-0.228-0.168
		c-0.147-0.002-0.193,0.06-0.24,0.184c-0.32,0.862-0.65,1.723-0.977,2.584c-0.018,0.047-0.054,0.094-0.007,0.157
		c0.125-0.048,0.347,0.11,0.378-0.121c0.083-0.608,0.462-0.672,0.973-0.631c0.472,0.039,0.474,0.01,0.646,0.461
		C25.962,50.908,25.962,50.908,26.328,50.863z M44.724,50.671c0.594,0.481,1.294,0.252,1.437-0.48
		c0.062-0.318,0.061-0.644-0.061-0.955c-0.167-0.428-0.54-0.61-0.984-0.496c-0.135,0.035-0.237,0.122-0.372,0.208
		c0-0.329-0.004-0.627,0.004-0.924c0.004-0.137-0.014-0.203-0.181-0.203c-0.168,0.002-0.197,0.053-0.197,0.21
		c0.009,0.876,0.002,1.754,0.009,2.632c0.001,0.074-0.085,0.219,0.1,0.22C44.605,50.883,44.758,50.921,44.724,50.671z
		 M33.199,49.957c0.1,0,0.201,0,0.301,0c0.492,0,0.492,0,0.413-0.488c-0.064-0.398-0.295-0.657-0.659-0.741
		c-0.362-0.081-0.736,0.059-0.94,0.387c-0.265,0.421-0.29,0.88-0.07,1.32c0.284,0.566,1.129,0.675,1.558,0.216
		c0.038-0.04,0.119-0.08,0.075-0.146c-0.035-0.056-0.096-0.104-0.157-0.129c-0.08-0.033-0.116,0.058-0.17,0.094
		c-0.411,0.287-0.939,0.109-1.049-0.35c-0.026-0.114-0.02-0.173,0.122-0.165C32.813,49.965,33.007,49.957,33.199,49.957z
		 M39.909,49.957c0.101,0,0.201,0,0.301,0c0.493,0,0.493,0,0.412-0.49c-0.065-0.398-0.298-0.656-0.661-0.739
		c-0.362-0.081-0.736,0.06-0.94,0.388c-0.26,0.415-0.284,0.864-0.079,1.303c0.271,0.578,1.132,0.693,1.573,0.234
		c0.106-0.111,0.079-0.164-0.028-0.246c-0.106-0.082-0.147,0.003-0.212,0.049c-0.419,0.304-0.957,0.131-1.066-0.339
		c-0.026-0.113-0.018-0.172,0.124-0.162C39.524,49.965,39.717,49.957,39.909,49.957z M46.37,48.724
		c0.026,0.074,0.05,0.146,0.075,0.217c0.213,0.594,0.427,1.187,0.634,1.781c0.104,0.294-0.128,0.687-0.428,0.71
		c-0.124,0.009-0.173,0.029-0.171,0.165c0.002,0.147,0.088,0.159,0.192,0.165c0.26,0.015,0.482-0.138,0.612-0.442
		c0.085-0.198,0.148-0.403,0.22-0.606c0.228-0.66,0.453-1.32,0.681-1.985c-0.378-0.05-0.378-0.05-0.478,0.275
		c-0.13,0.422-0.26,0.843-0.407,1.327c-0.156-0.471-0.294-0.885-0.43-1.299C46.755,48.684,46.756,48.683,46.37,48.724z
		 M26.562,49.827c-0.011,0.213,0.026,0.44,0.144,0.646c0.179,0.316,0.465,0.46,0.822,0.453c0.341-0.007,0.608-0.155,0.772-0.459
		c0.037-0.069,0.129-0.194,0.025-0.236c-0.094-0.038-0.252-0.097-0.332,0.085c-0.104,0.237-0.313,0.307-0.553,0.285
		c-0.238-0.023-0.39-0.166-0.464-0.393c-0.063-0.195-0.059-0.396-0.038-0.595c0.031-0.324,0.211-0.535,0.474-0.578
		c0.271-0.044,0.443,0.062,0.598,0.379c0.074,0.151,0.209,0.081,0.303,0.069c0.118-0.014,0.046-0.123,0.029-0.185
		c-0.074-0.284-0.264-0.467-0.539-0.551C27.117,48.538,26.563,49.012,26.562,49.827z M28.643,49.815
		c-0.009,0.235,0.03,0.462,0.149,0.666c0.188,0.325,0.484,0.464,0.851,0.444c0.338-0.018,0.603-0.175,0.752-0.487
		c0.03-0.063,0.116-0.179,0.005-0.211c-0.094-0.028-0.245-0.088-0.318,0.077c-0.109,0.249-0.321,0.317-0.568,0.296
		c-0.238-0.022-0.395-0.183-0.467-0.445c-0.046-0.16-0.04-0.321-0.031-0.481c0.02-0.345,0.18-0.566,0.444-0.628
		c0.285-0.066,0.446,0.028,0.637,0.377c0.077,0.141,0.211,0.071,0.309,0.061c0.09-0.009,0.038-0.113,0.024-0.171
		c-0.08-0.339-0.387-0.582-0.756-0.605C29.044,48.667,28.643,49.1,28.643,49.815z M29.958,53.287
		C29.958,53.288,29.958,53.288,29.958,53.287c-0.254,0.001-0.508-0.007-0.761,0.004c-0.236,0.011-0.395,0.183-0.393,0.399
		c0,0.217,0.162,0.378,0.405,0.383c0.485,0.006,0.97,0.006,1.454,0c0.253-0.005,0.392-0.15,0.394-0.386
		c0.001-0.242-0.148-0.393-0.407-0.399C30.42,53.283,30.189,53.287,29.958,53.287z M37.754,49.798c0,0,0.001,0,0.002,0
		c0,0.216-0.009,0.432,0.002,0.646c0.021,0.37,0.304,0.563,0.659,0.472c0.129-0.032,0.115-0.112,0.122-0.206
		c0.009-0.12-0.059-0.115-0.144-0.108c-0.2,0.019-0.277-0.089-0.275-0.277c0.002-0.339,0.013-0.678-0.005-1.016
		c-0.011-0.209,0.025-0.325,0.264-0.277c0.139,0.027,0.146-0.062,0.143-0.165c-0.004-0.088,0.008-0.185-0.125-0.158
		c-0.268,0.053-0.313-0.09-0.275-0.307c0.026-0.156-0.03-0.207-0.196-0.211c-0.18-0.005-0.188,0.084-0.171,0.208
		c0.029,0.213-0.001,0.365-0.274,0.31c-0.106-0.022-0.137,0.044-0.123,0.137c0.012,0.07-0.047,0.207,0.095,0.182
		c0.322-0.056,0.322,0.131,0.304,0.355C37.745,49.521,37.754,49.659,37.754,49.798z M31.217,48.99
		c0.054-0.272-0.062-0.286-0.221-0.288c-0.199-0.001-0.13,0.135-0.13,0.222c-0.004,0.592,0.005,1.185-0.007,1.776
		c-0.003,0.157,0.05,0.183,0.194,0.188c0.16,0.005,0.188-0.055,0.184-0.196c-0.01-0.384-0.003-0.769-0.003-1.152
		c0-0.336,0.148-0.502,0.479-0.504c0.147-0.001,0.2-0.033,0.193-0.189c-0.009-0.182-0.129-0.142-0.228-0.135
		C31.512,48.719,31.377,48.804,31.217,48.99z M37.052,49.801c0-0.316-0.009-0.633,0.002-0.947c0.006-0.16-0.084-0.148-0.188-0.149
		c-0.107,0-0.188-0.009-0.186,0.149c0.009,0.624,0.009,1.248,0.001,1.872c-0.002,0.14,0.05,0.166,0.173,0.16
		c0.113-0.005,0.209,0.011,0.201-0.161C37.04,50.418,37.052,50.108,37.052,49.801z M37.085,48.139
		c-0.008-0.133-0.071-0.214-0.212-0.218c-0.142-0.004-0.219,0.076-0.221,0.208c-0.003,0.124,0.069,0.201,0.197,0.208
		C36.987,48.346,37.066,48.279,37.085,48.139z"/>
	<path fill-rule="evenodd" clip-rule="evenodd" fill="#F7F8F9" d="M31.605,39.759c0,0.487-0.007,0.907,0.003,1.327
		c0.005,0.163-0.045,0.207-0.206,0.207c-0.476-0.003-0.476,0.003-0.476-0.475c0-0.739,0.007-1.479-0.004-2.218
		c-0.004-0.198,0.062-0.236,0.247-0.247c0.249-0.016,0.391,0.071,0.519,0.281c0.25,0.41,0.533,0.801,0.841,1.257
		c0-0.488,0.007-0.909-0.004-1.328c-0.004-0.163,0.047-0.208,0.207-0.207c0.475,0.003,0.475-0.003,0.475,0.475
		c0,0.74-0.006,1.479,0.006,2.219c0.002,0.197-0.063,0.24-0.25,0.247c-0.23,0.007-0.378-0.053-0.504-0.262
		C32.205,40.617,31.917,40.221,31.605,39.759z"/>
	<path fill-rule="evenodd" clip-rule="evenodd" fill="#F9F9FB" d="M49.516,39.796c0-0.414,0.007-0.83-0.005-1.244
		c-0.003-0.156,0.051-0.194,0.197-0.195c0.479-0.002,0.479-0.008,0.479,0.471c0,0.746-0.004,1.493,0.004,2.24
		c0.002,0.17-0.046,0.218-0.22,0.228c-0.249,0.015-0.409-0.058-0.541-0.282c-0.202-0.344-0.44-0.667-0.664-0.998
		c-0.042-0.06-0.063-0.141-0.173-0.173c0,0.407-0.011,0.804,0.004,1.2c0.005,0.182-0.033,0.258-0.236,0.251
		c-0.432-0.013-0.432-0.001-0.432-0.444c0-0.754,0.006-1.509-0.005-2.263c-0.003-0.188,0.059-0.222,0.233-0.234
		c0.249-0.019,0.39,0.073,0.518,0.281c0.247,0.404,0.525,0.789,0.792,1.182C49.482,39.808,49.498,39.803,49.516,39.796z"/>
	<path fill-rule="evenodd" clip-rule="evenodd" fill="#F9F9FB" d="M34.166,39.815c0-0.423,0-0.846-0.001-1.271
		c0-0.096-0.004-0.187,0.137-0.185c0.378,0.006,0.755-0.012,1.13,0.014c0.816,0.058,1.254,0.741,1.191,1.597
		c-0.042,0.562-0.271,1.021-0.826,1.225c-0.496,0.182-1.023,0.072-1.535,0.087c-0.115,0.003-0.095-0.102-0.095-0.174
		C34.165,40.678,34.166,40.246,34.166,39.815z M34.852,39.824c0,0.215-0.002,0.429,0,0.645c0.001,0.049-0.015,0.104,0.054,0.136
		c0.275,0.129,0.795-0.04,0.93-0.326c0.156-0.331,0.157-0.67-0.049-0.987c-0.204-0.312-0.53-0.252-0.834-0.253
		c-0.105-0.001-0.101,0.069-0.101,0.141C34.852,39.394,34.852,39.609,34.852,39.824z"/>
	<path fill-rule="evenodd" clip-rule="evenodd" fill="#FAFAFB" d="M44.435,39.86c0.012-0.486,0.131-0.903,0.473-1.221
		c0.577-0.537,1.479-0.427,1.904,0.244c0.367,0.581,0.371,1.198,0.053,1.799c-0.267,0.502-0.799,0.744-1.318,0.644
		c-0.566-0.11-0.988-0.56-1.077-1.154C44.452,40.059,44.444,39.943,44.435,39.86z M46.382,39.781
		c-0.004-0.047-0.005-0.141-0.024-0.23c-0.067-0.312-0.305-0.537-0.574-0.551c-0.251-0.013-0.495,0.172-0.595,0.462
		c-0.085,0.248-0.084,0.499,0.008,0.744c0.104,0.273,0.324,0.445,0.561,0.444c0.254-0.001,0.468-0.176,0.573-0.46
		C46.374,40.07,46.378,39.949,46.382,39.781z"/>
	<path fill-rule="evenodd" clip-rule="evenodd" fill="#FAFAFB" d="M26.933,39.796c0.005,0.3-0.047,0.562-0.17,0.808
		c-0.244,0.483-0.635,0.75-1.181,0.738c-0.548-0.014-0.927-0.304-1.143-0.797c-0.184-0.416-0.198-0.85-0.058-1.284
		c0.194-0.605,0.681-0.972,1.265-0.956c0.585,0.014,1.079,0.43,1.229,1.04C26.913,39.5,26.947,39.659,26.933,39.796z M24.989,39.812
		c-0.011,0.19,0.028,0.368,0.128,0.53c0.249,0.409,0.744,0.409,0.995,0.001c0.101-0.162,0.134-0.341,0.131-0.53
		c-0.004-0.459-0.265-0.805-0.618-0.814C25.263,38.991,24.99,39.338,24.989,39.812z"/>
	<path fill-rule="evenodd" clip-rule="evenodd" fill="#F9F9FB" d="M29.979,39.418c-0.02,0.288,0.03,0.635-0.036,0.98
		c-0.118,0.627-0.523,0.967-1.139,0.947c-0.566-0.02-0.969-0.407-1.035-1.015c-0.067-0.606-0.024-1.215-0.033-1.824
		c-0.001-0.053-0.007-0.129,0.059-0.133c0.191-0.011,0.385-0.018,0.574,0.001c0.081,0.01,0.049,0.118,0.05,0.182
		c0.002,0.439,0,0.878,0.002,1.318c0,0.177,0.015,0.354,0.081,0.521c0.067,0.171,0.199,0.253,0.377,0.25
		c0.17-0.002,0.288-0.095,0.354-0.25c0.054-0.122,0.065-0.251,0.064-0.383c-0.002-0.486,0.005-0.971-0.005-1.455
		c-0.001-0.149,0.036-0.2,0.193-0.202c0.493-0.002,0.493-0.01,0.493,0.474C29.979,39.006,29.979,39.184,29.979,39.418z"/>
	<path fill-rule="evenodd" clip-rule="evenodd" fill="#FAFAFB" d="M39.482,41.288c-0.434-0.009-0.329,0.064-0.463-0.345
		c-0.058-0.175-0.124-0.256-0.318-0.236c-0.182,0.02-0.369,0.015-0.553,0.001c-0.154-0.012-0.213,0.05-0.255,0.192
		c-0.112,0.383-0.31,0.484-0.708,0.386c-0.151-0.037-0.064-0.128-0.041-0.194c0.197-0.558,0.397-1.115,0.597-1.672
		c0.104-0.289,0.213-0.577,0.308-0.868c0.044-0.137,0.106-0.195,0.26-0.195c0.479,0.004,0.479-0.003,0.64,0.442
		c0.268,0.744,0.534,1.49,0.802,2.236c0.092,0.254,0.092,0.254-0.176,0.254C39.544,41.288,39.513,41.288,39.482,41.288z
		 M38.476,39.284c-0.017,0-0.033,0-0.05,0c-0.039,0.114-0.076,0.228-0.114,0.344c-0.172,0.522-0.172,0.522,0.424,0.455
		C38.649,39.813,38.563,39.548,38.476,39.284z"/>
	<path fill-rule="evenodd" clip-rule="evenodd" fill="#F9F9FB" d="M22.722,38.36c0.246,0,0.492,0.006,0.739-0.002
		c0.13-0.004,0.188,0.021,0.19,0.174c0.006,0.489,0.013,0.489-0.477,0.489c-0.092,0-0.185-0.002-0.276,0
		c-0.49,0.012-0.411-0.09-0.428,0.424c-0.006,0.152,0.041,0.204,0.193,0.196c0.223-0.011,0.447,0.006,0.67-0.007
		c0.147-0.007,0.177,0.046,0.178,0.184c0.002,0.468,0.008,0.468-0.468,0.468c-0.57,0-0.57,0-0.57,0.574
		c0,0.428-0.001,0.415-0.425,0.432c-0.219,0.009-0.27-0.061-0.266-0.27c0.013-0.815,0.011-1.632,0.001-2.448
		c-0.002-0.176,0.049-0.228,0.221-0.219C22.243,38.371,22.482,38.36,22.722,38.36z"/>
	<path fill-rule="evenodd" clip-rule="evenodd" fill="#F9F9FB" d="M40.771,40.152c0-0.315-0.004-0.631,0.003-0.947
		c0.002-0.124-0.026-0.193-0.164-0.173c-0.023,0.003-0.047,0-0.07,0c-0.521-0.002-0.52-0.002-0.479-0.532
		c0.008-0.094,0.031-0.14,0.133-0.139c0.624,0.002,1.247,0,1.871,0.001c0.045,0,0.113-0.003,0.116,0.049
		c0.008,0.192,0.014,0.384-0.004,0.574c-0.005,0.071-0.104,0.044-0.161,0.047c-0.176,0.007-0.415-0.056-0.512,0.034
		c-0.127,0.119-0.039,0.363-0.041,0.552c-0.008,0.493-0.009,0.986,0.001,1.479c0.003,0.154-0.047,0.193-0.195,0.194
		c-0.498,0.001-0.498,0.007-0.498-0.493C40.771,40.584,40.771,40.369,40.771,40.152z"/>
	<path fill-rule="evenodd" clip-rule="evenodd" fill="#F9F9FB" d="M43.588,39.849c0,0.423-0.005,0.846,0.003,1.269
		c0.002,0.128-0.035,0.17-0.168,0.175c-0.524,0.014-0.524,0.021-0.524-0.511c0-0.738,0.005-1.477-0.004-2.215
		c-0.001-0.16,0.044-0.21,0.207-0.21c0.486,0.002,0.486-0.004,0.486,0.477C43.588,39.172,43.588,39.51,43.588,39.849z"/>
	<path fill-rule="evenodd" clip-rule="evenodd" fill="#FAFAFB" d="M28.003,27.502c-0.002,0.384-0.239,0.658-0.566,0.655
		c-0.324-0.003-0.57-0.287-0.572-0.658c-0.003-0.381,0.257-0.675,0.587-0.667C27.78,26.841,28.005,27.114,28.003,27.502z"/>
	<path fill-rule="evenodd" clip-rule="evenodd" fill="#F7F8F9" d="M24.529,26.25c0.145,0.424,0.265,0.787,0.392,1.146
		c0.04,0.115,0.031,0.169-0.109,0.163c-0.229-0.011-0.564,0.079-0.662-0.036c-0.114-0.136,0.095-0.414,0.156-0.632
		C24.36,26.694,24.439,26.505,24.529,26.25z"/>
	<path fill-rule="evenodd" clip-rule="evenodd" fill="#F9F9FB" d="M33.301,27.333c-0.323,0-0.631-0.004-0.938,0.001
		c-0.121,0.002-0.12-0.05-0.094-0.141c0.07-0.24,0.297-0.419,0.526-0.408C33.052,26.798,33.221,26.975,33.301,27.333z"/>
	<path fill-rule="evenodd" clip-rule="evenodd" fill="#FAFAFB" d="M42.359,55.572c0-0.327,0-0.654,0-0.979
		c0-0.295-0.003-0.587,0.001-0.879c0.007-0.318,0.147-0.48,0.407-0.48c0.253-0.001,0.396,0.173,0.396,0.483
		c0.001,0.962-0.004,1.925,0.004,2.889c0.002,0.22-0.074,0.377-0.269,0.464c-0.186,0.084-0.422,0.003-0.57-0.188
		c-0.503-0.653-1-1.309-1.501-1.963c-0.064-0.083-0.127-0.164-0.197-0.255c-0.069,0.088-0.039,0.166-0.04,0.238
		c-0.005,0.594-0.005,1.187-0.011,1.779c-0.003,0.258-0.154,0.42-0.387,0.423c-0.23,0.004-0.403-0.16-0.405-0.408
		c-0.004-1.01-0.002-2.019-0.001-3.027c0-0.195,0.08-0.343,0.273-0.41c0.224-0.076,0.461-0.012,0.62,0.19
		c0.296,0.374,0.581,0.757,0.87,1.137c0.255,0.333,0.509,0.667,0.764,1C42.329,55.581,42.345,55.577,42.359,55.572z"/>
	<path fill-rule="evenodd" clip-rule="evenodd" fill="#FAFAFB" d="M31.885,54.354c-0.276-0.417-0.087-1.087,0.358-1.388
		c0.482-0.325,1.137-0.249,1.504,0.19c0.663,0.792,1.322,1.585,1.975,2.385c0.274,0.336,0.264,0.457-0.01,0.786
		c-0.639,0.772-1.278,1.541-1.918,2.311c-0.089,0.105-0.174,0.223-0.322,0.246c-0.174,0.027-0.325-0.022-0.416-0.181
		c-0.098-0.172-0.07-0.337,0.059-0.49c0.463-0.545,0.924-1.094,1.385-1.641c0.13-0.153,0.253-0.313,0.389-0.458
		c0.129-0.136,0.109-0.239-0.008-0.377c-0.564-0.662-1.117-1.332-1.679-1.998c-0.256-0.303-0.534-0.383-0.859-0.262
		c-0.307,0.116-0.464,0.384-0.457,0.775C31.885,54.281,31.885,54.31,31.885,54.354z"/>
	<path fill-rule="evenodd" clip-rule="evenodd" fill="#FAFAFB" d="M37.857,53.643c0,0.087-0.07,0.188-0.15,0.283
		c-0.309,0.374-0.613,0.752-0.928,1.12c-0.086,0.101-0.095,0.163-0.003,0.27c0.309,0.353,0.609,0.714,0.903,1.08
		c0.236,0.294,0.123,0.641-0.225,0.715c-0.16,0.034-0.291-0.022-0.392-0.143c-0.404-0.483-0.81-0.968-1.208-1.458
		c-0.154-0.189-0.15-0.373,0.007-0.567c0.422-0.52,0.849-1.035,1.274-1.553c0.133-0.159,0.308-0.211,0.497-0.137
		C37.777,53.31,37.863,53.43,37.857,53.643z"/>
	<path fill-rule="evenodd" clip-rule="evenodd" fill="#F1F3F6" d="M31.011,54.788c0.555,0,1.109-0.001,1.663,0.002
		c0.084,0,0.171,0.004,0.251,0.023c0.18,0.045,0.27,0.177,0.275,0.354c0.006,0.188-0.081,0.327-0.269,0.383
		c-0.073,0.021-0.152,0.029-0.229,0.029c-1.132,0.001-2.263,0.001-3.395,0.001c-0.215,0-0.405-0.049-0.476-0.281
		c-0.083-0.282,0.101-0.506,0.423-0.509C29.842,54.784,30.426,54.788,31.011,54.788z"/>
	<path fill-rule="evenodd" clip-rule="evenodd" fill="#F7F8F9" d="M38.358,55.173c0-0.493-0.001-0.985,0.001-1.479
		c0.001-0.293,0.146-0.454,0.4-0.454c0.26,0,0.408,0.153,0.409,0.45c0.004,0.985,0.004,1.972,0,2.956
		c0,0.282-0.163,0.457-0.407,0.459c-0.248,0.002-0.401-0.17-0.402-0.456C38.357,56.156,38.358,55.665,38.358,55.173z"/>
	<path fill-rule="evenodd" clip-rule="evenodd" fill="#FAFAFB" d="M30.75,57.074c-0.5,0-1.001,0.001-1.5,0
		c-0.27-0.001-0.433-0.136-0.445-0.363c-0.015-0.236,0.144-0.415,0.419-0.416c1.039-0.007,2.078-0.004,3.117,0.003
		c0.223,0.002,0.373,0.171,0.375,0.386c0,0.226-0.154,0.386-0.397,0.389C31.796,57.078,31.272,57.074,30.75,57.074z"/>
	<path fill-rule="evenodd" clip-rule="evenodd" fill="#F7F8F9" d="M35.69,48.919c0-0.331,0.01-0.63-0.005-0.929
		c-0.008-0.165,0.074-0.161,0.194-0.166c0.133-0.004,0.188,0.019,0.187,0.173c-0.007,0.899-0.004,1.8-0.005,2.7
		c0,0.082,0.043,0.199-0.117,0.186c-0.113-0.009-0.27,0.051-0.232-0.161c-0.026,0-0.045-0.008-0.055,0
		c-0.584,0.415-1.209,0.178-1.371-0.522c-0.049-0.205-0.057-0.413-0.031-0.619C34.347,48.851,34.968,48.441,35.69,48.919z
		 M35.69,49.819c0-0.093,0-0.185,0-0.277c0-0.274-0.094-0.415-0.323-0.487c-0.234-0.075-0.481,0.005-0.615,0.196
		c-0.186,0.268-0.187,0.858-0.004,1.128c0.133,0.196,0.376,0.275,0.613,0.203c0.228-0.069,0.329-0.22,0.329-0.486
		C35.69,50.004,35.69,49.911,35.69,49.819z"/>
	<path fill-rule="evenodd" clip-rule="evenodd" fill="#F7F8F9" d="M42.444,48.879c0-0.271,0.005-0.553-0.001-0.834
		c-0.004-0.135-0.007-0.228,0.185-0.225c0.174,0.002,0.194,0.065,0.192,0.214c-0.006,0.877,0,1.756-0.006,2.632
		c-0.001,0.078,0.076,0.22-0.108,0.217c-0.121-0.003-0.276,0.049-0.234-0.221c-0.16,0.152-0.302,0.224-0.461,0.255
		c-0.39,0.078-0.759-0.13-0.912-0.534c-0.138-0.363-0.146-0.738-0.011-1.106c0.205-0.555,0.756-0.734,1.252-0.412
		C42.366,48.88,42.386,48.904,42.444,48.879z M42.445,49.815c0-0.094,0-0.187,0-0.278c-0.001-0.281-0.102-0.421-0.352-0.487
		c-0.247-0.064-0.487,0.014-0.598,0.227c-0.18,0.35-0.188,0.715-0.012,1.066c0.113,0.226,0.359,0.311,0.613,0.242
		c0.245-0.066,0.347-0.212,0.348-0.493C42.445,49.999,42.445,49.907,42.445,49.815z"/>
	<path fill-rule="evenodd" clip-rule="evenodd" fill="#F9F9FB" d="M26.328,50.863c-0.366,0.045-0.366,0.045-0.485-0.27
		c-0.172-0.451-0.174-0.422-0.646-0.461c-0.511-0.041-0.89,0.022-0.973,0.631c-0.031,0.231-0.253,0.073-0.378,0.121
		c-0.047-0.063-0.011-0.11,0.007-0.157c0.326-0.861,0.656-1.722,0.977-2.584c0.047-0.124,0.093-0.186,0.24-0.184
		c0.133,0.003,0.185,0.052,0.228,0.168c0.328,0.877,0.663,1.751,0.994,2.628C26.307,50.789,26.317,50.826,26.328,50.863z
		 M25.559,49.812c-0.165-0.458-0.32-0.89-0.492-1.369c-0.173,0.487-0.328,0.923-0.487,1.369
		C24.911,49.812,25.219,49.812,25.559,49.812z"/>
	<path fill-rule="evenodd" clip-rule="evenodd" fill="#FAFAFB" d="M44.724,50.671c0.034,0.25-0.118,0.212-0.246,0.211
		c-0.185-0.001-0.099-0.146-0.1-0.22c-0.007-0.878,0-1.756-0.009-2.632c0-0.157,0.029-0.208,0.197-0.21
		c0.167,0,0.185,0.066,0.181,0.203c-0.008,0.297-0.004,0.595-0.004,0.924c0.135-0.086,0.237-0.173,0.372-0.208
		c0.444-0.114,0.817,0.068,0.984,0.496c0.121,0.312,0.122,0.637,0.061,0.955C46.018,50.923,45.317,51.152,44.724,50.671z
		 M45.823,49.856c0.002-0.199-0.01-0.368-0.084-0.525c-0.111-0.237-0.354-0.351-0.614-0.289c-0.249,0.06-0.381,0.231-0.382,0.499
		c0,0.177,0,0.354,0,0.53c0,0.302,0.151,0.487,0.43,0.53c0.275,0.041,0.495-0.096,0.593-0.364
		C45.814,50.104,45.817,49.965,45.823,49.856z"/>
	<path fill-rule="evenodd" clip-rule="evenodd" fill="#F9F9FB" d="M33.199,49.957c-0.192,0-0.387,0.008-0.577-0.003
		c-0.142-0.008-0.148,0.051-0.122,0.165c0.109,0.459,0.638,0.637,1.049,0.35c0.054-0.036,0.09-0.127,0.17-0.094
		c0.062,0.024,0.122,0.073,0.157,0.129c0.044,0.066-0.037,0.106-0.075,0.146c-0.429,0.459-1.273,0.351-1.558-0.216
		c-0.22-0.44-0.194-0.899,0.07-1.32c0.204-0.328,0.578-0.468,0.94-0.387c0.364,0.084,0.595,0.343,0.659,0.741
		c0.079,0.488,0.079,0.488-0.413,0.488C33.4,49.957,33.299,49.957,33.199,49.957z M32.497,49.632c0.324,0,0.638-0.003,0.952,0.003
		c0.111,0.002,0.126-0.044,0.108-0.138c-0.039-0.221-0.139-0.392-0.368-0.448c-0.22-0.057-0.407,0.01-0.55,0.189
		C32.557,49.342,32.521,49.466,32.497,49.632z"/>
	<path fill-rule="evenodd" clip-rule="evenodd" fill="#F9F9FB" d="M39.909,49.957c-0.192,0-0.385,0.008-0.577-0.003
		c-0.142-0.01-0.15,0.049-0.124,0.162c0.109,0.47,0.647,0.643,1.066,0.339c0.064-0.046,0.105-0.131,0.212-0.049
		c0.107,0.082,0.135,0.135,0.028,0.246c-0.441,0.459-1.302,0.344-1.573-0.234c-0.205-0.438-0.181-0.888,0.079-1.303
		c0.204-0.328,0.578-0.469,0.94-0.388c0.363,0.083,0.596,0.341,0.661,0.739c0.081,0.49,0.081,0.49-0.412,0.49
		C40.11,49.957,40.01,49.957,39.909,49.957z M39.207,49.633c0.268,0,0.519,0.003,0.771-0.002c0.097-0.002,0.235,0.049,0.277-0.031
		c0.058-0.105-0.01-0.237-0.075-0.344c-0.181-0.297-0.618-0.305-0.836-0.014C39.266,49.348,39.227,49.471,39.207,49.633z"/>
	<path fill-rule="evenodd" clip-rule="evenodd" fill="#F7F8F9" d="M46.37,48.724c0.386-0.041,0.385-0.04,0.501,0.308
		c0.136,0.414,0.273,0.828,0.43,1.299c0.147-0.484,0.277-0.905,0.407-1.327c0.1-0.325,0.1-0.325,0.478-0.275
		c-0.228,0.665-0.453,1.325-0.681,1.985c-0.071,0.203-0.135,0.408-0.22,0.606c-0.13,0.305-0.353,0.457-0.612,0.442
		c-0.104-0.006-0.19-0.018-0.192-0.165c-0.002-0.136,0.047-0.156,0.171-0.165c0.3-0.023,0.531-0.416,0.428-0.71
		c-0.207-0.595-0.421-1.188-0.634-1.781C46.42,48.869,46.396,48.798,46.37,48.724z"/>
	<path fill-rule="evenodd" clip-rule="evenodd" fill="#F9F9FB" d="M26.562,49.827c0.001-0.815,0.556-1.289,1.241-1.078
		c0.275,0.084,0.465,0.267,0.539,0.551c0.017,0.062,0.089,0.171-0.029,0.185c-0.094,0.012-0.229,0.082-0.303-0.069
		c-0.154-0.317-0.326-0.423-0.598-0.379c-0.263,0.043-0.442,0.254-0.474,0.578c-0.021,0.199-0.025,0.399,0.038,0.595
		c0.074,0.227,0.226,0.369,0.464,0.393c0.239,0.021,0.449-0.048,0.553-0.285c0.08-0.182,0.238-0.123,0.332-0.085
		c0.104,0.042,0.012,0.167-0.025,0.236c-0.164,0.304-0.432,0.452-0.772,0.459c-0.357,0.007-0.644-0.137-0.822-0.453
		C26.588,50.268,26.551,50.04,26.562,49.827z"/>
	<path fill-rule="evenodd" clip-rule="evenodd" fill="#F9F9FB" d="M28.643,49.815c0-0.716,0.401-1.148,1.03-1.108
		c0.369,0.023,0.676,0.267,0.756,0.605c0.014,0.058,0.065,0.162-0.024,0.171c-0.098,0.011-0.231,0.08-0.309-0.061
		c-0.19-0.349-0.352-0.443-0.637-0.377c-0.265,0.062-0.425,0.283-0.444,0.628c-0.009,0.16-0.015,0.321,0.031,0.481
		c0.072,0.263,0.229,0.423,0.467,0.445c0.247,0.021,0.459-0.047,0.568-0.296c0.073-0.165,0.225-0.105,0.318-0.077
		c0.111,0.032,0.025,0.147-0.005,0.211c-0.149,0.313-0.414,0.47-0.752,0.487c-0.366,0.02-0.662-0.119-0.851-0.444
		C28.673,50.277,28.634,50.051,28.643,49.815z"/>
	<path fill-rule="evenodd" clip-rule="evenodd" fill="#FAFAFB" d="M29.958,53.287c0.231,0,0.462-0.004,0.692,0.001
		c0.259,0.007,0.408,0.157,0.407,0.399c-0.002,0.235-0.141,0.381-0.394,0.386c-0.484,0.006-0.969,0.006-1.454,0
		c-0.243-0.005-0.405-0.166-0.405-0.383c-0.002-0.217,0.156-0.389,0.393-0.399C29.45,53.28,29.704,53.288,29.958,53.287
		C29.958,53.288,29.958,53.288,29.958,53.287z"/>
	<path fill-rule="evenodd" clip-rule="evenodd" fill="#F7F8F9" d="M37.754,49.798c0-0.139-0.009-0.277,0.001-0.416
		c0.019-0.225,0.019-0.411-0.304-0.355c-0.142,0.025-0.083-0.111-0.095-0.182c-0.014-0.093,0.017-0.159,0.123-0.137
		c0.273,0.056,0.304-0.097,0.274-0.31c-0.017-0.124-0.009-0.213,0.171-0.208c0.166,0.004,0.223,0.055,0.196,0.211
		c-0.038,0.217,0.008,0.359,0.275,0.307c0.133-0.026,0.121,0.07,0.125,0.158c0.003,0.104-0.004,0.192-0.143,0.165
		c-0.238-0.048-0.274,0.068-0.264,0.277c0.018,0.338,0.007,0.677,0.005,1.016c-0.002,0.188,0.075,0.296,0.275,0.277
		c0.085-0.007,0.152-0.012,0.144,0.108c-0.007,0.094,0.007,0.174-0.122,0.206c-0.355,0.092-0.639-0.102-0.659-0.472
		c-0.011-0.215-0.002-0.431-0.002-0.646C37.755,49.798,37.754,49.798,37.754,49.798z"/>
	<path fill-rule="evenodd" clip-rule="evenodd" fill="#FDFDFE" d="M31.217,48.99c0.16-0.187,0.295-0.271,0.462-0.279
		c0.099-0.007,0.219-0.047,0.228,0.135c0.007,0.156-0.046,0.188-0.193,0.189c-0.33,0.002-0.479,0.168-0.479,0.504
		c0,0.384-0.007,0.769,0.003,1.152c0.004,0.142-0.023,0.201-0.184,0.196c-0.145-0.005-0.197-0.03-0.194-0.188
		c0.012-0.592,0.003-1.185,0.007-1.776c0-0.087-0.069-0.223,0.13-0.222C31.155,48.704,31.271,48.718,31.217,48.99z"/>
	<path fill-rule="evenodd" clip-rule="evenodd" fill="#F1F3F6" d="M37.052,49.801c0,0.308-0.012,0.617,0.003,0.924
		c0.008,0.172-0.088,0.156-0.201,0.161c-0.123,0.006-0.175-0.021-0.173-0.16c0.008-0.624,0.008-1.248-0.001-1.872
		c-0.002-0.158,0.078-0.149,0.186-0.149c0.104,0.001,0.194-0.011,0.188,0.149C37.043,49.168,37.052,49.484,37.052,49.801z"/>
	<path fill-rule="evenodd" clip-rule="evenodd" fill="#F7F8F9" d="M37.085,48.139c-0.019,0.141-0.098,0.207-0.235,0.198
		c-0.128-0.007-0.2-0.084-0.197-0.208c0.002-0.132,0.079-0.212,0.221-0.208C37.014,47.925,37.077,48.006,37.085,48.139z"/>
	<path fill-rule="evenodd" clip-rule="evenodd" fill="#597494" d="M34.852,39.824c0-0.215,0-0.43,0-0.645
		c0-0.072-0.005-0.142,0.101-0.141c0.304,0.001,0.63-0.058,0.834,0.253c0.206,0.316,0.205,0.656,0.049,0.987
		c-0.135,0.286-0.654,0.455-0.93,0.326c-0.068-0.032-0.053-0.087-0.054-0.136C34.85,40.253,34.852,40.04,34.852,39.824z"/>
	<path fill-rule="evenodd" clip-rule="evenodd" fill="#597494" d="M46.382,39.781c-0.004,0.168-0.008,0.289-0.052,0.408
		c-0.105,0.285-0.319,0.459-0.573,0.46c-0.236,0.001-0.457-0.17-0.561-0.444c-0.092-0.246-0.093-0.496-0.008-0.744
		c0.1-0.29,0.344-0.475,0.595-0.462c0.27,0.015,0.507,0.24,0.574,0.551C46.377,39.64,46.378,39.734,46.382,39.781z"/>
	<path fill-rule="evenodd" clip-rule="evenodd" fill="#597494" d="M24.989,39.812c0.001-0.474,0.273-0.821,0.636-0.813
		c0.354,0.009,0.614,0.354,0.618,0.814c0.003,0.189-0.03,0.368-0.131,0.53c-0.251,0.408-0.746,0.408-0.995-0.001
		C25.018,40.18,24.979,40.002,24.989,39.812z"/>
	<path fill-rule="evenodd" clip-rule="evenodd" fill="#597494" d="M38.476,39.284c0.087,0.264,0.174,0.529,0.26,0.799
		c-0.596,0.067-0.596,0.067-0.424-0.455c0.038-0.116,0.075-0.229,0.114-0.344C38.442,39.284,38.459,39.284,38.476,39.284z"/>
	<path fill-rule="evenodd" clip-rule="evenodd" fill="#052E5D" d="M35.69,49.819c0,0.092,0,0.185,0,0.276
		c0,0.267-0.102,0.417-0.329,0.486c-0.237,0.072-0.48-0.007-0.613-0.203c-0.183-0.27-0.182-0.86,0.004-1.128
		c0.134-0.191,0.381-0.271,0.615-0.196c0.229,0.072,0.323,0.213,0.323,0.487C35.69,49.635,35.69,49.727,35.69,49.819z"/>
	<path fill-rule="evenodd" clip-rule="evenodd" fill="#052E5D" d="M42.445,49.815c0,0.092,0,0.184,0,0.276
		c-0.001,0.281-0.103,0.427-0.348,0.493c-0.254,0.068-0.5-0.017-0.613-0.242c-0.176-0.352-0.168-0.717,0.012-1.066
		c0.11-0.213,0.351-0.291,0.598-0.227c0.25,0.066,0.351,0.206,0.352,0.487C42.445,49.629,42.445,49.722,42.445,49.815z"/>
	<path fill-rule="evenodd" clip-rule="evenodd" fill="#07305E" d="M25.559,49.812c-0.34,0-0.647,0-0.979,0
		c0.159-0.446,0.314-0.882,0.487-1.369C25.238,48.922,25.394,49.354,25.559,49.812z"/>
	<path fill-rule="evenodd" clip-rule="evenodd" fill="#052E5D" d="M45.823,49.856c-0.006,0.108-0.009,0.247-0.058,0.381
		c-0.098,0.269-0.317,0.405-0.593,0.364c-0.278-0.043-0.43-0.229-0.43-0.53c0-0.176,0-0.354,0-0.53
		c0.001-0.268,0.133-0.439,0.382-0.499c0.261-0.062,0.503,0.052,0.614,0.289C45.813,49.488,45.825,49.657,45.823,49.856z"/>
	<path fill-rule="evenodd" clip-rule="evenodd" fill="#052E5D" d="M32.497,49.632c0.024-0.166,0.06-0.29,0.143-0.394
		c0.143-0.18,0.33-0.246,0.55-0.189c0.229,0.057,0.329,0.228,0.368,0.448c0.018,0.094,0.003,0.14-0.108,0.138
		C33.135,49.629,32.821,49.632,32.497,49.632z"/>
	<path fill-rule="evenodd" clip-rule="evenodd" fill="#052E5D" d="M39.207,49.633c0.02-0.162,0.059-0.285,0.137-0.391
		c0.218-0.291,0.655-0.283,0.836,0.014c0.065,0.106,0.133,0.238,0.075,0.344c-0.042,0.08-0.181,0.029-0.277,0.031
		C39.726,49.636,39.475,49.633,39.207,49.633z"/>
</g>
<g>
	<path fill-rule="evenodd" clip-rule="evenodd" fill="#019DDF" d="M-105.056,32.086c0.002,1.257,0.003,2.514,0.007,3.771
		c0.002,0.125-0.033,0.182-0.164,0.167c-0.05-0.007-0.104-0.001-0.156-0.001c-5.891,0-11.781,0.001-17.671-0.004
		c-0.179,0-0.307,0.05-0.433,0.172c-1.317,1.275-2.637,2.546-3.958,3.816c-0.928,0.892-1.854,1.784-2.788,2.668
		c-0.146,0.14-0.21,0.276-0.209,0.484c0.006,4.1-0.006,8.202,0.01,12.305c0.006,1.715,0.198,3.416,0.538,5.099
		c0.212,1.169,0.513,2.315,0.874,3.446c0.267,0.839,0.551,1.673,0.917,2.475c0.01,0.037,0.017,0.073,0.031,0.107
		c0.401,0.966,0.848,1.911,1.342,2.834c2.491,4.65,5.885,8.549,9.948,11.882c3.503,2.872,7.352,5.181,11.483,7.023
		c0.173,0.078,0.223,0.17,0.223,0.351c0,1.093,0.011,2.184,0.021,3.277c-0.15,0-0.299,0-0.45,0
		c-0.422-0.117-0.851-0.199-1.252-0.379c-1.331-0.592-2.644-1.225-3.926-1.914c-5.931-3.185-11.151-7.248-15.395-12.506
		c-2.847-3.527-5.063-7.408-6.517-11.713c-0.911-2.695-1.479-5.461-1.672-8.305c-0.015-0.223,0.016-0.456-0.078-0.673
		c0-4.657,0-9.313,0-13.97c0.011-0.009,0.029-0.018,0.031-0.028c0.139-0.754,0.537-1.373,1.039-1.928
		c0.362-0.398,0.747-0.776,1.122-1.162c1.993-2.056,3.982-4.116,5.98-6.166c0.685-0.702,1.536-1.07,2.512-1.148
		c0.097,0.003,0.195,0.011,0.292,0.011c5.995,0,11.992,0,17.988,0.001C-105.266,32.078-105.16,32.083-105.056,32.086z"/>
	<path fill-rule="evenodd" clip-rule="evenodd" fill="#012A5A" d="M-78.891,60.576c0.162-0.568,0.222-1.156,0.305-1.738
		c0.248-1.738,0.27-3.488,0.267-5.24c-0.009-3.495-0.003-6.992,0-10.488c0-0.141-0.023-0.25-0.135-0.356
		c-1.127-1.074-2.249-2.152-3.37-3.23c-1.181-1.136-2.362-2.271-3.54-3.411c-0.095-0.094-0.196-0.088-0.307-0.088
		c-3.055,0-6.11,0-9.164,0c-2.867,0-5.734-0.003-8.603,0.005c-0.209,0-0.258-0.056-0.255-0.259c0.01-1.228,0.007-2.456,0.009-3.683
		c0.105-0.003,0.21-0.008,0.313-0.008c6.013-0.001,12.022-0.001,18.034-0.001c0.08,0,0.164-0.006,0.244-0.009
		c0.977,0.081,1.82,0.457,2.509,1.153c0.783,0.791,1.549,1.6,2.324,2.398c1.521,1.567,3.042,3.131,4.561,4.698
		c0.482,0.497,0.896,1.042,1.126,1.705c0.063,0.186,0.11,0.377,0.165,0.566c0,0.045,0,0.09,0,0.136
		c-0.077,0.056-0.037,0.138-0.037,0.207c-0.002,3.945-0.002,7.891-0.002,11.836c0,0.104,0.005,0.21,0.007,0.314
		c0.002,0.254-0.063,0.51,0.032,0.76c0,0.104,0,0.209,0,0.314c-0.061,0.017-0.042,0.068-0.043,0.109
		c-0.053,1.338-0.19,2.67-0.412,3.99c-0.617,3.643-1.808,7.093-3.522,10.362c-2.663,5.078-6.308,9.353-10.694,13.015
		c-3.523,2.941-7.388,5.351-11.536,7.306c-0.71,0.332-1.403,0.703-2.167,0.903c-0.153,0.043-0.319,0.034-0.465,0.117
		c-0.151,0-0.298,0-0.448,0c0-1.102,0.004-2.2-0.006-3.302c0-0.167,0.05-0.242,0.205-0.312c2.303-1.021,4.525-2.198,6.655-3.546
		c4.331-2.734,8.164-6.029,11.334-10.068c1.986-2.528,3.628-5.26,4.85-8.237c0.548-1.309,1.002-2.648,1.354-4.021
		C-79.142,61.846-78.968,61.221-78.891,60.576z"/>
	<path fill-rule="evenodd" clip-rule="evenodd" fill="#7F94AC" d="M-85.099,32.032c0.007,0.012,0.007,0.022,0.007,0.036
		c-0.08,0.002-0.164,0.009-0.244,0.009c-6.012,0-12.021,0-18.034,0.001c-0.104,0-0.208,0.005-0.313,0.008
		c-0.003-0.018-0.008-0.037-0.012-0.054C-97.497,32.032-91.298,32.032-85.099,32.032z"/>
	<path fill-rule="evenodd" clip-rule="evenodd" fill="#7FCDEE" d="M-123.649,32.066c0-0.012,0.003-0.022,0.008-0.034
		c6.199,0,12.399,0,18.598,0c-0.004,0.018-0.01,0.036-0.013,0.054c-0.104-0.003-0.21-0.008-0.313-0.008
		c-5.996-0.001-11.994-0.001-17.988-0.001C-123.455,32.077-123.552,32.069-123.649,32.066z"/>
	<path fill-rule="evenodd" clip-rule="evenodd" fill="#597494" d="M-74.439,55.082c-0.002-0.104-0.007-0.21-0.007-0.314
		c0-3.945,0-7.891,0.002-11.836c0-0.069-0.04-0.151,0.037-0.207c0,4.117,0,8.234,0,12.354
		C-74.417,55.082-74.427,55.083-74.439,55.082z"/>
	<path fill-rule="evenodd" clip-rule="evenodd" fill="#7F94AC" d="M-74.439,55.082c0.013,0.001,0.022,0,0.032-0.004
		c0,0.254,0,0.509,0,0.764C-74.503,55.592-74.438,55.336-74.439,55.082z"/>
	<path fill-rule="evenodd" clip-rule="evenodd" fill="#597494" d="M-80.657,66.494c-0.089-0.005-0.178-0.013-0.269-0.013
		c-15.646-0.001-31.293-0.001-46.941-0.001c-0.075,0-0.148,0.004-0.224,0.004c-0.367-0.802-0.65-1.636-0.917-2.475
		c-0.36-1.131-0.661-2.277-0.874-3.446c10.135,0.001,20.268,0.001,30.402,0.001c6.76,0,13.519,0,20.274,0
		c0.106,0,0.21,0.008,0.314,0.012c-0.077,0.645-0.251,1.27-0.412,1.896C-79.655,63.846-80.109,65.186-80.657,66.494z
		 M-110.747,63.561c0.015,0.001,0.028,0.002,0.042,0.002c0,0.326-0.002,0.652,0.002,0.977c0.006,0.412,0.007,0.404,0.424,0.408
		c0.156,0.001,0.205-0.045,0.202-0.201c-0.011-0.749-0.012-1.497-0.013-2.246c-0.001-0.431,0-0.427-0.432-0.401
		c-0.098,0.007-0.146,0.048-0.182,0.131c-0.055,0.122-0.116,0.243-0.176,0.364c-0.172,0.359-0.347,0.719-0.542,1.123
		c-0.23-0.461-0.435-0.873-0.64-1.285c-0.179-0.361-0.179-0.356-0.572-0.332c-0.109,0.006-0.143,0.043-0.139,0.146
		c0.006,0.188,0.001,0.374,0.001,0.561c0,0.6,0,1.198,0,1.798c0,0.339,0.003,0.325,0.346,0.345c0.229,0.014,0.299-0.052,0.285-0.282
		c-0.023-0.343-0.007-0.687-0.007-1.032c0.194,0.287,0.346,0.577,0.484,0.874c0.051,0.113,0.118,0.147,0.239,0.149
		c0.118,0,0.172-0.049,0.22-0.146C-111.054,64.191-110.899,63.877-110.747,63.561z M-98.12,63.518c0,0.42,0.004,0.838,0,1.257
		c-0.003,0.126,0.035,0.179,0.164,0.171c0.117-0.007,0.239-0.006,0.358,0c0.1,0.003,0.154-0.023,0.148-0.137
		c-0.007-0.157,0.006-0.314-0.005-0.472c-0.006-0.122,0.048-0.136,0.156-0.151c0.259-0.037,0.308,0.178,0.359,0.324
		c0.135,0.389,0.395,0.486,0.772,0.44c0.176-0.021,0.162-0.067,0.091-0.185c-0.102-0.174-0.189-0.356-0.298-0.525
		c-0.081-0.125-0.078-0.197,0.042-0.313c0.338-0.324,0.363-0.738,0.238-1.163c-0.118-0.403-0.412-0.618-0.823-0.646
		c-0.334-0.023-0.675-0.007-1.008-0.021c-0.163-0.007-0.202,0.058-0.199,0.209C-98.114,62.711-98.12,63.114-98.12,63.518z
		 M-100.828,63.525c0,0.41,0.008,0.822-0.003,1.232c-0.003,0.152,0.049,0.191,0.191,0.188c0.401-0.006,0.807-0.002,1.211-0.002
		c0.459,0,0.452,0,0.453-0.459c0.003-0.155-0.053-0.188-0.192-0.185c-0.275,0.009-0.555-0.011-0.829,0.007
		c-0.228,0.015-0.184-0.129-0.188-0.26c-0.005-0.141-0.021-0.276,0.197-0.25c0.133,0.016,0.268,0.003,0.401,0.003
		c0.442,0,0.438,0,0.431-0.437c-0.002-0.125-0.037-0.17-0.164-0.165c-0.231,0.009-0.463,0.005-0.695,0.001
		c-0.062,0-0.134,0.021-0.166-0.07c-0.083-0.234,0.015-0.386,0.254-0.386c0.15-0.001,0.299,0,0.449,0c0.473,0,0.467,0,0.458-0.478
		c-0.003-0.127-0.04-0.168-0.167-0.166c-0.492,0.006-0.986,0.006-1.48,0c-0.128-0.002-0.164,0.045-0.164,0.169
		C-100.824,62.688-100.828,63.106-100.828,63.525z M-107.121,64.943c0.395,0,0.395,0,0.273-0.334
		c-0.252-0.703-0.506-1.405-0.759-2.107c-0.143-0.402-0.143-0.395-0.566-0.404c-0.171-0.004-0.249,0.052-0.304,0.215
		c-0.244,0.712-0.506,1.422-0.761,2.129c-0.194,0.544-0.196,0.541,0.372,0.504c0.087-0.004,0.131-0.031,0.165-0.113
		c0.06-0.148,0.038-0.366,0.193-0.43c0.14-0.059,0.322-0.017,0.488-0.019c0.052-0.001,0.106,0.008,0.156-0.002
		c0.202-0.04,0.313,0.05,0.341,0.244C-107.485,64.886-107.357,65.016-107.121,64.943z M-104.473,62.895
		c0.054-0.158,0.093-0.31,0.158-0.451c0.061-0.134,0-0.189-0.108-0.238c-0.346-0.156-0.701-0.21-1.07-0.107
		c-0.388,0.105-0.623,0.417-0.636,0.824c-0.013,0.451,0.149,0.686,0.585,0.84c0.176,0.061,0.355,0.109,0.531,0.17
		c0.104,0.037,0.193,0.1,0.182,0.226c-0.015,0.123-0.11,0.165-0.218,0.19c-0.201,0.047-0.385-0.011-0.57-0.072
		c-0.12-0.039-0.247-0.193-0.33-0.141c-0.092,0.057-0.109,0.232-0.16,0.356c-0.002,0.008-0.002,0.016-0.007,0.021
		c-0.074,0.134-0.032,0.214,0.102,0.284c0.308,0.158,0.631,0.23,0.974,0.195c0.498-0.057,0.821-0.363,0.854-0.801
		c0.041-0.513-0.151-0.771-0.694-0.938c-0.15-0.045-0.301-0.088-0.448-0.142c-0.088-0.032-0.16-0.096-0.146-0.2
		c0.012-0.094,0.067-0.168,0.162-0.195c0.091-0.026,0.187-0.045,0.286-0.029C-104.831,62.717-104.657,62.799-104.473,62.895z
		 M-102.896,63.835c0,0.217,0,0.434,0,0.649c0,0.474,0,0.468,0.476,0.463c0.146-0.002,0.196-0.045,0.194-0.192
		c-0.009-0.493-0.004-0.986-0.004-1.479c0-0.513,0-0.513,0.502-0.521c0.016,0,0.03-0.002,0.045,0
		c0.083,0.004,0.162-0.008,0.143-0.115c-0.036-0.178,0.092-0.379-0.08-0.533c-0.01-0.008-0.029-0.003-0.044-0.003
		c-0.605-0.001-1.21-0.001-1.817,0c-0.061,0-0.125,0.001-0.125,0.087c0.006,0.178-0.061,0.383,0.03,0.525
		c0.068,0.107,0.265,0.023,0.405,0.038c0.035,0.003,0.071,0.005,0.111-0.001c0.124-0.016,0.171,0.033,0.168,0.163
		C-102.9,63.222-102.896,63.528-102.896,63.835z"/>
	<path fill-rule="evenodd" clip-rule="evenodd" fill="#062F5E" d="M-94.724,50.584c0.525-0.445,0.985-0.406,1.382,0.09
		c0.2-0.234,0.437-0.398,0.76-0.398c0.501,0.002,0.847,0.338,0.874,0.913c0.026,0.546,0.01,1.093,0.017,1.64
		c0.001,0.092-0.023,0.145-0.126,0.131c-0.016-0.001-0.03,0-0.045,0c-0.461,0.013-0.461,0.013-0.462-0.447
		c-0.001-0.367,0.007-0.734-0.01-1.1c-0.021-0.393-0.335-0.587-0.619-0.395c-0.171,0.115-0.225,0.298-0.229,0.489
		c-0.009,0.42-0.014,0.838-0.005,1.258c0.004,0.16-0.047,0.201-0.2,0.198c-0.434-0.005-0.434,0.002-0.434-0.433
		c0-0.329,0.003-0.659,0-0.989c-0.004-0.387-0.145-0.596-0.398-0.596c-0.27,0-0.449,0.234-0.451,0.611
		c-0.005,0.396-0.009,0.795,0.002,1.19c0.005,0.161-0.03,0.221-0.206,0.217c-0.444-0.01-0.444,0-0.444-0.447
		c0-0.666,0.005-1.333-0.005-1.999c-0.003-0.174,0.051-0.229,0.214-0.204c0.051,0.009,0.104,0.007,0.156,0
		C-94.778,50.291-94.655,50.322-94.724,50.584z"/>
	<path fill-rule="evenodd" clip-rule="evenodd" fill="#052E5D" d="M-100.103,46.379c0-0.598,0.005-1.195-0.004-1.792
		c-0.002-0.157,0.042-0.202,0.198-0.198c0.443,0.008,0.443,0,0.443,0.444c0,0.919-0.005,1.839,0.005,2.759
		c0,0.183-0.042,0.234-0.23,0.24c-0.231,0.008-0.359-0.07-0.484-0.262c-0.372-0.585-0.766-1.154-1.158-1.741
		c-0.054,0.068-0.031,0.137-0.033,0.197c-0.001,0.538-0.004,1.077,0.002,1.614c0.003,0.127-0.02,0.186-0.167,0.188
		c-0.497,0.008-0.497,0.014-0.497-0.484c0-0.912,0.005-1.824-0.002-2.736c-0.002-0.158,0.026-0.211,0.202-0.225
		c0.267-0.018,0.418,0.075,0.556,0.298c0.361,0.581,0.749,1.146,1.127,1.716C-100.132,46.39-100.117,46.385-100.103,46.379z"/>
	<path fill-rule="evenodd" clip-rule="evenodd" fill="#052E5D" d="M-113.514,53.032c0.357,0.239,0.726,0.416,1.135,0.185
		c0.232-0.133,0.256-0.386,0.239-0.662c-0.335,0.307-0.706,0.357-1.087,0.174c-0.414-0.199-0.591-0.568-0.634-1.014
		c-0.026-0.266,0.002-0.522,0.105-0.768c0.292-0.702,1.01-0.866,1.644-0.382c0.057-0.073-0.051-0.224,0.071-0.241
		c0.165-0.025,0.341-0.006,0.512,0.01c0.043,0.004,0.024,0.078,0.024,0.121c0,0.763,0.011,1.525-0.008,2.289
		c-0.012,0.471-0.159,0.902-0.642,1.091c-0.531,0.206-1.043,0.129-1.517-0.186c-0.066-0.042-0.089-0.085-0.049-0.165
		C-113.647,53.34-113.583,53.188-113.514,53.032z M-113.227,51.544c-0.002,0.382,0.229,0.651,0.555,0.651
		c0.313-0.002,0.548-0.273,0.552-0.637c0.005-0.37-0.241-0.656-0.56-0.65C-112.998,50.912-113.225,51.176-113.227,51.544z"/>
	<path fill-rule="evenodd" clip-rule="evenodd" fill="#093260" d="M-108.989,46.102c0-0.508,0.005-1.018-0.005-1.525
		c-0.003-0.149,0.043-0.189,0.19-0.188c0.582,0.008,1.166,0.008,1.75,0.001c0.134-0.003,0.181,0.028,0.181,0.171
		c0.003,0.479,0.011,0.479-0.477,0.479c-0.279,0-0.556,0.006-0.833-0.002c-0.118-0.004-0.146,0.04-0.148,0.153
		c-0.02,0.58-0.023,0.58,0.553,0.58c0.204,0,0.405,0.003,0.606-0.002c0.094-0.002,0.143,0.028,0.131,0.126c0,0.016,0,0.031,0,0.047
		c0.014,0.459,0.014,0.459-0.446,0.459c-0.227,0-0.449,0.011-0.675-0.003c-0.145-0.009-0.182,0.046-0.168,0.178
		c0.017,0.192-0.079,0.438,0.036,0.562c0.109,0.113,0.354,0.027,0.541,0.031c0.263,0.006,0.523,0.008,0.785,0
		c0.108-0.003,0.134,0.034,0.139,0.141c0.022,0.516,0.025,0.516-0.482,0.516c-0.503,0-1.003-0.004-1.505,0.004
		c-0.138,0.002-0.18-0.038-0.178-0.178C-108.985,47.135-108.989,46.618-108.989,46.102z"/>
	<path fill-rule="evenodd" clip-rule="evenodd" fill="#062F5E" d="M-113.927,52.959c-0.211,0-0.397-0.002-0.582,0.002
		c-0.083,0.002-0.127-0.029-0.145-0.106c-0.003-0.015-0.005-0.03-0.012-0.043c-0.069-0.188-0.089-0.436-0.223-0.546
		c-0.146-0.121-0.401-0.033-0.609-0.037c-0.209-0.004-0.452-0.057-0.616,0.031c-0.159,0.085-0.161,0.352-0.216,0.543
		c-0.044,0.155-0.14,0.16-0.269,0.158c-0.466-0.002-0.467,0-0.31-0.432c0.339-0.939,0.683-1.877,1.015-2.818
		c0.052-0.146,0.118-0.19,0.271-0.188c0.451,0.01,0.451,0.002,0.602,0.416C-114.661,50.933-114.302,51.926-113.927,52.959z
		 M-115.5,50.328c-0.147,0.429-0.271,0.803-0.399,1.172c-0.036,0.104,0.017,0.113,0.097,0.112c0.187-0.001,0.374-0.008,0.56,0.003
		c0.141,0.006,0.165-0.037,0.12-0.168C-115.248,51.097-115.362,50.742-115.5,50.328z"/>
	<path fill-rule="evenodd" clip-rule="evenodd" fill="#062F5E" d="M-103.805,53.008c-0.346,0-0.66-0.096-0.957-0.271
		c-0.12-0.071-0.169-0.147-0.1-0.288c0.063-0.125,0.067-0.318,0.164-0.379c0.109-0.07,0.226,0.11,0.349,0.161
		c0.262,0.108,0.524,0.169,0.807,0.106c0.157-0.035,0.27-0.123,0.295-0.295c0.023-0.17-0.073-0.276-0.211-0.332
		c-0.211-0.088-0.437-0.151-0.654-0.226c-0.557-0.19-0.784-0.51-0.744-1.046c0.037-0.514,0.361-0.857,0.909-0.953
		c0.381-0.066,0.741,0.005,1.084,0.178c0.116,0.059,0.173,0.123,0.109,0.26c-0.061,0.136-0.06,0.335-0.157,0.406
		c-0.098,0.07-0.233-0.103-0.366-0.143c-0.196-0.063-0.392-0.096-0.595-0.054c-0.175,0.036-0.302,0.123-0.325,0.317
		c-0.021,0.192,0.086,0.295,0.247,0.352c0.205,0.072,0.411,0.132,0.616,0.203c0.58,0.2,0.803,0.531,0.734,1.09
		c-0.063,0.517-0.444,0.863-1.004,0.91C-103.669,53.012-103.736,53.008-103.805,53.008z"/>
	<path fill-rule="evenodd" clip-rule="evenodd" fill="#062F5E" d="M-106.491,44.393c0.237,0,0.436,0.008,0.636-0.003
		c0.119-0.005,0.15,0.071,0.195,0.149c0.178,0.31,0.358,0.619,0.548,0.948c0.181-0.317,0.356-0.61,0.515-0.915
		c0.072-0.136,0.153-0.199,0.312-0.183c0.154,0.015,0.311,0.003,0.502,0.003c-0.117,0.207-0.225,0.393-0.33,0.576
		c-0.146,0.252-0.271,0.52-0.447,0.75c-0.188,0.244-0.148,0.434,0.007,0.673c0.291,0.451,0.547,0.924,0.845,1.43
		c-0.259,0-0.484,0.004-0.709-0.001c-0.08-0.002-0.1-0.082-0.131-0.138c-0.189-0.33-0.375-0.661-0.584-1.03
		c-0.158,0.281-0.323,0.526-0.438,0.793c-0.13,0.301-0.315,0.443-0.646,0.381c-0.093-0.018-0.19-0.002-0.327-0.002
		c0.2-0.342,0.388-0.652,0.565-0.967c0.151-0.266,0.437-0.515,0.419-0.794c-0.018-0.267-0.268-0.52-0.416-0.778
		C-106.142,44.996-106.31,44.709-106.491,44.393z"/>
	<path fill-rule="evenodd" clip-rule="evenodd" fill="#093260" d="M-96.495,52.706c-0.159,0.116-0.281,0.226-0.445,0.263
		c-0.532,0.124-1.002-0.186-1.085-0.76c-0.086-0.594-0.02-1.196-0.034-1.795c-0.004-0.08,0.037-0.103,0.109-0.101
		c0.111,0.004,0.225,0.01,0.336-0.001c0.144-0.014,0.197,0.029,0.19,0.183c-0.011,0.389-0.006,0.778-0.002,1.167
		c0.001,0.104,0.002,0.211,0.026,0.313c0.04,0.18,0.138,0.316,0.339,0.34c0.199,0.023,0.349-0.062,0.446-0.234
		c0.08-0.146,0.1-0.312,0.097-0.478c0-0.366,0.006-0.733-0.004-1.101c-0.001-0.138,0.023-0.193,0.18-0.191
		c0.457,0.005,0.457-0.003,0.457,0.454c0,0.665-0.006,1.332,0.002,1.999c0.003,0.156-0.041,0.221-0.2,0.197
		c-0.044-0.007-0.089-0.004-0.133,0C-96.383,52.976-96.538,52.979-96.495,52.706z"/>
	<path fill-rule="evenodd" clip-rule="evenodd" fill="#052E5D" d="M-106.857,52.123c0.056,0.072,0.111,0.143,0.162,0.213
		c0.193,0.255,0.186,0.295-0.083,0.479c-0.752,0.511-1.775-0.029-1.855-0.982c-0.024-0.301,0-0.597,0.131-0.877
		c0.221-0.467,0.623-0.716,1.108-0.677c0.443,0.034,0.824,0.377,0.952,0.857c0.004,0.009,0.004,0.016,0.006,0.022
		c0.053,0.22,0.132,0.478,0.016,0.652c-0.087,0.127-0.349,0.033-0.532,0.039c-0.293,0.008-0.583,0.01-0.876-0.002
		c-0.188-0.008-0.178,0.067-0.113,0.195c0.161,0.326,0.585,0.432,0.904,0.221C-106.976,52.223-106.921,52.173-106.857,52.123z
		 M-106.982,51.388c-0.088-0.361-0.275-0.54-0.533-0.525c-0.263,0.015-0.439,0.208-0.479,0.525
		C-107.662,51.388-107.329,51.388-106.982,51.388z"/>
	<path fill-rule="evenodd" clip-rule="evenodd" fill="#062F5E" d="M-102.298,51.637c0-0.718,0.39-1.238,1.005-1.346
		c0.465-0.082,0.902,0.127,1.098,0.514c0.055,0.107,0.058,0.179-0.06,0.232c-0.047,0.021-0.093,0.052-0.134,0.085
		c-0.135,0.114-0.235,0.169-0.371-0.036c-0.164-0.248-0.519-0.227-0.72,0c-0.226,0.252-0.236,0.803-0.023,1.068
		c0.219,0.27,0.585,0.273,0.78-0.013c0.096-0.142,0.167-0.128,0.272-0.034c0.017,0.014,0.035,0.025,0.054,0.037
		c0.297,0.197,0.304,0.244,0.065,0.517c-0.443,0.509-1.331,0.42-1.728-0.175C-102.229,52.23-102.298,51.942-102.298,51.637z"/>
	<path fill-rule="evenodd" clip-rule="evenodd" fill="#093260" d="M-102.707,46.09c0,0.524-0.003,1.048,0.003,1.57
		c0,0.122-0.027,0.166-0.159,0.168c-0.497,0.01-0.497,0.015-0.497-0.48c0-0.92,0.002-1.84-0.005-2.758
		c-0.001-0.155,0.04-0.204,0.2-0.202c0.458,0.006,0.458-0.002,0.458,0.448C-102.707,45.254-102.707,45.673-102.707,46.09z"/>
	<path fill-rule="evenodd" clip-rule="evenodd" fill="#012A5A" d="M-109.086,51.122c0,0.545-0.005,1.091,0.002,1.636
		c0.004,0.146-0.021,0.209-0.19,0.205c-0.44-0.008-0.441,0.002-0.441-0.441c0-0.994,0.004-1.988-0.004-2.981
		c-0.001-0.164,0.025-0.231,0.215-0.226c0.419,0.016,0.419,0.004,0.419,0.418C-109.086,50.195-109.086,50.659-109.086,51.122z"/>
	<path fill-rule="evenodd" clip-rule="evenodd" fill="#062F5E" d="M-99.171,50.633c0.195-0.203,0.356-0.301,0.555-0.342
		c0.141-0.029,0.22-0.014,0.201,0.153c-0.009,0.073-0.009,0.151,0,0.225c0.021,0.202,0.011,0.338-0.27,0.337
		c-0.245-0.003-0.414,0.258-0.427,0.575c-0.011,0.39-0.015,0.778-0.006,1.167c0.006,0.164-0.032,0.22-0.208,0.216
		c-0.426-0.01-0.426,0-0.426-0.418c0-0.665,0.011-1.333-0.006-1.998c-0.006-0.21,0.063-0.265,0.249-0.233
		c0.029,0.004,0.06,0.004,0.089,0C-99.232,50.289-99.085,50.309-99.171,50.633z"/>
	<path fill-rule="evenodd" clip-rule="evenodd" fill="#062F5E" d="M-110.291,51.623c0,0.388-0.006,0.776,0.003,1.164
		c0.004,0.14-0.041,0.176-0.176,0.176c-0.459,0.001-0.459,0.008-0.459-0.453c0-0.664,0.007-1.329-0.002-1.994
		c-0.003-0.146,0.021-0.208,0.19-0.205c0.443,0.008,0.443-0.002,0.443,0.439C-110.291,51.04-110.291,51.332-110.291,51.623z"/>
	<path fill-rule="evenodd" clip-rule="evenodd" fill="#062F5E" d="M-110.216,49.516c0.001,0.267-0.156,0.441-0.395,0.441
		c-0.23-0.002-0.387-0.171-0.387-0.426c-0.001-0.25,0.156-0.426,0.385-0.429C-110.376,49.099-110.218,49.262-110.216,49.516z"/>
	<path fill-rule="evenodd" clip-rule="evenodd" fill="#012B5A" d="M-104.379,68.217c6.805,0,13.609,0,20.414,0
		c0.044,0,0.089,0.005,0.133-0.001c0.164-0.019,0.194,0.024,0.115,0.179c-0.613,1.189-1.281,2.348-2.025,3.459
		c-2.833,4.226-6.436,7.677-10.605,10.559c-2.477,1.713-5.101,3.161-7.847,4.39c-0.122,0.056-0.222,0.069-0.354,0.01
		c-3.624-1.622-7.021-3.621-10.144-6.078c-4.003-3.154-7.355-6.875-9.823-11.357c-0.18-0.327-0.342-0.664-0.521-0.992
		c-0.081-0.146-0.038-0.183,0.111-0.168c0.051,0.006,0.105,0.001,0.156,0.001C-117.972,68.217-111.176,68.217-104.379,68.217z
		 M-99.916,77.865c0.268,0.35,0.491,0.644,0.717,0.938c0.331,0.434,0.664,0.866,0.997,1.299c0.142,0.184,0.338,0.237,0.539,0.159
		c0.188-0.071,0.268-0.232,0.26-0.449c-0.014-0.336-0.003-0.675-0.003-1.01c0-0.622,0.001-1.244-0.003-1.864
		c-0.001-0.239-0.165-0.397-0.392-0.395c-0.222,0.002-0.366,0.145-0.376,0.385c-0.006,0.135-0.001,0.269-0.001,0.403
		c0,0.499,0,0.995,0,1.493c-0.101-0.059-0.158-0.132-0.217-0.205c-0.469-0.62-0.938-1.24-1.411-1.856
		c-0.159-0.206-0.392-0.272-0.619-0.192c-0.238,0.083-0.265,0.274-0.263,0.491c0.005,0.531,0.001,1.062,0.001,1.594
		c0,0.419-0.005,0.838,0.003,1.257c0.003,0.235,0.16,0.385,0.379,0.386c0.223,0.004,0.372-0.141,0.388-0.376
		c0.005-0.088,0.001-0.178,0.001-0.269C-99.916,79.081-99.916,78.509-99.916,77.865z M-108.374,77.598
		c0.015-0.46,0.157-0.705,0.466-0.819c0.334-0.122,0.588-0.033,0.877,0.313c0.515,0.612,1.02,1.232,1.545,1.836
		c0.156,0.181,0.151,0.297-0.004,0.474c-0.551,0.63-1.085,1.276-1.625,1.915c-0.099,0.117-0.19,0.236-0.157,0.401
		c0.03,0.153,0.123,0.262,0.269,0.303c0.208,0.063,0.352-0.05,0.479-0.203c0.633-0.77,1.271-1.532,1.905-2.3
		c0.233-0.281,0.24-0.418,0.003-0.711c-0.623-0.766-1.26-1.521-1.884-2.286c-0.259-0.315-0.585-0.464-0.985-0.424
		C-108.367,76.181-108.662,77.105-108.374,77.598z M-102.926,76.528c-0.126,0.008-0.243,0.055-0.326,0.159
		c-0.417,0.507-0.839,1.014-1.25,1.525c-0.15,0.186-0.145,0.366,0.007,0.551c0.384,0.469,0.771,0.933,1.16,1.397
		c0.103,0.123,0.233,0.183,0.397,0.143c0.331-0.08,0.43-0.417,0.196-0.702c-0.272-0.337-0.545-0.675-0.834-0.997
		c-0.12-0.134-0.115-0.215,0.004-0.347c0.313-0.36,0.611-0.736,0.913-1.105c0.105-0.128,0.127-0.272,0.063-0.42
		C-102.652,76.595-102.778,76.543-102.926,76.528z M-109.223,78.054c-0.561,0-1.123-0.005-1.683,0
		c-0.315,0.003-0.497,0.217-0.42,0.487c0.065,0.227,0.25,0.281,0.459,0.281c1.105,0,2.212,0,3.318,0
		c0.066,0,0.135-0.011,0.199-0.028c0.186-0.051,0.292-0.222,0.264-0.412c-0.027-0.219-0.176-0.326-0.456-0.328
		C-108.101,78.051-108.662,78.054-109.223,78.054z M-101.289,78.436c0-0.485,0.001-0.971-0.003-1.457
		c-0.001-0.283-0.145-0.431-0.4-0.429c-0.237,0.002-0.385,0.158-0.385,0.425c-0.005,0.964-0.004,1.929-0.002,2.894
		c0.002,0.271,0.166,0.438,0.406,0.434c0.236-0.006,0.38-0.165,0.381-0.432C-101.288,79.393-101.289,78.914-101.289,78.436z
		 M-109.471,80.271c0.516,0,1.029,0.003,1.546-0.002c0.221-0.004,0.362-0.154,0.366-0.367c0.003-0.223-0.126-0.382-0.348-0.384
		c-1.016-0.008-2.03-0.01-3.047-0.003c-0.257,0.002-0.392,0.16-0.387,0.394c0.006,0.231,0.15,0.36,0.412,0.361
		C-110.44,80.272-109.957,80.271-109.471,80.271z M-104.646,74.066c-0.034,0.251,0.122,0.19,0.237,0.192
		c0.163,0.004,0.098-0.124,0.098-0.193c0.006-0.868,0-1.734,0.007-2.601c0.002-0.137-0.034-0.181-0.174-0.175
		c-0.131,0.005-0.204,0.014-0.196,0.177c0.017,0.286,0.006,0.574,0.006,0.895c-0.063-0.038-0.086-0.052-0.109-0.066
		c-0.457-0.301-0.993-0.137-1.199,0.37c-0.117,0.292-0.127,0.596-0.06,0.901C-105.887,74.277-105.271,74.518-104.646,74.066z
		 M-98.111,72.344c-0.597-0.328-1.084-0.21-1.297,0.302c-0.158,0.383-0.156,0.776,0.002,1.157c0.205,0.488,0.737,0.651,1.169,0.373
		c0.041-0.028,0.064-0.086,0.144-0.074c-0.026,0.215,0.129,0.155,0.244,0.157c0.161,0.003,0.098-0.124,0.099-0.194
		c0.003-0.868-0.001-1.734,0.005-2.601c0-0.138-0.034-0.18-0.176-0.174c-0.129,0.004-0.202,0.016-0.194,0.179
		C-98.1,71.751-98.111,72.035-98.111,72.344z M-116.227,74.283c0.178-0.067,0.393,0.086,0.425-0.139
		c0.083-0.586,0.447-0.685,0.943-0.604c0.007,0.001,0.015,0,0.022,0c0.437,0,0.437,0,0.595,0.417
		c0.124,0.326,0.124,0.326,0.488,0.285c-0.337-0.888-0.675-1.771-1.005-2.657c-0.042-0.111-0.092-0.16-0.223-0.162
		c-0.142-0.003-0.189,0.056-0.232,0.176c-0.179,0.49-0.371,0.976-0.555,1.465C-115.917,73.452-116.062,73.842-116.227,74.283z
		 M-95.879,72.369c0-0.305-0.005-0.595,0.001-0.884c0.004-0.127-0.005-0.2-0.172-0.198c-0.157,0.003-0.195,0.045-0.191,0.2
		c0.006,0.859,0.011,1.72-0.004,2.579c-0.002,0.186,0.068,0.188,0.217,0.2c0.162,0.012,0.098-0.138,0.158-0.188
		c0.572,0.455,1.233,0.195,1.366-0.487c0.06-0.305,0.056-0.612-0.051-0.906c-0.16-0.449-0.579-0.649-1.026-0.487
		C-95.68,72.236-95.768,72.305-95.879,72.369z M-107.087,73.359c0.099,0,0.196,0,0.293,0c0.477,0,0.477,0,0.399-0.476
		c-0.066-0.388-0.289-0.637-0.644-0.717c-0.351-0.078-0.715,0.061-0.912,0.378c-0.252,0.402-0.276,0.839-0.076,1.265
		c0.267,0.562,1.101,0.671,1.526,0.227c0.107-0.11,0.073-0.16-0.028-0.24c-0.104-0.08-0.144,0.007-0.206,0.052
		c-0.413,0.297-0.961,0.109-1.04-0.354c-0.016-0.091-0.007-0.139,0.106-0.135C-107.476,73.366-107.28,73.359-107.087,73.359z
		 M-100.527,73.359c0.098,0,0.194,0,0.29,0c0.479,0,0.479,0,0.399-0.476c-0.063-0.388-0.288-0.636-0.643-0.716
		c-0.351-0.079-0.713,0.06-0.911,0.377c-0.253,0.402-0.276,0.839-0.077,1.264c0.265,0.563,1.102,0.672,1.527,0.228
		c0.107-0.109,0.075-0.16-0.029-0.24c-0.103-0.08-0.143,0.007-0.204,0.05c-0.414,0.298-0.96,0.112-1.04-0.353
		c-0.018-0.089-0.009-0.139,0.104-0.135C-100.917,73.366-100.723,73.359-100.527,73.359z M-93.353,73.726
		c-0.155-0.467-0.287-0.868-0.42-1.271c-0.112-0.344-0.112-0.344-0.482-0.283c0.229,0.641,0.457,1.279,0.684,1.919
		c0.102,0.289-0.109,0.675-0.397,0.701c-0.126,0.011-0.188,0.022-0.18,0.171c0.01,0.167,0.118,0.147,0.218,0.148
		c0.268,0.001,0.479-0.176,0.603-0.518c0.142-0.393,0.274-0.79,0.41-1.185c0.143-0.414,0.283-0.828,0.428-1.247
		c-0.374-0.032-0.374-0.032-0.468,0.281C-93.084,72.85-93.208,73.257-93.353,73.726z M-113.535,73.224
		c-0.007,0.22,0.027,0.434,0.135,0.628c0.175,0.32,0.458,0.461,0.813,0.451c0.331-0.009,0.591-0.158,0.745-0.454
		c0.034-0.065,0.126-0.185,0.012-0.224c-0.092-0.033-0.239-0.087-0.318,0.093c-0.093,0.209-0.312,0.3-0.542,0.27
		c-0.311-0.04-0.482-0.294-0.487-0.723c-0.005-0.481,0.158-0.753,0.479-0.799c0.258-0.038,0.468,0.074,0.559,0.337
		c0.063,0.181,0.197,0.111,0.294,0.102c0.13-0.015,0.055-0.127,0.038-0.19c-0.086-0.323-0.375-0.544-0.728-0.566
		C-113.146,72.109-113.535,72.528-113.535,73.224z M-111.467,73.221c-0.009,0.212,0.024,0.416,0.122,0.607
		c0.167,0.325,0.443,0.475,0.801,0.475c0.34-0.001,0.604-0.149,0.766-0.451c0.035-0.065,0.127-0.187,0.018-0.226
		c-0.091-0.033-0.242-0.093-0.319,0.089c-0.094,0.221-0.292,0.289-0.519,0.272c-0.232-0.019-0.384-0.147-0.462-0.365
		c-0.06-0.174-0.058-0.354-0.046-0.533c0.021-0.336,0.172-0.551,0.43-0.611c0.276-0.066,0.439,0.028,0.62,0.363
		c0.073,0.139,0.201,0.07,0.297,0.062c0.092-0.008,0.04-0.111,0.026-0.165c-0.073-0.283-0.258-0.468-0.536-0.551
		C-110.939,71.987-111.467,72.446-111.467,73.221z M-110.239,77.359c0.232,0,0.465,0.004,0.695-0.003
		c0.235-0.005,0.39-0.159,0.39-0.372c0.001-0.219-0.148-0.384-0.379-0.387c-0.47-0.008-0.941-0.008-1.411,0
		c-0.253,0.003-0.396,0.155-0.396,0.388c0,0.226,0.15,0.367,0.406,0.373C-110.701,77.362-110.47,77.359-110.239,77.359z
		 M-102.667,73.205c0.001,0,0.003,0,0.003,0c0,0.217-0.012,0.434,0.002,0.65c0.024,0.349,0.33,0.536,0.658,0.431
		c0.132-0.041,0.089-0.133,0.098-0.215c0.009-0.113-0.07-0.087-0.136-0.082c-0.192,0.014-0.271-0.085-0.27-0.27
		c0.001-0.359,0.008-0.719-0.003-1.075c-0.003-0.148,0.04-0.2,0.185-0.184c0.108,0.012,0.215,0.034,0.215-0.156
		c0-0.191-0.108-0.167-0.215-0.154c-0.148,0.017-0.202-0.038-0.183-0.185c0.009-0.06-0.003-0.121,0.002-0.18
		c0.008-0.09-0.017-0.13-0.12-0.137c-0.17-0.013-0.262,0.013-0.242,0.22c0.011,0.109,0.099,0.31-0.167,0.281
		c-0.106-0.013-0.219-0.041-0.22,0.15c-0.002,0.205,0.122,0.169,0.23,0.159c0.128-0.009,0.172,0.031,0.165,0.161
		C-102.674,72.814-102.667,73.01-102.667,73.205z M-109.008,72.406c0.04-0.236-0.055-0.264-0.218-0.263
		c-0.21,0.001-0.127,0.146-0.128,0.233c-0.007,0.575,0.005,1.149-0.007,1.725c-0.003,0.157,0.066,0.16,0.184,0.16
		c0.122,0.002,0.188-0.005,0.184-0.161c-0.013-0.381-0.004-0.762-0.004-1.144c0-0.338,0.139-0.487,0.483-0.489
		c0.149-0.002,0.17-0.054,0.17-0.181c-0.001-0.153-0.098-0.143-0.195-0.14C-108.711,72.154-108.849,72.238-109.008,72.406z
		 M-103.35,73.213c0-0.309-0.007-0.615,0.003-0.922c0.006-0.151-0.076-0.147-0.18-0.146c-0.102,0.002-0.185-0.016-0.182,0.142
		c0.007,0.604,0.007,1.212,0,1.817c-0.002,0.132,0.041,0.166,0.166,0.157c0.105-0.007,0.205,0.017,0.195-0.153
		C-103.358,73.811-103.35,73.511-103.35,73.213z M-103.522,71.79c0.138-0.008,0.211-0.082,0.203-0.215
		c-0.007-0.136-0.095-0.198-0.226-0.19c-0.124,0.007-0.19,0.086-0.19,0.202C-103.735,71.721-103.655,71.787-103.522,71.79z
		 M-108.34,77.705c0.005-0.014,0.012-0.026,0.012-0.037c-0.002-0.01-0.016-0.017-0.022-0.024c-0.004,0.012-0.014,0.025-0.014,0.037
		C-108.362,77.689-108.349,77.696-108.34,77.705z"/>
	<path fill-rule="evenodd" clip-rule="evenodd" fill="#F9FAFB" d="M-110.747,63.561c-0.152,0.316-0.307,0.631-0.456,0.951
		c-0.048,0.098-0.102,0.146-0.22,0.146c-0.121-0.002-0.188-0.036-0.239-0.149c-0.139-0.297-0.29-0.587-0.484-0.874
		c0,0.346-0.017,0.689,0.007,1.032c0.014,0.23-0.057,0.296-0.285,0.282c-0.343-0.02-0.346-0.006-0.346-0.345c0-0.6,0-1.198,0-1.798
		c0-0.187,0.005-0.373-0.001-0.561c-0.004-0.104,0.029-0.141,0.139-0.146c0.394-0.024,0.394-0.029,0.572,0.332
		c0.205,0.412,0.409,0.824,0.64,1.285c0.195-0.404,0.37-0.764,0.542-1.123c0.06-0.121,0.121-0.242,0.176-0.364
		c0.035-0.083,0.084-0.124,0.182-0.131c0.432-0.025,0.431-0.029,0.432,0.401c0.001,0.749,0.002,1.497,0.013,2.246
		c0.003,0.156-0.046,0.202-0.202,0.201c-0.417-0.004-0.418,0.004-0.424-0.408c-0.004-0.324-0.002-0.65-0.002-0.977
		C-110.719,63.563-110.732,63.562-110.747,63.561z"/>
	<path fill-rule="evenodd" clip-rule="evenodd" fill="#F9FAFB" d="M-98.12,63.518c0-0.403,0.006-0.807-0.003-1.21
		c-0.003-0.151,0.036-0.216,0.199-0.209c0.333,0.014,0.674-0.003,1.008,0.021c0.411,0.027,0.705,0.242,0.823,0.646
		c0.125,0.425,0.1,0.839-0.238,1.163c-0.12,0.115-0.123,0.188-0.042,0.313c0.108,0.169,0.196,0.352,0.298,0.525
		c0.071,0.117,0.085,0.164-0.091,0.185c-0.378,0.046-0.638-0.052-0.772-0.44c-0.052-0.146-0.101-0.361-0.359-0.324
		c-0.108,0.016-0.162,0.029-0.156,0.151c0.011,0.157-0.002,0.314,0.005,0.472c0.006,0.113-0.049,0.14-0.148,0.137
		c-0.119-0.006-0.241-0.007-0.358,0c-0.129,0.008-0.167-0.045-0.164-0.171C-98.116,64.355-98.12,63.938-98.12,63.518z
		 M-97.452,63.146c0,0.422,0,0.422,0.34,0.414c0.268-0.007,0.427-0.166,0.415-0.419c-0.011-0.294-0.152-0.381-0.553-0.393
		c-0.347-0.009-0.147,0.244-0.2,0.375C-97.454,63.131-97.452,63.139-97.452,63.146z"/>
	<path fill-rule="evenodd" clip-rule="evenodd" fill="#F9FAFB" d="M-100.828,63.525c0-0.419,0.004-0.838-0.003-1.257
		c0-0.124,0.036-0.171,0.164-0.169c0.494,0.006,0.988,0.006,1.48,0c0.127-0.002,0.164,0.039,0.167,0.166
		c0.009,0.478,0.015,0.478-0.458,0.478c-0.15,0-0.299-0.001-0.449,0c-0.239,0-0.337,0.151-0.254,0.386
		c0.032,0.092,0.104,0.07,0.166,0.07c0.232,0.004,0.464,0.008,0.695-0.001c0.127-0.005,0.162,0.04,0.164,0.165
		c0.008,0.437,0.012,0.437-0.431,0.437c-0.134,0-0.269,0.013-0.401-0.003c-0.219-0.026-0.202,0.109-0.197,0.25
		c0.004,0.131-0.04,0.274,0.188,0.26c0.274-0.018,0.554,0.002,0.829-0.007c0.14-0.004,0.195,0.029,0.192,0.185
		c-0.001,0.459,0.006,0.459-0.453,0.459c-0.404,0-0.81-0.004-1.211,0.002c-0.143,0.004-0.194-0.035-0.191-0.188
		C-100.82,64.348-100.828,63.936-100.828,63.525z"/>
	<path fill-rule="evenodd" clip-rule="evenodd" fill="#FAFBFB" d="M-107.121,64.943c-0.236,0.072-0.364-0.058-0.4-0.317
		c-0.028-0.194-0.139-0.284-0.341-0.244c-0.05,0.01-0.104,0.001-0.156,0.002c-0.166,0.002-0.349-0.04-0.488,0.019
		c-0.155,0.063-0.134,0.281-0.193,0.43c-0.034,0.082-0.078,0.109-0.165,0.113c-0.568,0.037-0.566,0.04-0.372-0.504
		c0.255-0.707,0.517-1.417,0.761-2.129c0.055-0.163,0.133-0.219,0.304-0.215c0.424,0.01,0.424,0.002,0.566,0.404
		c0.253,0.702,0.507,1.404,0.759,2.107C-106.727,64.943-106.727,64.943-107.121,64.943z M-108.362,63.792
		c0.163,0,0.29-0.005,0.417,0.001c0.118,0.008,0.141-0.039,0.106-0.144c-0.077-0.226-0.15-0.451-0.242-0.725
		C-108.183,63.234-108.268,63.5-108.362,63.792z"/>
	<path fill-rule="evenodd" clip-rule="evenodd" fill="#FAFBFB" d="M-104.473,62.895c-0.185-0.096-0.358-0.178-0.555-0.207
		c-0.1-0.016-0.195,0.003-0.286,0.029c-0.095,0.027-0.15,0.102-0.162,0.195c-0.015,0.104,0.058,0.168,0.146,0.2
		c0.147,0.054,0.298,0.097,0.448,0.142c0.543,0.166,0.735,0.425,0.694,0.938c-0.032,0.438-0.355,0.744-0.854,0.801
		c-0.343,0.035-0.666-0.037-0.974-0.195c-0.134-0.07-0.176-0.15-0.102-0.284c0.005-0.006,0.005-0.014,0.007-0.021
		c0.051-0.124,0.068-0.3,0.16-0.356c0.083-0.053,0.21,0.102,0.33,0.141c0.186,0.062,0.369,0.119,0.57,0.072
		c0.107-0.025,0.203-0.067,0.218-0.19c0.012-0.126-0.077-0.188-0.182-0.226c-0.176-0.061-0.355-0.109-0.531-0.17
		c-0.436-0.154-0.598-0.389-0.585-0.84c0.013-0.407,0.248-0.719,0.636-0.824c0.369-0.103,0.725-0.049,1.07,0.107
		c0.108,0.049,0.169,0.104,0.108,0.238C-104.38,62.585-104.419,62.736-104.473,62.895z"/>
	<path fill-rule="evenodd" clip-rule="evenodd" fill="#F7F8F9" d="M-102.896,63.835c0-0.307-0.005-0.613,0.004-0.92
		c0.003-0.13-0.044-0.179-0.168-0.163c-0.04,0.006-0.076,0.004-0.111,0.001c-0.141-0.015-0.337,0.069-0.405-0.038
		c-0.091-0.143-0.024-0.348-0.03-0.525c0-0.086,0.064-0.087,0.125-0.087c0.607-0.001,1.212-0.001,1.817,0
		c0.015,0,0.034-0.005,0.044,0.003c0.172,0.154,0.044,0.355,0.08,0.533c0.02,0.107-0.06,0.119-0.143,0.115
		c-0.015-0.002-0.029,0-0.045,0c-0.502,0.009-0.502,0.009-0.502,0.521c0,0.493-0.005,0.986,0.004,1.479
		c0.002,0.147-0.048,0.19-0.194,0.192c-0.476,0.005-0.476,0.011-0.476-0.463C-102.896,64.269-102.896,64.052-102.896,63.835z"/>
	<path fill-rule="evenodd" clip-rule="evenodd" fill="#FAFBFB" d="M-113.227,51.544c0.002-0.368,0.229-0.632,0.547-0.636
		c0.318-0.006,0.564,0.28,0.56,0.65c-0.004,0.363-0.239,0.635-0.552,0.637C-112.998,52.195-113.229,51.926-113.227,51.544z"/>
	<path fill-rule="evenodd" clip-rule="evenodd" fill="#F1F3F5" d="M-115.5,50.328c0.138,0.414,0.252,0.769,0.377,1.119
		c0.045,0.131,0.021,0.174-0.12,0.168c-0.186-0.011-0.373-0.004-0.56-0.003c-0.08,0.001-0.132-0.009-0.097-0.112
		C-115.771,51.131-115.647,50.757-115.5,50.328z"/>
	<path fill-rule="evenodd" clip-rule="evenodd" fill="#F9FAFB" d="M-106.982,51.388c-0.347,0-0.68,0-1.012,0
		c0.039-0.317,0.216-0.511,0.479-0.525C-107.258,50.848-107.07,51.026-106.982,51.388z"/>
	<path fill-rule="evenodd" clip-rule="evenodd" fill="#FDFDFE" d="M-99.916,77.865c0,0.644,0,1.216,0,1.788
		c0,0.091,0.004,0.181-0.001,0.269c-0.016,0.235-0.165,0.38-0.388,0.376c-0.219-0.001-0.376-0.15-0.379-0.386
		c-0.008-0.419-0.003-0.838-0.003-1.257c0-0.532,0.004-1.063-0.001-1.594c-0.002-0.217,0.024-0.408,0.263-0.491
		c0.228-0.08,0.46-0.014,0.619,0.192c0.473,0.616,0.942,1.236,1.411,1.856c0.059,0.073,0.116,0.146,0.217,0.205
		c0-0.498,0-0.994,0-1.493c0-0.135-0.005-0.269,0.001-0.403c0.01-0.24,0.154-0.383,0.376-0.385c0.227-0.003,0.391,0.155,0.392,0.395
		c0.004,0.62,0.003,1.242,0.003,1.864c0,0.335-0.011,0.674,0.003,1.01c0.008,0.217-0.071,0.378-0.26,0.449
		c-0.201,0.078-0.397,0.024-0.539-0.159c-0.333-0.433-0.666-0.865-0.997-1.299C-99.425,78.509-99.648,78.215-99.916,77.865z"/>
	<path fill-rule="evenodd" clip-rule="evenodd" fill="#FAFBFB" d="M-108.374,77.598c-0.288-0.492,0.007-1.417,0.889-1.501
		c0.4-0.04,0.727,0.108,0.985,0.424c0.624,0.766,1.261,1.521,1.884,2.286c0.237,0.293,0.23,0.43-0.003,0.711
		c-0.635,0.768-1.272,1.53-1.905,2.3c-0.128,0.153-0.271,0.266-0.479,0.203c-0.146-0.041-0.238-0.149-0.269-0.303
		c-0.033-0.165,0.059-0.284,0.157-0.401c0.54-0.639,1.074-1.285,1.625-1.915c0.155-0.177,0.16-0.293,0.004-0.474
		c-0.525-0.604-1.03-1.224-1.545-1.836c-0.289-0.347-0.543-0.436-0.877-0.313C-108.217,76.893-108.359,77.138-108.374,77.598z"/>
	<path fill-rule="evenodd" clip-rule="evenodd" fill="#FAFBFB" d="M-102.926,76.528c0.147,0.015,0.273,0.066,0.33,0.204
		c0.064,0.147,0.043,0.292-0.063,0.42c-0.302,0.369-0.6,0.745-0.913,1.105c-0.119,0.132-0.124,0.213-0.004,0.347
		c0.289,0.322,0.562,0.66,0.834,0.997c0.233,0.285,0.135,0.622-0.196,0.702c-0.164,0.04-0.295-0.02-0.397-0.143
		c-0.39-0.465-0.776-0.929-1.16-1.397c-0.151-0.185-0.157-0.365-0.007-0.551c0.411-0.512,0.833-1.019,1.25-1.525
		C-103.169,76.583-103.052,76.536-102.926,76.528z"/>
	<path fill-rule="evenodd" clip-rule="evenodd" fill="#F1F3F5" d="M-109.223,78.054c0.561,0,1.122-0.003,1.682,0
		c0.28,0.002,0.429,0.109,0.456,0.328c0.028,0.19-0.078,0.361-0.264,0.412c-0.064,0.018-0.133,0.028-0.199,0.028
		c-1.106,0-2.213,0-3.318,0c-0.209,0-0.394-0.055-0.459-0.281c-0.077-0.271,0.104-0.484,0.42-0.487
		C-110.346,78.049-109.783,78.054-109.223,78.054z"/>
	<path fill-rule="evenodd" clip-rule="evenodd" fill="#F7F8F9" d="M-101.289,78.436c0,0.479,0.001,0.957-0.003,1.435
		c-0.001,0.267-0.145,0.426-0.381,0.432c-0.24,0.004-0.404-0.163-0.406-0.434c-0.002-0.965-0.003-1.93,0.002-2.894
		c0-0.267,0.147-0.423,0.385-0.425c0.256-0.002,0.399,0.146,0.4,0.429C-101.288,77.465-101.289,77.95-101.289,78.436z"/>
	<path fill-rule="evenodd" clip-rule="evenodd" fill="#FDFDFE" d="M-109.471,80.271c-0.486,0-0.97,0.001-1.457-0.001
		c-0.262-0.001-0.406-0.13-0.412-0.361c-0.005-0.233,0.13-0.392,0.387-0.394c1.017-0.007,2.031-0.005,3.047,0.003
		c0.222,0.002,0.351,0.161,0.348,0.384c-0.004,0.213-0.146,0.363-0.366,0.367C-108.441,80.274-108.955,80.271-109.471,80.271z"/>
	<path fill-rule="evenodd" clip-rule="evenodd" fill="#F7F8F9" d="M-104.646,74.066c-0.625,0.451-1.24,0.211-1.391-0.5
		c-0.067-0.306-0.058-0.609,0.06-0.901c0.206-0.507,0.742-0.671,1.199-0.37c0.023,0.015,0.047,0.028,0.109,0.066
		c0-0.32,0.011-0.608-0.006-0.895c-0.008-0.163,0.065-0.172,0.196-0.177c0.14-0.006,0.176,0.038,0.174,0.175
		c-0.007,0.866-0.001,1.732-0.007,2.601c0,0.069,0.065,0.197-0.098,0.193C-104.524,74.257-104.681,74.317-104.646,74.066z
		 M-104.669,73.221c0-0.091,0-0.18,0-0.271c-0.002-0.262-0.096-0.397-0.323-0.467c-0.23-0.07-0.48,0-0.591,0.202
		c-0.187,0.35-0.199,0.717-0.006,1.07c0.111,0.205,0.348,0.28,0.584,0.213c0.234-0.064,0.336-0.206,0.336-0.479
		C-104.669,73.399-104.669,73.309-104.669,73.221z"/>
	<path fill-rule="evenodd" clip-rule="evenodd" fill="#F7F8F9" d="M-98.111,72.344c0-0.309,0.012-0.593-0.005-0.875
		c-0.008-0.163,0.065-0.175,0.194-0.179c0.142-0.006,0.176,0.036,0.176,0.174c-0.006,0.866-0.002,1.732-0.005,2.601
		c-0.001,0.07,0.063,0.197-0.099,0.194c-0.115-0.002-0.271,0.058-0.244-0.157c-0.079-0.012-0.103,0.046-0.144,0.074
		c-0.432,0.278-0.964,0.115-1.169-0.373c-0.158-0.381-0.16-0.774-0.002-1.157C-99.195,72.134-98.708,72.016-98.111,72.344z
		 M-98.111,73.232c0-0.098,0-0.192,0-0.291c0-0.256-0.1-0.394-0.332-0.459c-0.235-0.067-0.478,0.005-0.585,0.212
		c-0.184,0.352-0.195,0.719,0.003,1.07c0.113,0.201,0.355,0.272,0.588,0.204c0.226-0.066,0.326-0.21,0.326-0.468
		C-98.111,73.413-98.111,73.322-98.111,73.232z"/>
	<path fill-rule="evenodd" clip-rule="evenodd" fill="#F7F8F9" d="M-116.227,74.283c0.166-0.441,0.31-0.831,0.458-1.22
		c0.185-0.489,0.376-0.975,0.555-1.465c0.043-0.12,0.09-0.179,0.232-0.176c0.13,0.002,0.18,0.051,0.223,0.162
		c0.33,0.887,0.668,1.77,1.005,2.657c-0.364,0.041-0.364,0.041-0.488-0.285c-0.158-0.417-0.158-0.417-0.595-0.417
		c-0.008,0-0.016,0.001-0.022,0c-0.496-0.08-0.86,0.019-0.943,0.604C-115.834,74.369-116.049,74.216-116.227,74.283z
		 M-114.508,73.221c-0.16-0.445-0.312-0.864-0.478-1.326c-0.168,0.473-0.318,0.892-0.472,1.326
		C-115.139,73.221-114.841,73.221-114.508,73.221z"/>
	<path fill-rule="evenodd" clip-rule="evenodd" fill="#FAFBFB" d="M-95.879,72.369c0.111-0.064,0.199-0.133,0.298-0.171
		c0.447-0.162,0.866,0.038,1.026,0.487c0.106,0.294,0.11,0.602,0.051,0.906c-0.133,0.683-0.794,0.942-1.366,0.487
		c-0.061,0.05,0.004,0.199-0.158,0.188c-0.148-0.012-0.219-0.015-0.217-0.2c0.015-0.859,0.01-1.72,0.004-2.579
		c-0.004-0.155,0.034-0.197,0.191-0.2c0.167-0.002,0.176,0.071,0.172,0.198C-95.884,71.774-95.879,72.064-95.879,72.369z
		 M-95.879,73.224c0,0.082,0,0.163,0,0.245c0,0.295,0.142,0.474,0.413,0.518c0.266,0.041,0.489-0.087,0.576-0.351
		c0.088-0.27,0.089-0.546,0.002-0.814c-0.088-0.272-0.322-0.403-0.597-0.353c-0.259,0.047-0.395,0.222-0.395,0.506
		C-95.879,73.058-95.879,73.14-95.879,73.224z"/>
	<path fill-rule="evenodd" clip-rule="evenodd" fill="#F9FAFB" d="M-107.087,73.359c-0.193,0-0.389,0.007-0.581-0.001
		c-0.113-0.004-0.122,0.044-0.106,0.135c0.079,0.464,0.627,0.651,1.04,0.354c0.063-0.045,0.103-0.132,0.206-0.052
		c0.102,0.08,0.136,0.13,0.028,0.24c-0.426,0.444-1.26,0.335-1.526-0.227c-0.2-0.426-0.176-0.862,0.076-1.265
		c0.197-0.317,0.562-0.456,0.912-0.378c0.354,0.08,0.577,0.329,0.644,0.717c0.077,0.476,0.077,0.476-0.399,0.476
		C-106.891,73.359-106.988,73.359-107.087,73.359z M-107.767,73.046c0.311,0,0.613-0.004,0.918,0.002
		c0.105,0.002,0.127-0.038,0.107-0.132c-0.034-0.193-0.114-0.354-0.314-0.423c-0.191-0.07-0.366-0.032-0.515,0.103
		C-107.697,72.712-107.749,72.864-107.767,73.046z"/>
	<path fill-rule="evenodd" clip-rule="evenodd" fill="#F9FAFB" d="M-100.527,73.359c-0.195,0-0.39,0.007-0.584-0.001
		c-0.112-0.004-0.121,0.046-0.104,0.135c0.08,0.465,0.626,0.65,1.04,0.353c0.062-0.043,0.102-0.13,0.204-0.05
		c0.104,0.08,0.137,0.131,0.029,0.24c-0.426,0.444-1.263,0.335-1.527-0.228c-0.199-0.425-0.176-0.861,0.077-1.264
		c0.198-0.317,0.561-0.456,0.911-0.377c0.354,0.08,0.579,0.328,0.643,0.716c0.08,0.476,0.08,0.476-0.399,0.476
		C-100.333,73.359-100.43,73.359-100.527,73.359z M-101.205,73.046c0.307,0,0.613-0.004,0.915,0.002
		c0.106,0.002,0.125-0.04,0.106-0.133c-0.034-0.193-0.113-0.353-0.314-0.422c-0.189-0.07-0.364-0.032-0.515,0.103
		C-101.141,72.712-101.191,72.864-101.205,73.046z"/>
	<path fill-rule="evenodd" clip-rule="evenodd" fill="#F7F8F9" d="M-93.353,73.726c0.145-0.469,0.269-0.876,0.395-1.282
		c0.094-0.313,0.094-0.313,0.468-0.281c-0.145,0.419-0.285,0.833-0.428,1.247c-0.136,0.395-0.269,0.792-0.41,1.185
		c-0.123,0.342-0.335,0.519-0.603,0.518c-0.1-0.001-0.208,0.019-0.218-0.148c-0.008-0.148,0.054-0.16,0.18-0.171
		c0.288-0.026,0.499-0.412,0.397-0.701c-0.227-0.64-0.455-1.278-0.684-1.919c0.37-0.061,0.37-0.061,0.482,0.283
		C-93.64,72.857-93.508,73.259-93.353,73.726z"/>
	<path fill-rule="evenodd" clip-rule="evenodd" fill="#F7F8F9" d="M-113.535,73.224c0-0.695,0.388-1.114,1-1.076
		c0.353,0.022,0.642,0.243,0.728,0.566c0.017,0.063,0.092,0.176-0.038,0.19c-0.097,0.01-0.231,0.079-0.294-0.102
		c-0.091-0.263-0.301-0.375-0.559-0.337c-0.322,0.046-0.485,0.317-0.479,0.799c0.005,0.429,0.176,0.683,0.487,0.723
		c0.23,0.03,0.449-0.061,0.542-0.27c0.079-0.18,0.227-0.126,0.318-0.093c0.114,0.039,0.022,0.158-0.012,0.224
		c-0.154,0.296-0.414,0.445-0.745,0.454c-0.355,0.01-0.638-0.131-0.813-0.451C-113.508,73.657-113.542,73.443-113.535,73.224z"/>
	<path fill-rule="evenodd" clip-rule="evenodd" fill="#F7F8F9" d="M-111.467,73.221c0-0.774,0.527-1.233,1.197-1.034
		c0.278,0.083,0.463,0.268,0.536,0.551c0.014,0.054,0.065,0.157-0.026,0.165c-0.096,0.009-0.224,0.077-0.297-0.062
		c-0.181-0.335-0.344-0.43-0.62-0.363c-0.258,0.061-0.409,0.275-0.43,0.611c-0.012,0.18-0.014,0.359,0.046,0.533
		c0.078,0.218,0.229,0.347,0.462,0.365c0.227,0.017,0.425-0.052,0.519-0.272c0.077-0.182,0.229-0.122,0.319-0.089
		c0.109,0.039,0.018,0.16-0.018,0.226c-0.161,0.302-0.426,0.45-0.766,0.451c-0.357,0-0.634-0.149-0.801-0.475
		C-111.442,73.637-111.476,73.433-111.467,73.221z"/>
	<path fill-rule="evenodd" clip-rule="evenodd" fill="#FAFBFB" d="M-110.239,77.359c-0.23,0-0.462,0.003-0.694-0.001
		c-0.256-0.006-0.406-0.147-0.406-0.373c-0.001-0.232,0.143-0.385,0.396-0.388c0.47-0.008,0.941-0.008,1.411,0
		c0.23,0.003,0.38,0.168,0.379,0.387c0,0.213-0.154,0.367-0.39,0.372C-109.774,77.363-110.007,77.359-110.239,77.359z"/>
	<path fill-rule="evenodd" clip-rule="evenodd" fill="#F7F8F9" d="M-102.667,73.205c0-0.195-0.007-0.391,0.003-0.584
		c0.007-0.13-0.037-0.17-0.165-0.161c-0.108,0.01-0.232,0.046-0.23-0.159c0.001-0.191,0.113-0.163,0.22-0.15
		c0.266,0.028,0.178-0.172,0.167-0.281c-0.02-0.207,0.072-0.232,0.242-0.22c0.104,0.007,0.128,0.047,0.12,0.137
		c-0.005,0.059,0.007,0.12-0.002,0.18c-0.02,0.146,0.034,0.201,0.183,0.185c0.106-0.013,0.215-0.037,0.215,0.154
		c0,0.19-0.106,0.168-0.215,0.156c-0.145-0.017-0.188,0.035-0.185,0.184c0.011,0.356,0.004,0.716,0.003,1.075
		c-0.001,0.185,0.077,0.283,0.27,0.27c0.065-0.005,0.145-0.031,0.136,0.082c-0.009,0.082,0.034,0.174-0.098,0.215
		c-0.328,0.105-0.634-0.082-0.658-0.431c-0.014-0.217-0.002-0.434-0.002-0.65C-102.664,73.205-102.666,73.205-102.667,73.205z"/>
	<path fill-rule="evenodd" clip-rule="evenodd" fill="#FDFDFE" d="M-109.008,72.406c0.159-0.168,0.297-0.252,0.469-0.259
		c0.098-0.003,0.194-0.014,0.195,0.14c0,0.127-0.021,0.179-0.17,0.181c-0.345,0.002-0.483,0.151-0.483,0.489
		c0,0.382-0.009,0.763,0.004,1.144c0.005,0.156-0.062,0.163-0.184,0.161c-0.117,0-0.187-0.003-0.184-0.16
		c0.012-0.575,0-1.149,0.007-1.725c0.001-0.087-0.082-0.232,0.128-0.233C-109.063,72.143-108.968,72.17-109.008,72.406z"/>
	<path fill-rule="evenodd" clip-rule="evenodd" fill="#F1F3F5" d="M-103.35,73.213c0,0.298-0.009,0.598,0.003,0.896
		c0.01,0.17-0.09,0.146-0.195,0.153c-0.125,0.009-0.168-0.025-0.166-0.157c0.007-0.605,0.007-1.213,0-1.817
		c-0.003-0.157,0.08-0.14,0.182-0.142c0.104-0.002,0.186-0.006,0.18,0.146C-103.356,72.598-103.35,72.904-103.35,73.213z"/>
	<path fill-rule="evenodd" clip-rule="evenodd" fill="#F7F8F9" d="M-103.522,71.79c-0.133-0.003-0.213-0.069-0.213-0.203
		c0-0.116,0.066-0.195,0.19-0.202c0.131-0.008,0.219,0.055,0.226,0.19C-103.312,71.708-103.385,71.782-103.522,71.79z"/>
	<path fill-rule="evenodd" clip-rule="evenodd" fill="#FAFBFB" d="M-108.34,77.705c-0.009-0.009-0.022-0.016-0.024-0.024
		c0-0.012,0.01-0.025,0.014-0.037c0.007,0.008,0.021,0.015,0.022,0.024C-108.328,77.679-108.335,77.691-108.34,77.705z"/>
	<path fill-rule="evenodd" clip-rule="evenodd" fill="#597494" d="M-97.452,63.146c0-0.008-0.002-0.016,0.002-0.022
		c0.053-0.131-0.146-0.384,0.2-0.375c0.4,0.012,0.542,0.099,0.553,0.393c0.012,0.253-0.147,0.412-0.415,0.419
		C-97.452,63.568-97.452,63.568-97.452,63.146z"/>
	<path fill-rule="evenodd" clip-rule="evenodd" fill="#597494" d="M-108.362,63.792c0.095-0.292,0.18-0.558,0.281-0.867
		c0.092,0.273,0.165,0.499,0.242,0.725c0.034,0.104,0.012,0.151-0.106,0.144C-108.072,63.787-108.199,63.792-108.362,63.792z"/>
	<path fill-rule="evenodd" clip-rule="evenodd" fill="#052E5D" d="M-104.669,73.221c0,0.088,0,0.179,0,0.269
		c0,0.273-0.102,0.415-0.336,0.479c-0.236,0.067-0.473-0.008-0.584-0.213c-0.193-0.354-0.181-0.721,0.006-1.07
		c0.11-0.202,0.36-0.272,0.591-0.202c0.228,0.069,0.321,0.205,0.323,0.467C-104.669,73.041-104.669,73.13-104.669,73.221z"/>
	<path fill-rule="evenodd" clip-rule="evenodd" fill="#052E5D" d="M-98.111,73.232c0,0.09,0,0.181,0,0.269
		c0,0.258-0.101,0.401-0.326,0.468c-0.232,0.068-0.475-0.003-0.588-0.204c-0.198-0.352-0.187-0.719-0.003-1.07
		c0.107-0.207,0.35-0.279,0.585-0.212c0.232,0.065,0.332,0.203,0.332,0.459C-98.111,73.04-98.111,73.135-98.111,73.232z"/>
	<path fill-rule="evenodd" clip-rule="evenodd" fill="#062F5E" d="M-114.508,73.221c-0.333,0-0.631,0-0.95,0
		c0.153-0.435,0.303-0.854,0.472-1.326C-114.819,72.356-114.668,72.775-114.508,73.221z"/>
	<path fill-rule="evenodd" clip-rule="evenodd" fill="#052E5D" d="M-95.879,73.224c0-0.084,0-0.166,0-0.249
		c0-0.284,0.136-0.459,0.395-0.506c0.274-0.051,0.509,0.08,0.597,0.353c0.087,0.269,0.086,0.545-0.002,0.814
		c-0.087,0.264-0.311,0.392-0.576,0.351c-0.271-0.044-0.413-0.223-0.413-0.518C-95.879,73.387-95.879,73.306-95.879,73.224z"/>
	<path fill-rule="evenodd" clip-rule="evenodd" fill="#052E5D" d="M-107.767,73.046c0.018-0.182,0.069-0.334,0.196-0.45
		c0.148-0.135,0.323-0.173,0.515-0.103c0.2,0.069,0.28,0.229,0.314,0.423c0.02,0.094-0.002,0.134-0.107,0.132
		C-107.153,73.042-107.456,73.046-107.767,73.046z"/>
	<path fill-rule="evenodd" clip-rule="evenodd" fill="#052E5D" d="M-101.205,73.046c0.014-0.182,0.064-0.334,0.192-0.45
		c0.15-0.135,0.325-0.173,0.515-0.103c0.201,0.069,0.28,0.229,0.314,0.422c0.019,0.093,0,0.135-0.106,0.133
		C-100.592,73.042-100.898,73.046-101.205,73.046z"/>
</g>
</svg>
