<?xml version="1.0" encoding="utf-8"?>
<!-- Generator: Adobe Illustrator 16.0.0, SVG Export Plug-In . SVG Version: 6.00 Build 0)  -->
<!DOCTYPE svg PUBLIC "-//W3C//DTD SVG 1.1//EN" "http://www.w3.org/Graphics/SVG/1.1/DTD/svg11.dtd">
<svg version="1.1" id="Layer_1" xmlns="http://www.w3.org/2000/svg" xmlns:xlink="http://www.w3.org/1999/xlink" x="0px" y="0px"
	 width="60.062px" height="68.166px" viewBox="0 0 60.062 68.166" enable-background="new 0 0 60.062 68.166" xml:space="preserve">
<g>
	<path fill-rule="evenodd" clip-rule="evenodd" fill="#133C5F" d="M51.069,57.042c2.965,0,5.931,0,8.976,0
		c-0.902,0.978-1.727,1.916-2.605,2.799c-0.361,0.363-0.313,0.564,0.006,0.908c0.82,0.883,1.6,1.805,2.391,2.716
		c0.096,0.11,0.275,0.223,0.213,0.375c-0.068,0.167-0.271,0.071-0.408,0.071c-6.722,0.004-13.442,0.006-20.163-0.002
		c-0.352,0-0.643,0.091-0.942,0.265c-2.305,1.34-4.608,2.683-6.931,3.992c-1.04,0.586-2.146,0.582-3.183-0.001
		c-2.339-1.313-4.652-2.667-6.971-4.014c-0.272-0.158-0.537-0.242-0.857-0.242c-6.66,0.008-13.32,0.006-19.979,0.006
		c-0.166,0-0.33,0-0.584,0c0.354-0.387,0.655-0.718,0.96-1.045c0.633-0.684,1.252-1.381,1.908-2.042
		c0.281-0.283,0.317-0.452,0.01-0.755C1.937,59.109,0.999,58.108,0,57.072c3.021,0,5.984,0,8.949,0
		c0.012-0.034,0.024-0.067,0.036-0.101c-0.419-0.246-0.834-0.496-1.255-0.739c-1.859-1.074-3.722-2.145-5.582-3.22
		c-0.5-0.29-1.01-0.567-1.396-1.016c-0.573-0.663-0.722-1.474-0.723-2.301c-0.011-9.18-0.007-18.361-0.007-27.541
		c0-0.978-0.021-1.957,0.006-2.933c0.024-0.848,0.187-1.666,0.784-2.327c0.404-0.449,0.935-0.724,1.447-1.021
		C8.736,12.132,15.214,8.39,21.69,4.648c2.189-1.265,4.375-2.538,6.572-3.79c1.16-0.66,2.35-0.665,3.509,0.004
		c6.611,3.813,13.218,7.635,19.826,11.454c2.202,1.273,4.393,2.569,6.612,3.811c1.24,0.694,1.787,1.743,1.788,3.106
		c0.007,10.158,0.007,20.316,0,30.474c-0.001,1.36-0.527,2.419-1.771,3.116c-2.404,1.348-4.781,2.749-7.168,4.127
		C51.062,56.981,51.064,57.012,51.069,57.042z M57.06,34.477c0-5.055-0.004-10.111,0.007-15.166c0.001-0.326-0.08-0.509-0.376-0.68
		C47.934,13.59,39.184,8.539,30.438,3.478c-0.317-0.184-0.535-0.183-0.853,0C20.841,8.54,12.09,13.59,3.335,18.632
		c-0.295,0.17-0.38,0.35-0.379,0.677c0.009,10.111,0.009,20.222,0,30.333c-0.001,0.329,0.085,0.512,0.379,0.681
		c3.768,2.161,7.527,4.335,11.287,6.51c0.243,0.142,0.485,0.213,0.773,0.213c9.744-0.006,19.488-0.006,29.232,0
		c0.287,0,0.529-0.07,0.774-0.211c3.746-2.167,7.492-4.334,11.247-6.486c0.324-0.186,0.419-0.393,0.418-0.752
		C57.056,44.557,57.06,39.518,57.06,34.477z M26.923,63.926c0.814,0.471,1.546,0.824,2.196,1.29
		c0.634,0.456,1.146,0.462,1.783,0.001c0.651-0.471,1.39-0.824,2.196-1.291C30.995,63.926,29.03,63.926,26.923,63.926z
		 M48.358,60.122c0.192,0.096,0.207,0.261,0.269,0.389c0.209,0.438,0.433,0.874,0.602,1.33c0.126,0.345,0.385,0.233,0.605,0.236
		c0.295,0.003,0.166-0.242,0.169-0.375c0.012-0.869-0.005-1.739,0.013-2.608c0.005-0.279-0.105-0.313-0.345-0.319
		c-0.262-0.007-0.335,0.077-0.325,0.333c0.018,0.548,0.006,1.097,0.006,1.646c-0.35-0.571-0.629-1.143-0.866-1.731
		c-0.144-0.358-0.421-0.237-0.653-0.229c-0.248,0.008-0.131,0.235-0.132,0.36c-0.011,0.869,0.005,1.739-0.012,2.608
		c-0.005,0.263,0.078,0.333,0.332,0.328c0.239-0.004,0.356-0.038,0.345-0.319C48.344,61.231,48.358,60.69,48.358,60.122z
		 M47.207,60.429c-0.022-0.247-0.02-0.541-0.081-0.82c-0.128-0.588-0.559-0.919-1.138-0.92c-0.578,0-0.997,0.327-1.132,0.922
		c-0.123,0.554-0.133,1.118,0.003,1.672c0.148,0.604,0.581,0.916,1.2,0.892c0.567-0.021,0.988-0.39,1.087-0.978
		C47.188,60.96,47.187,60.714,47.207,60.429z M33.455,60.485c-0.009-0.305-0.004-0.611-0.084-0.907
		c-0.157-0.584-0.575-0.899-1.164-0.889c-0.555,0.01-0.965,0.334-1.097,0.909c-0.125,0.554-0.138,1.117-0.002,1.672
		c0.147,0.611,0.571,0.923,1.189,0.905c0.588-0.018,1.009-0.396,1.104-1.01C33.437,60.942,33.438,60.712,33.455,60.485z
		 M12.144,62.038c-0.138-0.33-0.254-0.658-0.41-0.965c-0.116-0.229-0.115-0.362,0.083-0.573c0.318-0.337,0.313-0.782,0.137-1.201
		c-0.162-0.388-0.505-0.503-0.893-0.514c-0.259-0.008-0.521,0.016-0.777-0.006c-0.271-0.024-0.368,0.049-0.36,0.344
		c0.022,0.868,0.018,1.737,0.002,2.605c-0.006,0.268,0.047,0.364,0.343,0.367c0.316,0.003,0.35-0.131,0.331-0.38
		c-0.016-0.197-0.005-0.396-0.002-0.594c0-0.103-0.021-0.219,0.141-0.23c0.119-0.008,0.207,0.015,0.255,0.136
		c0.066,0.169,0.165,0.331,0.206,0.506C11.316,62.024,11.608,62.193,12.144,62.038z M30.758,62.049
		c-0.152-0.355-0.291-0.705-0.453-1.044c-0.089-0.186-0.084-0.297,0.079-0.459c0.352-0.35,0.352-0.797,0.182-1.233
		c-0.162-0.411-0.523-0.523-0.928-0.529c-0.26-0.004-0.521,0.016-0.776-0.005c-0.262-0.022-0.334,0.071-0.329,0.329
		c0.015,0.884,0.015,1.768,0,2.652c-0.005,0.258,0.073,0.316,0.327,0.333c0.505,0.036,0.295-0.32,0.345-0.544
		c0.049-0.217-0.158-0.56,0.131-0.635c0.362-0.094,0.328,0.319,0.421,0.525C30.061,62.114,30.049,62.119,30.758,62.049z
		 M22.121,60.41c0,0.274,0,0.55,0,0.825c0,0.861,0,0.861,0.853,0.847c0.684-0.011,1.137-0.359,1.26-0.967
		c0.223-1.103-0.035-1.961-0.682-2.227c-0.139-0.057-0.293-0.091-0.442-0.101c-0.242-0.016-0.489,0.007-0.732-0.008
		c-0.199-0.012-0.266,0.057-0.26,0.257C22.131,59.495,22.121,59.952,22.121,60.41z M40.609,59.704
		c-0.118-0.691-0.41-0.984-0.968-1.015c-0.544-0.029-1.002,0.258-1.104,0.694c-0.127,0.533,0.105,0.944,0.699,1.237
		c0.177,0.087,0.363,0.162,0.528,0.267c0.182,0.116,0.175,0.313,0.137,0.497c-0.031,0.148-0.14,0.229-0.295,0.237
		c-0.201,0.01-0.361-0.051-0.444-0.248c-0.023-0.056-0.028-0.122-0.058-0.173c-0.141-0.248-0.382-0.127-0.563-0.11
		c-0.203,0.019-0.098,0.223-0.069,0.333c0.144,0.57,0.864,0.905,1.487,0.705c0.548-0.177,0.799-0.728,0.583-1.293
		c-0.128-0.34-0.414-0.513-0.724-0.659c-0.191-0.09-0.403-0.146-0.543-0.324c-0.151-0.193-0.116-0.382,0.057-0.525
		c0.183-0.152,0.438-0.134,0.502,0.078C39.975,59.859,40.299,59.658,40.609,59.704z M43.078,59.68
		c-0.108-0.663-0.401-0.959-0.958-0.991c-0.544-0.031-1.002,0.254-1.108,0.689c-0.129,0.532,0.104,0.948,0.696,1.24
		c0.177,0.088,0.362,0.162,0.527,0.267c0.183,0.115,0.179,0.311,0.143,0.494c-0.031,0.149-0.138,0.232-0.293,0.241
		c-0.2,0.012-0.361-0.048-0.446-0.244c-0.025-0.055-0.03-0.121-0.059-0.173c-0.137-0.254-0.379-0.129-0.561-0.114
		c-0.21,0.017-0.1,0.222-0.073,0.33c0.138,0.569,0.86,0.908,1.483,0.709c0.55-0.175,0.803-0.722,0.589-1.29
		c-0.127-0.341-0.413-0.515-0.722-0.661c-0.191-0.091-0.403-0.146-0.545-0.322c-0.152-0.191-0.119-0.381,0.051-0.527
		c0.181-0.153,0.435-0.14,0.504,0.073C42.464,59.875,42.792,59.66,43.078,59.68z M50.324,62.051
		c0.415,0.072,0.795,0.129,0.844-0.436c0.021-0.25,0.217-0.185,0.344-0.166c0.221,0.032,0.589-0.166,0.637,0.154
		c0.089,0.612,0.456,0.493,0.862,0.456c-0.325-1.032-0.651-2.03-0.949-3.036c-0.073-0.244-0.214-0.247-0.405-0.245
		c-0.174,0-0.315-0.002-0.383,0.219C50.967,60.016,50.645,61.028,50.324,62.051z M5.598,60.444c0.005,0,0.01,0,0.015,0
		c0-0.183-0.009-0.367,0.003-0.549c0.018-0.295,0.045-0.605,0.431-0.646c0.354-0.039,0.445,0.184,0.517,0.494
		c0.064,0.28,0.354,0.123,0.539,0.131c0.21,0.01,0.116-0.161,0.099-0.269c-0.08-0.512-0.402-0.84-0.888-0.909
		c-0.57-0.082-1.061,0.139-1.239,0.636c-0.267,0.738-0.272,1.501,0.009,2.237c0.181,0.47,0.59,0.629,1.076,0.607
		c0.466-0.021,0.834-0.204,0.983-0.67c0.047-0.144,0.227-0.394-0.034-0.458c-0.18-0.043-0.533-0.216-0.584,0.241
		c-0.027,0.245-0.22,0.346-0.468,0.334c-0.26-0.013-0.389-0.172-0.419-0.403C5.605,60.964,5.608,60.703,5.598,60.444z M25.88,60.433
		c0,0.441,0.014,0.883-0.006,1.324c-0.012,0.255,0.063,0.342,0.326,0.333c0.229-0.009,0.39-0.02,0.347-0.311
		c-0.017-0.104,0.01-0.215-0.006-0.319c-0.063-0.426,0.044-0.613,0.543-0.587c0.637,0.035,1.008-0.405,1.001-1.038
		c-0.008-0.617-0.399-1.027-1.02-1.051c-0.303-0.012-0.609,0.011-0.912-0.006c-0.226-0.013-0.285,0.07-0.278,0.285
		C25.89,59.52,25.88,59.977,25.88,60.433z M7.64,60.396c0,0.458,0.01,0.916-0.005,1.373C7.628,61.993,7.67,62.1,7.929,62.088
		c0.44-0.021,0.885-0.012,1.327-0.003c0.19,0.003,0.306-0.012,0.311-0.261c0.005-0.263-0.106-0.306-0.324-0.293
		c-0.229,0.012-0.458-0.002-0.688,0.004c-0.159,0.004-0.24-0.027-0.257-0.22c-0.053-0.579-0.039-0.606,0.557-0.607
		c0.077,0,0.154-0.009,0.229,0.001c0.274,0.039,0.307-0.125,0.277-0.331c-0.059-0.406-0.388-0.217-0.568-0.204
		c-0.408,0.029-0.523-0.099-0.503-0.504c0.016-0.298,0.113-0.365,0.377-0.34c0.182,0.018,0.366,0.001,0.549,0.004
		c0.188,0.004,0.354,0.031,0.352-0.264c0-0.267-0.115-0.295-0.329-0.29C8.81,58.791,8.382,58.8,7.956,58.777
		c-0.272-0.015-0.332,0.088-0.321,0.337C7.652,59.541,7.64,59.968,7.64,60.396z M36.237,60.39c0,0.046-0.001,0.092,0,0.137
		c0.009,0.501,0.017,1.002,0.025,1.503c0.525,0.112,1.056,0.021,1.585,0.052c0.182,0.01,0.314,0.006,0.316-0.253
		c0.001-0.25-0.09-0.315-0.317-0.3c-0.229,0.015-0.458,0.007-0.687,0c-0.098-0.002-0.205,0.033-0.258-0.118
		c-0.15-0.434,0.034-0.705,0.498-0.706c0.107,0,0.214-0.007,0.32,0.001c0.173,0.013,0.23-0.053,0.245-0.232
		c0.038-0.481-0.313-0.29-0.525-0.313c-0.265-0.03-0.579,0.112-0.556-0.396c0.016-0.367,0.114-0.483,0.464-0.439
		c0.18,0.023,0.367-0.006,0.55,0.007c0.198,0.014,0.263-0.059,0.263-0.259c0-0.206-0.037-0.306-0.273-0.297
		c-0.458,0.017-0.916,0.016-1.373,0c-0.222-0.008-0.29,0.065-0.281,0.284C36.247,59.504,36.237,59.947,36.237,60.39z M19.83,60.422
		c0,0.458,0.009,0.915-0.004,1.373c-0.006,0.208,0.041,0.3,0.273,0.292c0.457-0.017,0.916-0.016,1.373-0.001
		c0.225,0.007,0.278-0.074,0.283-0.288c0.005-0.243-0.104-0.278-0.303-0.268c-0.213,0.011-0.43-0.015-0.641,0.007
		c-0.275,0.028-0.307-0.099-0.329-0.34c-0.036-0.403,0.089-0.567,0.497-0.492c0.089,0.016,0.184-0.004,0.273,0.003
		c0.198,0.018,0.312-0.021,0.307-0.265c-0.005-0.215-0.062-0.31-0.285-0.288c-0.137,0.014-0.277-0.013-0.411,0.006
		c-0.308,0.044-0.375-0.087-0.382-0.379c-0.007-0.345,0.069-0.514,0.446-0.454c0.164,0.026,0.336-0.004,0.504,0.007
		c0.216,0.014,0.33-0.028,0.324-0.292c-0.005-0.248-0.118-0.266-0.309-0.262c-0.443,0.008-0.887,0.018-1.327-0.003
		c-0.258-0.012-0.304,0.093-0.296,0.317C19.841,59.537,19.829,59.979,19.83,60.422z M34.87,58.783c-0.168,0-0.339,0.019-0.503-0.004
		c-0.33-0.045-0.443,0.056-0.432,0.412c0.03,0.853,0.018,1.708,0.004,2.561c-0.003,0.247,0.056,0.323,0.32,0.342
		c0.447,0.034,0.348-0.253,0.35-0.493c0.004-0.854,0.002-0.854,0.767-0.894c0.03-0.001,0.061-0.003,0.091,0
		c0.211,0.017,0.205-0.125,0.202-0.269c-0.004-0.136,0.025-0.287-0.191-0.28c-0.166,0.005-0.337-0.018-0.502,0.004
		c-0.313,0.042-0.368-0.097-0.377-0.383c-0.012-0.349,0.076-0.511,0.446-0.45c0.135,0.022,0.274-0.003,0.411,0.005
		c0.199,0.011,0.338,0.009,0.34-0.273c0-0.277-0.129-0.289-0.332-0.28C35.267,58.79,35.067,58.783,34.87,58.783z M17.269,58.783
		c-0.167,0-0.337,0.02-0.501-0.004c-0.336-0.047-0.442,0.062-0.43,0.415c0.028,0.853,0.019,1.707,0.003,2.56
		c-0.003,0.25,0.062,0.321,0.323,0.341c0.451,0.035,0.345-0.259,0.346-0.495c0.005-0.852,0.002-0.853,0.77-0.892
		c0.03-0.001,0.062-0.003,0.092,0c0.211,0.016,0.201-0.129,0.198-0.271c-0.001-0.137,0.024-0.286-0.191-0.278
		c-0.168,0.005-0.338-0.019-0.503,0.004c-0.316,0.043-0.363-0.102-0.375-0.385c-0.015-0.354,0.082-0.506,0.449-0.448
		c0.134,0.021,0.274-0.004,0.411,0.005c0.202,0.013,0.333,0.003,0.337-0.274c0.002-0.282-0.135-0.286-0.334-0.278
		C17.665,58.789,17.467,58.783,17.269,58.783z M13.147,60.674c0,0.366,0.019,0.733-0.006,1.097c-0.02,0.279,0.099,0.327,0.343,0.319
		c0.223-0.007,0.371-0.011,0.361-0.308c-0.021-0.625,0.016-1.252-0.015-1.875c-0.021-0.419,0.04-0.683,0.545-0.576
		c0.223,0.048,0.287-0.069,0.28-0.282c-0.006-0.183-0.036-0.278-0.251-0.273c-0.61,0.012-1.22,0.011-1.83,0
		c-0.211-0.003-0.255,0.087-0.249,0.273c0.004,0.168,0.01,0.33,0.233,0.281c0.597-0.131,0.632,0.215,0.592,0.657
		C13.131,60.215,13.147,60.445,13.147,60.674z M53.378,60.436c0,0.062-0.001,0.122,0,0.183c0.007,0.47-0.169,1.121,0.07,1.365
		c0.301,0.308,0.948,0.064,1.445,0.099c0.197,0.013,0.339,0.012,0.34-0.271c0.001-0.276-0.127-0.292-0.332-0.281
		c-0.151,0.009-0.308-0.014-0.457,0.005c-0.31,0.041-0.425-0.061-0.41-0.393c0.027-0.639,0.005-1.28,0.009-1.92
		c0.002-0.244,0.054-0.458-0.346-0.457c-0.391,0-0.318,0.215-0.319,0.435C53.377,59.612,53.378,60.024,53.378,60.436z
		 M44.287,60.443c0-0.457-0.018-0.916,0.007-1.371c0.017-0.313-0.161-0.295-0.371-0.294c-0.193,0.001-0.349-0.016-0.343,0.272
		c0.017,0.915,0.019,1.829-0.001,2.743c-0.007,0.312,0.158,0.286,0.368,0.296c0.243,0.012,0.36-0.042,0.346-0.32
		C44.271,61.328,44.287,60.885,44.287,60.443z M15.08,60.417c0,0.457,0.014,0.915-0.005,1.371c-0.012,0.252,0.088,0.322,0.316,0.297
		c0.181-0.02,0.401,0.073,0.396-0.268c-0.017-0.929-0.014-1.859-0.001-2.788c0.004-0.307-0.191-0.243-0.365-0.25
		c-0.188-0.007-0.36-0.029-0.347,0.266C15.096,59.502,15.08,59.96,15.08,60.417z M19.265,60.438c0-0.458-0.019-0.916,0.007-1.371
		c0.017-0.32-0.173-0.285-0.377-0.289c-0.201-0.004-0.343-0.003-0.338,0.277c0.016,0.914,0.016,1.829,0.001,2.743
		c-0.005,0.265,0.111,0.303,0.327,0.288c0.19-0.013,0.402,0.056,0.386-0.277C19.247,61.353,19.265,60.895,19.265,60.438z"/>
	<path fill-rule="evenodd" clip-rule="evenodd" fill="#FDFDFE" d="M57.06,34.477c0,5.041-0.004,10.08,0.008,15.12
		c0.001,0.359-0.094,0.566-0.418,0.752c-3.755,2.151-7.501,4.318-11.247,6.486c-0.245,0.141-0.487,0.211-0.774,0.211
		c-9.744-0.006-19.488-0.006-29.232,0c-0.288,0-0.53-0.071-0.773-0.213c-3.76-2.175-7.52-4.35-11.287-6.51
		c-0.294-0.169-0.38-0.352-0.379-0.681c0.009-10.111,0.009-20.221,0-30.333c-0.001-0.327,0.084-0.507,0.379-0.677
		C12.09,13.59,20.841,8.54,29.586,3.478c0.317-0.184,0.535-0.185,0.853,0C39.184,8.539,47.934,13.59,56.69,18.631
		c0.296,0.171,0.377,0.354,0.376,0.68C57.056,24.366,57.06,29.422,57.06,34.477z"/>
	<path fill-rule="evenodd" clip-rule="evenodd" fill="#FDFDFE" d="M27.867,51.188c0.077-0.006,0.154-0.012,0.23-0.018
		c0.498,0.231,0.428-0.227,0.549-0.453c0.083-0.012,0.167-0.024,0.251-0.037c0.113-0.075,0.218-0.192,0.342-0.218
		c0.447-0.093,0.54-0.425,0.59-0.8c0.175-1.307-0.196-2.492-0.822-3.614c-0.165-0.295-0.47-0.449-0.794-0.478
		c-0.953-0.083-1.67,0.41-2.326,1.02c-0.013,0.01,0.01,0.057,0.016,0.086c-0.036,0.033-0.073,0.066-0.109,0.1
		c-0.702-0.157-1.202,0.148-1.611,0.688c-0.205,0.271-0.339,0.575-0.466,0.885c-0.011,0.073-0.021,0.146-0.032,0.219
		c-0.929,0.396-1.365,1.487-0.967,2.436c0.249-0.176,0.53-0.191,0.825-0.199c1.489-0.041,2.854,0.416,4.184,1.021
		c0.125,0.057,0.259,0.266,0.39,0.114c0.146-0.167,0.056-0.37-0.09-0.531C27.965,51.344,27.92,51.262,27.867,51.188z"/>
	<path fill-rule="evenodd" clip-rule="evenodd" fill="#FDFDFE" d="M35.143,51.351c-0.839,0.543-1.742,0.936-2.728,1.107
		c-0.415,0.072-0.332,0.444-0.418,0.675c-0.059,0.155,0.254,0.136,0.397,0.151c1.646,0.168,3.2-0.199,4.709-0.824
		c0.488-0.202,0.7-0.6,0.661-1.088c-0.053-0.653-0.243-1.274-0.704-1.777c-0.03-0.06-0.062-0.12-0.093-0.179
		c0.112-0.58-0.169-0.958-0.64-1.235c-0.38-0.223-0.773-0.417-1.201-0.533c-0.051-0.017-0.101-0.033-0.149-0.048
		c-0.071-0.298-0.161-0.589-0.401-0.802c-0.604-0.532-1.353-0.574-2.1-0.618c-0.142-0.008-0.163,0.073-0.157,0.206
		c0.066,1.409-0.281,2.703-1.091,3.867c-0.041,0.058-0.153,0.127-0.093,0.185c0.204,0.199,0.418,0.396,0.656,0.551
		c0.145,0.094,0.28-0.07,0.404-0.144c0.632-0.378,1.122-0.928,1.671-1.407c0.027,0.05,0.055,0.099,0.082,0.149
		c-0.378,0.484-0.804,0.957-1.342,1.223c-0.568,0.282-0.649,0.587-0.44,1.136c0.091,0.24,0.131,0.304,0.386,0.246
		c0.868-0.199,1.661-0.583,2.469-0.939C35.062,51.285,35.102,51.318,35.143,51.351z"/>
	<path fill-rule="evenodd" clip-rule="evenodd" fill="#FDFDFE" d="M29.32,23.393c-0.031-0.042-0.063-0.085-0.095-0.128
		c0.093-0.22,0.238-0.419,0.46-0.484c0.351-0.102,0.114-0.278,0.07-0.409c-0.061-0.188-0.2-0.19-0.365-0.097
		c-0.524,0.297-0.625,1.174-0.141,1.632c0.179,0.167,0.172,0.206,0.015,0.353c-0.479,0.447-0.489,0.453-0.84-0.107
		c-0.097-0.155-0.177-0.321-0.269-0.479c-0.065-0.112-0.104-0.21-0.008-0.333c1.092-1.379,2.245-2.659,4.27-2.652
		c-0.284-0.225-0.563-0.29-0.852-0.263c-1.669,0.156-2.673,1.322-3.705,2.529c-0.376-1.01-0.51-2.005-0.698-2.993
		c-0.417,0.241-0.609,0.584-0.647,1.041c-0.03,0.379-0.115,0.755-0.172,1.132c-0.126,0.831-0.222,1.669-0.579,2.442
		c-0.049,0.107-0.008,0.332-0.247,0.295c-0.107-0.177-0.208-0.056-0.325-0.002c-0.616,0.284-1.232,0.174-1.577-0.272
		c-0.447-0.58-0.377-1.684,0.141-2.204c0.094-0.095,0.214-0.133,0.333-0.189c0.377-0.178,0.759,0.126,1.157-0.037
		c-0.555-0.283-1.085-0.331-1.61-0.052c-0.786,0.417-1.094,1.365-0.729,2.202c0.338,0.779,1.231,1.121,2.131,0.833
		c0.127-0.041,0.229-0.219,0.396-0.099c0.088,0.333-0.33,0.455-0.334,0.84c0.502-0.535,0.844-1.144,1.583-1.304
		c0.306-0.066,0.593-0.506,0.844-0.469c0.293,0.043,0.358,0.548,0.6,0.795c0.209,0.214,0.278,0.439,0.304,0.755
		c0.034,0.439,0.084,0.979,0.572,1.196c0.319,0.14,0.829-0.299,1.107-0.859c0.255-0.512,0.358-1.066,0.442-1.625
		c0.039-0.255,0.857-0.946,1.11-0.933c0.036,0.001,0.088,0.029,0.103,0.06c0.236,0.492,0.508,0.182,0.777,0.04
		c0.111-0.058,0.176-0.263,0.37-0.066c0.719,0.732,1.393,0.778,2.244,0.182c0.111-0.078,0.202-0.183,0.359-0.17
		c0.667,0.047,1.248-0.186,1.786-0.557c0.084,0.322,0.199,0.603,0.62,0.555c0.112-0.012,0.224-0.004,0.241-0.143
		c0.014-0.111,0.029-0.198-0.115-0.293c-0.245-0.164-0.495-0.089-0.742-0.121c0.111-0.194,0.22-0.39,0.335-0.582
		c0.043-0.072,0.156-0.134,0.052-0.225c-0.102-0.087-0.15,0.038-0.222,0.079c-0.45,0.256-0.866,0.575-1.38,0.708
		c-0.295,0.076-0.586,0.168-0.492-0.346c0.039-0.21-0.103-0.381-0.316-0.449c-0.17-0.055-0.338-0.031-0.458,0.116
		c-0.16,0.197-0.084,0.406-0.004,0.606c0.055,0.136,0.173,0.26-0.039,0.377c-0.442,0.245-0.902,0.386-1.403,0.231
		c-0.293-0.091-0.466-0.169-0.194-0.557c0.473-0.674,0.997-1.376,0.501-2.302c-0.235-0.439-0.395-0.502-0.697-0.108
		c-0.436,0.567-0.541,1.238-0.438,1.913c0.072,0.472-0.168,0.604-0.499,0.747c-0.101-0.202-0.104-0.411-0.274-0.563
		c-0.317,0.323-0.683,0.56-1.143,0.753c-0.033-0.34-0.032-0.662-0.243-0.939C30.05,22.777,29.809,23.22,29.32,23.393z"/>
	<path fill-rule="evenodd" clip-rule="evenodd" fill="#FDFDFE" d="M49.352,26.426c0-0.596-0.032-1.193,0.008-1.786
		c0.045-0.652-0.238-1.042-0.789-1.359c-5.936-3.409-11.865-6.831-17.792-10.256c-0.485-0.282-0.926-0.284-1.407,0.009
		c-0.834,0.506-1.687,0.981-2.531,1.469c-5.084,2.934-10.168,5.871-15.256,8.797c-0.491,0.283-0.803,0.633-0.797,1.227
		c0.009,1.038,0.002,2.077,0.002,3.116c0,0.339,0.095,0.632,0.491,0.633c0.409,0,0.475-0.3,0.473-0.64
		c-0.005-0.977,0.011-1.955-0.01-2.932c-0.007-0.301,0.091-0.459,0.351-0.609c5.883-3.387,11.76-6.781,17.633-10.182
		c0.252-0.146,0.436-0.166,0.7-0.013c5.898,3.418,11.804,6.826,17.712,10.227c0.231,0.133,0.308,0.282,0.305,0.542
		c-0.013,1.222-0.005,2.443-0.007,3.665c-0.001,0.328-0.041,0.689,0.439,0.686c0.486-0.004,0.481-0.362,0.476-0.717
		C49.346,27.678,49.352,27.052,49.352,26.426z"/>
	<path fill-rule="evenodd" clip-rule="evenodd" fill="#FDFDFE" d="M38.838,40.359c-1.086-3.451-2.151-6.828-3.205-10.209
		c-0.065-0.209-0.163-0.249-0.352-0.245c-0.442,0.01-0.886,0.018-1.328-0.002c-0.268-0.012-0.397,0.058-0.475,0.34
		c-0.199,0.732-0.444,1.453-0.671,2.178c-0.787,2.526-1.575,5.052-2.36,7.579c-0.045,0.144-0.231,0.362,0.141,0.359
		c0.595-0.004,1.19-0.008,1.785,0.003c0.202,0.003,0.253-0.094,0.292-0.265c0.138-0.593,0.305-1.18,0.429-1.775
		c0.045-0.215,0.13-0.262,0.33-0.26c0.747,0.011,1.496,0.013,2.243,0c0.237-0.004,0.351,0.059,0.401,0.309
		c0.119,0.58,0.28,1.153,0.416,1.73c0.037,0.162,0.077,0.267,0.285,0.262C37.44,40.351,38.11,40.359,38.838,40.359z"/>
	<path fill-rule="evenodd" clip-rule="evenodd" fill="#FDFDFE" d="M18.095,35.138c0,1.618,0.007,3.235-0.008,4.853
		c-0.003,0.3,0.076,0.392,0.376,0.375c0.473-0.025,0.947-0.026,1.419,0c0.296,0.017,0.351-0.092,0.347-0.362
		c-0.016-1.022,0.001-2.045-0.011-3.067c-0.004-0.249,0.052-0.359,0.324-0.342c0.365,0.022,0.732,0.005,1.099,0.005
		c2.299,0,3.593-1.404,3.408-3.698c-0.142-1.766-1.47-2.99-3.251-2.994c-1.114-0.002-2.228,0.012-3.343-0.008
		c-0.311-0.006-0.37,0.097-0.367,0.383C18.101,31.902,18.095,33.52,18.095,35.138z"/>
	<path fill-rule="evenodd" clip-rule="evenodd" fill="#FDFDFE" d="M11.973,35.218c0.007-0.899-0.059-1.806,0.193-2.685
		c0.224-0.779,0.711-1.098,1.546-1.044c0.742,0.047,1.056,0.349,1.209,1.176c0.03,0.164,0.05,0.332,0.058,0.499
		c0.006,0.16,0.046,0.254,0.234,0.252c0.564-0.007,1.13,0,1.694-0.003c0.12-0.001,0.246,0.014,0.222-0.189
		c-0.14-1.206-0.454-2.328-1.607-2.969c-2.418-1.344-5.181,0.015-5.583,2.74c-0.193,1.306-0.114,2.624-0.061,3.932
		c0.034,0.843,0.288,1.653,0.805,2.348c0.817,1.103,1.976,1.324,3.256,1.272c1.833-0.073,3.146-1.407,3.169-3.241
		c0.003-0.251-0.083-0.315-0.314-0.309c-0.457,0.013-0.918,0.023-1.375-0.002c-0.322-0.019-0.441,0.063-0.467,0.413
		c-0.033,0.48-0.092,0.993-0.575,1.281c-0.914,0.543-2.008,0.073-2.25-0.964C11.934,36.898,11.976,36.056,11.973,35.218z"/>
	<path fill-rule="evenodd" clip-rule="evenodd" fill="#FDFDFE" d="M39.176,35.191c0,0.458-0.017,0.917,0.004,1.375
		c0.046,0.99,0.251,1.94,0.866,2.748c0.908,1.193,2.194,1.366,3.547,1.193c1.743-0.222,2.769-1.414,2.84-3.162
		c0.011-0.256-0.042-0.361-0.315-0.349c-0.412,0.018-0.826,0.03-1.236-0.003c-0.398-0.032-0.587,0.042-0.613,0.511
		c-0.033,0.584-0.187,1.151-0.908,1.314c-1.155,0.262-1.851-0.254-1.984-1.502c-0.126-1.173-0.067-2.35-0.062-3.524
		c0.003-0.408,0.073-0.823,0.175-1.22c0.201-0.795,0.682-1.119,1.516-1.083c0.771,0.034,1.092,0.334,1.249,1.181
		c0.03,0.165,0.05,0.333,0.056,0.5c0.005,0.166,0.059,0.249,0.24,0.246c0.565-0.007,1.131-0.001,1.696-0.003
		c0.124,0,0.237,0.006,0.215-0.195c-0.122-1.091-0.399-2.11-1.341-2.799c-1.969-1.444-4.911-0.484-5.671,1.826
		C39.13,33.21,39.175,34.2,39.176,35.191z"/>
	<path fill-rule="evenodd" clip-rule="evenodd" fill="#FDFDFE" d="M49.372,35.206c-0.004-0.884-0.052-1.775,0.18-2.641
		c0.211-0.791,0.689-1.114,1.522-1.077c0.77,0.035,1.089,0.337,1.246,1.187c0.03,0.164,0.051,0.332,0.055,0.499
		c0.005,0.171,0.068,0.244,0.245,0.241c0.565-0.007,1.131-0.001,1.696-0.004c0.102,0,0.2,0.012,0.219-0.155
		c0.113-0.965-0.719-2.521-1.624-3.013c-2.434-1.321-5.177,0.031-5.576,2.761c-0.191,1.306-0.114,2.623-0.059,3.933
		c0.036,0.843,0.29,1.654,0.81,2.346c0.912,1.215,2.207,1.4,3.579,1.223c1.741-0.225,2.769-1.423,2.835-3.167
		c0.01-0.262-0.055-0.353-0.321-0.343c-0.474,0.017-0.948,0.02-1.421-0.001c-0.29-0.013-0.38,0.076-0.404,0.377
		c-0.038,0.481-0.086,0.995-0.552,1.298c-0.874,0.568-2.031,0.103-2.272-0.912C49.329,36.918,49.372,36.061,49.372,35.206z"/>
	<path fill-rule="evenodd" clip-rule="evenodd" fill="#FDFDFE" d="M8.673,35.184c0-1.632-0.006-3.265,0.007-4.897
		c0.003-0.289-0.058-0.403-0.371-0.384c-0.471,0.028-0.946,0.025-1.418,0c-0.285-0.015-0.354,0.071-0.353,0.353
		c0.011,3.25,0.01,6.5,0.001,9.75c0,0.268,0.046,0.379,0.345,0.361c0.472-0.028,0.946-0.025,1.418-0.001
		c0.299,0.016,0.382-0.075,0.379-0.375C8.665,38.388,8.673,36.786,8.673,35.184z"/>
	<path fill-rule="evenodd" clip-rule="evenodd" fill="#FDFDFE" d="M11.751,43.807c-0.002,0-0.002,0-0.004,0
		c0-0.52,0.007-1.039-0.004-1.558c-0.005-0.209-0.089-0.388-0.323-0.444c-0.194-0.046-0.372-0.012-0.491,0.155
		c-0.12,0.166-0.141,0.365-0.141,0.567c0.003,0.901,0.008,1.802-0.001,2.703c-0.006,0.558,0.217,0.943,0.714,1.224
		c1.765,0.999,3.515,2.024,5.271,3.039c1.398,0.808,2.8,1.612,4.197,2.424c0.267,0.155,0.485,0.16,0.665-0.12
		c0.165-0.255,0.111-0.456-0.14-0.617c-0.193-0.123-0.375-0.263-0.572-0.377c-2.931-1.696-5.861-3.393-8.798-5.077
		c-0.268-0.153-0.406-0.31-0.381-0.637C11.775,44.664,11.751,44.234,11.751,43.807z"/>
	<path fill-rule="evenodd" clip-rule="evenodd" fill="#FDFDFE" d="M49.352,43.887c0-0.488-0.008-0.977,0-1.465
		c0.008-0.34-0.052-0.635-0.471-0.627c-0.391,0.006-0.445,0.294-0.443,0.612c0.002,0.839-0.023,1.68,0.01,2.518
		c0.016,0.415-0.114,0.643-0.482,0.853c-2.979,1.698-5.943,3.424-8.919,5.13c-0.313,0.179-0.423,0.406-0.264,0.707
		c0.164,0.31,0.443,0.264,0.714,0.127c0.082-0.041,0.162-0.084,0.241-0.129c2.994-1.73,5.985-3.467,8.985-5.188
		c0.436-0.25,0.637-0.585,0.629-1.073C49.346,44.863,49.351,44.375,49.352,43.887z"/>
	<path fill-rule="evenodd" clip-rule="evenodd" fill="#FDFDFE" d="M28.239,53.18c0.053-0.789-0.455-1.07-1.037-1.33
		c-1.174-0.526-2.407-0.75-3.682-0.789c-0.695-0.021-1.181,0.431-1.227,1.128c-0.024,0.373,0.059,0.722,0.213,1.062
		c0.104,0.228,0.212,0.308,0.486,0.228c1.377-0.4,2.787-0.472,4.211-0.361C27.552,53.145,27.901,53.161,28.239,53.18z"/>
	<path fill-rule="evenodd" clip-rule="evenodd" fill="#FDFDFE" d="M30.632,45.496c-0.405-0.04-0.817,0.035-1.221,0.205
		c-0.223,0.094-0.277,0.149-0.146,0.41c0.626,1.227,1.054,2.501,0.713,3.91c-0.018,0.067-0.081,0.134-0.005,0.205
		c0.123,0.115,0.966,0.018,1.07-0.134c0.632-0.925,0.956-1.957,1.085-3.065C32.241,46.052,31.649,45.357,30.632,45.496z"/>
	<path fill-rule="evenodd" clip-rule="evenodd" fill="#FDFDFE" d="M27.901,36.693c0.153,0,0.306,0.008,0.458-0.001
		c0.421-0.028,1.012,0.19,1.216-0.087c0.214-0.289,0.051-0.847,0.073-1.287c0.011-0.223-0.067-0.284-0.284-0.279
		c-0.655,0.013-1.313-0.008-1.968,0.008c-0.421,0.01-0.994-0.193-1.218,0.087c-0.213,0.264-0.053,0.815-0.082,1.238
		c-0.019,0.271,0.09,0.335,0.34,0.326C26.925,36.681,27.413,36.693,27.901,36.693z"/>
	<path fill-rule="evenodd" clip-rule="evenodd" fill="#FDFDFE" d="M21.853,23.56c0,0.442-0.005,0.885,0.002,1.327
		c0.003,0.132-0.078,0.324,0.188,0.324c0.229,0,0.229-0.143,0.229-0.305c-0.002-0.884-0.002-1.77,0-2.654
		c0-0.165-0.005-0.299-0.233-0.299c-0.231,0-0.184,0.155-0.185,0.281C21.849,22.675,21.853,23.118,21.853,23.56z"/>
	<path fill-rule="evenodd" clip-rule="evenodd" fill="#FDFDFE" d="M31.961,21.946c-0.008-0.151-0.1-0.25-0.25-0.25
		c-0.127,0.001-0.229,0.091-0.234,0.228c-0.006,0.16,0.097,0.257,0.248,0.257C31.854,22.181,31.941,22.093,31.961,21.946z"/>
	<path fill-rule="evenodd" clip-rule="evenodd" fill="#FDFDFE" d="M26.923,63.926c2.107,0,4.072,0,6.176,0
		c-0.807,0.467-1.545,0.82-2.196,1.291c-0.637,0.461-1.149,0.455-1.783-0.001C28.469,64.75,27.737,64.397,26.923,63.926z"/>
	<path fill-rule="evenodd" clip-rule="evenodd" fill="#FDFDFE" d="M48.358,60.122c0,0.568-0.015,1.109,0.007,1.649
		c0.012,0.281-0.105,0.314-0.345,0.319c-0.254,0.004-0.337-0.065-0.332-0.328c0.017-0.869,0.001-1.739,0.012-2.608
		c0.001-0.125-0.116-0.352,0.132-0.36c0.232-0.008,0.51-0.13,0.653,0.229c0.237,0.589,0.517,1.16,0.866,1.731
		c0-0.549,0.012-1.098-0.006-1.646c-0.01-0.256,0.063-0.34,0.325-0.333c0.239,0.006,0.35,0.04,0.345,0.319
		c-0.018,0.869-0.001,1.739-0.013,2.608c-0.003,0.133,0.126,0.378-0.169,0.375c-0.221-0.003-0.479,0.109-0.605-0.236
		c-0.169-0.456-0.393-0.891-0.602-1.33C48.565,60.383,48.551,60.218,48.358,60.122z"/>
	<path fill-rule="evenodd" clip-rule="evenodd" fill="#EDEFF1" d="M47.207,60.429c-0.021,0.285-0.02,0.531-0.061,0.769
		c-0.099,0.587-0.52,0.956-1.087,0.978c-0.619,0.023-1.052-0.288-1.2-0.892c-0.136-0.554-0.126-1.118-0.003-1.672
		c0.135-0.596,0.554-0.923,1.132-0.922c0.579,0,1.01,0.332,1.138,0.92C47.188,59.889,47.185,60.182,47.207,60.429z M45.469,60.408
		c0.013,0.243,0.006,0.503,0.047,0.757c0.039,0.26,0.186,0.455,0.482,0.455c0.271,0,0.418-0.176,0.46-0.419
		c0.09-0.511,0.096-1.026-0.009-1.536c-0.051-0.246-0.188-0.422-0.461-0.418c-0.293,0.005-0.434,0.206-0.477,0.464
		C45.475,59.934,45.481,60.165,45.469,60.408z"/>
	<path fill-rule="evenodd" clip-rule="evenodd" fill="#EDEFF1" d="M33.455,60.485c-0.017,0.228-0.019,0.457-0.053,0.681
		c-0.096,0.615-0.517,0.992-1.104,1.01c-0.618,0.018-1.042-0.293-1.189-0.905c-0.136-0.555-0.123-1.119,0.002-1.672
		c0.132-0.575,0.542-0.899,1.097-0.909c0.589-0.011,1.007,0.304,1.164,0.889C33.451,59.874,33.446,60.18,33.455,60.485z
		 M32.767,60.458c-0.017-0.287,0.021-0.576-0.081-0.857c-0.073-0.205-0.195-0.344-0.42-0.355c-0.249-0.013-0.424,0.132-0.47,0.353
		c-0.111,0.554-0.109,1.118,0,1.672c0.041,0.206,0.199,0.342,0.425,0.35c0.246,0.009,0.385-0.125,0.471-0.35
		C32.795,61.003,32.746,60.729,32.767,60.458z"/>
	<path fill-rule="evenodd" clip-rule="evenodd" fill="#FDFDFE" d="M12.144,62.038c-0.535,0.155-0.827-0.014-0.945-0.505
		c-0.041-0.175-0.14-0.336-0.206-0.506c-0.048-0.121-0.136-0.144-0.255-0.136c-0.162,0.011-0.141,0.127-0.141,0.23
		c-0.003,0.198-0.014,0.397,0.002,0.594c0.019,0.249-0.015,0.383-0.331,0.38c-0.296-0.003-0.349-0.099-0.343-0.367
		c0.016-0.868,0.021-1.737-0.002-2.605c-0.008-0.295,0.089-0.368,0.36-0.344c0.257,0.022,0.519-0.001,0.777,0.006
		c0.388,0.01,0.73,0.126,0.893,0.514c0.176,0.419,0.182,0.864-0.137,1.201c-0.198,0.211-0.199,0.344-0.083,0.573
		C11.89,61.38,12.006,61.708,12.144,62.038z M10.591,59.823c0.085,0.17-0.195,0.533,0.296,0.525
		c0.364-0.005,0.489-0.202,0.493-0.507c0.004-0.303-0.109-0.5-0.476-0.518C10.466,59.302,10.626,59.602,10.591,59.823z"/>
	<path fill-rule="evenodd" clip-rule="evenodd" fill="#FDFDFE" d="M30.758,62.049c-0.709,0.07-0.697,0.065-1.002-0.61
		c-0.093-0.206-0.059-0.62-0.421-0.525c-0.289,0.075-0.082,0.417-0.131,0.635c-0.05,0.224,0.16,0.58-0.345,0.544
		c-0.254-0.018-0.332-0.076-0.327-0.333c0.015-0.884,0.015-1.768,0-2.652c-0.005-0.258,0.067-0.351,0.329-0.329
		c0.256,0.021,0.517,0.001,0.776,0.005c0.404,0.006,0.766,0.118,0.928,0.529c0.17,0.436,0.17,0.883-0.182,1.233
		c-0.163,0.163-0.168,0.273-0.079,0.459C30.467,61.344,30.605,61.694,30.758,62.049z M29.195,59.824
		c0.08,0.179-0.184,0.537,0.306,0.524c0.365-0.01,0.483-0.211,0.486-0.513c0.003-0.305-0.119-0.498-0.482-0.512
		C29.062,59.306,29.241,59.613,29.195,59.824z"/>
	<path fill-rule="evenodd" clip-rule="evenodd" fill="#FDFDFE" d="M22.121,60.41c0-0.458,0.01-0.916-0.004-1.374
		c-0.006-0.201,0.061-0.27,0.26-0.257c0.243,0.016,0.49-0.008,0.732,0.008c0.149,0.01,0.304,0.044,0.442,0.101
		c0.646,0.266,0.904,1.124,0.682,2.227c-0.123,0.608-0.576,0.956-1.26,0.967c-0.853,0.014-0.853,0.014-0.853-0.847
		C22.121,60.96,22.121,60.685,22.121,60.41z M22.786,60.432c0,0.229-0.017,0.458,0.006,0.685c0.014,0.142-0.125,0.363,0.137,0.41
		c0.221,0.039,0.471-0.005,0.55-0.227c0.205-0.571,0.2-1.167,0.003-1.738c-0.076-0.218-0.33-0.263-0.551-0.224
		c-0.263,0.047-0.125,0.268-0.139,0.409C22.77,59.973,22.786,60.204,22.786,60.432z"/>
	<path fill-rule="evenodd" clip-rule="evenodd" fill="#EDEFF1" d="M40.609,59.704c-0.311-0.046-0.635,0.155-0.775-0.3
		c-0.064-0.212-0.319-0.23-0.502-0.078c-0.173,0.144-0.208,0.333-0.057,0.525c0.14,0.178,0.352,0.234,0.543,0.324
		c0.31,0.146,0.596,0.319,0.724,0.659c0.216,0.565-0.035,1.116-0.583,1.293c-0.623,0.2-1.344-0.135-1.487-0.705
		c-0.028-0.109-0.134-0.313,0.069-0.333c0.182-0.017,0.423-0.138,0.563,0.11c0.029,0.052,0.034,0.118,0.058,0.173
		c0.083,0.197,0.243,0.258,0.444,0.248c0.155-0.007,0.264-0.088,0.295-0.237c0.038-0.184,0.045-0.38-0.137-0.497
		c-0.165-0.105-0.352-0.18-0.528-0.267c-0.594-0.293-0.826-0.704-0.699-1.237c0.103-0.436,0.561-0.723,1.104-0.694
		C40.199,58.72,40.491,59.013,40.609,59.704z"/>
	<path fill-rule="evenodd" clip-rule="evenodd" fill="#EDEFF1" d="M43.078,59.68c-0.286-0.02-0.614,0.194-0.771-0.279
		c-0.069-0.212-0.323-0.226-0.504-0.073c-0.17,0.146-0.203,0.336-0.051,0.527c0.142,0.176,0.354,0.231,0.545,0.322
		c0.309,0.146,0.595,0.32,0.722,0.661c0.214,0.568-0.039,1.115-0.589,1.29c-0.623,0.199-1.346-0.14-1.483-0.709
		c-0.026-0.108-0.137-0.313,0.073-0.33c0.182-0.015,0.424-0.14,0.561,0.114c0.028,0.052,0.033,0.118,0.059,0.173
		c0.085,0.196,0.246,0.256,0.446,0.244c0.155-0.008,0.262-0.091,0.293-0.241c0.036-0.183,0.04-0.379-0.143-0.494
		c-0.165-0.104-0.351-0.179-0.527-0.267c-0.592-0.292-0.825-0.708-0.696-1.24c0.106-0.435,0.564-0.721,1.108-0.689
		C42.677,58.721,42.97,59.017,43.078,59.68z"/>
	<path fill-rule="evenodd" clip-rule="evenodd" fill="#EDEFF1" d="M50.324,62.051c0.32-1.023,0.643-2.035,0.949-3.053
		c0.067-0.222,0.209-0.219,0.383-0.219c0.191-0.001,0.332,0.001,0.405,0.245c0.298,1.006,0.624,2.003,0.949,3.036
		c-0.406,0.037-0.773,0.156-0.862-0.456c-0.048-0.32-0.416-0.122-0.637-0.154c-0.127-0.019-0.323-0.084-0.344,0.166
		C51.119,62.18,50.739,62.123,50.324,62.051z M51.363,60.844c0.604,0.089,0.604,0.089,0.47-0.457
		c-0.043-0.178-0.089-0.354-0.167-0.659C51.542,60.184,51.452,60.513,51.363,60.844z"/>
	<path fill-rule="evenodd" clip-rule="evenodd" fill="#EDEFF1" d="M5.598,60.444c0.011,0.259,0.008,0.521,0.039,0.776
		c0.03,0.231,0.159,0.39,0.419,0.403c0.248,0.012,0.44-0.089,0.468-0.334c0.051-0.458,0.404-0.285,0.584-0.241
		c0.261,0.064,0.081,0.313,0.034,0.458c-0.149,0.467-0.518,0.649-0.983,0.67c-0.486,0.022-0.896-0.137-1.076-0.607
		c-0.281-0.736-0.275-1.5-0.009-2.237c0.179-0.497,0.669-0.718,1.239-0.636c0.485,0.069,0.808,0.397,0.888,0.909
		c0.018,0.107,0.111,0.278-0.099,0.269c-0.185-0.008-0.475,0.148-0.539-0.131c-0.071-0.31-0.162-0.532-0.517-0.494
		c-0.386,0.041-0.413,0.351-0.431,0.646c-0.012,0.183-0.003,0.366-0.003,0.549C5.607,60.443,5.603,60.444,5.598,60.444z"/>
	<path fill-rule="evenodd" clip-rule="evenodd" fill="#FDFDFE" d="M25.88,60.433c0-0.456,0.01-0.913-0.005-1.369
		c-0.007-0.215,0.053-0.298,0.278-0.285c0.303,0.018,0.609-0.005,0.912,0.006c0.62,0.023,1.012,0.434,1.02,1.051
		c0.007,0.633-0.364,1.072-1.001,1.038c-0.499-0.026-0.605,0.161-0.543,0.587c0.016,0.104-0.011,0.214,0.006,0.319
		c0.043,0.291-0.118,0.302-0.347,0.311c-0.263,0.009-0.338-0.078-0.326-0.333C25.894,61.316,25.88,60.875,25.88,60.433z
		 M26.538,59.844c0.035,0.225-0.122,0.537,0.343,0.509c0.341-0.021,0.519-0.149,0.522-0.477c0.002-0.35-0.144-0.544-0.547-0.554
		C26.374,59.311,26.6,59.646,26.538,59.844z"/>
	<path fill-rule="evenodd" clip-rule="evenodd" fill="#FDFDFE" d="M7.64,60.396c0-0.428,0.013-0.856-0.005-1.282
		c-0.011-0.25,0.049-0.352,0.321-0.337c0.426,0.023,0.854,0.014,1.281,0.002c0.214-0.005,0.329,0.022,0.329,0.29
		c0.002,0.294-0.164,0.268-0.352,0.264c-0.183-0.003-0.367,0.014-0.549-0.004c-0.264-0.025-0.361,0.042-0.377,0.34
		c-0.021,0.405,0.095,0.534,0.503,0.504c0.181-0.013,0.51-0.202,0.568,0.204c0.029,0.206-0.003,0.37-0.277,0.331
		c-0.074-0.01-0.151-0.001-0.229-0.001c-0.596,0.001-0.609,0.029-0.557,0.607c0.017,0.193,0.098,0.224,0.257,0.22
		c0.229-0.006,0.458,0.008,0.688-0.004c0.218-0.012,0.329,0.031,0.324,0.293c-0.005,0.249-0.12,0.264-0.311,0.261
		c-0.442-0.008-0.887-0.018-1.327,0.003C7.67,62.1,7.628,61.993,7.635,61.77C7.649,61.312,7.64,60.854,7.64,60.396z"/>
	<path fill-rule="evenodd" clip-rule="evenodd" fill="#FDFDFE" d="M36.237,60.39c0-0.443,0.01-0.885-0.004-1.327
		c-0.009-0.219,0.06-0.292,0.281-0.284c0.457,0.015,0.915,0.016,1.373,0c0.236-0.009,0.273,0.091,0.273,0.297
		c0,0.2-0.064,0.273-0.263,0.259c-0.183-0.013-0.37,0.016-0.55-0.007c-0.35-0.044-0.448,0.072-0.464,0.439
		c-0.023,0.508,0.291,0.366,0.556,0.396c0.212,0.023,0.563-0.168,0.525,0.313c-0.015,0.18-0.072,0.245-0.245,0.232
		c-0.106-0.008-0.213-0.001-0.32-0.001c-0.464,0-0.648,0.271-0.498,0.706c0.053,0.15,0.16,0.115,0.258,0.118
		c0.229,0.007,0.458,0.014,0.687,0c0.228-0.016,0.318,0.049,0.317,0.3c-0.002,0.259-0.135,0.263-0.316,0.253
		c-0.529-0.031-1.06,0.06-1.585-0.052c-0.009-0.501-0.017-1.002-0.025-1.503C36.236,60.481,36.237,60.436,36.237,60.39z"/>
	<path fill-rule="evenodd" clip-rule="evenodd" fill="#FDFDFE" d="M19.83,60.422c-0.001-0.443,0.011-0.886-0.005-1.328
		c-0.008-0.225,0.038-0.33,0.296-0.317c0.44,0.021,0.884,0.012,1.327,0.003c0.19-0.003,0.304,0.015,0.309,0.262
		c0.006,0.264-0.108,0.306-0.324,0.292c-0.168-0.011-0.34,0.019-0.504-0.007c-0.377-0.06-0.453,0.109-0.446,0.454
		c0.007,0.292,0.074,0.423,0.382,0.379c0.134-0.019,0.274,0.008,0.411-0.006c0.224-0.022,0.28,0.073,0.285,0.288
		c0.005,0.244-0.108,0.283-0.307,0.265c-0.09-0.008-0.185,0.013-0.273-0.003c-0.408-0.075-0.533,0.089-0.497,0.492
		c0.022,0.242,0.054,0.368,0.329,0.34c0.211-0.022,0.428,0.004,0.641-0.007c0.198-0.011,0.308,0.025,0.303,0.268
		c-0.005,0.214-0.059,0.295-0.283,0.288c-0.457-0.015-0.916-0.016-1.373,0.001c-0.232,0.009-0.279-0.083-0.273-0.292
		C19.839,61.337,19.83,60.88,19.83,60.422z"/>
	<path fill-rule="evenodd" clip-rule="evenodd" fill="#FDFDFE" d="M34.87,58.783c0.197,0,0.396,0.007,0.594-0.001
		c0.203-0.009,0.332,0.003,0.332,0.28c-0.002,0.282-0.141,0.284-0.34,0.273c-0.137-0.008-0.276,0.017-0.411-0.005
		c-0.37-0.061-0.458,0.101-0.446,0.45c0.009,0.286,0.064,0.425,0.377,0.383c0.165-0.022,0.336,0.001,0.502-0.004
		c0.217-0.006,0.188,0.144,0.191,0.28c0.003,0.144,0.009,0.286-0.202,0.269c-0.03-0.003-0.061-0.001-0.091,0
		c-0.765,0.039-0.763,0.039-0.767,0.894c-0.002,0.24,0.098,0.527-0.35,0.493c-0.265-0.02-0.323-0.095-0.32-0.342
		c0.014-0.853,0.026-1.708-0.004-2.561c-0.012-0.356,0.102-0.458,0.432-0.412C34.531,58.801,34.702,58.783,34.87,58.783z"/>
	<path fill-rule="evenodd" clip-rule="evenodd" fill="#FDFDFE" d="M17.269,58.783c0.198,0,0.396,0.006,0.595-0.001
		c0.199-0.008,0.336-0.004,0.334,0.278c-0.004,0.278-0.135,0.287-0.337,0.274c-0.137-0.009-0.277,0.016-0.411-0.005
		c-0.367-0.058-0.464,0.094-0.449,0.448c0.012,0.283,0.059,0.428,0.375,0.385c0.165-0.022,0.335,0.001,0.503-0.004
		c0.216-0.008,0.19,0.141,0.191,0.278c0.003,0.142,0.013,0.288-0.198,0.271c-0.03-0.003-0.062-0.001-0.092,0
		c-0.768,0.04-0.765,0.04-0.77,0.892c-0.001,0.236,0.105,0.529-0.346,0.495c-0.262-0.02-0.326-0.09-0.323-0.341
		c0.016-0.853,0.025-1.707-0.003-2.56c-0.013-0.353,0.094-0.462,0.43-0.415C16.932,58.802,17.102,58.783,17.269,58.783z"/>
	<path fill-rule="evenodd" clip-rule="evenodd" fill="#EDEFF1" d="M13.147,60.674c0-0.229-0.017-0.459,0.004-0.687
		c0.04-0.442,0.005-0.788-0.592-0.657c-0.224,0.049-0.229-0.113-0.233-0.281c-0.006-0.186,0.038-0.276,0.249-0.273
		c0.61,0.011,1.22,0.012,1.83,0c0.215-0.005,0.245,0.09,0.251,0.273c0.007,0.213-0.058,0.33-0.28,0.282
		c-0.505-0.107-0.565,0.157-0.545,0.576c0.03,0.623-0.007,1.25,0.015,1.875c0.01,0.297-0.139,0.3-0.361,0.308
		c-0.244,0.008-0.362-0.04-0.343-0.319C13.166,61.407,13.147,61.04,13.147,60.674z"/>
	<path fill-rule="evenodd" clip-rule="evenodd" fill="#FDFDFE" d="M53.378,60.436c0-0.412-0.001-0.823,0-1.235
		c0.001-0.219-0.071-0.435,0.319-0.435c0.399,0,0.348,0.213,0.346,0.457c-0.004,0.64,0.019,1.281-0.009,1.92
		c-0.015,0.332,0.101,0.433,0.41,0.393c0.149-0.02,0.306,0.003,0.457-0.005c0.205-0.011,0.333,0.005,0.332,0.281
		c-0.001,0.283-0.143,0.284-0.34,0.271c-0.497-0.035-1.145,0.209-1.445-0.099c-0.239-0.245-0.063-0.895-0.07-1.365
		C53.377,60.558,53.378,60.497,53.378,60.436z"/>
	<path fill-rule="evenodd" clip-rule="evenodd" fill="#EDEFF1" d="M44.287,60.443c0,0.442-0.016,0.885,0.006,1.326
		c0.015,0.278-0.103,0.332-0.346,0.32c-0.21-0.01-0.375,0.016-0.368-0.296c0.02-0.914,0.018-1.828,0.001-2.743
		c-0.006-0.288,0.149-0.271,0.343-0.272c0.21-0.001,0.388-0.019,0.371,0.294C44.27,59.527,44.287,59.986,44.287,60.443z"/>
	<path fill-rule="evenodd" clip-rule="evenodd" fill="#EDEFF1" d="M15.08,60.417c0-0.458,0.016-0.916-0.006-1.371
		c-0.014-0.294,0.158-0.273,0.347-0.266c0.174,0.006,0.369-0.057,0.365,0.25c-0.013,0.929-0.016,1.859,0.001,2.788
		c0.006,0.34-0.215,0.248-0.396,0.268c-0.229,0.024-0.328-0.045-0.316-0.297C15.094,61.333,15.08,60.875,15.08,60.417z"/>
	<path fill-rule="evenodd" clip-rule="evenodd" fill="#EDEFF1" d="M19.265,60.438c0,0.457-0.018,0.915,0.006,1.371
		c0.017,0.333-0.195,0.264-0.386,0.277c-0.216,0.016-0.332-0.022-0.327-0.288c0.015-0.914,0.015-1.829-0.001-2.743
		c-0.005-0.281,0.137-0.282,0.338-0.277c0.204,0.003,0.394-0.032,0.377,0.289C19.246,59.522,19.265,59.98,19.265,60.438z"/>
	<path fill-rule="evenodd" clip-rule="evenodd" fill="#133C5F" d="M49.352,26.426c0,0.626-0.006,1.252,0,1.878
		c0.006,0.355,0.011,0.712-0.476,0.717c-0.48,0.004-0.44-0.357-0.439-0.686c0.002-1.222-0.006-2.443,0.007-3.665
		c0.003-0.26-0.073-0.409-0.305-0.542C42.23,20.726,36.325,17.318,30.427,13.9c-0.265-0.153-0.448-0.133-0.7,0.013
		c-5.873,3.401-11.75,6.795-17.633,10.182c-0.26,0.15-0.357,0.309-0.351,0.609c0.021,0.977,0.005,1.955,0.01,2.932
		c0.002,0.339-0.063,0.64-0.473,0.64c-0.396,0-0.491-0.293-0.491-0.633c0-1.039,0.007-2.078-0.002-3.116
		c-0.006-0.594,0.306-0.944,0.797-1.227c5.088-2.926,10.172-5.863,15.256-8.797c0.845-0.488,1.697-0.963,2.531-1.469
		c0.481-0.293,0.922-0.291,1.407-0.009c5.927,3.425,11.856,6.847,17.792,10.256c0.551,0.316,0.834,0.707,0.789,1.359
		C49.319,25.232,49.352,25.83,49.352,26.426z"/>
	<path fill-rule="evenodd" clip-rule="evenodd" fill="#133C5F" d="M38.838,40.359c-0.728,0-1.397-0.009-2.068,0.005
		c-0.208,0.005-0.248-0.1-0.285-0.262c-0.136-0.578-0.297-1.15-0.416-1.73c-0.051-0.25-0.164-0.313-0.401-0.309
		c-0.747,0.013-1.496,0.011-2.243,0c-0.2-0.002-0.285,0.045-0.33,0.26c-0.124,0.595-0.291,1.182-0.429,1.775
		c-0.039,0.171-0.09,0.269-0.292,0.265c-0.595-0.011-1.19-0.007-1.785-0.003c-0.372,0.003-0.186-0.215-0.141-0.359
		c0.785-2.527,1.573-5.053,2.36-7.579c0.227-0.726,0.472-1.446,0.671-2.178c0.077-0.283,0.207-0.353,0.475-0.34
		c0.442,0.02,0.886,0.012,1.328,0.002c0.188-0.004,0.286,0.036,0.352,0.245C36.687,33.532,37.752,36.909,38.838,40.359z
		 M34.566,32.812c-0.333,1.27-0.635,2.416-0.943,3.588c0.65,0,1.257,0,1.895,0C35.21,35.239,34.907,34.097,34.566,32.812z"/>
	<path fill-rule="evenodd" clip-rule="evenodd" fill="#133C5F" d="M18.095,35.138c0-1.618,0.006-3.235-0.007-4.853
		c-0.003-0.287,0.057-0.389,0.367-0.383c1.115,0.02,2.229,0.006,3.343,0.008c1.781,0.003,3.109,1.228,3.251,2.994
		c0.185,2.293-1.109,3.698-3.408,3.698c-0.366,0-0.733,0.017-1.099-0.005c-0.272-0.017-0.328,0.093-0.324,0.342
		c0.012,1.022-0.005,2.045,0.011,3.067c0.004,0.27-0.051,0.379-0.347,0.362c-0.472-0.026-0.946-0.026-1.419,0
		c-0.3,0.017-0.379-0.075-0.376-0.375C18.102,38.373,18.095,36.755,18.095,35.138z M20.223,33.254c0,0.123,0,0.244,0,0.367
		c0,1.453,0,1.453,1.478,1.315c0.624-0.058,0.989-0.35,1.127-0.954c0.112-0.496,0.112-1.001-0.052-1.491
		c-0.213-0.635-0.588-0.911-1.256-0.93c-0.32-0.009-0.643,0.013-0.962-0.006c-0.252-0.015-0.354,0.055-0.341,0.326
		C20.238,32.338,20.223,32.797,20.223,33.254z"/>
	<path fill-rule="evenodd" clip-rule="evenodd" fill="#133C5F" d="M11.974,35.218c0.002,0.838-0.04,1.681,0.152,2.507
		c0.242,1.037,1.336,1.507,2.25,0.964c0.483-0.288,0.542-0.801,0.575-1.281c0.025-0.35,0.145-0.432,0.467-0.413
		c0.457,0.026,0.918,0.016,1.375,0.002c0.231-0.007,0.317,0.058,0.314,0.309c-0.023,1.833-1.336,3.168-3.169,3.241
		c-1.28,0.052-2.438-0.17-3.256-1.272c-0.517-0.695-0.771-1.505-0.805-2.348c-0.054-1.309-0.133-2.626,0.061-3.932
		c0.402-2.726,3.165-4.084,5.583-2.74c1.153,0.641,1.468,1.763,1.607,2.969c0.024,0.204-0.102,0.188-0.222,0.189
		c-0.564,0.003-1.13-0.003-1.694,0.003c-0.188,0.002-0.229-0.092-0.234-0.252c-0.008-0.167-0.027-0.334-0.058-0.499
		c-0.153-0.828-0.467-1.129-1.209-1.176c-0.835-0.053-1.322,0.265-1.546,1.044C11.914,33.412,11.979,34.318,11.974,35.218z"/>
	<path fill-rule="evenodd" clip-rule="evenodd" fill="#133C5F" d="M39.176,35.191c-0.001-0.991-0.046-1.981,0.272-2.948
		c0.76-2.311,3.702-3.271,5.671-1.826c0.941,0.689,1.219,1.708,1.341,2.799c0.022,0.202-0.091,0.195-0.215,0.195
		c-0.565,0.002-1.131-0.003-1.696,0.003c-0.182,0.002-0.235-0.081-0.24-0.246c-0.006-0.167-0.025-0.334-0.056-0.5
		c-0.157-0.847-0.479-1.147-1.249-1.181c-0.834-0.036-1.314,0.288-1.516,1.083c-0.102,0.396-0.172,0.812-0.175,1.22
		c-0.006,1.175-0.064,2.352,0.062,3.524c0.134,1.249,0.829,1.765,1.984,1.502c0.722-0.163,0.875-0.73,0.908-1.314
		c0.026-0.469,0.215-0.542,0.613-0.511c0.41,0.033,0.824,0.021,1.236,0.003c0.273-0.013,0.326,0.093,0.315,0.349
		c-0.071,1.749-1.097,2.94-2.84,3.162c-1.353,0.172-2.639,0-3.547-1.193c-0.615-0.807-0.82-1.757-0.866-2.748
		C39.159,36.108,39.176,35.65,39.176,35.191z"/>
	<path fill-rule="evenodd" clip-rule="evenodd" fill="#133C5F" d="M49.372,35.206c0,0.854-0.043,1.712,0.157,2.552
		c0.241,1.015,1.398,1.48,2.272,0.912c0.466-0.303,0.514-0.817,0.552-1.298c0.024-0.302,0.114-0.39,0.404-0.377
		c0.473,0.021,0.947,0.018,1.421,0.001c0.267-0.01,0.331,0.081,0.321,0.343c-0.066,1.743-1.094,2.941-2.835,3.167
		c-1.372,0.177-2.667-0.008-3.579-1.223c-0.52-0.692-0.773-1.503-0.81-2.346c-0.056-1.31-0.133-2.627,0.059-3.933
		c0.399-2.729,3.143-4.082,5.576-2.761c0.905,0.491,1.737,2.047,1.624,3.013c-0.019,0.167-0.117,0.154-0.219,0.155
		c-0.565,0.003-1.131-0.003-1.696,0.004c-0.177,0.002-0.24-0.07-0.245-0.241c-0.004-0.167-0.024-0.334-0.055-0.499
		c-0.157-0.85-0.477-1.152-1.246-1.187c-0.833-0.038-1.312,0.286-1.522,1.077C49.32,33.431,49.368,34.322,49.372,35.206z"/>
	<path fill-rule="evenodd" clip-rule="evenodd" fill="#133C5F" d="M37.301,22.937c-0.538,0.37-1.119,0.603-1.786,0.556
		c-0.157-0.012-0.248,0.092-0.359,0.17c-0.852,0.597-1.525,0.55-2.244-0.182c-0.194-0.197-0.259,0.008-0.37,0.066
		c-0.27,0.142-0.541,0.452-0.777-0.04c-0.015-0.031-0.066-0.059-0.103-0.06c-0.253-0.013-1.071,0.677-1.11,0.933
		c-0.084,0.559-0.188,1.113-0.442,1.625c-0.278,0.56-0.788,1-1.107,0.859c-0.488-0.216-0.538-0.757-0.572-1.196
		c-0.025-0.316-0.095-0.542-0.304-0.755c-0.241-0.247-0.307-0.752-0.6-0.795c-0.251-0.037-0.538,0.403-0.844,0.469
		c-0.739,0.16-1.081,0.769-1.583,1.304c0.004-0.385,0.422-0.507,0.334-0.84l-0.008,0.004c0.155-0.003,0.201-0.059,0.097-0.191
		l-0.004,0.007c0.239,0.037,0.198-0.188,0.247-0.295c0.357-0.773,0.453-1.611,0.579-2.442c0.057-0.377,0.142-0.752,0.172-1.132
		c0.038-0.457,0.23-0.8,0.647-1.041c0.188,0.988,0.322,1.983,0.698,2.993c1.032-1.207,2.036-2.373,3.705-2.529
		c0.288-0.026,0.567,0.038,0.852,0.263c-2.024-0.006-3.178,1.273-4.27,2.652c-0.096,0.122-0.058,0.221,0.008,0.333
		c0.092,0.159,0.172,0.325,0.269,0.479c0.351,0.56,0.361,0.554,0.84,0.107c0.157-0.147,0.164-0.186-0.015-0.353
		c-0.484-0.458-0.384-1.335,0.141-1.632c0.165-0.094,0.305-0.091,0.365,0.097c0.044,0.13,0.28,0.307-0.07,0.409
		c-0.222,0.065-0.367,0.265-0.46,0.484c-0.063,0.114-0.053,0.171,0.095,0.128c0.488-0.172,0.729-0.616,1.069-1
		c0.211,0.278,0.21,0.599,0.243,0.939c0.46-0.194,0.825-0.431,1.143-0.753c0.171,0.153,0.174,0.362,0.274,0.563
		c0.331-0.144,0.571-0.275,0.499-0.747c-0.104-0.675,0.002-1.346,0.438-1.913c0.303-0.394,0.462-0.331,0.697,0.108
		c0.496,0.926-0.028,1.628-0.501,2.302c-0.271,0.388-0.099,0.466,0.194,0.557c0.501,0.155,0.961,0.014,1.403-0.231
		c0.212-0.117,0.094-0.241,0.039-0.377c-0.08-0.2-0.156-0.409,0.004-0.606c0.12-0.147,0.288-0.171,0.458-0.116
		c0.214,0.067,0.355,0.238,0.316,0.449c-0.094,0.514,0.197,0.421,0.492,0.346c0.514-0.133,0.93-0.452,1.38-0.708
		c0.071-0.041,0.12-0.166,0.222-0.079c0.104,0.091-0.009,0.152-0.052,0.225c-0.115,0.192-0.224,0.387-0.335,0.582L37.301,22.937z
		 M30.272,24.224c-0.624,0.37-1.121,0.777-1.477,1.334c-0.123,0.192-0.311,0.462-0.087,0.651c0.217,0.185,0.492,0.027,0.703-0.128
		c0.12-0.088,0.23-0.2,0.319-0.32C30.051,25.326,30.195,24.828,30.272,24.224z M26.341,24.015c0.03,0.025,0.061,0.05,0.09,0.075
		c0.248-0.144,0.498-0.284,0.743-0.433c0.102-0.063,0.207-0.129,0.157-0.289c-0.147-0.468-0.286-0.938-0.428-1.408
		C26.721,22.661,26.622,23.36,26.341,24.015z M32.751,22.66c0.447-0.534,0.712-1.021,0.887-1.559
		c0.032-0.097,0.084-0.219-0.021-0.295c-0.132-0.096-0.232,0.016-0.309,0.103C32.897,21.374,32.728,21.921,32.751,22.66z"/>
	<path fill-rule="evenodd" clip-rule="evenodd" fill="#133C5F" d="M8.673,35.184c0,1.603-0.008,3.205,0.008,4.807
		c0.003,0.301-0.08,0.391-0.379,0.375c-0.472-0.024-0.946-0.027-1.418,0.001c-0.299,0.018-0.345-0.093-0.345-0.361
		c0.009-3.25,0.01-6.5-0.001-9.75c-0.001-0.282,0.067-0.368,0.353-0.353c0.472,0.025,0.947,0.028,1.418,0
		c0.313-0.019,0.374,0.095,0.371,0.384C8.667,31.918,8.673,33.551,8.673,35.184z"/>
	<path fill-rule="evenodd" clip-rule="evenodd" fill="#133C5F" d="M11.751,43.807c0,0.427,0.024,0.857-0.008,1.282
		c-0.025,0.327,0.113,0.483,0.381,0.637c2.937,1.684,5.867,3.381,8.798,5.077c0.197,0.114,0.379,0.254,0.572,0.377
		c0.251,0.162,0.305,0.362,0.14,0.617c-0.18,0.279-0.398,0.275-0.665,0.12c-1.397-0.812-2.799-1.616-4.197-2.424
		c-1.756-1.015-3.506-2.04-5.271-3.039c-0.497-0.281-0.72-0.666-0.714-1.224c0.009-0.901,0.004-1.802,0.001-2.703
		c0-0.202,0.021-0.401,0.141-0.567c0.119-0.167,0.297-0.201,0.491-0.155c0.234,0.056,0.318,0.235,0.323,0.444
		c0.011,0.52,0.004,1.039,0.004,1.558C11.749,43.807,11.749,43.807,11.751,43.807z"/>
	<path fill-rule="evenodd" clip-rule="evenodd" fill="#133C5F" d="M49.352,43.887c-0.001,0.489-0.006,0.977,0,1.465
		c0.008,0.488-0.193,0.823-0.629,1.073c-3,1.72-5.991,3.457-8.985,5.188c-0.079,0.045-0.159,0.088-0.241,0.129
		c-0.271,0.137-0.55,0.182-0.714-0.127c-0.159-0.301-0.049-0.528,0.264-0.707c2.976-1.707,5.94-3.433,8.919-5.13
		c0.368-0.21,0.498-0.438,0.482-0.853c-0.033-0.838-0.008-1.679-0.01-2.518c-0.002-0.318,0.053-0.606,0.443-0.612
		c0.419-0.007,0.479,0.287,0.471,0.627C49.344,42.91,49.352,43.398,49.352,43.887z"/>
	<path fill-rule="evenodd" clip-rule="evenodd" fill="#133C5F" d="M28.239,53.18c-0.338-0.02-0.688-0.035-1.035-0.062
		c-1.424-0.111-2.834-0.039-4.211,0.361c-0.274,0.08-0.383,0-0.486-0.228c-0.154-0.339-0.237-0.688-0.213-1.062
		c0.046-0.697,0.531-1.15,1.227-1.128c1.274,0.039,2.508,0.263,3.682,0.789C27.784,52.11,28.292,52.391,28.239,53.18z"/>
	<path fill-rule="evenodd" clip-rule="evenodd" fill="#133C5F" d="M35.127,47.647c0.428,0.117,0.821,0.31,1.201,0.533
		c0.471,0.277,0.752,0.655,0.64,1.235c-0.435,0.839-1.198,1.33-1.946,1.836c-0.808,0.355-1.601,0.74-2.469,0.939
		c-0.255,0.058-0.295-0.006-0.386-0.246c-0.209-0.548-0.128-0.854,0.44-1.136c0.538-0.266,0.964-0.738,1.342-1.223
		C34.449,49.005,35.021,48.468,35.127,47.647z"/>
	<path fill-rule="evenodd" clip-rule="evenodd" fill="#133C5F" d="M33.867,49.437c-0.549,0.479-1.039,1.029-1.671,1.407
		c-0.124,0.074-0.26,0.237-0.404,0.144c-0.238-0.155-0.452-0.353-0.656-0.551c-0.061-0.058,0.052-0.126,0.093-0.185
		c0.81-1.164,1.157-2.458,1.091-3.867c-0.006-0.133,0.016-0.214,0.157-0.206c0.747,0.044,1.496,0.086,2.1,0.618
		c0.24,0.213,0.33,0.504,0.401,0.802C34.821,48.341,34.284,48.852,33.867,49.437z"/>
	<path fill-rule="evenodd" clip-rule="evenodd" fill="#133C5F" d="M25.902,46.676c-0.006-0.03-0.028-0.076-0.016-0.086
		c0.656-0.609,1.373-1.103,2.326-1.02c0.324,0.028,0.629,0.182,0.794,0.478c0.626,1.122,0.997,2.307,0.822,3.614
		c-0.05,0.375-0.143,0.708-0.59,0.8c-0.124,0.026-0.229,0.143-0.342,0.218c-0.124-0.097-0.109-0.241-0.133-0.373
		C28.462,48.582,27.32,47.521,25.902,46.676z"/>
	<path fill-rule="evenodd" clip-rule="evenodd" fill="#133C5F" d="M23.716,48.35c0.127-0.31,0.261-0.614,0.466-0.885
		c0.409-0.54,0.909-0.846,1.611-0.688c1.438,0.961,2.561,2.15,2.854,3.94c-0.121,0.227-0.051,0.684-0.549,0.453
		c-0.086-0.104-0.16-0.22-0.257-0.311C26.64,49.736,25.273,48.886,23.716,48.35z"/>
	<path fill-rule="evenodd" clip-rule="evenodd" fill="#133C5F" d="M30.632,45.496c1.018-0.139,1.609,0.557,1.497,1.53
		c-0.129,1.108-0.453,2.14-1.085,3.065c-0.104,0.152-0.947,0.25-1.07,0.134c-0.076-0.071-0.013-0.138,0.005-0.205
		c0.341-1.409-0.087-2.683-0.713-3.91c-0.132-0.26-0.077-0.315,0.146-0.41C29.814,45.53,30.227,45.456,30.632,45.496z"/>
	<path fill-rule="evenodd" clip-rule="evenodd" fill="#133C5F" d="M37.061,49.595c0.461,0.502,0.651,1.124,0.704,1.777
		c0.039,0.488-0.173,0.886-0.661,1.088c-1.509,0.625-3.063,0.993-4.709,0.824c-0.144-0.015-0.456,0.004-0.397-0.151
		c0.086-0.23,0.003-0.603,0.418-0.675c0.985-0.171,1.889-0.564,2.728-1.107C35.916,50.913,36.619,50.396,37.061,49.595z"/>
	<path fill-rule="evenodd" clip-rule="evenodd" fill="#133C5F" d="M27.867,51.188c0.053,0.074,0.098,0.156,0.158,0.223
		c0.146,0.162,0.235,0.364,0.09,0.531c-0.131,0.151-0.265-0.057-0.39-0.114c-1.33-0.606-2.694-1.063-4.184-1.021
		c-0.295,0.008-0.576,0.023-0.825,0.199c-0.398-0.949,0.038-2.04,0.967-2.436c0.228,0.078,0.461,0.143,0.682,0.238
		C25.686,49.373,26.868,50.147,27.867,51.188z"/>
	<path fill-rule="evenodd" clip-rule="evenodd" fill="#133C5F" d="M27.901,36.693c-0.488,0-0.977-0.012-1.465,0.005
		c-0.25,0.009-0.358-0.055-0.34-0.326c0.029-0.423-0.131-0.975,0.082-1.238c0.224-0.28,0.797-0.077,1.218-0.087
		c0.655-0.016,1.313,0.004,1.968-0.008c0.217-0.005,0.295,0.056,0.284,0.279c-0.022,0.44,0.141,0.998-0.073,1.287
		c-0.204,0.278-0.795,0.06-1.216,0.087C28.207,36.701,28.055,36.693,27.901,36.693z"/>
	<path fill-rule="evenodd" clip-rule="evenodd" fill="#133C5F" d="M25.433,25.05c-0.167-0.12-0.269,0.058-0.396,0.099
		c-0.899,0.288-1.793-0.054-2.131-0.833c-0.364-0.837-0.057-1.785,0.729-2.202c0.525-0.279,1.056-0.231,1.61,0.052
		c-0.398,0.163-0.78-0.142-1.157,0.037c-0.119,0.056-0.239,0.094-0.333,0.189c-0.518,0.521-0.588,1.625-0.141,2.204
		c0.345,0.446,0.961,0.557,1.577,0.272c0.117-0.053,0.218-0.174,0.325,0.002l0.004-0.007c-0.132,0.015-0.183,0.069-0.097,0.191
		L25.433,25.05z"/>
	<path fill-rule="evenodd" clip-rule="evenodd" fill="#133C5F" d="M21.853,23.56c0-0.442-0.004-0.885,0.001-1.327
		c0.001-0.125-0.047-0.281,0.185-0.281c0.229,0,0.233,0.135,0.233,0.299c-0.002,0.884-0.002,1.77,0,2.654
		c0,0.163,0.001,0.306-0.229,0.305c-0.267,0-0.186-0.192-0.188-0.324C21.848,24.445,21.853,24.002,21.853,23.56z"/>
	<path fill-rule="evenodd" clip-rule="evenodd" fill="#EDEFF1" d="M28.646,50.717c-0.293-1.791-1.415-2.979-2.854-3.94
		c0.036-0.034,0.073-0.067,0.109-0.1c1.418,0.844,2.56,1.906,2.862,3.63c0.023,0.132,0.009,0.276,0.133,0.373
		C28.813,50.692,28.729,50.705,28.646,50.717z"/>
	<path fill-rule="evenodd" clip-rule="evenodd" fill="#EDEFF1" d="M27.867,51.188c-0.999-1.041-2.182-1.815-3.502-2.381
		c-0.221-0.095-0.454-0.16-0.682-0.238c0.011-0.073,0.021-0.146,0.032-0.219c1.558,0.536,2.924,1.386,4.125,2.509
		c0.097,0.091,0.171,0.207,0.257,0.311C28.021,51.176,27.944,51.182,27.867,51.188z"/>
	<path fill-rule="evenodd" clip-rule="evenodd" fill="#EDEFF1" d="M37.061,49.595c-0.441,0.802-1.145,1.318-1.918,1.756
		c-0.041-0.033-0.081-0.066-0.121-0.099c0.748-0.506,1.512-0.998,1.946-1.836C36.999,49.475,37.03,49.535,37.061,49.595z"/>
	<path fill-rule="evenodd" clip-rule="evenodd" fill="#EDEFF1" d="M33.867,49.437c0.417-0.585,0.954-1.096,1.11-1.838
		c0.049,0.016,0.099,0.032,0.149,0.048c-0.105,0.821-0.678,1.358-1.178,1.939C33.922,49.536,33.895,49.487,33.867,49.437z"/>
	<path fill-rule="evenodd" clip-rule="evenodd" fill="#EDEFF1" d="M37.305,22.934c0.247,0.031,0.497-0.043,0.742,0.121
		c0.145,0.096,0.129,0.183,0.115,0.293c-0.018,0.139-0.129,0.131-0.241,0.143c-0.421,0.048-0.536-0.233-0.62-0.555L37.305,22.934z"
		/>
	<path fill-rule="evenodd" clip-rule="evenodd" fill="#133C5F" d="M31.961,21.946c-0.02,0.147-0.106,0.235-0.236,0.235
		c-0.151,0-0.254-0.097-0.248-0.257c0.006-0.137,0.107-0.227,0.234-0.228C31.861,21.695,31.953,21.794,31.961,21.946z"/>
	<path fill-rule="evenodd" clip-rule="evenodd" fill="#133C5F" d="M45.469,60.408c0.013-0.244,0.006-0.475,0.043-0.698
		c0.043-0.258,0.184-0.458,0.477-0.464c0.272-0.004,0.41,0.172,0.461,0.418c0.104,0.51,0.099,1.025,0.009,1.536
		c-0.042,0.243-0.188,0.419-0.46,0.419c-0.297,0-0.443-0.195-0.482-0.455C45.475,60.911,45.481,60.651,45.469,60.408z"/>
	<path fill-rule="evenodd" clip-rule="evenodd" fill="#133C5F" d="M32.766,60.458c-0.02,0.27,0.029,0.544-0.074,0.811
		c-0.086,0.225-0.225,0.359-0.471,0.35c-0.226-0.007-0.384-0.144-0.425-0.35c-0.109-0.554-0.111-1.118,0-1.672
		c0.046-0.221,0.221-0.366,0.47-0.353c0.225,0.012,0.347,0.15,0.42,0.355C32.788,59.882,32.75,60.171,32.766,60.458z"/>
	<path fill-rule="evenodd" clip-rule="evenodd" fill="#133C5F" d="M10.591,59.823c0.035-0.222-0.125-0.521,0.313-0.5
		c0.366,0.018,0.479,0.215,0.476,0.518c-0.004,0.305-0.129,0.501-0.493,0.507C10.396,60.356,10.676,59.993,10.591,59.823z"/>
	<path fill-rule="evenodd" clip-rule="evenodd" fill="#133C5F" d="M29.195,59.824c0.046-0.211-0.134-0.519,0.31-0.501
		c0.363,0.014,0.485,0.207,0.482,0.512c-0.003,0.302-0.121,0.503-0.486,0.513C29.012,60.361,29.275,60.003,29.195,59.824z"/>
	<path fill-rule="evenodd" clip-rule="evenodd" fill="#133C5F" d="M22.786,60.432c0-0.228-0.017-0.458,0.006-0.685
		c0.014-0.142-0.124-0.362,0.139-0.409c0.221-0.039,0.475,0.005,0.551,0.224c0.197,0.571,0.202,1.167-0.003,1.738
		c-0.079,0.222-0.329,0.266-0.55,0.227c-0.262-0.047-0.123-0.269-0.137-0.41C22.77,60.89,22.786,60.66,22.786,60.432z"/>
	<path fill-rule="evenodd" clip-rule="evenodd" fill="#133C5F" d="M51.363,60.844c0.089-0.331,0.179-0.66,0.303-1.116
		c0.078,0.305,0.124,0.481,0.167,0.659C51.967,60.933,51.967,60.933,51.363,60.844z"/>
	<path fill-rule="evenodd" clip-rule="evenodd" fill="#133C5F" d="M26.538,59.844c0.062-0.197-0.164-0.533,0.318-0.522
		c0.403,0.01,0.549,0.205,0.547,0.554c-0.004,0.328-0.182,0.456-0.522,0.477C26.416,60.38,26.573,60.068,26.538,59.844z"/>
	<path fill-rule="evenodd" clip-rule="evenodd" fill="#FDFDFE" d="M34.566,32.812c0.341,1.286,0.644,2.428,0.951,3.588
		c-0.638,0-1.244,0-1.895,0C33.932,35.227,34.233,34.082,34.566,32.812z"/>
	<path fill-rule="evenodd" clip-rule="evenodd" fill="#FDFDFE" d="M20.223,33.254c0-0.458,0.016-0.917-0.006-1.374
		c-0.013-0.271,0.089-0.341,0.341-0.326c0.319,0.02,0.642-0.002,0.962,0.006c0.668,0.019,1.043,0.294,1.256,0.93
		c0.164,0.49,0.164,0.995,0.052,1.491c-0.138,0.604-0.503,0.896-1.127,0.954c-1.478,0.138-1.478,0.138-1.478-1.315
		C20.223,33.499,20.223,33.377,20.223,33.254z"/>
	<path fill-rule="evenodd" clip-rule="evenodd" fill="#EDEFF1" d="M30.272,24.224c-0.077,0.604-0.222,1.103-0.541,1.537
		c-0.089,0.121-0.199,0.232-0.319,0.32c-0.211,0.155-0.486,0.313-0.703,0.128c-0.224-0.188-0.036-0.458,0.087-0.651
		C29.151,25,29.648,24.593,30.272,24.224z"/>
	<path fill-rule="evenodd" clip-rule="evenodd" fill="#EDEFF1" d="M26.341,24.015c0.281-0.655,0.38-1.354,0.563-2.055
		c0.142,0.47,0.28,0.94,0.428,1.408c0.05,0.16-0.056,0.226-0.157,0.289c-0.245,0.149-0.495,0.29-0.743,0.433
		C26.401,24.065,26.371,24.041,26.341,24.015z"/>
	<path fill-rule="evenodd" clip-rule="evenodd" fill="#EDEFF1" d="M32.751,22.66c-0.023-0.739,0.146-1.286,0.557-1.751
		c0.076-0.087,0.177-0.199,0.309-0.103c0.105,0.076,0.054,0.198,0.021,0.295C33.463,21.638,33.198,22.125,32.751,22.66z"/>
	<path fill-rule="evenodd" clip-rule="evenodd" fill="#FDFDFE" d="M25.425,25.055c-0.086-0.122-0.035-0.176,0.097-0.191
		C25.626,24.996,25.58,25.052,25.425,25.055z"/>
	<path fill-rule="evenodd" clip-rule="evenodd" fill="#FDFDFE" d="M29.32,23.393c-0.147,0.043-0.158-0.014-0.095-0.128
		C29.258,23.308,29.289,23.35,29.32,23.393z"/>
</g>
</svg>
