<?xml version="1.0" encoding="utf-8"?>
<!-- Generator: Adobe Illustrator 16.0.0, SVG Export Plug-In . SVG Version: 6.00 Build 0)  -->
<!DOCTYPE svg PUBLIC "-//W3C//DTD SVG 1.1//EN" "http://www.w3.org/Graphics/SVG/1.1/DTD/svg11.dtd">
<svg version="1.1" id="Layer_1" xmlns="http://www.w3.org/2000/svg" xmlns:xlink="http://www.w3.org/1999/xlink" x="0px" y="0px"
	 width="72px" height="72px" viewBox="0 0 72 72" enable-background="new 0 0 72 72" xml:space="preserve">
<g>
	<path fill-rule="evenodd" clip-rule="evenodd" fill="#019DDF" d="M318.577-83.495c0.115,0.21,0.063,0.439,0.063,0.659
		c0.003,3.455-0.021,6.91,0.022,10.365c0.008,0.719-0.223,0.828-0.869,0.827c-17.655-0.018-35.311-0.012-52.965-0.023
		c-0.572,0-0.983,0.144-1.412,0.557c-6.548,6.322-13.107,12.634-19.699,18.911c-0.784,0.748-1.129,1.477-1.124,2.592
		c0.047,11.688,0.029,23.375,0.028,35.063c0,5.395,0.559,10.736,1.529,16.039c0.023,0.132,0.074,0.259,0.113,0.386
		c0.373,2.182,0.886,4.33,1.474,6.462c1.058,3.841,2.28,7.625,3.879,11.279c1.071,2.829,2.397,5.544,3.803,8.217
		c5.533,10.522,12.688,19.826,21.153,28.148c3.905,3.842,8.033,7.424,12.375,10.759c9.617,7.39,20.025,13.45,31.094,18.387
		c0.462,0.206,0.619,0.442,0.613,0.943c-0.027,2.535-0.02,5.068-0.008,7.604c0.004,0.76-0.074,1.521,0.053,2.278
		c-0.448,0-0.896,0-1.346,0c-1.379-0.35-2.758-0.673-4.07-1.26c-9.202-4.111-18.016-8.926-26.354-14.595
		c-12.912-8.776-24.299-19.183-33.724-31.672c-7.726-10.24-13.719-21.393-17.616-33.64c-2.364-7.435-3.865-15.04-4.424-22.829
		c-0.047-0.647,0.049-1.324-0.234-1.948c0-14.134,0-28.269,0-42.402c0.031-0.028,0.088-0.051,0.094-0.083
		c0.441-2.153,1.535-3.972,3.012-5.538c2.922-3.098,5.902-6.14,8.864-9.2c3.835-3.96,7.721-7.875,11.501-11.888
		c2.354-2.499,5.063-4.168,8.543-4.421c0.291,0.011,0.581,0.031,0.872,0.031c16.526,0.001,33.053,0.001,49.579,0.001
		C315.124-83.484,316.851-83.491,318.577-83.495z"/>
	<path fill-rule="evenodd" clip-rule="evenodd" fill="#012A5A" d="M397.056,1.875c0.433-1.396,0.572-2.847,0.788-4.282
		c0.783-5.223,0.941-10.482,0.934-15.754c-0.016-10.723-0.008-21.445,0.007-32.167c0.001-0.513-0.143-0.874-0.512-1.227
		c-5.1-4.885-10.185-9.784-15.272-14.68c-1.681-1.616-3.369-3.224-5.032-4.859c-0.409-0.403-0.821-0.578-1.41-0.577
		c-17.677,0.016-35.352,0.009-53.028,0.028c-0.635,0.001-0.815-0.127-0.809-0.79c0.043-3.679,0.028-7.357,0.034-11.036
		c0.224-0.005,0.448-0.014,0.671-0.014c18.131-0.001,36.262,0,54.393-0.002c0.223,0,0.445-0.015,0.669-0.023
		c2.85,0.242,5.362,1.293,7.363,3.335c6.037,6.163,12.043,12.36,18.032,18.569c1.601,1.659,3.337,3.201,4.648,5.121
		c0.982,1.438,1.758,2.963,1.875,4.746c-0.011,0.133-0.03,0.267-0.03,0.4c-0.003,12.524-0.003,25.049,0.002,37.574
		c0,0.186-0.093,0.409,0.13,0.55c0,0.403,0,0.807,0,1.211c-0.226,0.107-0.126,0.312-0.132,0.474
		c-0.148,4.441-0.613,8.852-1.386,13.225c-2.151,12.176-6.436,23.576-12.598,34.28c-8.281,14.383-19.189,26.483-32.09,36.842
		c-9.93,7.976-20.721,14.572-32.219,20.023c-2.177,1.032-4.314,2.179-6.676,2.786c-0.484,0.124-1.007,0.071-1.458,0.331
		c-0.403,0-0.808,0-1.212,0c0-3.388,0.009-6.774-0.01-10.158c-0.002-0.386,0.203-0.489,0.479-0.612
		c3.211-1.421,6.373-2.946,9.479-4.587c15.766-8.325,29.795-18.876,41.431-32.47c7.319-8.547,13.277-17.945,17.603-28.354
		c0.089-0.222,0.179-0.446,0.271-0.669c1.574-3.872,2.902-7.825,3.919-11.879C396.354,5.458,396.848,3.696,397.056,1.875z"/>
	<path fill-rule="evenodd" clip-rule="evenodd" fill="#8196AD" d="M378.469-83.618c0.01,0.036,0.017,0.071,0.019,0.108
		c-0.224,0.008-0.446,0.023-0.669,0.023c-18.131,0.002-36.262,0.001-54.393,0.002c-0.223,0-0.447,0.009-0.671,0.014
		c-0.006-0.049-0.011-0.099-0.017-0.148C341.315-83.618,359.892-83.618,378.469-83.618z"/>
	<path fill-rule="evenodd" clip-rule="evenodd" fill="#7FCDEE" d="M262.946-83.516c0-0.036,0.008-0.07,0.023-0.102
		c18.533,0,37.064,0,55.596,0c0.018,0.04,0.02,0.081,0.012,0.123c-1.727,0.004-3.453,0.011-5.18,0.011
		c-16.526,0-33.053,0-49.579-0.001C263.527-83.485,263.237-83.505,262.946-83.516z"/>
	<path fill-rule="evenodd" clip-rule="evenodd" fill="#8196AD" d="M410.406-51.738l0.06-0.027l0.042,0.051c0,12.833,0,25.666,0,38.5
		c-0.223-0.141-0.13-0.364-0.13-0.55c-0.005-12.525-0.005-25.049-0.002-37.574C410.376-51.472,410.396-51.605,410.406-51.738z"/>
	<path fill-rule="evenodd" clip-rule="evenodd" fill="#597494" d="M391.719,19.776c-0.082-0.184-0.25-0.161-0.404-0.163
		c-0.179-0.005-0.357-0.002-0.539-0.002c-46.783,0-93.567,0-140.351,0c-0.27,0-0.539,0.007-0.808,0.011
		c-1.599-3.654-2.821-7.438-3.879-11.279c-0.588-2.132-1.101-4.281-1.474-6.462c50.773,0.001,101.546,0.001,152.318,0.001
		c0.157,0,0.316-0.004,0.473-0.006c-0.208,1.821-0.702,3.583-1.146,5.353c-1.017,4.054-2.345,8.007-3.919,11.879
		C391.897,19.33,391.808,19.555,391.719,19.776z M307.935,10.558c0.906,1.342,1.744,2.496,2.482,3.711
		c0.368,0.606,0.797,0.78,1.469,0.759c0.543-0.018,0.731-0.142,0.724-0.715c-0.033-2.151-0.015-4.305-0.015-6.458
		c0-1.391,0-1.37-1.382-1.38c-0.468-0.002-0.615,0.127-0.603,0.602c0.032,1.221,0.011,2.443,0.011,3.862
		c-0.895-1.326-1.716-2.465-2.446-3.658c-0.371-0.609-0.783-0.863-1.506-0.817c-0.54,0.033-0.731,0.145-0.723,0.719
		c0.032,2.151,0.014,4.304,0.014,6.456c0,1.391,0,1.372,1.381,1.381c0.469,0.002,0.615-0.127,0.604-0.602
		C307.913,13.196,307.935,11.974,307.935,10.558z M360.044,10.666c-0.048,0.018-0.096,0.035-0.143,0.054
		c-0.773-1.143-1.583-2.265-2.304-3.439c-0.371-0.605-0.78-0.869-1.505-0.817c-0.509,0.037-0.687,0.135-0.679,0.679
		c0.032,2.195,0.014,4.39,0.014,6.586c0,1.287,0,1.252,1.255,1.291c0.595,0.019,0.703-0.201,0.687-0.731
		c-0.038-1.151-0.011-2.305-0.011-3.489c0.32,0.096,0.383,0.33,0.502,0.504c0.655,0.961,1.346,1.903,1.935,2.905
		c0.381,0.65,0.848,0.861,1.575,0.819c0.506-0.029,0.644-0.168,0.638-0.663c-0.023-2.173-0.012-4.346-0.012-6.52
		c0-1.391,0-1.375-1.39-1.367c-0.431,0.002-0.584,0.112-0.573,0.567C360.064,8.252,360.044,9.46,360.044,10.666z M315.384,10.721
		c0,1.254-0.002,2.509,0.002,3.763c0.001,0.213-0.059,0.517,0.275,0.507c1.492-0.043,3.025,0.275,4.467-0.252
		c1.616-0.591,2.284-1.928,2.405-3.563c0.183-2.488-1.092-4.479-3.465-4.646c-1.093-0.078-2.191-0.025-3.289-0.042
		c-0.411-0.007-0.397,0.258-0.397,0.54C315.384,8.257,315.384,9.489,315.384,10.721z M345.262,10.851
		c0.028,0.243,0.051,0.579,0.1,0.91c0.258,1.726,1.484,3.035,3.133,3.354c1.512,0.292,3.061-0.414,3.835-1.873
		c0.929-1.751,0.917-3.547-0.151-5.235c-1.236-1.952-3.86-2.271-5.541-0.709C345.641,8.222,345.295,9.435,345.262,10.851z
		 M294.338,10.666c0.043-0.4-0.055-0.863-0.167-1.318c-0.436-1.772-1.875-2.981-3.574-3.025c-1.699-0.043-3.115,1.023-3.682,2.783
		c-0.407,1.265-0.363,2.527,0.168,3.737c0.629,1.433,1.732,2.28,3.326,2.318c1.588,0.039,2.723-0.74,3.433-2.147
		C294.201,12.301,294.352,11.539,294.338,10.666z M303.202,9.564c0-0.68,0-1.197,0-1.712c0-1.405,0-1.386-1.437-1.376
		c-0.452,0.004-0.565,0.153-0.558,0.584c0.025,1.411,0.006,2.823,0.012,4.235c0.002,0.385-0.031,0.76-0.186,1.117
		c-0.195,0.454-0.537,0.722-1.033,0.728c-0.518,0.006-0.901-0.233-1.097-0.729c-0.192-0.487-0.236-0.999-0.238-1.516
		c-0.003-1.278,0.003-2.555-0.005-3.833c-0.001-0.188,0.093-0.503-0.144-0.528c-0.552-0.057-1.115-0.036-1.671-0.006
		c-0.191,0.01-0.175,0.232-0.172,0.386c0.025,1.769-0.098,3.542,0.097,5.305c0.193,1.768,1.366,2.896,3.013,2.952
		c1.792,0.061,2.969-0.931,3.314-2.756C303.29,11.412,303.146,10.403,303.202,9.564z M330.852,15.005c0.09,0,0.18,0,0.27,0
		c0.776-0.001,0.776-0.001,0.511-0.741c-0.778-2.168-1.554-4.337-2.333-6.505c-0.466-1.296-0.467-1.274-1.861-1.284
		c-0.447-0.003-0.628,0.17-0.756,0.564c-0.276,0.849-0.594,1.687-0.896,2.529c-0.579,1.622-1.161,3.241-1.735,4.864
		c-0.068,0.196-0.319,0.458,0.119,0.566c1.159,0.284,1.734-0.01,2.061-1.125c0.121-0.41,0.293-0.592,0.74-0.558
		c0.535,0.041,1.08,0.054,1.61-0.003c0.563-0.06,0.759,0.177,0.925,0.686C329.895,15.189,329.592,14.979,330.852,15.005z
		 M282.085,6.487c-0.695,0-1.391,0.03-2.084-0.009c-0.5-0.029-0.648,0.124-0.643,0.635c0.027,2.374,0.033,4.749-0.002,7.124
		c-0.01,0.605,0.137,0.81,0.77,0.784c1.236-0.051,1.238-0.012,1.238-1.257c0-1.669,0-1.669,1.661-1.669c1.382,0,1.366,0,1.36-1.364
		c-0.002-0.4-0.09-0.558-0.52-0.534c-0.648,0.038-1.301-0.015-1.949,0.019c-0.443,0.023-0.576-0.128-0.562-0.568
		c0.047-1.498-0.182-1.203,1.245-1.236c0.268-0.006,0.537-0.001,0.806-0.001c1.423,0,1.401,0,1.386-1.421
		c-0.005-0.445-0.176-0.52-0.557-0.507C283.519,6.503,282.802,6.487,282.085,6.487z M334.602,11.702c0,0.627,0,1.254,0,1.883
		c0,1.454,0,1.437,1.447,1.431c0.433-0.002,0.578-0.114,0.568-0.566c-0.029-1.434-0.023-2.869-0.005-4.302
		c0.009-0.551-0.247-1.262,0.122-1.607c0.283-0.263,0.979-0.079,1.488-0.102c0.17-0.008,0.454,0.071,0.472-0.133
		c0.048-0.555,0.032-1.116,0.007-1.673c-0.006-0.152-0.203-0.143-0.334-0.143c-1.815-0.002-3.631,0.002-5.445-0.004
		c-0.297-0.001-0.364,0.133-0.385,0.407c-0.121,1.539-0.128,1.539,1.391,1.547c0.067,0.001,0.137,0.01,0.201,0
		c0.402-0.059,0.486,0.146,0.48,0.506C334.59,9.864,334.602,10.783,334.602,11.702z M342.799,10.816c0-0.985,0-1.969,0-2.954
		c0-1.401,0-1.381-1.416-1.387c-0.475-0.003-0.604,0.145-0.6,0.609c0.023,2.147,0.01,4.296,0.01,6.444c0,1.544,0,1.529,1.525,1.486
		c0.386-0.011,0.493-0.133,0.487-0.507C342.785,13.277,342.799,12.046,342.799,10.816z"/>
	<path fill-rule="evenodd" clip-rule="evenodd" fill="#07305E" d="M349.625-28.039c1.227-1.149,2.912-1.362,4.153,0.278
		c0.51-0.677,1.164-1.116,2.022-1.182c1.631-0.124,2.733,0.888,2.843,2.771c0.096,1.631,0.032,3.271,0.038,4.908
		c0.002,0.189,0,0.362-0.268,0.357c-0.447-0.009-0.897-0.003-1.345-0.002c-0.38,0.001-0.27-0.288-0.271-0.483
		c-0.008-1.21-0.007-2.421-0.002-3.631c0.002-0.339-0.032-0.668-0.121-0.996c-0.137-0.499-0.422-0.851-0.954-0.91
		c-0.544-0.062-0.95,0.19-1.221,0.659c-0.231,0.4-0.283,0.841-0.282,1.295c0.004,1.166-0.016,2.332,0.01,3.497
		c0.009,0.419-0.08,0.584-0.546,0.583c-1.353-0.005-1.34,0.017-1.356-1.309c-0.014-1.142,0.089-2.288-0.06-3.425
		c-0.117-0.896-0.51-1.314-1.158-1.314c-0.664,0-1.219,0.553-1.313,1.375c-0.136,1.183-0.043,2.374-0.057,3.562
		c-0.014,1.1-0.007,1.046-1.087,1.118c-0.717,0.047-0.841-0.202-0.829-0.855c0.043-2.084,0.053-4.17-0.005-6.253
		c-0.019-0.734,0.222-0.948,0.89-0.837c0.088,0.015,0.182,0.013,0.268,0C349.476-28.91,349.822-28.817,349.625-28.039z"/>
	<path fill-rule="evenodd" clip-rule="evenodd" fill="#07305E" d="M333.483-40.652c0-1.764,0.016-3.528-0.011-5.292
		c-0.008-0.475,0.074-0.664,0.613-0.65c1.33,0.035,1.331,0.003,1.331,1.332c0,2.756-0.015,5.513,0.013,8.27
		c0.006,0.542-0.119,0.695-0.687,0.725c-0.726,0.039-1.122-0.225-1.497-0.822c-0.985-1.574-2.046-3.102-3.076-4.646
		c-0.118-0.177-0.238-0.353-0.492-0.494c0,0.591,0,1.184,0,1.775c0,1.21-0.016,2.421,0.008,3.63c0.008,0.406-0.105,0.536-0.525,0.54
		c-1.421,0.015-1.421,0.033-1.421-1.379c0-2.757,0.017-5.514-0.015-8.271c-0.006-0.552,0.174-0.637,0.677-0.667
		c0.709-0.042,1.126,0.181,1.511,0.795c1.104,1.761,2.289,3.469,3.442,5.199C333.396-40.623,333.441-40.637,333.483-40.652z"/>
	<path fill-rule="evenodd" clip-rule="evenodd" fill="#052E5D" d="M293.306-20.696c1.047,0.721,2.11,1.203,3.302,0.61
		c0.785-0.391,0.839-1.181,0.821-2.042c-1.117,0.986-2.31,1.11-3.508,0.395c-1.335-0.796-1.727-2.116-1.691-3.581
		c0.027-1.138,0.387-2.161,1.278-2.929c1.155-0.996,2.626-0.936,3.953,0.149c0.255-0.188-0.141-0.663,0.243-0.715
		c0.502-0.069,1.025-0.009,1.537,0.012c0.036,0.001,0.096,0.144,0.093,0.221c-0.064,2.597,0.224,5.208-0.152,7.79
		c-0.274,1.897-1.563,2.88-3.483,2.831c-0.971-0.025-1.908-0.222-2.744-0.777c-0.314-0.21-0.408-0.412-0.211-0.763
		C292.95-19.864,293.106-20.263,293.306-20.696z M297.453-25.105c0.005-1.129-0.649-1.925-1.604-1.95
		c-0.961-0.025-1.719,0.832-1.711,1.939c0.007,1.082,0.724,1.907,1.665,1.916C296.757-23.192,297.448-23.99,297.453-25.105z"/>
	<path fill-rule="evenodd" clip-rule="evenodd" fill="#07305E" d="M306.853-41.448c0-1.547,0.011-3.095-0.008-4.643
		c-0.005-0.37,0.086-0.502,0.48-0.498c1.793,0.021,3.588,0.021,5.383,0c0.389-0.004,0.479,0.122,0.484,0.495
		c0.021,1.452,0.035,1.452-1.404,1.452c-0.83,0-1.66,0.017-2.49-0.007c-0.385-0.012-0.484,0.124-0.494,0.498
		c-0.048,1.699-0.059,1.699,1.645,1.699c0.583,0,1.166,0.014,1.748-0.005c0.318-0.01,0.469,0.041,0.482,0.425
		c0.051,1.471,0.067,1.47-1.394,1.47c-0.695,0-1.392,0.01-2.086-0.004c-0.284-0.006-0.425,0.082-0.387,0.379
		c0.003,0.022,0.001,0.045,0,0.067c-0.09,1.864-0.09,1.864,1.784,1.864c0.785,0,1.57,0.026,2.354-0.009
		c0.509-0.022,0.457,0.336,0.373,0.566c-0.166,0.46,0.494,1.313-0.367,1.366c-1.899,0.117-3.811,0.026-5.718,0.044
		c-0.43,0.004-0.388-0.241-0.388-0.517C306.854-38.353,306.853-39.9,306.853-41.448z"/>
	<path fill-rule="evenodd" clip-rule="evenodd" fill="#07305E" d="M292.047-20.95c-0.101,0.021-0.122,0.03-0.145,0.031
		c-1.858,0.079-1.87,0.083-2.459-1.667c-0.126-0.375-0.282-0.541-0.703-0.527c-0.94,0.034-1.883,0.029-2.823,0.001
		c-0.38-0.011-0.594,0.097-0.662,0.477c-0.023,0.131-0.082,0.255-0.123,0.383c-0.461,1.367-0.461,1.348-1.906,1.355
		c-0.487,0.002-0.556-0.091-0.382-0.557c0.821-2.195,1.601-4.406,2.397-6.61c0.32-0.882,0.665-1.756,0.958-2.649
		c0.117-0.354,0.272-0.487,0.659-0.489c1.457-0.008,1.456-0.023,1.947,1.329C289.879-26.917,290.954-23.96,292.047-20.95z
		 M287.348-28.75c-0.263,0.743-0.491,1.293-0.652,1.864c-0.181,0.634-0.786,1.442-0.454,1.837c0.281,0.335,1.258,0.074,1.926,0.106
		c0.41,0.019,0.436-0.138,0.316-0.474C288.114-26.462,287.767-27.516,287.348-28.75z"/>
	<path fill-rule="evenodd" clip-rule="evenodd" fill="#07305E" d="M314.368-46.524c0.113-0.035,0.133-0.043,0.152-0.047
		c1.479-0.294,2.518,0.159,3.045,1.663c0.195,0.554,0.584,1.039,0.914,1.603c0.525-0.925,1.04-1.766,1.484-2.642
		c0.243-0.476,0.527-0.732,1.078-0.636c0.428,0.075,1.038-0.216,1.245,0.131c0.168,0.278-0.32,0.721-0.527,1.083
		c-0.631,1.107-1.268,2.21-1.938,3.294c-0.206,0.334-0.205,0.577-0.005,0.91c0.943,1.57,1.86,3.155,2.86,4.863
		c-0.763,0-1.438,0.007-2.113-0.004c-0.25-0.003-0.301-0.239-0.396-0.409c-0.575-1.004-1.146-2.011-1.767-3.101
		c-0.582,1.049-1.141,2.004-1.646,2.986c-0.216,0.419-0.479,0.581-0.944,0.542c-0.488-0.04-0.982-0.009-1.473-0.009
		c-0.129-0.252,0.072-0.39,0.163-0.545c0.812-1.39,1.614-2.787,2.464-4.154c0.25-0.404,0.237-0.685-0.002-1.081
		C316.089-43.526,315.253-45.001,314.368-46.524z"/>
	<path fill-rule="evenodd" clip-rule="evenodd" fill="#052E5D" d="M322.462-20.75c-1.05-0.009-2.026-0.28-2.933-0.821
		c-0.368-0.219-0.501-0.447-0.297-0.863c0.187-0.378,0.198-0.959,0.484-1.142c0.324-0.207,0.676,0.327,1.047,0.481
		c0.717,0.296,1.436,0.478,2.215,0.363c0.561-0.083,1.009-0.313,1.092-0.913c0.086-0.632-0.367-0.93-0.869-1.117
		c-0.669-0.249-1.363-0.432-2.032-0.681c-1.394-0.521-1.98-1.412-1.931-2.873c0.048-1.408,0.867-2.517,2.193-2.887
		c1.307-0.365,2.564-0.183,3.778,0.419c0.4,0.198,0.497,0.436,0.318,0.843c-0.17,0.387-0.179,0.948-0.462,1.152
		c-0.281,0.204-0.668-0.288-1.04-0.41c-0.606-0.199-1.217-0.301-1.848-0.176c-0.53,0.104-0.897,0.386-0.966,0.961
		c-0.066,0.573,0.265,0.875,0.746,1.045c0.692,0.245,1.404,0.445,2.093,0.7c1.452,0.541,2.084,1.481,1.983,2.899
		c-0.105,1.52-0.987,2.561-2.44,2.896C323.221-20.786,322.848-20.731,322.462-20.75z"/>
	<path fill-rule="evenodd" clip-rule="evenodd" fill="#052E5D" d="M313.247-23.399c0.203,0.264,0.363,0.544,0.59,0.754
		c0.529,0.495,0.266,0.826-0.173,1.169c-1.651,1.295-4.293,0.723-5.249-1.197c-0.783-1.568-0.738-3.169,0.152-4.689
		c0.652-1.116,1.676-1.66,2.979-1.576c1.222,0.079,2.084,0.718,2.637,1.801c0.398,0.782,0.496,1.612,0.491,2.476
		c-0.002,0.374-0.142,0.442-0.473,0.438c-1.3-0.015-2.601,0.017-3.899-0.017c-0.504-0.014-0.506,0.152-0.338,0.524
		c0.459,1.02,1.748,1.367,2.742,0.725C312.891-23.109,313.058-23.255,313.247-23.399z M312.868-25.599
		c-0.234-1.042-0.729-1.556-1.473-1.592c-0.668-0.033-1.328,0.489-1.531,1.187c-0.076,0.266-0.08,0.417,0.271,0.411
		C311.032-25.61,311.929-25.599,312.868-25.599z"/>
	<path fill-rule="evenodd" clip-rule="evenodd" fill="#052E5D" d="M344.305-21.75c-0.467,0.456-0.862,0.766-1.383,0.877
		c-1.609,0.347-2.965-0.606-3.217-2.324c-0.258-1.761-0.068-3.538-0.117-5.307c-0.004-0.128-0.027-0.304,0.16-0.31
		c0.516-0.017,1.031-0.027,1.547-0.004c0.281,0.012,0.173,0.271,0.174,0.424c0.01,1.144-0.004,2.288,0.012,3.431
		c0.004,0.379,0.042,0.763,0.117,1.133c0.104,0.521,0.398,0.892,0.964,0.984c0.573,0.092,1.005-0.13,1.314-0.601
		c0.351-0.532,0.359-1.148,0.371-1.749c0.02-1.054,0.022-2.108-0.003-3.162c-0.009-0.386,0.114-0.479,0.488-0.483
		c1.408-0.015,1.408-0.03,1.408,1.378c0,1.974-0.014,3.947,0.012,5.92c0.007,0.484-0.092,0.729-0.619,0.638
		c-0.131-0.022-0.271-0.017-0.402,0C344.588-20.838,344.142-20.883,344.305-21.75z"/>
	<path fill-rule="evenodd" clip-rule="evenodd" fill="#052E5D" d="M326.91-24.859c-0.004-2.12,1.127-3.673,2.937-4.034
		c1.405-0.28,2.762,0.34,3.359,1.524c0.146,0.29,0.223,0.532-0.164,0.69c-0.123,0.05-0.233,0.135-0.339,0.219
		c-0.438,0.345-0.748,0.597-1.229-0.093c-0.586-0.842-1.813-0.611-2.329,0.355c-0.463,0.867-0.467,1.777,0.001,2.643
		c0.57,1.054,1.837,1.137,2.519,0.15c0.262-0.377,0.436-0.345,0.717-0.098c0.066,0.058,0.148,0.1,0.223,0.15
		c0.902,0.601,0.918,0.751,0.161,1.588c-1.534,1.694-4.477,1.083-5.456-1.136C327.035-23.524,326.9-24.177,326.91-24.859z"/>
	<path fill-rule="evenodd" clip-rule="evenodd" fill="#07305E" d="M325.703-41.484c0,1.567-0.012,3.134,0.007,4.701
		c0.005,0.373-0.093,0.492-0.481,0.499c-1.486,0.027-1.486,0.043-1.486-1.447c0-2.753,0.012-5.507-0.01-8.26
		c-0.004-0.469,0.127-0.604,0.6-0.599c1.371,0.018,1.371-0.004,1.371,1.347C325.703-43.992,325.703-42.738,325.703-41.484z"/>
	<path fill-rule="evenodd" clip-rule="evenodd" fill="#012A5A" d="M306.585-26.375c0,1.634-0.012,3.269,0.009,4.903
		c0.006,0.415-0.071,0.58-0.54,0.575c-1.354-0.013-1.354,0.011-1.354-1.364c0-2.978,0.012-5.955-0.011-8.932
		c-0.004-0.48,0.083-0.651,0.61-0.637c1.285,0.037,1.285,0.006,1.285,1.291C306.585-29.15,306.585-27.762,306.585-26.375z"/>
	<path fill-rule="evenodd" clip-rule="evenodd" fill="#052E5D" d="M336.369-28.017c0.494-0.51,1.033-0.789,1.668-0.907
		c0.357-0.066,0.566-0.003,0.527,0.422c-0.022,0.244-0.026,0.495,0.001,0.738c0.069,0.618,0.01,1-0.813,0.995
		c-0.763-0.004-1.268,0.781-1.291,1.776c-0.029,1.186-0.025,2.372-0.004,3.557c0.008,0.402-0.094,0.537-0.519,0.539
		c-1.378,0.008-1.378,0.027-1.378-1.345c0-1.991,0.018-3.983-0.012-5.973c-0.008-0.491,0.101-0.714,0.615-0.619
		c0.109,0.02,0.225,0.014,0.335,0.001C336.072-28.9,336.533-28.846,336.369-28.017z"/>
	<path fill-rule="evenodd" clip-rule="evenodd" fill="#012B5A" d="M302.95-24.856c0,1.165-0.011,2.331,0.008,3.495
		c0.004,0.344-0.088,0.452-0.447,0.462c-1.445,0.038-1.445,0.054-1.445-1.408c0-1.994,0.014-3.988-0.01-5.982
		c-0.006-0.44,0.113-0.556,0.552-0.552c1.343,0.014,1.343-0.006,1.343,1.363C302.95-26.604,302.95-25.73,302.95-24.856z"/>
	<path fill-rule="evenodd" clip-rule="evenodd" fill="#07305E" d="M301.968-29.905c-0.668-0.017-1.164-0.58-1.148-1.305
		c0.016-0.731,0.523-1.26,1.205-1.256c0.689,0.005,1.188,0.542,1.176,1.27C303.187-30.424,302.676-29.888,301.968-29.905z"/>
	<path fill-rule="evenodd" clip-rule="evenodd" fill="#012B5A" d="M382.823,24.811c-1.696,3.47-3.565,6.699-5.601,9.834
		c-4.288,6.606-9.277,12.643-14.876,18.177c-9.551,9.444-20.388,17.124-32.259,23.373c-2.93,1.542-5.908,2.981-8.929,4.335
		c-0.294,0.132-0.544,0.21-0.874,0.062c-14.042-6.292-26.917-14.386-38.24-24.854c-9.139-8.45-16.813-18.048-22.599-29.106
		c-0.229-0.437-0.426-0.891-0.678-1.312c-0.266-0.445-0.098-0.544,0.332-0.511c0.135,0.012,0.27,0.002,0.404,0.002
		c40.823,0,81.647,0,122.472,0C382.219,24.811,382.461,24.811,382.823,24.811z M339.226,56.565
		c-0.046,0.014-0.091,0.026-0.136,0.038c-0.74-0.971-1.48-1.94-2.221-2.91c-0.842-1.104-1.67-2.219-2.53-3.308
		c-0.466-0.59-1.157-0.775-1.808-0.552c-0.563,0.193-0.794,0.622-0.795,1.191c-0.002,2.935-0.008,5.871,0.004,8.807
		c0.004,0.725,0.51,1.202,1.178,1.191c0.677-0.011,1.119-0.482,1.127-1.232c0.015-1.727,0.014-3.451,0.029-5.177
		c0.002-0.209-0.084-0.437,0.117-0.693c0.204,0.262,0.389,0.501,0.574,0.742c1.455,1.902,2.904,3.811,4.367,5.71
		c0.43,0.559,1.119,0.794,1.66,0.55c0.563-0.255,0.786-0.712,0.78-1.352c-0.022-2.802-0.009-5.604-0.011-8.405
		c0-0.902-0.415-1.405-1.152-1.404c-0.756,0-1.166,0.473-1.182,1.396c-0.016,0.851-0.003,1.702-0.003,2.556
		C339.226,54.664,339.226,55.615,339.226,56.565z M308.747,53.021c0-0.129,0-0.211-0.001-0.294c-0.02-1.14,0.439-1.918,1.33-2.253
		c0.948-0.356,1.757-0.123,2.501,0.76c1.633,1.935,3.242,3.888,4.886,5.813c0.338,0.4,0.397,0.701,0.024,1.097
		c-0.398,0.423-0.755,0.887-1.131,1.332c-1.344,1.591-2.684,3.187-4.031,4.774c-0.378,0.446-0.456,0.926-0.17,1.426
		c0.262,0.458,0.701,0.606,1.21,0.525c0.434-0.069,0.679-0.406,0.937-0.715c1.861-2.239,3.723-4.479,5.58-6.722
		c0.796-0.959,0.827-1.309,0.027-2.289c-1.896-2.327-3.816-4.634-5.741-6.938c-1.071-1.282-2.975-1.502-4.376-0.556
		C308.494,49.858,307.942,51.808,308.747,53.021z M326.125,50.952c0.017-0.62-0.234-0.968-0.652-1.134
		c-0.551-0.216-1.059-0.068-1.443,0.397c-1.24,1.504-2.482,3.006-3.709,4.519c-0.458,0.566-0.469,1.099-0.021,1.652
		c1.159,1.423,2.339,2.833,3.517,4.24c0.292,0.348,0.672,0.513,1.139,0.413c1.009-0.214,1.342-1.222,0.651-2.079
		c-0.854-1.065-1.73-2.115-2.628-3.144c-0.268-0.309-0.241-0.489,0.01-0.782c0.916-1.072,1.801-2.172,2.699-3.259
		C325.919,51.495,326.126,51.206,326.125,50.952z M306.204,54.286c-1.701,0-3.404-0.012-5.106,0.005
		c-0.937,0.009-1.474,0.663-1.229,1.482c0.202,0.676,0.759,0.818,1.382,0.818c3.293,0,6.586,0.001,9.878-0.005
		c0.223,0,0.452-0.021,0.664-0.083c0.545-0.162,0.797-0.568,0.781-1.115c-0.016-0.517-0.275-0.898-0.799-1.029
		c-0.234-0.06-0.486-0.069-0.73-0.069C309.431,54.283,307.817,54.286,306.204,54.286z M327.583,55.403
		c0,1.431-0.003,2.865,0.001,4.298c0.003,0.833,0.449,1.333,1.174,1.326c0.71-0.007,1.182-0.513,1.184-1.336
		c0.011-2.865,0.013-5.732,0-8.601c-0.004-0.862-0.436-1.309-1.191-1.309c-0.742,0-1.163,0.469-1.166,1.32
		C327.58,52.536,327.583,53.97,327.583,55.403z M305.444,60.937c1.522,0,3.045,0.011,4.567-0.005
		c0.703-0.007,1.153-0.474,1.15-1.131c-0.003-0.624-0.442-1.12-1.09-1.124c-3.022-0.02-6.046-0.03-9.068-0.009
		c-0.8,0.005-1.261,0.522-1.22,1.212c0.039,0.661,0.514,1.053,1.295,1.057C302.534,60.939,303.989,60.937,305.444,60.937z
		 M319.818,37.208c-2.101-1.391-3.909-0.199-4.175,1.924c-0.074,0.602-0.051,1.204,0.088,1.801c0.476,2.038,2.295,2.73,3.992,1.521
		c0.027-0.021,0.083-0.003,0.159-0.003c-0.107,0.622,0.346,0.444,0.673,0.474c0.47,0.039,0.344-0.304,0.344-0.541
		c0.005-2.62-0.008-5.239,0.015-7.858c0.004-0.447-0.156-0.515-0.541-0.501c-0.352,0.011-0.589,0.005-0.566,0.483
		C319.85,35.375,319.818,36.245,319.818,37.208z M339.472,37.092c-0.169,0.071-0.229,0.004-0.305-0.044
		c-1.444-0.937-3.047-0.414-3.643,1.2c-0.396,1.072-0.37,2.16,0.03,3.219c0.447,1.177,1.52,1.784,2.653,1.557
		c0.464-0.091,0.876-0.3,1.342-0.743c-0.121,0.782,0.331,0.633,0.683,0.641c0.535,0.011,0.313-0.403,0.314-0.629
		c0.016-2.552,0-5.105,0.02-7.658c0.003-0.432-0.057-0.616-0.563-0.623c-0.555-0.009-0.546,0.262-0.537,0.654
		C339.484,35.484,339.472,36.303,339.472,37.092z M292.582,42.866c-0.036-0.108-0.067-0.215-0.105-0.314
		c-0.966-2.549-1.938-5.094-2.894-7.646c-0.125-0.339-0.275-0.48-0.664-0.486c-0.429-0.01-0.563,0.172-0.696,0.529
		c-0.935,2.513-1.894,5.016-2.844,7.521c-0.052,0.137-0.154,0.271-0.021,0.457c0.363-0.142,1.011,0.32,1.102-0.351
		c0.24-1.771,1.346-1.958,2.829-1.835c1.372,0.113,1.378,0.025,1.878,1.337C291.515,42.993,291.515,42.993,292.582,42.866z
		 M346.102,42.303c1.729,1.404,3.766,0.737,4.181-1.393c0.182-0.932,0.174-1.875-0.177-2.78c-0.484-1.246-1.569-1.777-2.863-1.445
		c-0.391,0.103-0.691,0.354-1.08,0.609c0-0.959-0.016-1.828,0.008-2.694c0.01-0.395-0.039-0.588-0.524-0.588
		c-0.489,0.002-0.576,0.156-0.573,0.608c0.023,2.553,0.004,5.105,0.023,7.658c0.003,0.218-0.248,0.638,0.291,0.642
		C345.756,42.922,346.202,43.033,346.102,42.303z M312.571,40.228c0.291,0,0.582,0,0.873,0c1.436,0,1.436,0,1.205-1.42
		c-0.188-1.16-0.859-1.912-1.919-2.154c-1.054-0.238-2.143,0.169-2.736,1.121c-0.768,1.228-0.843,2.56-0.202,3.846
		c0.823,1.648,3.282,1.96,4.531,0.625c0.109-0.116,0.344-0.229,0.219-0.426c-0.102-0.161-0.282-0.303-0.459-0.376
		c-0.232-0.097-0.338,0.167-0.492,0.273c-1.199,0.835-2.736,0.321-3.055-1.02c-0.076-0.329-0.055-0.499,0.354-0.476
		C311.448,40.251,312.011,40.228,312.571,40.228z M332.096,40.228c0.289,0,0.582,0,0.873,0c1.434,0,1.434,0,1.199-1.426
		c-0.191-1.158-0.863-1.91-1.924-2.149c-1.052-0.237-2.139,0.175-2.734,1.126c-0.756,1.206-0.827,2.517-0.23,3.79
		c0.789,1.684,3.292,2.019,4.576,0.683c0.311-0.321,0.233-0.475-0.08-0.717c-0.313-0.239-0.432,0.011-0.617,0.145
		c-1.22,0.884-2.785,0.38-3.104-0.986c-0.076-0.331-0.053-0.5,0.36-0.474C330.973,40.254,331.535,40.228,332.096,40.228z
		 M350.893,36.639c0.075,0.216,0.146,0.424,0.221,0.633c0.616,1.727,1.238,3.451,1.844,5.182c0.302,0.855-0.372,1.997-1.246,2.064
		c-0.361,0.028-0.5,0.087-0.497,0.483c0.005,0.43,0.255,0.46,0.56,0.477c0.758,0.041,1.403-0.399,1.781-1.286
		c0.246-0.573,0.435-1.174,0.638-1.764c0.663-1.921,1.321-3.843,1.983-5.774c-1.103-0.146-1.103-0.146-1.392,0.798
		c-0.376,1.228-0.752,2.455-1.184,3.863c-0.455-1.371-0.857-2.572-1.252-3.777C352.014,36.522,352.017,36.521,350.893,36.639z
		 M293.257,39.852c-0.029,0.618,0.079,1.28,0.418,1.879c0.523,0.923,1.353,1.342,2.395,1.32c0.992-0.021,1.77-0.454,2.245-1.337
		c0.109-0.203,0.376-0.563,0.075-0.686c-0.271-0.112-0.732-0.282-0.965,0.247c-0.303,0.689-0.914,0.894-1.609,0.825
		c-0.693-0.065-1.135-0.479-1.349-1.138c-0.185-0.568-0.171-1.153-0.112-1.731c0.094-0.943,0.615-1.558,1.379-1.682
		c0.789-0.13,1.289,0.175,1.74,1.101c0.217,0.442,0.604,0.234,0.881,0.202c0.34-0.038,0.132-0.356,0.085-0.538
		c-0.218-0.825-0.768-1.355-1.57-1.6C294.874,36.1,293.261,37.479,293.257,39.852z M299.315,39.814
		c-0.025,0.685,0.086,1.345,0.432,1.941c0.549,0.945,1.412,1.348,2.476,1.292c0.985-0.053,1.753-0.508,2.188-1.419
		c0.088-0.186,0.341-0.52,0.016-0.615c-0.275-0.081-0.715-0.254-0.926,0.227c-0.32,0.725-0.936,0.925-1.657,0.859
		c-0.693-0.062-1.146-0.529-1.359-1.294c-0.13-0.465-0.112-0.934-0.087-1.404c0.056-0.999,0.521-1.646,1.291-1.823
		c0.83-0.195,1.299,0.084,1.855,1.098c0.223,0.406,0.611,0.206,0.896,0.175c0.261-0.027,0.111-0.328,0.07-0.498
		c-0.232-0.986-1.126-1.692-2.201-1.762C300.481,36.476,299.314,37.733,299.315,39.814z M303.142,49.919c0,0.001,0,0.001,0,0.003
		c-0.738,0-1.479-0.025-2.216,0.007c-0.687,0.031-1.146,0.53-1.142,1.162c0.002,0.629,0.473,1.103,1.181,1.111
		c1.41,0.021,2.82,0.021,4.229,0c0.738-0.011,1.141-0.436,1.145-1.119c0.004-0.704-0.429-1.143-1.183-1.161
		C304.485,49.905,303.813,49.919,303.142,49.919z M325.823,39.765c0.001,0,0.004,0,0.007,0c0,0.628-0.027,1.257,0.006,1.883
		c0.059,1.078,0.883,1.637,1.918,1.373c0.373-0.095,0.336-0.328,0.353-0.601c0.024-0.352-0.167-0.336-0.417-0.315
		c-0.581,0.052-0.805-0.259-0.801-0.808c0.006-0.986,0.038-1.974-0.014-2.956c-0.031-0.607,0.074-0.944,0.768-0.806
		c0.404,0.079,0.424-0.18,0.414-0.48c-0.01-0.256,0.021-0.537-0.363-0.461c-0.78,0.152-0.909-0.259-0.803-0.892
		c0.076-0.453-0.084-0.602-0.568-0.613c-0.525-0.014-0.545,0.245-0.496,0.607c0.081,0.618-0.005,1.061-0.801,0.897
		c-0.313-0.063-0.399,0.13-0.357,0.396c0.033,0.207-0.139,0.604,0.277,0.531c0.936-0.162,0.936,0.377,0.883,1.033
		C325.797,38.958,325.823,39.362,325.823,39.765z M306.804,37.417c0.155-0.795-0.18-0.833-0.644-0.838
		c-0.577-0.006-0.374,0.39-0.376,0.645c-0.014,1.721,0.011,3.444-0.019,5.166c-0.009,0.457,0.144,0.534,0.562,0.547
		c0.467,0.015,0.545-0.157,0.536-0.571c-0.026-1.118-0.009-2.236-0.009-3.354c0-0.975,0.432-1.458,1.393-1.464
		c0.428-0.003,0.582-0.097,0.562-0.55c-0.024-0.529-0.374-0.412-0.66-0.395C307.661,36.628,307.269,36.874,306.804,37.417z
		 M323.777,39.771c0-0.919-0.023-1.839,0.009-2.757c0.016-0.464-0.244-0.427-0.55-0.431c-0.311-0.003-0.543-0.025-0.537,0.432
		c0.027,1.815,0.023,3.633,0.002,5.449c-0.006,0.405,0.146,0.482,0.504,0.467c0.329-0.018,0.605,0.03,0.583-0.469
		C323.748,41.568,323.777,40.67,323.777,39.771z M323.875,34.938c-0.018-0.386-0.204-0.622-0.615-0.633
		c-0.41-0.012-0.633,0.22-0.642,0.605c-0.009,0.359,0.202,0.582,0.575,0.604C323.593,35.539,323.824,35.348,323.875,34.938z"/>
	<path fill-rule="evenodd" clip-rule="evenodd" fill="#F7F8F9" d="M307.935,10.558c0,1.417-0.021,2.639,0.01,3.859
		c0.012,0.475-0.135,0.604-0.604,0.602c-1.381-0.01-1.381,0.01-1.381-1.381c0-2.152,0.019-4.305-0.014-6.456
		c-0.009-0.574,0.183-0.686,0.723-0.719c0.723-0.046,1.135,0.208,1.506,0.817c0.73,1.193,1.552,2.332,2.446,3.658
		c0-1.418,0.021-2.641-0.011-3.862c-0.013-0.475,0.135-0.604,0.603-0.602c1.382,0.01,1.382-0.011,1.382,1.38
		c0,2.153-0.019,4.307,0.015,6.458c0.008,0.573-0.181,0.698-0.724,0.715c-0.672,0.021-1.101-0.153-1.469-0.759
		C309.679,13.054,308.841,11.899,307.935,10.558z"/>
	<path fill-rule="evenodd" clip-rule="evenodd" fill="#F9F9FB" d="M360.044,10.666c0-1.206,0.021-2.414-0.011-3.621
		c-0.011-0.455,0.143-0.565,0.573-0.567c1.39-0.009,1.39-0.024,1.39,1.367c0,2.173-0.012,4.346,0.012,6.52
		c0.006,0.495-0.132,0.634-0.638,0.663c-0.728,0.042-1.194-0.168-1.575-0.819c-0.589-1.002-1.279-1.943-1.935-2.905
		c-0.119-0.174-0.182-0.409-0.502-0.504c0,1.185-0.027,2.338,0.011,3.489c0.017,0.531-0.092,0.75-0.687,0.731
		c-1.255-0.039-1.255-0.004-1.255-1.291c0-2.196,0.019-4.391-0.014-6.586c-0.008-0.544,0.17-0.642,0.679-0.679
		c0.725-0.052,1.134,0.211,1.505,0.817c0.721,1.174,1.53,2.296,2.304,3.439C359.948,10.701,359.996,10.684,360.044,10.666z"/>
	<path fill-rule="evenodd" clip-rule="evenodd" fill="#F9F9FB" d="M315.384,10.721c0-1.231,0-2.463-0.002-3.695
		c0-0.281-0.014-0.546,0.397-0.54c1.098,0.018,2.196-0.036,3.289,0.042c2.373,0.167,3.647,2.158,3.465,4.646
		c-0.121,1.636-0.789,2.972-2.405,3.563c-1.441,0.528-2.975,0.209-4.467,0.252c-0.334,0.01-0.274-0.293-0.275-0.507
		C315.382,13.229,315.384,11.975,315.384,10.721z M317.377,10.746c0,0.625-0.003,1.25,0.003,1.876
		c0.002,0.144-0.043,0.303,0.154,0.396c0.803,0.375,2.315-0.114,2.706-0.947c0.453-0.964,0.457-1.952-0.143-2.869
		c-0.592-0.907-1.542-0.734-2.428-0.74c-0.306-0.002-0.293,0.203-0.293,0.409C317.377,9.495,317.377,10.12,317.377,10.746z"/>
	<path fill-rule="evenodd" clip-rule="evenodd" fill="#FAFAFB" d="M345.262,10.851c0.033-1.416,0.379-2.629,1.375-3.553
		c1.681-1.561,4.305-1.242,5.541,0.709c1.068,1.688,1.08,3.484,0.151,5.235c-0.774,1.459-2.323,2.165-3.835,1.873
		c-1.648-0.319-2.875-1.628-3.133-3.354C345.313,11.429,345.29,11.093,345.262,10.851z M350.928,10.62
		c-0.012-0.137-0.014-0.409-0.07-0.669c-0.195-0.907-0.889-1.56-1.67-1.603c-0.73-0.04-1.442,0.502-1.732,1.345
		c-0.248,0.719-0.246,1.448,0.023,2.165c0.299,0.793,0.941,1.293,1.633,1.29c0.739-0.004,1.357-0.511,1.664-1.338
		C350.902,11.463,350.916,11.109,350.928,10.62z"/>
	<path fill-rule="evenodd" clip-rule="evenodd" fill="#FAFAFB" d="M294.338,10.666c0.014,0.874-0.137,1.635-0.496,2.348
		c-0.71,1.407-1.845,2.186-3.433,2.147c-1.594-0.038-2.697-0.885-3.326-2.318c-0.531-1.21-0.575-2.473-0.168-3.737
		c0.566-1.759,1.982-2.826,3.682-2.783c1.699,0.044,3.139,1.253,3.574,3.025C294.283,9.802,294.381,10.265,294.338,10.666z
		 M288.685,10.712c-0.031,0.552,0.082,1.07,0.369,1.541c0.727,1.19,2.168,1.19,2.897,0.004c0.291-0.474,0.388-0.993,0.382-1.542
		c-0.012-1.336-0.772-2.342-1.797-2.368C289.481,8.321,288.689,9.331,288.685,10.712z"/>
	<path fill-rule="evenodd" clip-rule="evenodd" fill="#F9F9FB" d="M303.202,9.564c-0.057,0.839,0.088,1.848-0.104,2.852
		c-0.346,1.825-1.522,2.816-3.314,2.756c-1.646-0.056-2.819-1.184-3.013-2.952c-0.194-1.763-0.071-3.536-0.097-5.305
		c-0.003-0.153-0.02-0.376,0.172-0.386c0.556-0.03,1.119-0.051,1.671,0.006c0.236,0.025,0.143,0.34,0.144,0.528
		c0.008,1.278,0.002,2.555,0.005,3.833c0.002,0.517,0.046,1.029,0.238,1.516c0.195,0.496,0.579,0.735,1.097,0.729
		c0.496-0.006,0.838-0.273,1.033-0.728c0.154-0.356,0.188-0.731,0.186-1.117c-0.006-1.413,0.014-2.824-0.012-4.235
		c-0.008-0.432,0.105-0.581,0.558-0.584c1.437-0.01,1.437-0.029,1.437,1.376C303.202,8.367,303.202,8.884,303.202,9.564z"/>
	<path fill-rule="evenodd" clip-rule="evenodd" fill="#FAFAFB" d="M330.852,15.005c-1.26-0.026-0.957,0.184-1.346-1.005
		c-0.166-0.509-0.361-0.746-0.925-0.686c-0.53,0.058-1.075,0.044-1.61,0.003c-0.447-0.034-0.619,0.147-0.74,0.558
		c-0.326,1.115-0.901,1.409-2.061,1.125c-0.438-0.108-0.188-0.37-0.119-0.566c0.574-1.623,1.156-3.243,1.735-4.864
		c0.302-0.842,0.619-1.68,0.896-2.529c0.128-0.395,0.309-0.567,0.756-0.564c1.395,0.01,1.396-0.012,1.861,1.284
		c0.779,2.168,1.555,4.336,2.333,6.505c0.266,0.739,0.266,0.739-0.511,0.741C331.031,15.005,330.941,15.005,330.852,15.005z
		 M327.924,9.173c-0.048,0-0.097,0-0.145,0.001c-0.111,0.333-0.222,0.667-0.332,1c-0.502,1.52-0.502,1.52,1.232,1.323
		C328.426,10.715,328.176,9.944,327.924,9.173z"/>
	<path fill-rule="evenodd" clip-rule="evenodd" fill="#F9F9FB" d="M282.085,6.487c0.717,0,1.434,0.016,2.15-0.005
		c0.381-0.013,0.552,0.062,0.557,0.507c0.016,1.421,0.037,1.421-1.386,1.421c-0.269,0-0.538-0.005-0.806,0.001
		c-1.427,0.033-1.198-0.262-1.245,1.236c-0.015,0.439,0.118,0.591,0.562,0.568c0.648-0.034,1.301,0.019,1.949-0.019
		c0.43-0.023,0.518,0.134,0.52,0.534c0.006,1.364,0.021,1.364-1.36,1.364c-1.661,0-1.661,0-1.661,1.669
		c0,1.245-0.002,1.207-1.238,1.257c-0.633,0.025-0.779-0.179-0.77-0.784c0.035-2.375,0.029-4.75,0.002-7.124
		c-0.006-0.512,0.143-0.664,0.643-0.635C280.694,6.518,281.39,6.487,282.085,6.487z"/>
	<path fill-rule="evenodd" clip-rule="evenodd" fill="#F9F9FB" d="M334.602,11.702c0-0.919-0.012-1.838,0.008-2.756
		c0.006-0.36-0.078-0.564-0.48-0.506c-0.064,0.01-0.134,0.002-0.201,0c-1.519-0.008-1.512-0.008-1.391-1.547
		c0.021-0.274,0.088-0.409,0.385-0.407c1.814,0.006,3.63,0.002,5.445,0.004c0.131,0,0.328-0.01,0.334,0.143
		c0.025,0.557,0.041,1.118-0.007,1.673c-0.018,0.204-0.302,0.125-0.472,0.133c-0.51,0.022-1.205-0.161-1.488,0.102
		c-0.369,0.345-0.113,1.056-0.122,1.607c-0.019,1.434-0.024,2.868,0.005,4.302c0.01,0.452-0.136,0.564-0.568,0.566
		c-1.447,0.006-1.447,0.022-1.447-1.431C334.602,12.956,334.602,12.329,334.602,11.702z"/>
	<path fill-rule="evenodd" clip-rule="evenodd" fill="#F9F9FB" d="M342.799,10.816c0,1.23-0.014,2.461,0.007,3.692
		c0.006,0.374-0.102,0.496-0.487,0.507c-1.525,0.043-1.525,0.058-1.525-1.486c0-2.147,0.014-4.296-0.01-6.444
		c-0.004-0.465,0.125-0.612,0.6-0.609c1.416,0.006,1.416-0.015,1.416,1.387C342.799,8.848,342.799,9.832,342.799,10.816z"/>
	<path fill-rule="evenodd" clip-rule="evenodd" fill="#FAFAFB" d="M297.453-25.105c-0.005,1.115-0.696,1.914-1.649,1.905
		c-0.941-0.009-1.658-0.833-1.665-1.916c-0.008-1.107,0.75-1.965,1.711-1.939C296.804-27.03,297.458-26.234,297.453-25.105z"/>
	<path fill-rule="evenodd" clip-rule="evenodd" fill="#F7F8F9" d="M287.348-28.75c0.419,1.234,0.767,2.289,1.136,3.334
		c0.119,0.335,0.094,0.492-0.316,0.474c-0.668-0.032-1.645,0.229-1.926-0.106c-0.332-0.395,0.273-1.203,0.454-1.837
		C286.856-27.457,287.085-28.008,287.348-28.75z"/>
	<path fill-rule="evenodd" clip-rule="evenodd" fill="#F9F9FB" d="M312.868-25.599c-0.939,0-1.836-0.011-2.732,0.005
		c-0.352,0.006-0.348-0.145-0.271-0.411c0.203-0.698,0.863-1.22,1.531-1.187C312.14-27.155,312.634-26.642,312.868-25.599z"/>
	<path fill-rule="evenodd" clip-rule="evenodd" fill="#FAFAFB" d="M339.226,56.565c0-0.95,0-1.901,0-2.852
		c0-0.854-0.013-1.705,0.003-2.556c0.016-0.924,0.426-1.396,1.182-1.396c0.737-0.001,1.152,0.502,1.152,1.404
		c0.002,2.802-0.012,5.604,0.011,8.405c0.006,0.64-0.218,1.097-0.78,1.352c-0.541,0.244-1.23,0.009-1.66-0.55
		c-1.463-1.899-2.912-3.808-4.367-5.71c-0.186-0.241-0.37-0.48-0.574-0.742c-0.201,0.257-0.115,0.484-0.117,0.693
		c-0.016,1.726-0.015,3.45-0.029,5.177c-0.008,0.75-0.45,1.222-1.127,1.232c-0.668,0.011-1.174-0.467-1.178-1.191
		c-0.012-2.936-0.006-5.872-0.004-8.807c0.001-0.569,0.231-0.998,0.795-1.191c0.65-0.224,1.342-0.038,1.808,0.552
		c0.86,1.089,1.688,2.204,2.53,3.308c0.74,0.97,1.48,1.939,2.221,2.91C339.135,56.592,339.18,56.579,339.226,56.565z"/>
	<path fill-rule="evenodd" clip-rule="evenodd" fill="#FAFAFB" d="M308.747,53.021c-0.805-1.214-0.253-3.163,1.045-4.039
		c1.401-0.946,3.305-0.727,4.376,0.556c1.925,2.304,3.846,4.61,5.741,6.938c0.8,0.98,0.769,1.33-0.027,2.289
		c-1.857,2.243-3.719,4.482-5.58,6.722c-0.258,0.309-0.503,0.646-0.937,0.715c-0.509,0.081-0.948-0.067-1.21-0.525
		c-0.286-0.5-0.208-0.979,0.17-1.426c1.348-1.588,2.688-3.184,4.031-4.774c0.376-0.445,0.732-0.909,1.131-1.332
		c0.373-0.396,0.313-0.696-0.024-1.097c-1.644-1.925-3.253-3.878-4.886-5.813c-0.744-0.883-1.553-1.116-2.501-0.76
		c-0.891,0.335-1.35,1.113-1.33,2.253C308.747,52.811,308.747,52.893,308.747,53.021z"/>
	<path fill-rule="evenodd" clip-rule="evenodd" fill="#FAFAFB" d="M326.125,50.952c0.001,0.254-0.206,0.543-0.438,0.824
		c-0.898,1.087-1.783,2.187-2.699,3.259c-0.251,0.293-0.277,0.474-0.01,0.782c0.897,1.028,1.773,2.078,2.628,3.144
		c0.69,0.857,0.357,1.865-0.651,2.079c-0.467,0.1-0.847-0.065-1.139-0.413c-1.178-1.407-2.357-2.817-3.517-4.24
		c-0.448-0.554-0.438-1.086,0.021-1.652c1.227-1.513,2.469-3.015,3.709-4.519c0.385-0.466,0.893-0.613,1.443-0.397
		C325.891,49.984,326.142,50.332,326.125,50.952z"/>
	<path fill-rule="evenodd" clip-rule="evenodd" fill="#F1F3F6" d="M306.204,54.286c1.613,0,3.227-0.003,4.84,0.004
		c0.244,0,0.496,0.01,0.73,0.069c0.523,0.131,0.783,0.513,0.799,1.029c0.016,0.547-0.236,0.953-0.781,1.115
		c-0.212,0.062-0.441,0.083-0.664,0.083c-3.292,0.006-6.585,0.005-9.878,0.005c-0.623,0-1.18-0.143-1.382-0.818
		c-0.244-0.819,0.293-1.474,1.229-1.482C302.8,54.274,304.503,54.286,306.204,54.286z"/>
	<path fill-rule="evenodd" clip-rule="evenodd" fill="#F7F8F9" d="M327.583,55.403c0-1.434-0.003-2.867,0.001-4.301
		c0.003-0.852,0.424-1.32,1.166-1.32c0.756,0,1.188,0.446,1.191,1.309c0.013,2.868,0.011,5.735,0,8.601
		c-0.002,0.823-0.474,1.329-1.184,1.336c-0.725,0.007-1.171-0.493-1.174-1.326C327.58,58.269,327.583,56.834,327.583,55.403z"/>
	<path fill-rule="evenodd" clip-rule="evenodd" fill="#FAFAFB" d="M305.444,60.937c-1.455,0-2.91,0.003-4.365,0
		c-0.781-0.004-1.256-0.396-1.295-1.057c-0.041-0.689,0.42-1.207,1.22-1.212c3.022-0.021,6.046-0.011,9.068,0.009
		c0.647,0.004,1.087,0.5,1.09,1.124c0.003,0.657-0.447,1.124-1.15,1.131C308.489,60.947,306.967,60.937,305.444,60.937z"/>
	<path fill-rule="evenodd" clip-rule="evenodd" fill="#F7F8F9" d="M319.818,37.208c0-0.963,0.031-1.833-0.012-2.701
		c-0.022-0.479,0.215-0.473,0.566-0.483c0.385-0.014,0.545,0.054,0.541,0.501c-0.022,2.619-0.01,5.238-0.015,7.858
		c0,0.237,0.126,0.58-0.344,0.541c-0.327-0.029-0.78,0.148-0.673-0.474c-0.076,0-0.132-0.018-0.159,0.003
		c-1.697,1.21-3.517,0.518-3.992-1.521c-0.139-0.597-0.162-1.199-0.088-1.801C315.909,37.009,317.718,35.817,319.818,37.208z
		 M319.82,39.828c0-0.269,0.001-0.538,0-0.807c-0.001-0.798-0.272-1.207-0.942-1.42c-0.682-0.217-1.4,0.015-1.789,0.575
		c-0.539,0.774-0.544,2.494-0.01,3.279c0.388,0.569,1.093,0.803,1.782,0.59c0.66-0.201,0.957-0.638,0.959-1.412
		C319.821,40.365,319.82,40.096,319.82,39.828z"/>
	<path fill-rule="evenodd" clip-rule="evenodd" fill="#F7F8F9" d="M339.472,37.092c0-0.789,0.013-1.607-0.005-2.427
		c-0.009-0.393-0.018-0.663,0.537-0.654c0.506,0.007,0.565,0.191,0.563,0.623c-0.02,2.553-0.004,5.106-0.02,7.658
		c-0.002,0.226,0.221,0.64-0.314,0.629c-0.352-0.008-0.804,0.142-0.683-0.641c-0.466,0.443-0.878,0.652-1.342,0.743
		c-1.134,0.228-2.206-0.38-2.653-1.557c-0.4-1.059-0.426-2.146-0.03-3.219c0.596-1.614,2.198-2.137,3.643-1.2
		C339.242,37.096,339.303,37.163,339.472,37.092z M339.474,39.814c0-0.271,0.001-0.539,0-0.809
		c-0.002-0.818-0.295-1.223-1.024-1.415c-0.719-0.189-1.418,0.036-1.74,0.66c-0.521,1.014-0.545,2.075-0.031,3.099
		c0.33,0.656,1.047,0.905,1.785,0.705c0.711-0.194,1.009-0.618,1.011-1.435C339.475,40.351,339.474,40.082,339.474,39.814z"/>
	<path fill-rule="evenodd" clip-rule="evenodd" fill="#F9F9FB" d="M292.582,42.866c-1.067,0.127-1.067,0.127-1.415-0.787
		c-0.5-1.312-0.506-1.224-1.878-1.337c-1.483-0.123-2.589,0.063-2.829,1.835c-0.091,0.671-0.738,0.209-1.102,0.351
		c-0.134-0.186-0.031-0.32,0.021-0.457c0.95-2.506,1.909-5.009,2.844-7.521c0.134-0.357,0.268-0.539,0.696-0.529
		c0.389,0.006,0.539,0.147,0.664,0.486c0.955,2.552,1.928,5.097,2.894,7.646C292.515,42.651,292.546,42.758,292.582,42.866z
		 M290.341,39.808c-0.48-1.335-0.932-2.589-1.433-3.983c-0.503,1.414-0.953,2.683-1.417,3.983
		C288.457,39.808,289.352,39.808,290.341,39.808z"/>
	<path fill-rule="evenodd" clip-rule="evenodd" fill="#FAFAFB" d="M346.102,42.303c0.101,0.73-0.346,0.619-0.715,0.617
		c-0.539-0.004-0.288-0.424-0.291-0.642c-0.02-2.553,0-5.105-0.023-7.658c-0.003-0.452,0.084-0.606,0.573-0.608
		c0.485,0,0.534,0.193,0.524,0.588c-0.023,0.866-0.008,1.735-0.008,2.694c0.389-0.255,0.689-0.507,1.08-0.609
		c1.294-0.332,2.379,0.199,2.863,1.445c0.351,0.905,0.358,1.849,0.177,2.78C349.867,43.04,347.83,43.707,346.102,42.303z
		 M349.301,39.937c0.006-0.581-0.027-1.071-0.244-1.529c-0.324-0.688-1.029-1.021-1.787-0.84c-0.725,0.173-1.105,0.671-1.107,1.45
		c-0.002,0.516-0.002,1.031,0,1.545c0,0.877,0.438,1.417,1.247,1.538c0.802,0.122,1.441-0.274,1.727-1.058
		C349.275,40.655,349.287,40.254,349.301,39.937z"/>
	<path fill-rule="evenodd" clip-rule="evenodd" fill="#F9F9FB" d="M312.571,40.228c-0.561,0-1.123,0.023-1.682-0.006
		c-0.408-0.023-0.43,0.146-0.354,0.476c0.318,1.341,1.855,1.854,3.055,1.02c0.154-0.106,0.26-0.37,0.492-0.273
		c0.177,0.073,0.357,0.215,0.459,0.376c0.125,0.196-0.109,0.31-0.219,0.426c-1.249,1.335-3.708,1.023-4.531-0.625
		c-0.641-1.286-0.565-2.618,0.202-3.846c0.594-0.952,1.683-1.359,2.736-1.121c1.06,0.242,1.731,0.994,1.919,2.154
		c0.23,1.42,0.23,1.42-1.205,1.42C313.153,40.228,312.862,40.228,312.571,40.228z M310.529,39.284c0.942,0,1.854-0.011,2.767,0.007
		c0.324,0.006,0.367-0.126,0.318-0.402c-0.115-0.638-0.402-1.138-1.07-1.306c-0.643-0.162-1.188,0.031-1.601,0.554
		C310.702,38.438,310.597,38.801,310.529,39.284z"/>
	<path fill-rule="evenodd" clip-rule="evenodd" fill="#F9F9FB" d="M332.096,40.228c-0.561,0-1.123,0.026-1.681-0.009
		c-0.413-0.026-0.437,0.143-0.36,0.474c0.318,1.366,1.884,1.87,3.104,0.986c0.186-0.134,0.305-0.384,0.617-0.145
		c0.313,0.242,0.391,0.396,0.08,0.717c-1.284,1.336-3.787,1.001-4.576-0.683c-0.597-1.273-0.525-2.584,0.23-3.79
		c0.596-0.951,1.683-1.363,2.734-1.126c1.061,0.239,1.732,0.991,1.924,2.149c0.234,1.426,0.234,1.426-1.199,1.426
		C332.678,40.228,332.385,40.228,332.096,40.228z M330.053,39.286c0.776,0,1.51,0.008,2.242-0.006
		c0.279-0.006,0.686,0.141,0.807-0.091c0.166-0.309-0.031-0.69-0.219-1c-0.526-0.866-1.801-0.888-2.431-0.043
		C330.221,38.457,330.109,38.814,330.053,39.286z"/>
	<path fill-rule="evenodd" clip-rule="evenodd" fill="#F7F8F9" d="M350.893,36.639c1.124-0.117,1.121-0.116,1.456,0.898
		c0.395,1.205,0.797,2.406,1.252,3.777c0.432-1.408,0.808-2.636,1.184-3.863c0.289-0.944,0.289-0.944,1.392-0.798
		c-0.662,1.932-1.32,3.854-1.983,5.774c-0.203,0.59-0.392,1.19-0.638,1.764c-0.378,0.887-1.023,1.327-1.781,1.286
		c-0.305-0.017-0.555-0.047-0.56-0.477c-0.003-0.396,0.136-0.455,0.497-0.483c0.874-0.067,1.548-1.209,1.246-2.064
		c-0.605-1.73-1.228-3.455-1.844-5.182C351.039,37.063,350.968,36.854,350.893,36.639z"/>
	<path fill-rule="evenodd" clip-rule="evenodd" fill="#F9F9FB" d="M293.257,39.852c0.004-2.372,1.617-3.752,3.612-3.137
		c0.803,0.244,1.353,0.774,1.57,1.6c0.047,0.182,0.255,0.5-0.085,0.538c-0.277,0.032-0.664,0.24-0.881-0.202
		c-0.451-0.926-0.951-1.23-1.74-1.101c-0.764,0.124-1.285,0.738-1.379,1.682c-0.059,0.578-0.072,1.163,0.112,1.731
		c0.214,0.658,0.655,1.072,1.349,1.138c0.695,0.068,1.307-0.136,1.609-0.825c0.232-0.529,0.693-0.359,0.965-0.247
		c0.301,0.122,0.034,0.482-0.075,0.686c-0.476,0.883-1.253,1.315-2.245,1.337c-1.042,0.021-1.871-0.397-2.395-1.32
		C293.336,41.132,293.228,40.47,293.257,39.852z"/>
	<path fill-rule="evenodd" clip-rule="evenodd" fill="#F9F9FB" d="M299.315,39.814c-0.001-2.081,1.166-3.339,2.994-3.224
		c1.075,0.069,1.969,0.775,2.201,1.762c0.041,0.17,0.19,0.471-0.07,0.498c-0.285,0.031-0.674,0.231-0.896-0.175
		c-0.557-1.014-1.025-1.293-1.855-1.098c-0.77,0.178-1.235,0.824-1.291,1.823c-0.025,0.471-0.043,0.939,0.087,1.404
		c0.214,0.765,0.666,1.232,1.359,1.294c0.722,0.065,1.337-0.135,1.657-0.859c0.211-0.48,0.65-0.308,0.926-0.227
		c0.325,0.096,0.072,0.43-0.016,0.615c-0.436,0.911-1.203,1.366-2.188,1.419c-1.063,0.056-1.927-0.347-2.476-1.292
		C299.401,41.159,299.29,40.499,299.315,39.814z"/>
	<path fill-rule="evenodd" clip-rule="evenodd" fill="#FAFAFB" d="M303.142,49.919c0.672,0,1.344-0.014,2.015,0.003
		c0.754,0.019,1.187,0.457,1.183,1.161c-0.004,0.684-0.406,1.108-1.145,1.119c-1.409,0.021-2.819,0.021-4.229,0
		c-0.708-0.009-1.179-0.482-1.181-1.111c-0.004-0.632,0.455-1.131,1.142-1.162c0.737-0.032,1.478-0.007,2.216-0.007
		C303.142,49.92,303.142,49.92,303.142,49.919z"/>
	<path fill-rule="evenodd" clip-rule="evenodd" fill="#F7F8F9" d="M325.823,39.765c0-0.402-0.026-0.807,0.005-1.21
		c0.053-0.656,0.053-1.195-0.883-1.033c-0.416,0.072-0.244-0.324-0.277-0.531c-0.042-0.267,0.045-0.46,0.357-0.396
		c0.796,0.163,0.882-0.279,0.801-0.897c-0.049-0.362-0.029-0.621,0.496-0.607c0.484,0.012,0.645,0.16,0.568,0.613
		c-0.106,0.633,0.022,1.044,0.803,0.892c0.385-0.076,0.354,0.205,0.363,0.461c0.01,0.301-0.01,0.56-0.414,0.48
		c-0.693-0.139-0.799,0.198-0.768,0.806c0.052,0.982,0.02,1.97,0.014,2.956c-0.004,0.549,0.22,0.859,0.801,0.808
		c0.25-0.021,0.441-0.036,0.417,0.315c-0.017,0.272,0.021,0.506-0.353,0.601c-1.035,0.264-1.859-0.295-1.918-1.373
		c-0.033-0.626-0.006-1.255-0.006-1.883C325.827,39.765,325.824,39.765,325.823,39.765z"/>
	<path fill-rule="evenodd" clip-rule="evenodd" fill="#FDFDFE" d="M306.804,37.417c0.465-0.543,0.857-0.789,1.345-0.814
		c0.286-0.018,0.636-0.135,0.66,0.395c0.021,0.453-0.134,0.547-0.562,0.55c-0.961,0.006-1.393,0.489-1.393,1.464
		c0,1.118-0.018,2.236,0.009,3.354c0.009,0.414-0.069,0.586-0.536,0.571c-0.418-0.013-0.57-0.09-0.562-0.547
		c0.029-1.722,0.005-3.445,0.019-5.166c0.002-0.255-0.201-0.65,0.376-0.645C306.624,36.584,306.959,36.622,306.804,37.417z"/>
	<path fill-rule="evenodd" clip-rule="evenodd" fill="#F1F3F6" d="M323.777,39.771c0,0.898-0.029,1.797,0.011,2.691
		c0.022,0.499-0.254,0.451-0.583,0.469c-0.357,0.016-0.51-0.062-0.504-0.467c0.021-1.816,0.025-3.634-0.002-5.449
		c-0.006-0.457,0.227-0.435,0.537-0.432c0.306,0.004,0.565-0.033,0.55,0.431C323.754,37.933,323.777,38.853,323.777,39.771z"/>
	<path fill-rule="evenodd" clip-rule="evenodd" fill="#F7F8F9" d="M323.875,34.938c-0.051,0.41-0.282,0.602-0.682,0.576
		c-0.373-0.021-0.584-0.244-0.575-0.604c0.009-0.386,0.231-0.617,0.642-0.605C323.671,34.315,323.857,34.552,323.875,34.938z"/>
	<path fill-rule="evenodd" clip-rule="evenodd" fill="#597494" d="M317.377,10.746c0-0.626,0-1.25,0-1.875
		c0-0.207-0.013-0.411,0.293-0.409c0.886,0.006,1.836-0.167,2.428,0.74c0.6,0.917,0.596,1.905,0.143,2.869
		c-0.391,0.833-1.903,1.323-2.706,0.947c-0.197-0.093-0.152-0.252-0.154-0.396C317.374,11.996,317.377,11.371,317.377,10.746z"/>
	<path fill-rule="evenodd" clip-rule="evenodd" fill="#597494" d="M350.928,10.62c-0.012,0.489-0.025,0.843-0.152,1.189
		c-0.307,0.827-0.925,1.334-1.664,1.338c-0.691,0.003-1.334-0.497-1.633-1.29c-0.27-0.717-0.271-1.445-0.023-2.165
		c0.29-0.843,1.002-1.384,1.732-1.345c0.781,0.043,1.475,0.696,1.67,1.603C350.914,10.211,350.916,10.483,350.928,10.62z"/>
	<path fill-rule="evenodd" clip-rule="evenodd" fill="#597494" d="M288.683,10.712c0.007-1.381,0.799-2.391,1.854-2.366
		c1.024,0.026,1.785,1.032,1.797,2.368c0.006,0.549-0.091,1.069-0.382,1.542c-0.729,1.186-2.171,1.186-2.897-0.004
		C288.767,11.782,288.653,11.264,288.683,10.712z"/>
	<path fill-rule="evenodd" clip-rule="evenodd" fill="#597494" d="M327.924,9.173c0.252,0.771,0.502,1.542,0.756,2.325
		c-1.734,0.197-1.734,0.197-1.232-1.323c0.11-0.334,0.221-0.667,0.332-1C327.827,9.173,327.876,9.173,327.924,9.173z"/>
	<path fill-rule="evenodd" clip-rule="evenodd" fill="#052E5D" d="M319.82,39.828c0,0.268,0.001,0.537,0,0.806
		c-0.002,0.774-0.299,1.211-0.959,1.412c-0.689,0.213-1.395-0.021-1.782-0.59c-0.534-0.785-0.529-2.505,0.01-3.279
		c0.389-0.561,1.107-0.792,1.789-0.575c0.67,0.213,0.941,0.622,0.942,1.42C319.821,39.29,319.82,39.56,319.82,39.828z"/>
	<path fill-rule="evenodd" clip-rule="evenodd" fill="#052E5D" d="M339.474,39.814c0,0.268,0.001,0.536,0,0.806
		c-0.002,0.816-0.3,1.24-1.011,1.435c-0.738,0.2-1.455-0.049-1.785-0.705c-0.514-1.023-0.49-2.085,0.031-3.099
		c0.322-0.624,1.021-0.85,1.74-0.66c0.729,0.192,1.022,0.597,1.024,1.415C339.475,39.275,339.474,39.544,339.474,39.814z"/>
	<path fill-rule="evenodd" clip-rule="evenodd" fill="#07305E" d="M290.341,39.808c-0.989,0-1.884,0-2.85,0
		c0.464-1.301,0.914-2.569,1.417-3.983C289.409,37.219,289.86,38.473,290.341,39.808z"/>
	<path fill-rule="evenodd" clip-rule="evenodd" fill="#052E5D" d="M349.301,39.937c-0.014,0.317-0.025,0.719-0.165,1.106
		c-0.285,0.783-0.925,1.18-1.727,1.058c-0.81-0.121-1.247-0.661-1.247-1.538c-0.002-0.514-0.002-1.029,0-1.545
		c0.002-0.779,0.383-1.277,1.107-1.45c0.758-0.181,1.463,0.151,1.787,0.84C349.273,38.865,349.307,39.355,349.301,39.937z"/>
	<path fill-rule="evenodd" clip-rule="evenodd" fill="#052E5D" d="M310.529,39.284c0.067-0.483,0.173-0.846,0.414-1.147
		c0.413-0.522,0.958-0.716,1.601-0.554c0.668,0.168,0.955,0.668,1.07,1.306c0.049,0.276,0.006,0.408-0.318,0.402
		C312.384,39.273,311.472,39.284,310.529,39.284z"/>
	<path fill-rule="evenodd" clip-rule="evenodd" fill="#052E5D" d="M330.053,39.286c0.057-0.472,0.168-0.829,0.399-1.14
		c0.63-0.845,1.904-0.823,2.431,0.043c0.188,0.31,0.385,0.691,0.219,1c-0.121,0.231-0.527,0.085-0.807,0.091
		C331.563,39.294,330.829,39.286,330.053,39.286z"/>
</g>
<g>
	<path fill-rule="evenodd" clip-rule="evenodd" fill="#019DDF" d="M35.444,7.096c0.002,1.257,0.003,2.514,0.007,3.771
		c0.002,0.125-0.033,0.182-0.164,0.167c-0.05-0.007-0.104-0.001-0.156-0.001c-5.891,0-11.781,0.001-17.671-0.004
		c-0.179,0-0.307,0.05-0.433,0.172c-1.317,1.275-2.637,2.546-3.958,3.816c-0.928,0.892-1.854,1.784-2.788,2.668
		c-0.146,0.139-0.21,0.276-0.209,0.483c0.006,4.101-0.006,8.203,0.01,12.305c0.006,1.714,0.198,3.416,0.538,5.099
		c0.212,1.169,0.513,2.315,0.874,3.446c0.267,0.839,0.551,1.673,0.917,2.476c0.01,0.037,0.017,0.073,0.031,0.107
		c0.401,0.966,0.848,1.911,1.342,2.834c2.491,4.65,5.885,8.549,9.948,11.882c3.503,2.872,7.352,5.181,11.483,7.023
		c0.173,0.078,0.223,0.17,0.223,0.351c0,1.093,0.011,2.184,0.021,3.277c-0.15,0-0.299,0-0.45,0
		c-0.422-0.117-0.851-0.199-1.252-0.379c-1.331-0.592-2.644-1.225-3.926-1.914c-5.931-3.185-11.151-7.248-15.395-12.506
		c-2.847-3.527-5.063-7.408-6.517-11.712c-0.911-2.696-1.479-5.462-1.672-8.305c-0.015-0.224,0.016-0.457-0.078-0.673
		c0-4.657,0-9.314,0-13.97c0.011-0.009,0.029-0.018,0.031-0.028c0.139-0.754,0.537-1.373,1.039-1.928
		c0.362-0.398,0.747-0.776,1.122-1.162c1.993-2.056,3.982-4.116,5.98-6.166c0.685-0.702,1.536-1.07,2.512-1.148
		c0.097,0.003,0.195,0.011,0.292,0.011c5.995,0,11.992,0,17.988,0.001C35.234,7.088,35.34,7.093,35.444,7.096z"/>
	<path fill-rule="evenodd" clip-rule="evenodd" fill="#012A5A" d="M61.609,35.585c0.162-0.568,0.222-1.155,0.305-1.738
		c0.248-1.738,0.27-3.488,0.267-5.24c-0.009-3.496-0.003-6.993,0-10.489c0-0.141-0.023-0.25-0.135-0.356
		c-1.127-1.074-2.249-2.152-3.37-3.23c-1.181-1.136-2.362-2.271-3.54-3.411c-0.095-0.094-0.196-0.088-0.307-0.088
		c-3.055,0-6.11,0-9.164,0c-2.867,0-5.734-0.003-8.603,0.005c-0.209,0-0.258-0.056-0.255-0.259c0.01-1.228,0.007-2.456,0.009-3.683
		c0.105-0.003,0.21-0.008,0.313-0.008c6.013-0.001,12.022-0.001,18.034-0.001c0.08,0,0.164-0.006,0.244-0.009
		c0.977,0.081,1.82,0.457,2.509,1.153c0.783,0.791,1.549,1.6,2.324,2.398c1.521,1.567,3.042,3.131,4.561,4.698
		c0.482,0.497,0.896,1.042,1.126,1.705c0.063,0.186,0.11,0.377,0.165,0.566c0,0.045,0,0.09,0,0.135
		c-0.077,0.056-0.037,0.138-0.037,0.207c-0.002,3.945-0.002,7.891-0.002,11.836c0,0.104,0.005,0.21,0.007,0.314
		c0.002,0.253-0.063,0.51,0.032,0.759c0,0.105,0,0.209,0,0.314c-0.061,0.017-0.042,0.069-0.043,0.11
		c-0.053,1.338-0.19,2.67-0.412,3.99c-0.617,3.643-1.808,7.093-3.522,10.362c-2.663,5.078-6.308,9.353-10.694,13.015
		c-3.523,2.941-7.388,5.351-11.536,7.306c-0.71,0.332-1.403,0.703-2.167,0.903c-0.153,0.043-0.319,0.034-0.465,0.117
		c-0.151,0-0.298,0-0.448,0c0-1.102,0.004-2.2-0.006-3.302c0-0.167,0.05-0.242,0.205-0.312c2.303-1.021,4.525-2.198,6.655-3.546
		c4.331-2.734,8.164-6.029,11.334-10.068c1.986-2.528,3.628-5.26,4.85-8.238c0.548-1.309,1.002-2.648,1.354-4.021
		C61.358,36.855,61.532,36.23,61.609,35.585z"/>
	<path fill-rule="evenodd" clip-rule="evenodd" fill="#7F94AC" d="M55.401,7.042c0.007,0.012,0.007,0.022,0.007,0.036
		c-0.08,0.002-0.164,0.009-0.244,0.009c-6.012,0-12.021,0-18.034,0.001c-0.104,0-0.208,0.005-0.313,0.008
		c-0.003-0.018-0.008-0.037-0.012-0.054C43.003,7.042,49.202,7.042,55.401,7.042z"/>
	<path fill-rule="evenodd" clip-rule="evenodd" fill="#7FCDEE" d="M16.851,7.076c0-0.012,0.003-0.022,0.008-0.034
		c6.199,0,12.399,0,18.598,0c-0.004,0.018-0.01,0.036-0.013,0.054c-0.104-0.003-0.21-0.008-0.313-0.008
		c-5.996-0.001-11.994-0.001-17.988-0.001C17.045,7.087,16.948,7.079,16.851,7.076z"/>
	<path fill-rule="evenodd" clip-rule="evenodd" fill="#597494" d="M66.061,30.092c-0.002-0.104-0.007-0.21-0.007-0.314
		c0-3.946,0-7.891,0.002-11.836c0-0.069-0.04-0.151,0.037-0.207c0,4.117,0,8.235,0,12.354
		C66.083,30.092,66.073,30.093,66.061,30.092z"/>
	<path fill-rule="evenodd" clip-rule="evenodd" fill="#7F94AC" d="M66.061,30.092c0.013,0.001,0.022,0,0.032-0.004
		c0,0.254,0,0.509,0,0.764C65.997,30.602,66.063,30.345,66.061,30.092z"/>
	<path fill-rule="evenodd" clip-rule="evenodd" fill="#597494" d="M59.843,41.503c-0.089-0.004-0.178-0.012-0.269-0.012
		C43.929,41.49,28.281,41.49,12.633,41.49c-0.075,0-0.148,0.004-0.224,0.004c-0.367-0.802-0.65-1.636-0.917-2.476
		c-0.36-1.13-0.661-2.277-0.874-3.446c10.135,0.001,20.268,0.001,30.402,0.001c6.76,0,13.519,0,20.274,0
		c0.106,0,0.21,0.007,0.314,0.011c-0.077,0.645-0.251,1.27-0.412,1.897C60.845,38.855,60.391,40.195,59.843,41.503z M29.753,38.57
		c0.015,0.001,0.028,0.002,0.042,0.002c0,0.325-0.002,0.651,0.002,0.977c0.006,0.412,0.007,0.404,0.424,0.408
		c0.156,0.001,0.205-0.045,0.202-0.202c-0.011-0.749-0.012-1.497-0.013-2.245c-0.001-0.431,0-0.427-0.432-0.402
		c-0.098,0.006-0.146,0.047-0.182,0.131c-0.055,0.123-0.116,0.243-0.176,0.364c-0.172,0.36-0.347,0.719-0.542,1.123
		c-0.23-0.46-0.435-0.873-0.64-1.285c-0.179-0.361-0.179-0.356-0.572-0.332c-0.109,0.006-0.143,0.042-0.139,0.147
		c0.006,0.187,0.001,0.374,0.001,0.561c0,0.6,0,1.198,0,1.797c0,0.339,0.003,0.325,0.346,0.345c0.229,0.014,0.299-0.052,0.285-0.282
		c-0.023-0.342-0.007-0.687-0.007-1.032c0.194,0.287,0.346,0.577,0.484,0.874c0.051,0.113,0.118,0.148,0.239,0.149
		c0.118,0,0.172-0.049,0.22-0.146C29.446,39.202,29.601,38.887,29.753,38.57z M42.38,38.527c0,0.419,0.004,0.838,0,1.257
		c-0.003,0.125,0.035,0.178,0.164,0.171c0.117-0.007,0.239-0.006,0.358,0c0.1,0.003,0.154-0.023,0.148-0.137
		c-0.007-0.157,0.006-0.314-0.005-0.472c-0.006-0.122,0.048-0.136,0.156-0.151c0.259-0.037,0.308,0.177,0.359,0.324
		c0.135,0.389,0.395,0.486,0.772,0.441c0.176-0.021,0.162-0.067,0.091-0.185c-0.102-0.174-0.189-0.356-0.298-0.526
		c-0.081-0.125-0.078-0.196,0.042-0.312c0.338-0.325,0.363-0.738,0.238-1.164c-0.118-0.403-0.412-0.618-0.823-0.646
		c-0.334-0.024-0.675-0.007-1.008-0.021c-0.163-0.007-0.202,0.057-0.199,0.209C42.386,37.72,42.38,38.124,42.38,38.527z
		 M39.672,38.535c0,0.41,0.008,0.823-0.003,1.233c-0.003,0.152,0.049,0.191,0.191,0.188c0.401-0.007,0.807-0.002,1.211-0.002
		c0.459,0,0.452,0,0.453-0.459c0.003-0.155-0.053-0.188-0.192-0.185c-0.275,0.009-0.555-0.01-0.829,0.007
		c-0.228,0.014-0.184-0.13-0.188-0.26c-0.005-0.14-0.021-0.276,0.197-0.25c0.133,0.016,0.268,0.003,0.401,0.003
		c0.442,0,0.438,0,0.431-0.437c-0.002-0.125-0.037-0.17-0.164-0.165c-0.231,0.009-0.463,0.004-0.695,0.001
		c-0.062,0-0.134,0.021-0.166-0.071c-0.083-0.234,0.015-0.386,0.254-0.386c0.15-0.001,0.299,0,0.449,0c0.473,0,0.467,0,0.458-0.478
		c-0.003-0.127-0.04-0.168-0.167-0.166c-0.492,0.005-0.986,0.005-1.48,0c-0.128-0.002-0.164,0.045-0.164,0.169
		C39.676,37.698,39.672,38.116,39.672,38.535z M33.379,39.954c0.395,0,0.395,0,0.273-0.335c-0.252-0.702-0.506-1.405-0.759-2.107
		c-0.143-0.402-0.143-0.394-0.566-0.404c-0.171-0.004-0.249,0.052-0.304,0.214c-0.244,0.712-0.506,1.422-0.761,2.13
		c-0.194,0.543-0.196,0.541,0.372,0.504c0.087-0.005,0.131-0.031,0.165-0.114c0.06-0.149,0.038-0.366,0.193-0.43
		c0.14-0.058,0.322-0.016,0.488-0.018c0.052-0.001,0.106,0.008,0.156-0.002c0.202-0.04,0.313,0.049,0.341,0.244
		C33.015,39.896,33.143,40.025,33.379,39.954z M36.027,37.904c0.054-0.158,0.093-0.31,0.158-0.451c0.061-0.134,0-0.19-0.108-0.239
		c-0.346-0.156-0.701-0.209-1.07-0.107c-0.388,0.106-0.623,0.417-0.636,0.825c-0.013,0.451,0.149,0.686,0.585,0.839
		c0.176,0.061,0.355,0.11,0.531,0.17c0.104,0.037,0.193,0.1,0.182,0.226c-0.015,0.123-0.11,0.165-0.218,0.191
		c-0.201,0.046-0.385-0.011-0.57-0.073c-0.12-0.039-0.247-0.193-0.33-0.141c-0.092,0.057-0.109,0.232-0.16,0.356
		c-0.002,0.008-0.002,0.016-0.007,0.021c-0.074,0.133-0.032,0.214,0.102,0.284c0.308,0.159,0.631,0.231,0.974,0.195
		c0.498-0.056,0.821-0.363,0.854-0.8c0.041-0.513-0.151-0.772-0.694-0.938c-0.15-0.045-0.301-0.089-0.448-0.142
		c-0.088-0.032-0.16-0.096-0.146-0.2c0.012-0.093,0.067-0.168,0.162-0.195c0.091-0.026,0.187-0.045,0.286-0.03
		C35.669,37.727,35.843,37.808,36.027,37.904z M37.604,38.845c0,0.217,0,0.434,0,0.649c0,0.474,0,0.468,0.476,0.463
		c0.146-0.001,0.196-0.045,0.194-0.192c-0.009-0.493-0.004-0.986-0.004-1.479c0-0.513,0-0.513,0.502-0.522
		c0.016,0,0.03-0.001,0.045,0c0.083,0.004,0.162-0.007,0.143-0.114c-0.036-0.178,0.092-0.379-0.08-0.534
		c-0.01-0.008-0.029-0.002-0.044-0.002c-0.605-0.001-1.21-0.001-1.817,0c-0.061,0-0.125,0-0.125,0.087
		c0.006,0.178-0.061,0.382,0.03,0.525c0.068,0.107,0.265,0.023,0.405,0.038c0.035,0.003,0.071,0.004,0.111-0.001
		c0.124-0.015,0.171,0.034,0.168,0.163C37.6,38.231,37.604,38.538,37.604,38.845z"/>
	<path fill-rule="evenodd" clip-rule="evenodd" fill="#062F5E" d="M45.776,25.594c0.525-0.445,0.985-0.406,1.382,0.089
		c0.2-0.233,0.437-0.397,0.76-0.397c0.501,0.001,0.847,0.337,0.874,0.913c0.026,0.546,0.01,1.093,0.017,1.639
		c0.001,0.092-0.023,0.146-0.126,0.132c-0.016-0.001-0.03,0-0.045,0c-0.461,0.012-0.461,0.012-0.462-0.448
		c-0.001-0.367,0.007-0.734-0.01-1.1c-0.021-0.393-0.335-0.587-0.619-0.395c-0.171,0.115-0.225,0.298-0.229,0.489
		c-0.009,0.42-0.014,0.838-0.005,1.258c0.004,0.16-0.047,0.201-0.2,0.199c-0.434-0.005-0.434,0.002-0.434-0.433
		c0-0.33,0.003-0.659,0-0.989c-0.004-0.388-0.145-0.597-0.398-0.596c-0.27,0-0.449,0.235-0.451,0.611
		c-0.005,0.397-0.009,0.794,0.002,1.19c0.005,0.161-0.03,0.221-0.206,0.217c-0.444-0.01-0.444,0-0.444-0.447
		c0-0.666,0.005-1.333-0.005-1.999c-0.003-0.174,0.051-0.229,0.214-0.204c0.051,0.008,0.104,0.007,0.156,0
		C45.722,25.301,45.845,25.332,45.776,25.594z"/>
	<path fill-rule="evenodd" clip-rule="evenodd" fill="#052E5D" d="M40.397,21.389c0-0.598,0.005-1.195-0.004-1.792
		c-0.002-0.158,0.042-0.202,0.198-0.198c0.443,0.007,0.443,0,0.443,0.444c0,0.919-0.005,1.839,0.005,2.759
		c0,0.183-0.042,0.234-0.23,0.241c-0.231,0.008-0.359-0.071-0.484-0.263c-0.372-0.584-0.766-1.154-1.158-1.741
		c-0.054,0.068-0.031,0.137-0.033,0.197c-0.001,0.539-0.004,1.077,0.002,1.615c0.003,0.127-0.02,0.185-0.167,0.187
		c-0.497,0.008-0.497,0.014-0.497-0.484c0-0.912,0.005-1.825-0.002-2.737c-0.002-0.157,0.026-0.21,0.202-0.224
		c0.267-0.019,0.418,0.075,0.556,0.297c0.361,0.581,0.749,1.145,1.127,1.715C40.368,21.399,40.383,21.394,40.397,21.389z"/>
	<path fill-rule="evenodd" clip-rule="evenodd" fill="#052E5D" d="M26.986,28.042c0.357,0.239,0.726,0.416,1.135,0.184
		c0.232-0.133,0.256-0.385,0.239-0.662c-0.335,0.306-0.706,0.358-1.087,0.174c-0.414-0.2-0.591-0.569-0.634-1.014
		c-0.026-0.266,0.002-0.523,0.105-0.769c0.292-0.702,1.01-0.866,1.644-0.381c0.057-0.074-0.051-0.223,0.071-0.241
		c0.165-0.025,0.341-0.006,0.512,0.01c0.043,0.004,0.024,0.079,0.024,0.121c0,0.763,0.011,1.526-0.008,2.29
		c-0.012,0.47-0.159,0.902-0.642,1.09c-0.531,0.206-1.043,0.129-1.517-0.186c-0.066-0.042-0.089-0.085-0.049-0.165
		C26.853,28.35,26.917,28.198,26.986,28.042z M27.273,26.554c-0.002,0.381,0.229,0.652,0.555,0.651
		c0.313-0.001,0.548-0.272,0.552-0.636c0.005-0.37-0.241-0.656-0.56-0.65C27.502,25.922,27.275,26.186,27.273,26.554z"/>
	<path fill-rule="evenodd" clip-rule="evenodd" fill="#093260" d="M31.511,21.112c0-0.508,0.005-1.018-0.005-1.526
		c-0.003-0.149,0.043-0.188,0.19-0.187c0.582,0.008,1.166,0.007,1.75,0.001c0.134-0.002,0.181,0.029,0.181,0.171
		c0.003,0.479,0.011,0.479-0.477,0.479c-0.279,0-0.556,0.005-0.833-0.003c-0.118-0.003-0.146,0.041-0.148,0.154
		c-0.02,0.58-0.023,0.58,0.553,0.58c0.204,0,0.405,0.003,0.606-0.002c0.094-0.002,0.143,0.028,0.131,0.126c0,0.015,0,0.03,0,0.046
		c0.014,0.46,0.014,0.46-0.446,0.46c-0.227,0-0.449,0.01-0.675-0.003c-0.145-0.009-0.182,0.045-0.168,0.178
		c0.017,0.192-0.079,0.438,0.036,0.561c0.109,0.114,0.354,0.028,0.541,0.032c0.263,0.006,0.523,0.007,0.785,0
		c0.108-0.002,0.134,0.035,0.139,0.141c0.022,0.517,0.025,0.517-0.482,0.517c-0.503,0-1.003-0.004-1.505,0.003
		c-0.138,0.002-0.18-0.038-0.178-0.177C31.515,22.144,31.511,21.628,31.511,21.112z"/>
	<path fill-rule="evenodd" clip-rule="evenodd" fill="#062F5E" d="M26.573,27.969c-0.211,0-0.397-0.002-0.582,0.002
		c-0.083,0.002-0.127-0.03-0.145-0.107c-0.003-0.015-0.005-0.03-0.012-0.043c-0.069-0.188-0.089-0.436-0.223-0.546
		c-0.146-0.121-0.401-0.033-0.609-0.036c-0.209-0.004-0.452-0.057-0.616,0.03c-0.159,0.085-0.161,0.353-0.216,0.543
		c-0.044,0.156-0.14,0.161-0.269,0.159c-0.466-0.003-0.467,0-0.31-0.433c0.339-0.939,0.683-1.876,1.015-2.818
		c0.052-0.146,0.118-0.19,0.271-0.188c0.451,0.01,0.451,0.002,0.602,0.416C25.839,25.942,26.198,26.935,26.573,27.969z M25,25.337
		c-0.147,0.429-0.271,0.803-0.399,1.173c-0.036,0.103,0.017,0.113,0.097,0.112c0.187-0.001,0.374-0.008,0.56,0.002
		c0.141,0.006,0.165-0.037,0.12-0.167C25.252,26.106,25.138,25.752,25,25.337z"/>
	<path fill-rule="evenodd" clip-rule="evenodd" fill="#062F5E" d="M36.695,28.017c-0.346,0.001-0.66-0.096-0.957-0.27
		c-0.12-0.071-0.169-0.147-0.1-0.288c0.063-0.125,0.067-0.319,0.164-0.379c0.109-0.07,0.226,0.11,0.349,0.161
		c0.262,0.108,0.524,0.168,0.807,0.106c0.157-0.036,0.27-0.123,0.295-0.294c0.023-0.17-0.073-0.277-0.211-0.333
		c-0.211-0.087-0.437-0.151-0.654-0.226c-0.557-0.19-0.784-0.51-0.744-1.046c0.037-0.513,0.361-0.857,0.909-0.953
		c0.381-0.066,0.741,0.005,1.084,0.178c0.116,0.058,0.173,0.123,0.109,0.26c-0.061,0.135-0.06,0.334-0.157,0.406
		c-0.098,0.07-0.233-0.103-0.366-0.143c-0.196-0.062-0.392-0.095-0.595-0.053c-0.175,0.036-0.302,0.123-0.325,0.317
		c-0.021,0.192,0.086,0.294,0.247,0.351c0.205,0.073,0.411,0.132,0.616,0.203c0.58,0.201,0.803,0.531,0.734,1.091
		c-0.063,0.516-0.444,0.863-1.004,0.909C36.831,28.021,36.764,28.017,36.695,28.017z"/>
	<path fill-rule="evenodd" clip-rule="evenodd" fill="#062F5E" d="M34.009,19.402c0.237,0,0.436,0.007,0.636-0.003
		c0.119-0.005,0.15,0.071,0.195,0.149c0.178,0.31,0.358,0.619,0.548,0.948c0.181-0.317,0.356-0.611,0.515-0.915
		c0.072-0.136,0.153-0.199,0.312-0.183c0.154,0.015,0.311,0.003,0.502,0.003c-0.117,0.207-0.225,0.392-0.33,0.576
		c-0.146,0.252-0.271,0.52-0.447,0.75c-0.188,0.245-0.148,0.434,0.007,0.673c0.291,0.451,0.547,0.924,0.845,1.43
		c-0.259,0-0.484,0.004-0.709,0c-0.08-0.002-0.1-0.083-0.131-0.138c-0.189-0.33-0.375-0.661-0.584-1.031
		c-0.158,0.282-0.323,0.527-0.438,0.793c-0.13,0.302-0.315,0.443-0.646,0.381c-0.093-0.017-0.19-0.002-0.327-0.002
		c0.2-0.342,0.388-0.651,0.565-0.966c0.151-0.266,0.437-0.515,0.419-0.794c-0.018-0.267-0.268-0.52-0.416-0.778
		C34.358,20.006,34.19,19.719,34.009,19.402z"/>
	<path fill-rule="evenodd" clip-rule="evenodd" fill="#093260" d="M44.005,27.716c-0.159,0.116-0.281,0.225-0.445,0.263
		c-0.532,0.124-1.002-0.186-1.085-0.761c-0.086-0.594-0.02-1.196-0.034-1.795c-0.004-0.08,0.037-0.102,0.109-0.1
		c0.111,0.004,0.225,0.01,0.336-0.001c0.144-0.014,0.197,0.029,0.19,0.183c-0.011,0.389-0.006,0.778-0.002,1.167
		c0.001,0.104,0.002,0.211,0.026,0.312c0.04,0.18,0.138,0.317,0.339,0.34c0.199,0.023,0.349-0.062,0.446-0.234
		c0.08-0.147,0.1-0.312,0.097-0.478c0-0.367,0.006-0.734-0.004-1.101c-0.001-0.137,0.023-0.193,0.18-0.191
		c0.457,0.005,0.457-0.003,0.457,0.454c0,0.666-0.006,1.332,0.002,1.999c0.003,0.157-0.041,0.222-0.2,0.198
		c-0.044-0.007-0.089-0.004-0.133,0C44.117,27.985,43.962,27.988,44.005,27.716z"/>
	<path fill-rule="evenodd" clip-rule="evenodd" fill="#052E5D" d="M33.643,27.132c0.056,0.072,0.111,0.143,0.162,0.214
		c0.193,0.254,0.186,0.294-0.083,0.478c-0.752,0.511-1.775-0.029-1.855-0.982c-0.024-0.3,0-0.597,0.131-0.877
		c0.221-0.467,0.623-0.716,1.108-0.677c0.443,0.035,0.824,0.377,0.952,0.857c0.004,0.008,0.004,0.016,0.006,0.022
		c0.053,0.22,0.132,0.478,0.016,0.652c-0.087,0.127-0.349,0.033-0.532,0.039c-0.293,0.008-0.583,0.01-0.876-0.002
		c-0.188-0.007-0.178,0.068-0.113,0.195c0.161,0.326,0.585,0.433,0.904,0.221C33.524,27.232,33.579,27.183,33.643,27.132z
		 M33.518,26.397c-0.088-0.361-0.275-0.54-0.533-0.525c-0.263,0.014-0.439,0.208-0.479,0.525
		C32.838,26.397,33.171,26.397,33.518,26.397z"/>
	<path fill-rule="evenodd" clip-rule="evenodd" fill="#062F5E" d="M38.202,26.646c0-0.718,0.39-1.238,1.005-1.346
		c0.465-0.082,0.902,0.127,1.098,0.515c0.055,0.107,0.058,0.178-0.06,0.232c-0.047,0.022-0.093,0.052-0.134,0.085
		c-0.135,0.114-0.235,0.169-0.371-0.037c-0.164-0.248-0.519-0.227-0.72,0c-0.226,0.252-0.236,0.803-0.023,1.069
		c0.219,0.27,0.585,0.273,0.78-0.013c0.096-0.141,0.167-0.128,0.272-0.035c0.017,0.015,0.035,0.026,0.054,0.038
		c0.297,0.198,0.304,0.245,0.065,0.517c-0.443,0.509-1.331,0.42-1.728-0.175C38.271,27.24,38.202,26.952,38.202,26.646z"/>
	<path fill-rule="evenodd" clip-rule="evenodd" fill="#093260" d="M37.793,21.1c0,0.524-0.003,1.047,0.003,1.57
		c0,0.122-0.027,0.166-0.159,0.168c-0.497,0.009-0.497,0.014-0.497-0.481c0-0.919,0.002-1.839-0.005-2.757
		c-0.001-0.155,0.04-0.204,0.2-0.202c0.458,0.006,0.458-0.002,0.458,0.448C37.793,20.264,37.793,20.683,37.793,21.1z"/>
	<path fill-rule="evenodd" clip-rule="evenodd" fill="#012A5A" d="M31.414,26.132c0,0.545-0.005,1.091,0.002,1.636
		c0.004,0.147-0.021,0.208-0.19,0.206c-0.44-0.008-0.441,0.002-0.441-0.442c0-0.994,0.004-1.988-0.004-2.981
		c-0.001-0.164,0.025-0.232,0.215-0.225c0.419,0.015,0.419,0.003,0.419,0.417C31.414,25.206,31.414,25.669,31.414,26.132z"/>
	<path fill-rule="evenodd" clip-rule="evenodd" fill="#062F5E" d="M41.329,25.642c0.195-0.202,0.356-0.301,0.555-0.342
		c0.141-0.028,0.22-0.014,0.201,0.154c-0.009,0.074-0.009,0.151,0,0.225c0.021,0.202,0.011,0.338-0.27,0.336
		c-0.245-0.002-0.414,0.258-0.427,0.576c-0.011,0.389-0.015,0.778-0.006,1.167c0.006,0.164-0.032,0.22-0.208,0.216
		c-0.426-0.01-0.426,0-0.426-0.418c0-0.666,0.011-1.333-0.006-1.998c-0.006-0.21,0.063-0.264,0.249-0.233
		c0.029,0.004,0.06,0.003,0.089,0C41.268,25.299,41.415,25.318,41.329,25.642z"/>
	<path fill-rule="evenodd" clip-rule="evenodd" fill="#062F5E" d="M30.209,26.633c0,0.388-0.006,0.776,0.003,1.165
		c0.004,0.139-0.041,0.176-0.176,0.176c-0.459,0-0.459,0.007-0.459-0.454c0-0.665,0.007-1.329-0.002-1.994
		c-0.003-0.146,0.021-0.208,0.19-0.205c0.443,0.007,0.443-0.002,0.443,0.439C30.209,26.05,30.209,26.342,30.209,26.633z"/>
	<path fill-rule="evenodd" clip-rule="evenodd" fill="#062F5E" d="M30.284,24.526c0.001,0.266-0.156,0.441-0.395,0.44
		c-0.23-0.001-0.387-0.17-0.387-0.425c-0.001-0.251,0.156-0.426,0.385-0.429C30.124,24.108,30.282,24.272,30.284,24.526z"/>
	<path fill-rule="evenodd" clip-rule="evenodd" fill="#012B5A" d="M36.121,43.227c6.805,0,13.609,0,20.414,0
		c0.044,0,0.089,0.005,0.133-0.001c0.164-0.019,0.194,0.024,0.115,0.179c-0.613,1.189-1.281,2.348-2.025,3.459
		c-2.833,4.226-6.436,7.677-10.605,10.559c-2.477,1.713-5.101,3.161-7.847,4.39c-0.122,0.056-0.222,0.069-0.354,0.01
		c-3.624-1.622-7.021-3.621-10.144-6.078c-4.003-3.154-7.355-6.875-9.823-11.357c-0.18-0.327-0.342-0.664-0.521-0.992
		c-0.081-0.146-0.038-0.183,0.111-0.168c0.051,0.006,0.105,0.001,0.156,0.001C22.528,43.227,29.324,43.227,36.121,43.227z
		 M40.584,52.875c0.268,0.35,0.491,0.644,0.717,0.938c0.331,0.434,0.664,0.866,0.997,1.299c0.142,0.184,0.338,0.237,0.539,0.159
		c0.188-0.071,0.268-0.232,0.26-0.449c-0.014-0.336-0.003-0.675-0.003-1.01c0-0.622,0.001-1.244-0.003-1.864
		c-0.001-0.239-0.165-0.397-0.392-0.395c-0.222,0.002-0.366,0.145-0.376,0.385c-0.006,0.135-0.001,0.269-0.001,0.403
		c0,0.499,0,0.995,0,1.493c-0.101-0.059-0.158-0.132-0.217-0.205c-0.469-0.62-0.938-1.24-1.411-1.856
		c-0.159-0.206-0.392-0.272-0.619-0.192c-0.238,0.083-0.265,0.274-0.263,0.491c0.005,0.531,0.001,1.062,0.001,1.594
		c0,0.419-0.005,0.838,0.003,1.257c0.003,0.235,0.16,0.385,0.379,0.386c0.223,0.004,0.372-0.141,0.388-0.376
		c0.005-0.088,0.001-0.178,0.001-0.269C40.584,54.091,40.584,53.519,40.584,52.875z M32.126,52.607
		c0.015-0.46,0.157-0.705,0.466-0.819c0.334-0.122,0.588-0.033,0.877,0.313c0.515,0.612,1.02,1.232,1.545,1.836
		c0.156,0.181,0.151,0.297-0.004,0.474c-0.551,0.63-1.085,1.276-1.625,1.915c-0.099,0.117-0.19,0.236-0.157,0.401
		c0.03,0.153,0.123,0.262,0.269,0.303c0.208,0.063,0.352-0.05,0.479-0.203c0.633-0.77,1.271-1.532,1.905-2.3
		c0.233-0.281,0.24-0.418,0.003-0.711c-0.623-0.766-1.26-1.521-1.884-2.286c-0.259-0.315-0.585-0.464-0.985-0.424
		C32.133,51.19,31.838,52.115,32.126,52.607z M37.574,51.538c-0.126,0.008-0.243,0.055-0.326,0.159
		c-0.417,0.507-0.839,1.014-1.25,1.525c-0.15,0.186-0.145,0.366,0.007,0.551c0.384,0.469,0.771,0.933,1.16,1.397
		c0.103,0.123,0.233,0.183,0.397,0.143c0.331-0.08,0.43-0.417,0.196-0.702c-0.272-0.337-0.545-0.675-0.834-0.997
		c-0.12-0.134-0.115-0.215,0.004-0.347c0.313-0.36,0.611-0.736,0.913-1.105c0.105-0.128,0.127-0.272,0.063-0.42
		C37.848,51.604,37.722,51.553,37.574,51.538z M31.277,53.063c-0.561,0-1.123-0.005-1.683,0c-0.315,0.003-0.497,0.217-0.42,0.487
		c0.065,0.227,0.25,0.281,0.459,0.281c1.105,0,2.212,0,3.318,0c0.066,0,0.135-0.011,0.199-0.028
		c0.186-0.051,0.292-0.222,0.264-0.412c-0.027-0.219-0.176-0.326-0.456-0.328C32.399,53.061,31.838,53.063,31.277,53.063z
		 M39.211,53.445c0-0.485,0.001-0.971-0.003-1.457c-0.001-0.283-0.145-0.431-0.4-0.429c-0.237,0.002-0.385,0.158-0.385,0.425
		c-0.005,0.964-0.004,1.929-0.002,2.894c0.002,0.271,0.166,0.438,0.406,0.434c0.236-0.006,0.38-0.165,0.381-0.432
		C39.212,54.402,39.211,53.924,39.211,53.445z M31.029,55.281c0.516,0,1.029,0.003,1.546-0.002c0.221-0.004,0.362-0.154,0.366-0.367
		c0.003-0.223-0.126-0.382-0.348-0.384c-1.016-0.008-2.03-0.01-3.047-0.003c-0.257,0.002-0.392,0.16-0.387,0.394
		c0.006,0.231,0.15,0.36,0.412,0.361C30.06,55.282,30.543,55.281,31.029,55.281z M35.854,49.076
		c-0.034,0.251,0.122,0.19,0.237,0.192c0.163,0.004,0.098-0.124,0.098-0.193c0.006-0.868,0-1.734,0.007-2.601
		c0.002-0.137-0.034-0.181-0.174-0.175c-0.131,0.005-0.204,0.014-0.196,0.177c0.017,0.286,0.006,0.574,0.006,0.895
		c-0.063-0.038-0.086-0.052-0.109-0.066c-0.457-0.301-0.993-0.137-1.199,0.37c-0.117,0.292-0.127,0.596-0.06,0.901
		C34.613,49.287,35.229,49.527,35.854,49.076z M42.389,47.354c-0.597-0.328-1.084-0.21-1.297,0.302
		c-0.158,0.383-0.156,0.776,0.002,1.157c0.205,0.488,0.737,0.651,1.169,0.373c0.041-0.028,0.064-0.086,0.144-0.074
		c-0.026,0.215,0.129,0.155,0.244,0.157c0.161,0.003,0.098-0.124,0.099-0.194c0.003-0.868-0.001-1.734,0.005-2.601
		c0-0.138-0.034-0.18-0.176-0.174c-0.129,0.004-0.202,0.016-0.194,0.179C42.4,46.761,42.389,47.045,42.389,47.354z M24.273,49.293
		c0.178-0.067,0.393,0.086,0.425-0.139c0.083-0.586,0.447-0.685,0.943-0.604c0.007,0.001,0.015,0,0.022,0
		c0.437,0,0.437,0,0.595,0.417c0.124,0.326,0.124,0.326,0.488,0.285c-0.337-0.888-0.675-1.771-1.005-2.657
		c-0.042-0.111-0.092-0.16-0.223-0.162c-0.142-0.003-0.189,0.056-0.232,0.176c-0.179,0.49-0.371,0.976-0.555,1.465
		C24.583,48.462,24.438,48.852,24.273,49.293z M44.621,47.379c0-0.305-0.005-0.595,0.001-0.884c0.004-0.127-0.005-0.2-0.172-0.198
		c-0.157,0.003-0.195,0.045-0.191,0.2c0.006,0.859,0.011,1.72-0.004,2.579c-0.002,0.186,0.068,0.188,0.217,0.2
		c0.162,0.012,0.098-0.138,0.158-0.188c0.572,0.455,1.233,0.195,1.366-0.487c0.06-0.305,0.056-0.612-0.051-0.906
		c-0.16-0.449-0.579-0.649-1.026-0.487C44.82,47.246,44.732,47.314,44.621,47.379z M33.413,48.369c0.099,0,0.196,0,0.293,0
		c0.477,0,0.477,0,0.399-0.476c-0.066-0.388-0.289-0.637-0.644-0.717c-0.351-0.078-0.715,0.061-0.912,0.378
		c-0.252,0.402-0.276,0.839-0.076,1.265c0.267,0.562,1.101,0.671,1.526,0.227c0.107-0.11,0.073-0.16-0.028-0.24
		c-0.104-0.08-0.144,0.007-0.206,0.052c-0.413,0.297-0.961,0.109-1.04-0.354c-0.016-0.091-0.007-0.139,0.106-0.135
		C33.024,48.376,33.22,48.369,33.413,48.369z M39.973,48.369c0.098,0,0.194,0,0.29,0c0.479,0,0.479,0,0.399-0.476
		c-0.063-0.388-0.288-0.636-0.643-0.716c-0.351-0.079-0.713,0.06-0.911,0.377c-0.253,0.402-0.276,0.839-0.077,1.264
		c0.265,0.563,1.102,0.672,1.527,0.228c0.107-0.109,0.075-0.16-0.029-0.24c-0.103-0.08-0.143,0.007-0.204,0.05
		c-0.414,0.298-0.96,0.112-1.04-0.353c-0.018-0.089-0.009-0.139,0.104-0.135C39.583,48.376,39.777,48.369,39.973,48.369z
		 M47.147,48.735c-0.155-0.467-0.287-0.868-0.42-1.271c-0.112-0.344-0.112-0.344-0.482-0.283c0.229,0.641,0.457,1.279,0.684,1.919
		c0.102,0.289-0.109,0.675-0.397,0.701c-0.126,0.011-0.188,0.022-0.18,0.171c0.01,0.167,0.118,0.147,0.218,0.148
		c0.268,0.001,0.479-0.176,0.603-0.518c0.142-0.393,0.274-0.79,0.41-1.185c0.143-0.414,0.283-0.828,0.428-1.247
		c-0.374-0.032-0.374-0.032-0.468,0.281C47.416,47.859,47.292,48.267,47.147,48.735z M26.965,48.233
		c-0.007,0.22,0.027,0.434,0.135,0.628c0.175,0.32,0.458,0.461,0.813,0.451c0.331-0.009,0.591-0.158,0.745-0.454
		c0.034-0.065,0.126-0.185,0.012-0.224c-0.092-0.033-0.239-0.087-0.318,0.093c-0.093,0.209-0.312,0.3-0.542,0.27
		c-0.311-0.04-0.482-0.294-0.487-0.723c-0.005-0.481,0.158-0.753,0.479-0.799c0.258-0.038,0.468,0.074,0.559,0.337
		c0.063,0.181,0.197,0.111,0.294,0.102c0.13-0.015,0.055-0.127,0.038-0.19c-0.086-0.323-0.375-0.544-0.728-0.566
		C27.354,47.119,26.965,47.538,26.965,48.233z M29.033,48.23c-0.009,0.212,0.024,0.416,0.122,0.607
		c0.167,0.325,0.443,0.475,0.801,0.475c0.34-0.001,0.604-0.149,0.766-0.451c0.035-0.065,0.127-0.187,0.018-0.226
		c-0.091-0.033-0.242-0.093-0.319,0.089c-0.094,0.221-0.292,0.289-0.519,0.272c-0.232-0.019-0.384-0.147-0.462-0.365
		c-0.06-0.174-0.058-0.354-0.046-0.533c0.021-0.336,0.172-0.551,0.43-0.611c0.276-0.066,0.439,0.028,0.62,0.363
		c0.073,0.139,0.201,0.07,0.297,0.062c0.092-0.008,0.04-0.111,0.026-0.165c-0.073-0.283-0.258-0.468-0.536-0.551
		C29.561,46.997,29.033,47.456,29.033,48.23z M30.261,52.369c0.232,0,0.465,0.004,0.695-0.003c0.235-0.005,0.39-0.159,0.39-0.372
		c0.001-0.219-0.148-0.384-0.379-0.387c-0.47-0.008-0.941-0.008-1.411,0c-0.253,0.003-0.396,0.155-0.396,0.388
		c0,0.226,0.15,0.367,0.406,0.373C29.799,52.372,30.03,52.369,30.261,52.369z M37.833,48.215c0.001,0,0.003,0,0.003,0
		c0,0.217-0.012,0.434,0.002,0.65c0.024,0.349,0.33,0.536,0.658,0.431c0.132-0.041,0.089-0.133,0.098-0.215
		c0.009-0.113-0.07-0.087-0.136-0.082c-0.192,0.014-0.271-0.085-0.27-0.27c0.001-0.359,0.008-0.719-0.003-1.075
		c-0.003-0.148,0.04-0.2,0.185-0.184c0.108,0.012,0.215,0.034,0.215-0.156c0-0.191-0.108-0.167-0.215-0.154
		c-0.148,0.017-0.202-0.038-0.183-0.185c0.009-0.06-0.003-0.121,0.002-0.18c0.008-0.09-0.017-0.13-0.12-0.137
		c-0.17-0.013-0.262,0.013-0.242,0.22c0.011,0.109,0.099,0.31-0.167,0.281c-0.106-0.013-0.219-0.041-0.22,0.15
		c-0.002,0.205,0.122,0.169,0.23,0.159c0.128-0.009,0.172,0.031,0.165,0.161C37.826,47.824,37.833,48.02,37.833,48.215z
		 M31.492,47.416c0.04-0.236-0.055-0.264-0.218-0.263c-0.21,0.001-0.127,0.146-0.128,0.233c-0.007,0.575,0.005,1.149-0.007,1.725
		c-0.003,0.157,0.066,0.16,0.184,0.16c0.122,0.002,0.188-0.005,0.184-0.161c-0.013-0.381-0.004-0.762-0.004-1.144
		c0-0.338,0.139-0.487,0.483-0.489c0.149-0.002,0.17-0.054,0.17-0.181c-0.001-0.153-0.098-0.143-0.195-0.14
		C31.789,47.164,31.651,47.248,31.492,47.416z M37.15,48.223c0-0.309-0.007-0.615,0.003-0.922c0.006-0.151-0.076-0.147-0.18-0.146
		c-0.102,0.002-0.185-0.016-0.182,0.142c0.007,0.604,0.007,1.212,0,1.817c-0.002,0.132,0.041,0.166,0.166,0.157
		c0.105-0.007,0.205,0.017,0.195-0.153C37.142,48.82,37.15,48.521,37.15,48.223z M36.978,46.8c0.138-0.008,0.211-0.082,0.203-0.215
		c-0.007-0.136-0.095-0.198-0.226-0.19c-0.124,0.007-0.19,0.086-0.19,0.202C36.765,46.73,36.845,46.797,36.978,46.8z M32.16,52.715
		c0.005-0.014,0.012-0.026,0.012-0.037c-0.002-0.01-0.016-0.017-0.022-0.024c-0.004,0.012-0.014,0.025-0.014,0.037
		C32.138,52.699,32.151,52.706,32.16,52.715z"/>
	<path fill-rule="evenodd" clip-rule="evenodd" fill="#F9FAFB" d="M29.753,38.57c-0.152,0.316-0.307,0.631-0.456,0.951
		c-0.048,0.098-0.102,0.147-0.22,0.146c-0.121-0.001-0.188-0.036-0.239-0.149c-0.139-0.297-0.29-0.587-0.484-0.874
		c0,0.345-0.017,0.69,0.007,1.032c0.014,0.23-0.057,0.296-0.285,0.282c-0.343-0.02-0.346-0.005-0.346-0.345c0-0.6,0-1.198,0-1.797
		c0-0.187,0.005-0.374-0.001-0.561c-0.004-0.104,0.029-0.141,0.139-0.147c0.394-0.024,0.394-0.029,0.572,0.332
		c0.205,0.412,0.409,0.824,0.64,1.285c0.195-0.404,0.37-0.763,0.542-1.123c0.06-0.121,0.121-0.241,0.176-0.364
		c0.035-0.083,0.084-0.125,0.182-0.131c0.432-0.025,0.431-0.029,0.432,0.402c0.001,0.749,0.002,1.497,0.013,2.245
		c0.003,0.157-0.046,0.203-0.202,0.202c-0.417-0.003-0.418,0.004-0.424-0.408c-0.004-0.325-0.002-0.651-0.002-0.977
		C29.781,38.572,29.768,38.571,29.753,38.57z"/>
	<path fill-rule="evenodd" clip-rule="evenodd" fill="#F9FAFB" d="M42.38,38.527c0-0.403,0.006-0.807-0.003-1.21
		c-0.003-0.152,0.036-0.216,0.199-0.209c0.333,0.014,0.674-0.003,1.008,0.021c0.411,0.028,0.705,0.242,0.823,0.646
		c0.125,0.425,0.1,0.838-0.238,1.164c-0.12,0.115-0.123,0.187-0.042,0.312c0.108,0.169,0.196,0.352,0.298,0.526
		c0.071,0.117,0.085,0.164-0.091,0.185c-0.378,0.045-0.638-0.052-0.772-0.441c-0.052-0.146-0.101-0.36-0.359-0.324
		c-0.108,0.015-0.162,0.029-0.156,0.151c0.011,0.157-0.002,0.314,0.005,0.472c0.006,0.114-0.049,0.14-0.148,0.137
		c-0.119-0.005-0.241-0.007-0.358,0c-0.129,0.007-0.167-0.046-0.164-0.171C42.384,39.366,42.38,38.947,42.38,38.527z M43.048,38.156
		c0,0.422,0,0.422,0.34,0.414c0.268-0.006,0.427-0.165,0.415-0.418c-0.011-0.294-0.152-0.381-0.553-0.393
		c-0.347-0.009-0.147,0.244-0.2,0.375C43.046,38.141,43.048,38.149,43.048,38.156z"/>
	<path fill-rule="evenodd" clip-rule="evenodd" fill="#F9FAFB" d="M39.672,38.535c0-0.418,0.004-0.837-0.003-1.256
		c0-0.124,0.036-0.171,0.164-0.169c0.494,0.005,0.988,0.005,1.48,0c0.127-0.002,0.164,0.039,0.167,0.166
		c0.009,0.478,0.015,0.478-0.458,0.478c-0.15,0-0.299-0.001-0.449,0c-0.239,0-0.337,0.152-0.254,0.386
		c0.032,0.092,0.104,0.07,0.166,0.071c0.232,0.003,0.464,0.007,0.695-0.001c0.127-0.005,0.162,0.04,0.164,0.165
		c0.008,0.437,0.012,0.437-0.431,0.437c-0.134,0-0.269,0.013-0.401-0.003c-0.219-0.026-0.202,0.11-0.197,0.25
		c0.004,0.13-0.04,0.274,0.188,0.26c0.274-0.018,0.554,0.002,0.829-0.007c0.14-0.004,0.195,0.029,0.192,0.185
		c-0.001,0.459,0.006,0.459-0.453,0.459c-0.404,0-0.81-0.005-1.211,0.002c-0.143,0.003-0.194-0.036-0.191-0.188
		C39.68,39.357,39.672,38.945,39.672,38.535z"/>
	<path fill-rule="evenodd" clip-rule="evenodd" fill="#FAFBFB" d="M33.379,39.954c-0.236,0.072-0.364-0.058-0.4-0.318
		c-0.028-0.195-0.139-0.284-0.341-0.244c-0.05,0.01-0.104,0.001-0.156,0.002c-0.166,0.002-0.349-0.04-0.488,0.018
		c-0.155,0.064-0.134,0.281-0.193,0.43c-0.034,0.083-0.078,0.109-0.165,0.114c-0.568,0.037-0.566,0.04-0.372-0.504
		c0.255-0.708,0.517-1.417,0.761-2.13c0.055-0.163,0.133-0.219,0.304-0.214c0.424,0.01,0.424,0.002,0.566,0.404
		c0.253,0.702,0.507,1.405,0.759,2.107C33.773,39.953,33.773,39.954,33.379,39.954z M32.138,38.802c0.163,0,0.29-0.005,0.417,0.001
		c0.118,0.007,0.141-0.039,0.106-0.144c-0.077-0.225-0.15-0.451-0.242-0.725C32.317,38.244,32.232,38.51,32.138,38.802z"/>
	<path fill-rule="evenodd" clip-rule="evenodd" fill="#FAFBFB" d="M36.027,37.904c-0.185-0.096-0.358-0.178-0.555-0.208
		c-0.1-0.015-0.195,0.003-0.286,0.03c-0.095,0.027-0.15,0.102-0.162,0.195c-0.015,0.104,0.058,0.168,0.146,0.2
		c0.147,0.053,0.298,0.097,0.448,0.142c0.543,0.166,0.735,0.424,0.694,0.938c-0.032,0.437-0.355,0.744-0.854,0.8
		c-0.343,0.036-0.666-0.037-0.974-0.195c-0.134-0.07-0.176-0.15-0.102-0.284c0.005-0.006,0.005-0.014,0.007-0.021
		c0.051-0.124,0.068-0.299,0.16-0.356c0.083-0.053,0.21,0.102,0.33,0.141c0.186,0.062,0.369,0.119,0.57,0.073
		c0.107-0.026,0.203-0.068,0.218-0.191c0.012-0.125-0.077-0.189-0.182-0.226c-0.176-0.061-0.355-0.109-0.531-0.17
		c-0.436-0.154-0.598-0.389-0.585-0.839c0.013-0.407,0.248-0.718,0.636-0.825c0.369-0.102,0.725-0.049,1.07,0.107
		c0.108,0.049,0.169,0.105,0.108,0.239C36.12,37.595,36.081,37.747,36.027,37.904z"/>
	<path fill-rule="evenodd" clip-rule="evenodd" fill="#F7F8F9" d="M37.604,38.845c0-0.307-0.005-0.613,0.004-0.92
		c0.003-0.129-0.044-0.178-0.168-0.163c-0.04,0.005-0.076,0.004-0.111,0.001c-0.141-0.014-0.337,0.069-0.405-0.038
		c-0.091-0.143-0.024-0.348-0.03-0.525c0-0.087,0.064-0.087,0.125-0.087c0.607-0.001,1.212-0.001,1.817,0
		c0.015,0,0.034-0.005,0.044,0.002c0.172,0.155,0.044,0.356,0.08,0.534c0.02,0.107-0.06,0.119-0.143,0.114
		c-0.015-0.001-0.029,0-0.045,0c-0.502,0.009-0.502,0.009-0.502,0.522c0,0.493-0.005,0.987,0.004,1.479
		c0.002,0.147-0.048,0.191-0.194,0.192c-0.476,0.005-0.476,0.011-0.476-0.463C37.604,39.278,37.604,39.062,37.604,38.845z"/>
	<path fill-rule="evenodd" clip-rule="evenodd" fill="#FAFBFB" d="M27.273,26.554c0.002-0.368,0.229-0.631,0.547-0.636
		c0.318-0.005,0.564,0.28,0.56,0.65c-0.004,0.364-0.239,0.635-0.552,0.636C27.502,27.206,27.271,26.935,27.273,26.554z"/>
	<path fill-rule="evenodd" clip-rule="evenodd" fill="#F1F3F5" d="M25,25.337c0.138,0.415,0.252,0.769,0.377,1.12
		c0.045,0.13,0.021,0.173-0.12,0.167c-0.186-0.01-0.373-0.004-0.56-0.002c-0.08,0.001-0.132-0.009-0.097-0.112
		C24.729,26.14,24.853,25.767,25,25.337z"/>
	<path fill-rule="evenodd" clip-rule="evenodd" fill="#F9FAFB" d="M33.518,26.397c-0.347,0-0.68,0-1.012,0
		c0.039-0.317,0.216-0.511,0.479-0.525C33.242,25.857,33.43,26.036,33.518,26.397z"/>
	<path fill-rule="evenodd" clip-rule="evenodd" fill="#FDFDFE" d="M40.584,52.875c0,0.644,0,1.216,0,1.788
		c0,0.091,0.004,0.181-0.001,0.269c-0.016,0.235-0.165,0.38-0.388,0.376c-0.219-0.001-0.376-0.15-0.379-0.386
		c-0.008-0.419-0.003-0.838-0.003-1.257c0-0.532,0.004-1.063-0.001-1.594c-0.002-0.217,0.024-0.408,0.263-0.491
		c0.228-0.08,0.46-0.014,0.619,0.192c0.473,0.616,0.942,1.236,1.411,1.856c0.059,0.073,0.116,0.146,0.217,0.205
		c0-0.498,0-0.994,0-1.493c0-0.135-0.005-0.269,0.001-0.403c0.01-0.24,0.154-0.383,0.376-0.385c0.227-0.003,0.391,0.155,0.392,0.395
		c0.004,0.62,0.003,1.242,0.003,1.864c0,0.335-0.011,0.674,0.003,1.01c0.008,0.217-0.071,0.378-0.26,0.449
		c-0.201,0.078-0.397,0.024-0.539-0.159c-0.333-0.433-0.666-0.865-0.997-1.299C41.075,53.519,40.852,53.225,40.584,52.875z"/>
	<path fill-rule="evenodd" clip-rule="evenodd" fill="#FAFBFB" d="M32.126,52.607c-0.288-0.492,0.007-1.417,0.889-1.501
		c0.4-0.04,0.727,0.108,0.985,0.424c0.624,0.766,1.261,1.521,1.884,2.286c0.237,0.293,0.23,0.43-0.003,0.711
		c-0.635,0.768-1.272,1.53-1.905,2.3c-0.128,0.153-0.271,0.266-0.479,0.203c-0.146-0.041-0.238-0.149-0.269-0.303
		c-0.033-0.165,0.059-0.284,0.157-0.401c0.54-0.639,1.074-1.285,1.625-1.915c0.155-0.177,0.16-0.293,0.004-0.474
		c-0.525-0.604-1.03-1.224-1.545-1.836c-0.289-0.347-0.543-0.436-0.877-0.313C32.283,51.902,32.141,52.147,32.126,52.607z"/>
	<path fill-rule="evenodd" clip-rule="evenodd" fill="#FAFBFB" d="M37.574,51.538c0.147,0.015,0.273,0.066,0.33,0.204
		c0.064,0.147,0.043,0.292-0.063,0.42c-0.302,0.369-0.6,0.745-0.913,1.105c-0.119,0.132-0.124,0.213-0.004,0.347
		c0.289,0.322,0.562,0.66,0.834,0.997c0.233,0.285,0.135,0.622-0.196,0.702c-0.164,0.04-0.295-0.02-0.397-0.143
		c-0.39-0.465-0.776-0.929-1.16-1.397c-0.151-0.185-0.157-0.365-0.007-0.551c0.411-0.512,0.833-1.019,1.25-1.525
		C37.331,51.593,37.448,51.546,37.574,51.538z"/>
	<path fill-rule="evenodd" clip-rule="evenodd" fill="#F1F3F5" d="M31.277,53.063c0.561,0,1.122-0.003,1.682,0
		c0.28,0.002,0.429,0.109,0.456,0.328c0.028,0.19-0.078,0.361-0.264,0.412c-0.064,0.018-0.133,0.028-0.199,0.028
		c-1.106,0-2.213,0-3.318,0c-0.209,0-0.394-0.055-0.459-0.281c-0.077-0.271,0.104-0.484,0.42-0.487
		C30.154,53.059,30.717,53.063,31.277,53.063z"/>
	<path fill-rule="evenodd" clip-rule="evenodd" fill="#F7F8F9" d="M39.211,53.445c0,0.479,0.001,0.957-0.003,1.435
		c-0.001,0.267-0.145,0.426-0.381,0.432c-0.24,0.004-0.404-0.163-0.406-0.434c-0.002-0.965-0.003-1.93,0.002-2.894
		c0-0.267,0.147-0.423,0.385-0.425c0.256-0.002,0.399,0.146,0.4,0.429C39.212,52.475,39.211,52.96,39.211,53.445z"/>
	<path fill-rule="evenodd" clip-rule="evenodd" fill="#FDFDFE" d="M31.029,55.281c-0.486,0-0.97,0.001-1.457-0.001
		c-0.262-0.001-0.406-0.13-0.412-0.361c-0.005-0.233,0.13-0.392,0.387-0.394c1.017-0.007,2.031-0.005,3.047,0.003
		c0.222,0.002,0.351,0.161,0.348,0.384c-0.004,0.213-0.146,0.363-0.366,0.367C32.059,55.284,31.545,55.281,31.029,55.281z"/>
	<path fill-rule="evenodd" clip-rule="evenodd" fill="#F7F8F9" d="M35.854,49.076c-0.625,0.451-1.24,0.211-1.391-0.5
		c-0.067-0.306-0.058-0.609,0.06-0.901c0.206-0.507,0.742-0.671,1.199-0.37c0.023,0.015,0.047,0.028,0.109,0.066
		c0-0.32,0.011-0.608-0.006-0.895c-0.008-0.163,0.065-0.172,0.196-0.177c0.14-0.006,0.176,0.038,0.174,0.175
		c-0.007,0.866-0.001,1.732-0.007,2.601c0,0.069,0.065,0.197-0.098,0.193C35.976,49.267,35.819,49.327,35.854,49.076z M35.831,48.23
		c0-0.091,0-0.18,0-0.271c-0.002-0.262-0.096-0.397-0.323-0.467c-0.23-0.07-0.48,0-0.591,0.202c-0.187,0.35-0.199,0.717-0.006,1.07
		c0.111,0.205,0.348,0.28,0.584,0.213c0.234-0.064,0.336-0.206,0.336-0.479C35.831,48.409,35.831,48.318,35.831,48.23z"/>
	<path fill-rule="evenodd" clip-rule="evenodd" fill="#F7F8F9" d="M42.389,47.354c0-0.309,0.012-0.593-0.005-0.875
		c-0.008-0.163,0.065-0.175,0.194-0.179c0.142-0.006,0.176,0.036,0.176,0.174c-0.006,0.866-0.002,1.732-0.005,2.601
		c-0.001,0.07,0.063,0.197-0.099,0.194c-0.115-0.002-0.271,0.058-0.244-0.157c-0.079-0.012-0.103,0.046-0.144,0.074
		c-0.432,0.278-0.964,0.115-1.169-0.373c-0.158-0.381-0.16-0.774-0.002-1.157C41.305,47.144,41.792,47.025,42.389,47.354z
		 M42.389,48.242c0-0.098,0-0.192,0-0.291c0-0.256-0.1-0.394-0.332-0.459c-0.235-0.067-0.478,0.005-0.585,0.212
		c-0.184,0.352-0.195,0.719,0.003,1.07c0.113,0.201,0.355,0.272,0.588,0.204c0.226-0.066,0.326-0.21,0.326-0.468
		C42.389,48.423,42.389,48.332,42.389,48.242z"/>
	<path fill-rule="evenodd" clip-rule="evenodd" fill="#F7F8F9" d="M24.273,49.293c0.166-0.441,0.31-0.831,0.458-1.22
		c0.185-0.489,0.376-0.975,0.555-1.465c0.043-0.12,0.09-0.179,0.232-0.176c0.13,0.002,0.18,0.051,0.223,0.162
		c0.33,0.887,0.668,1.77,1.005,2.657c-0.364,0.041-0.364,0.041-0.488-0.285C26.1,48.55,26.1,48.55,25.663,48.55
		c-0.008,0-0.016,0.001-0.022,0c-0.496-0.08-0.86,0.019-0.943,0.604C24.666,49.379,24.451,49.226,24.273,49.293z M25.992,48.23
		c-0.16-0.445-0.312-0.864-0.478-1.326c-0.168,0.473-0.318,0.892-0.472,1.326C25.361,48.23,25.659,48.23,25.992,48.23z"/>
	<path fill-rule="evenodd" clip-rule="evenodd" fill="#FAFBFB" d="M44.621,47.379c0.111-0.064,0.199-0.133,0.298-0.171
		c0.447-0.162,0.866,0.038,1.026,0.487c0.106,0.294,0.11,0.602,0.051,0.906c-0.133,0.683-0.794,0.942-1.366,0.487
		c-0.061,0.05,0.004,0.199-0.158,0.188c-0.148-0.012-0.219-0.015-0.217-0.2c0.015-0.859,0.01-1.72,0.004-2.579
		c-0.004-0.155,0.034-0.197,0.191-0.2c0.167-0.002,0.176,0.071,0.172,0.198C44.616,46.784,44.621,47.074,44.621,47.379z
		 M44.621,48.233c0,0.082,0,0.163,0,0.245c0,0.295,0.142,0.474,0.413,0.518c0.266,0.041,0.489-0.087,0.576-0.351
		c0.088-0.27,0.089-0.546,0.002-0.814c-0.088-0.272-0.322-0.403-0.597-0.353c-0.259,0.047-0.395,0.222-0.395,0.506
		C44.621,48.067,44.621,48.149,44.621,48.233z"/>
	<path fill-rule="evenodd" clip-rule="evenodd" fill="#F9FAFB" d="M33.413,48.369c-0.193,0-0.389,0.007-0.581-0.001
		c-0.113-0.004-0.122,0.044-0.106,0.135c0.079,0.464,0.627,0.651,1.04,0.354c0.063-0.045,0.103-0.132,0.206-0.052
		c0.102,0.08,0.136,0.13,0.028,0.24c-0.426,0.444-1.26,0.335-1.526-0.227c-0.2-0.426-0.176-0.862,0.076-1.265
		c0.197-0.317,0.562-0.456,0.912-0.378c0.354,0.08,0.577,0.329,0.644,0.717c0.077,0.476,0.077,0.476-0.399,0.476
		C33.609,48.369,33.512,48.369,33.413,48.369z M32.733,48.056c0.311,0,0.613-0.004,0.918,0.002c0.105,0.002,0.127-0.038,0.107-0.132
		c-0.034-0.193-0.114-0.354-0.314-0.423c-0.191-0.07-0.366-0.032-0.515,0.103C32.803,47.722,32.751,47.874,32.733,48.056z"/>
	<path fill-rule="evenodd" clip-rule="evenodd" fill="#F9FAFB" d="M39.973,48.369c-0.195,0-0.39,0.007-0.584-0.001
		c-0.112-0.004-0.121,0.046-0.104,0.135c0.08,0.465,0.626,0.65,1.04,0.353c0.062-0.043,0.102-0.13,0.204-0.05
		c0.104,0.08,0.137,0.131,0.029,0.24c-0.426,0.444-1.263,0.335-1.527-0.228c-0.199-0.425-0.176-0.861,0.077-1.264
		c0.198-0.317,0.561-0.456,0.911-0.377c0.354,0.08,0.579,0.328,0.643,0.716c0.08,0.476,0.08,0.476-0.399,0.476
		C40.167,48.369,40.07,48.369,39.973,48.369z M39.295,48.056c0.307,0,0.613-0.004,0.915,0.002c0.106,0.002,0.125-0.04,0.106-0.133
		c-0.034-0.193-0.113-0.353-0.314-0.422c-0.189-0.07-0.364-0.032-0.515,0.103C39.359,47.722,39.309,47.874,39.295,48.056z"/>
	<path fill-rule="evenodd" clip-rule="evenodd" fill="#F7F8F9" d="M47.147,48.735c0.145-0.469,0.269-0.876,0.395-1.282
		c0.094-0.313,0.094-0.313,0.468-0.281c-0.145,0.419-0.285,0.833-0.428,1.247c-0.136,0.395-0.269,0.792-0.41,1.185
		c-0.123,0.342-0.335,0.519-0.603,0.518c-0.1-0.001-0.208,0.019-0.218-0.148c-0.008-0.148,0.054-0.16,0.18-0.171
		c0.288-0.026,0.499-0.412,0.397-0.701c-0.227-0.64-0.455-1.278-0.684-1.919c0.37-0.061,0.37-0.061,0.482,0.283
		C46.86,47.867,46.992,48.269,47.147,48.735z"/>
	<path fill-rule="evenodd" clip-rule="evenodd" fill="#F7F8F9" d="M26.965,48.233c0-0.695,0.388-1.114,1-1.076
		c0.353,0.022,0.642,0.243,0.728,0.566c0.017,0.063,0.092,0.176-0.038,0.19c-0.097,0.01-0.231,0.079-0.294-0.102
		c-0.091-0.263-0.301-0.375-0.559-0.337c-0.322,0.046-0.485,0.317-0.479,0.799c0.005,0.429,0.176,0.683,0.487,0.723
		c0.23,0.03,0.449-0.061,0.542-0.27c0.079-0.18,0.227-0.126,0.318-0.093c0.114,0.039,0.022,0.158-0.012,0.224
		c-0.154,0.296-0.414,0.445-0.745,0.454c-0.355,0.01-0.638-0.131-0.813-0.451C26.992,48.667,26.958,48.453,26.965,48.233z"/>
	<path fill-rule="evenodd" clip-rule="evenodd" fill="#F7F8F9" d="M29.033,48.23c0-0.774,0.527-1.233,1.197-1.034
		c0.278,0.083,0.463,0.268,0.536,0.551c0.014,0.054,0.065,0.157-0.026,0.165c-0.096,0.009-0.224,0.077-0.297-0.062
		c-0.181-0.335-0.344-0.43-0.62-0.363c-0.258,0.061-0.409,0.275-0.43,0.611c-0.012,0.18-0.014,0.359,0.046,0.533
		c0.078,0.218,0.229,0.347,0.462,0.365c0.227,0.017,0.425-0.052,0.519-0.272c0.077-0.182,0.229-0.122,0.319-0.089
		c0.109,0.039,0.018,0.16-0.018,0.226c-0.161,0.302-0.426,0.45-0.766,0.451c-0.357,0-0.634-0.149-0.801-0.475
		C29.058,48.646,29.024,48.442,29.033,48.23z"/>
	<path fill-rule="evenodd" clip-rule="evenodd" fill="#FAFBFB" d="M30.261,52.369c-0.23,0-0.462,0.003-0.694-0.001
		c-0.256-0.006-0.406-0.147-0.406-0.373c-0.001-0.232,0.143-0.385,0.396-0.388c0.47-0.008,0.941-0.008,1.411,0
		c0.23,0.003,0.38,0.168,0.379,0.387c0,0.213-0.154,0.367-0.39,0.372C30.726,52.373,30.493,52.369,30.261,52.369z"/>
	<path fill-rule="evenodd" clip-rule="evenodd" fill="#F7F8F9" d="M37.833,48.215c0-0.195-0.007-0.391,0.003-0.584
		c0.007-0.13-0.037-0.17-0.165-0.161c-0.108,0.01-0.232,0.046-0.23-0.159c0.001-0.191,0.113-0.163,0.22-0.15
		c0.266,0.028,0.178-0.172,0.167-0.281c-0.02-0.207,0.072-0.232,0.242-0.22c0.104,0.007,0.128,0.047,0.12,0.137
		c-0.005,0.059,0.007,0.12-0.002,0.18c-0.02,0.146,0.034,0.201,0.183,0.185c0.106-0.013,0.215-0.037,0.215,0.154
		c0,0.19-0.106,0.168-0.215,0.156c-0.145-0.017-0.188,0.035-0.185,0.184c0.011,0.356,0.004,0.716,0.003,1.075
		c-0.001,0.185,0.077,0.283,0.27,0.27c0.065-0.005,0.145-0.031,0.136,0.082c-0.009,0.082,0.034,0.174-0.098,0.215
		c-0.328,0.105-0.634-0.082-0.658-0.431c-0.014-0.217-0.002-0.434-0.002-0.65C37.836,48.215,37.834,48.215,37.833,48.215z"/>
	<path fill-rule="evenodd" clip-rule="evenodd" fill="#FDFDFE" d="M31.492,47.416c0.159-0.168,0.297-0.252,0.469-0.259
		c0.098-0.003,0.194-0.014,0.195,0.14c0,0.127-0.021,0.179-0.17,0.181c-0.345,0.002-0.483,0.151-0.483,0.489
		c0,0.382-0.009,0.763,0.004,1.144c0.005,0.156-0.062,0.163-0.184,0.161c-0.117,0-0.187-0.003-0.184-0.16
		c0.012-0.575,0-1.149,0.007-1.725c0.001-0.087-0.082-0.232,0.128-0.233C31.438,47.152,31.532,47.18,31.492,47.416z"/>
	<path fill-rule="evenodd" clip-rule="evenodd" fill="#F1F3F5" d="M37.15,48.223c0,0.298-0.009,0.598,0.003,0.896
		c0.01,0.17-0.09,0.146-0.195,0.153c-0.125,0.009-0.168-0.025-0.166-0.157c0.007-0.605,0.007-1.213,0-1.817
		c-0.003-0.157,0.08-0.14,0.182-0.142c0.104-0.002,0.186-0.006,0.18,0.146C37.144,47.607,37.15,47.914,37.15,48.223z"/>
	<path fill-rule="evenodd" clip-rule="evenodd" fill="#F7F8F9" d="M36.978,46.8c-0.133-0.003-0.213-0.069-0.213-0.203
		c0-0.116,0.066-0.195,0.19-0.202c0.131-0.008,0.219,0.055,0.226,0.19C37.188,46.718,37.115,46.792,36.978,46.8z"/>
	<path fill-rule="evenodd" clip-rule="evenodd" fill="#FAFBFB" d="M32.16,52.715c-0.009-0.009-0.022-0.016-0.024-0.024
		c0-0.012,0.01-0.025,0.014-0.037c0.007,0.008,0.021,0.015,0.022,0.024C32.172,52.688,32.165,52.701,32.16,52.715z"/>
	<path fill-rule="evenodd" clip-rule="evenodd" fill="#597494" d="M43.048,38.156c0-0.007-0.002-0.016,0.002-0.022
		c0.053-0.131-0.146-0.384,0.2-0.375c0.4,0.012,0.542,0.098,0.553,0.393c0.012,0.253-0.147,0.412-0.415,0.418
		C43.048,38.579,43.048,38.579,43.048,38.156z"/>
	<path fill-rule="evenodd" clip-rule="evenodd" fill="#597494" d="M32.138,38.802c0.095-0.292,0.18-0.558,0.281-0.867
		c0.092,0.273,0.165,0.5,0.242,0.725c0.034,0.104,0.012,0.151-0.106,0.144C32.428,38.797,32.301,38.802,32.138,38.802z"/>
	<path fill-rule="evenodd" clip-rule="evenodd" fill="#052E5D" d="M35.831,48.23c0,0.088,0,0.179,0,0.269
		c0,0.273-0.102,0.415-0.336,0.479c-0.236,0.067-0.473-0.008-0.584-0.213c-0.193-0.354-0.181-0.721,0.006-1.07
		c0.11-0.202,0.36-0.272,0.591-0.202c0.228,0.069,0.321,0.205,0.323,0.467C35.831,48.051,35.831,48.14,35.831,48.23z"/>
	<path fill-rule="evenodd" clip-rule="evenodd" fill="#052E5D" d="M42.389,48.242c0,0.09,0,0.181,0,0.269
		c0,0.258-0.101,0.401-0.326,0.468c-0.232,0.068-0.475-0.003-0.588-0.204c-0.198-0.352-0.187-0.719-0.003-1.07
		c0.107-0.207,0.35-0.279,0.585-0.212c0.232,0.065,0.332,0.203,0.332,0.459C42.389,48.05,42.389,48.145,42.389,48.242z"/>
	<path fill-rule="evenodd" clip-rule="evenodd" fill="#062F5E" d="M25.992,48.23c-0.333,0-0.631,0-0.95,0
		c0.153-0.435,0.303-0.854,0.472-1.326C25.681,47.366,25.832,47.785,25.992,48.23z"/>
	<path fill-rule="evenodd" clip-rule="evenodd" fill="#052E5D" d="M44.621,48.233c0-0.084,0-0.166,0-0.249
		c0-0.284,0.136-0.459,0.395-0.506c0.274-0.051,0.509,0.08,0.597,0.353c0.087,0.269,0.086,0.545-0.002,0.814
		c-0.087,0.264-0.311,0.392-0.576,0.351c-0.271-0.044-0.413-0.223-0.413-0.518C44.621,48.396,44.621,48.315,44.621,48.233z"/>
	<path fill-rule="evenodd" clip-rule="evenodd" fill="#052E5D" d="M32.733,48.056c0.018-0.182,0.069-0.334,0.196-0.45
		c0.148-0.135,0.323-0.173,0.515-0.103c0.2,0.069,0.28,0.229,0.314,0.423c0.02,0.094-0.002,0.134-0.107,0.132
		C33.347,48.052,33.044,48.056,32.733,48.056z"/>
	<path fill-rule="evenodd" clip-rule="evenodd" fill="#052E5D" d="M39.295,48.056c0.014-0.182,0.064-0.334,0.192-0.45
		c0.15-0.135,0.325-0.173,0.515-0.103c0.201,0.069,0.28,0.229,0.314,0.422c0.019,0.093,0,0.135-0.106,0.133
		C39.908,48.052,39.602,48.056,39.295,48.056z"/>
</g>
</svg>
