<?xml version="1.0" encoding="utf-8"?>
<!-- Generator: Adobe Illustrator 16.0.0, SVG Export Plug-In . SVG Version: 6.00 Build 0)  -->
<!DOCTYPE svg PUBLIC "-//W3C//DTD SVG 1.1//EN" "http://www.w3.org/Graphics/SVG/1.1/DTD/svg11.dtd">
<svg version="1.1" id="Layer_1" xmlns="http://www.w3.org/2000/svg" xmlns:xlink="http://www.w3.org/1999/xlink" x="0px" y="0px"
	 width="380px" height="186px" viewBox="0 0 380 186" enable-background="new 0 0 380 186" xml:space="preserve">
<g>
	<path fill-rule="evenodd" clip-rule="evenodd" fill="#FECA02" d="M189.805,115.81c-5.029,0.397-9.57-1.817-13.382-5.476
		c-2.935-2.816-4.688-6.37-5.516-10.451c-1.213-5.976,0.666-11.048,3.817-15.958c4.142-6.451,8.105-13.017,12.17-19.518
		c3.299-5.278,6.643-10.53,9.954-15.8c4.055-6.456,8.064-12.94,12.155-19.374c2.735-4.302,6.56-7.261,11.528-8.523
		c8.179-2.077,15.067,0.263,20.544,6.563c2.284,2.626,3.513,5.824,4.116,9.316c0.978,5.659-0.698,10.513-3.698,15.219
		c-6.325,9.923-12.468,19.964-18.704,29.945c-4.427,7.083-8.847,14.171-13.344,21.211c-1.747,2.735-3.353,5.557-5.833,7.806
		C199.785,114.245,195.421,116.004,189.805,115.81z"/>
	<path fill-rule="evenodd" clip-rule="evenodd" fill="#FD3F57" d="M167.237,20.037c4.886,0.176,10.754,3.29,14.454,9.694
		c4.137,7.156,3.634,14.391-0.748,21.363c-5.65,8.991-11.317,17.97-16.967,26.962c-5.372,8.553-10.773,17.088-16.073,25.686
		c-2.228,3.615-4.577,7.019-8.279,9.345c-8.248,5.183-19.836,3.185-25.757-4.541c-5.462-7.126-5.759-15.886-0.976-23.43
		c6.218-9.811,12.313-19.699,18.479-29.542c5.525-8.82,11.059-17.635,16.621-26.431C151.644,23.367,157.816,20.041,167.237,20.037z"
		/>
	<path fill-rule="evenodd" clip-rule="evenodd" fill="#03D549" d="M250.928,115.922c-10.916-0.187-19.564-8.85-19.4-19.472
		c0.164-10.686,9.212-19.571,20.998-18.997c9.706,0.474,19.2,8.795,18.539,20.441C270.521,107.464,262.17,116.266,250.928,115.922z"
		/>
	<path fill-rule="evenodd" clip-rule="evenodd" fill="#323232" d="M120.663,156.268c-0.031-2.792-0.06-5.586-0.096-8.379
		c-0.007-0.526,0.007-1.06-0.075-1.576c-0.3-1.9-1.664-3.137-3.268-3.009c-1.705,0.136-2.862,1.407-2.897,3.358
		c-0.051,2.901-0.078,5.807,0.013,8.706c0.037,1.191-0.287,1.626-1.486,1.479c-1.292-0.16-2.967,0.546-3.799-0.273
		c-0.764-0.753-0.214-2.409-0.222-3.665c-0.026-4.434,0.016-8.866-0.034-13.299c-0.01-0.954,0.233-1.364,1.227-1.269
		c0.679,0.066,1.376,0.066,2.056,0.003c1.448-0.137,2.69-0.086,2.157,2.414c2.094-2.433,4.308-3.16,6.951-2.469
		c1.318,0.345,2.504,0.929,3.25,2.088c0.477,0.741,0.739,0.66,1.225,0.047c1.212-1.53,2.79-2.36,4.779-2.378
		c3.83-0.036,6.429,2.132,6.953,5.945c0.548,3.99,0.14,8.01,0.268,12.013c0.024,0.758-0.393,0.806-0.996,0.841
		c-4.456,0.26-4.455,0.271-4.456-4.17c0-1.795,0.004-3.59-0.011-5.384c-0.019-2.382-1.142-3.891-2.958-4.001
		c-1.72-0.104-2.832,1.046-3.261,3.364c-0.028,0.152-0.1,0.296-0.152,0.444c-0.139,0.141-0.398,0.28-0.4,0.422
		c-0.024,2.459-0.024,4.917,0.001,7.376c0.001,0.143,0.261,0.281,0.4,0.422c0.155,0.313,0.159,0.629,0.014,0.947
		C124.119,156.267,122.391,156.267,120.663,156.268z M125.567,142.252c-0.088-0.038-0.175-0.075-0.263-0.114
		c-0.038,0.088-0.124,0.194-0.099,0.259c0.024,0.063,0.161,0.081,0.249,0.119C125.492,142.428,125.53,142.34,125.567,142.252z
		 M123.492,140.534c-0.035,0.072-0.082,0.142-0.099,0.218c-0.005,0.023,0.083,0.101,0.106,0.092
		c0.071-0.026,0.132-0.081,0.197-0.125C123.628,140.657,123.561,140.595,123.492,140.534z"/>
	<path fill-rule="evenodd" clip-rule="evenodd" fill="#373737" d="M198.092,128.629c0.35,0.314,0.247,0.668,0.087,1.027
		c-0.544,0.11-0.578,0.516-0.577,0.964c0.002,8.162,0.002,16.323-0.004,24.485c0,0.421,0.004,0.77,0.58,0.556
		c0.098,0.379,0.393,0.798-0.212,1.031c-1.31-0.671-2.612-0.706-3.911,0.029c-0.624,0.106-1.432,0.485-1.142-0.768
		c0.364-0.037,0.636-0.205,0.518-0.6c-0.092-0.304-0.345-0.06-0.526-0.045c-0.283-0.249-0.466-0.01-0.667,0.136
		c-5.414,3.942-12.7,0.813-13.561-5.874c-0.364-2.827-0.027-5.546,1.732-7.968c2.853-3.926,7.875-4.713,11.768-1.767
		c0.298,0.226,0.507,0.374,0.731-0.038c0.568-0.087,0.58-0.508,0.58-0.948c-0.002-3.054-0.002-6.106,0.001-9.16
		c0-0.438,0.001-0.863-0.563-0.965c0.62-0.831,1.484-0.311,2.213-0.328c0.947-0.023,1.934-0.291,2.862,0.148
		c-0.062,0.063-0.182,0.176-0.176,0.182C197.993,128.925,197.991,128.64,198.092,128.629z M188.482,143.197
		c-2.434-0.017-4.292,1.813-4.337,4.272c-0.05,2.636,1.879,4.711,4.338,4.668c2.346-0.041,4.348-2.18,4.313-4.607
		C192.759,145.079,190.902,143.212,188.482,143.197z"/>
	<path fill-rule="evenodd" clip-rule="evenodd" fill="#323232" d="M206.521,138.458c0.201-0.046,0.402-0.092,0.604-0.138
		c0.284,0.28,0.473,0.15,0.621-0.146c0.951-0.165,1.9-0.217,2.843,0.05c0.49,0.436,1.078,0.555,1.711,0.535
		c0.623-0.074,0.926,1.009,1.681,0.467l0.061-0.024c-0.427,0.233-0.162,0.468,0.001,0.701c0.06,0.365,0.279,0.602,0.624,0.422
		c0.322-0.169,0.166-0.405-0.098-0.553c-0.002-0.149-0.003-0.298-0.005-0.448c0.047-0.264,0.094-0.528,0.141-0.792
		c1.449-0.364,2.922-0.065,4.381-0.159c0.732-0.047,0.856,0.356,0.854,0.978c-0.015,5.525-0.021,11.051-0.001,16.576
		c0.003,0.693-0.243,0.938-0.918,0.921c-1.156-0.031-2.317-0.063-3.472,0.007c-1.005,0.061-1.188-0.411-1.012-1.243
		c0.17-0.173,0.2-0.41-0.007-0.502c-0.431-0.19-0.641,0.123-0.798,0.468c-3.845,3.083-9.918,1.656-12.616-2.964
		c-2.988-5.114-0.792-11.71,4.606-13.843C206.074,138.882,206.35,138.802,206.521,138.458z M214.496,147.755
		c0.054-2.575-1.697-4.45-4.221-4.521c-2.646-0.073-4.725,1.752-4.771,4.191c-0.051,2.572,1.958,4.645,4.523,4.665
		C212.522,152.112,214.445,150.246,214.496,147.755z M215.536,141.303c-0.087-0.038-0.194-0.126-0.257-0.101
		s-0.082,0.161-0.12,0.249c0.087,0.038,0.194,0.126,0.256,0.101C215.479,141.527,215.498,141.391,215.536,141.303z M205.752,151.026
		c-0.038,0.087-0.075,0.175-0.114,0.263c0.088,0.037,0.194,0.123,0.258,0.099c0.063-0.024,0.082-0.161,0.12-0.249
		C205.928,151.101,205.84,151.063,205.752,151.026z M219.262,155.88c-0.074-0.049-0.139-0.105-0.214-0.134
		c-0.023-0.008-0.114,0.069-0.109,0.092c0.02,0.082,0.066,0.157,0.102,0.234C219.114,156.01,219.186,155.947,219.262,155.88z"/>
	<path fill-rule="evenodd" clip-rule="evenodd" fill="#383838" d="M230.748,148.409c1.138-2.936,2.305-5.861,3.398-8.814
		c0.341-0.92,0.795-1.363,1.837-1.269c1.099,0.101,2.216,0.046,3.322,0.008c0.831-0.027,1.167,0.079,0.763,1.054
		c-3.543,8.524-7.046,17.064-10.539,25.609c-0.298,0.729-0.674,1.084-1.518,1.027c-1.209-0.08-2.429-0.071-3.64-0.011
		c-0.945,0.048-0.935-0.305-0.64-1.022c1.224-2.977,2.38-5.981,3.63-8.946c0.317-0.753,0.289-1.35-0.029-2.082
		c-2.083-4.79-4.103-9.607-6.189-14.395c-0.418-0.958-0.336-1.234,0.794-1.248c4.446-0.058,4.446-0.095,6.073,4.078
		c0.781,2.001,1.561,4.003,2.341,6.003C230.483,148.404,230.616,148.407,230.748,148.409z"/>
	<path fill-rule="evenodd" clip-rule="evenodd" fill="#363636" d="M154.208,155.315l-0.029,0.079l-0.084,0.011
		c-0.448-0.085-0.773,0.024-0.837,0.537c-0.377,0.315-0.795,0.537-1.296,0.568c-1.438-0.309-2.852,0.22-4.299,0.143
		c-0.655-0.035-1.389-0.622-2.043,0.04l-0.156,0.015l-0.123-0.099c-0.333-0.445-0.597-1.064-1.32-0.521
		c-0.476-0.143-0.902-0.363-1.215-0.767c-0.212-1.51-1.293-2.247-2.531-2.846c-0.289-0.232-0.392-0.551-0.416-0.906
		c0.635-0.391,0.133-0.853,0.046-1.256c-0.698-3.246-0.415-6.265,1.988-8.799c0.386-0.406,0.655-0.818,0.597-1.394
		c0.075-0.074,0.15-0.149,0.227-0.223c1.123,0.502,1.529-0.332,1.988-1.068c0.061-0.11,0.148-0.142,0.265-0.093
		c1.329,0.604,2.679-0.118,4.021,0.062c0.324,0.043,0.577-0.186,0.698-0.51c0.067,0.021,0.133,0.006,0.198-0.038
		c0.557,0.868,1.227,1.24,2.152,0.497c0.116-0.042,0.206-0.01,0.271,0.098c0.559,0.997,1.443,1.471,2.552,1.582l-0.007-0.007
		c-0.082,0.896,0.327,1.329,1.228,1.295c0.376,0.287,0.607,0.665,0.712,1.123c0.365,2.841,1.053,5.675,0.155,8.54
		c-0.012,0.038,0.146,0.129,0.226,0.195c-0.047,0.348-0.124,0.681-0.436,0.9c-1.064,0.397-1.911,0.971-1.849,2.281l0.016-0.015
		C154.472,154.688,154.236,154.876,154.208,155.315z M152.688,147.592c-0.002-2.356-1.855-4.265-4.159-4.28
		c-2.297-0.016-4.18,1.886-4.203,4.243c-0.024,2.456,1.846,4.358,4.25,4.322C150.927,151.842,152.69,150.004,152.688,147.592z"/>
	<path fill-rule="evenodd" clip-rule="evenodd" fill="#373737" d="M165.004,139.175c0.017,0.281,0.034,0.562,0.05,0.842
		c-0.086,0.238-0.187,0.511,0.106,0.648c0.313,0.146,0.436-0.093,0.498-0.358c0.81-1.04,1.825-1.754,3.139-1.999
		c0.309,0.285,0.488,0.118,0.631-0.18c0.843-0.12,1.686-0.192,2.516,0.079c0.488,0.453,1.087,0.561,1.724,0.548
		c0.186,0.108,0.371,0.217,0.558,0.325c0.041,0.13,0.082,0.261,0.122,0.391c0.053-0.068,0.105-0.136,0.158-0.203
		c1.02,0.725,1.642,1.732,2.049,2.893c-0.176,0.347-0.14,0.641,0.211,0.857c0.06,0.307,0.119,0.614,0.178,0.921
		c-0.399,0.455-0.196,1-0.199,1.504c-0.019,3.498-0.017,6.996-0.021,10.494c-0.313,0.187-0.329,0.483-0.302,0.799
		c-0.23,0.134-0.458,0.135-0.685-0.006c-0.942-0.712-1.886-0.712-2.827,0.001c-0.205,0.024-0.41,0.05-0.616,0.075
		c-0.016-0.228-0.031-0.455-0.048-0.682c-0.099-0.583,0.34-1.292-0.407-1.721c-0.198-2.23-0.195-4.462,0-6.693
		c0.626-0.328,0.556-0.751,0.161-1.215c-0.466-0.731,0.07-2.004-1.232-2.283c-0.541-0.296-1.081-0.592-1.621-0.888
		c-0.58-0.484-1.144-0.547-1.678,0.07c-1.072,0.264-1.716,1.069-2.364,1.866c-0.235,0.199-0.136,0.416-0.029,0.633l-0.06-0.055
		c-0.797,0.063-0.667,0.668-0.665,1.171c0.005,3.244,0.022,6.489,0.034,9.734c-0.231,0.117-0.461,0.126-0.685-0.021
		c-1.054-0.971-2.375-0.141-3.517-0.522l0.029-0.086c0-5.649,0-11.3,0-16.949l-0.016-0.009
		C161.799,139.163,163.401,139.169,165.004,139.175z"/>
	<path fill-rule="evenodd" clip-rule="evenodd" fill="#3F3F3F" d="M260.584,153.127c0.001-1.108,0.021-2.216-0.003-3.323
		c-0.028-1.225,0.938-1.3,1.366-0.731c0.564,0.749,0.793,0.295,1.207,0.074c1.41-0.748,2.78-0.663,3.94,0.432
		c0.53,0.499,0.773,0.45,1.238-0.018c1.053-1.061,2.348-1.113,3.665-0.629s1.759,1.639,1.835,2.897
		c0.094,1.577,0.033,3.163,0.073,4.743c0.017,0.641-0.282,0.812-0.861,0.816c-0.59,0.005-0.87-0.192-0.857-0.821
		c0.026-1.371,0.009-2.742,0.015-4.113c0.005-1.237-0.583-2.092-1.813-2.18c-1.185-0.085-1.973,0.607-2.234,1.804
		c-0.286,1.304-0.061,2.63-0.152,3.94c-0.038,0.55,0.346,1.336-0.755,1.369c-1.229,0.036-0.815-0.845-0.838-1.435
		c-0.045-1.105-0.014-2.215-0.015-3.322c0-1.258-0.498-2.194-1.815-2.387c-1.145-0.166-2.296,0.92-2.391,2.263
		c-0.092,1.313-0.048,2.636-0.03,3.953c0.007,0.534-0.035,0.927-0.717,0.95c-0.718,0.025-0.894-0.307-0.87-0.961
		C260.613,155.343,260.583,154.236,260.584,153.127z"/>
	<path fill-rule="evenodd" clip-rule="evenodd" fill="#404040" d="M254.518,157.523c-2.569,0.028-4.56-1.922-4.549-4.459
		c0.01-2.49,1.921-4.382,4.429-4.383c2.659,0,4.578,1.861,4.554,4.421C258.928,155.565,256.991,157.497,254.518,157.523z
		 M257.201,153.027c-0.021-1.653-1.169-2.823-2.766-2.814c-1.563,0.009-2.72,1.226-2.722,2.86c-0.002,1.638,1.14,2.859,2.687,2.875
		C256.041,155.965,257.221,154.736,257.201,153.027z"/>
	<path fill-rule="evenodd" clip-rule="evenodd" fill="#404040" d="M241.542,153.044c0.034-3.433,3.652-5.534,6.639-3.829
		c0.373,0.213,1.202,0.354,0.687,1.092c-0.308,0.441-0.715,0.896-1.436,0.387c-0.827-0.584-1.773-0.584-2.7-0.13
		c-1.373,0.673-1.956,2.201-1.359,3.585c0.647,1.5,2.15,2.16,3.628,1.582c0.242-0.095,0.459-0.253,0.694-0.368
		c0.664-0.325,1.015,0.209,1.276,0.601c0.355,0.531-0.238,0.724-0.565,0.905c-1.535,0.851-3.142,0.933-4.673,0.08
		C242.247,156.123,241.468,154.797,241.542,153.044z"/>
	<path fill-rule="evenodd" clip-rule="evenodd" fill="#262626" d="M198.178,155.662c-0.576,0.214-0.58-0.135-0.58-0.556
		c0.006-8.162,0.006-16.323,0.004-24.485c-0.001-0.448,0.033-0.854,0.577-0.964c0.028,7.567,0.06,15.135,0.08,22.703
		C198.261,153.46,198.206,154.561,198.178,155.662z"/>
	<path fill-rule="evenodd" clip-rule="evenodd" fill="#666666" d="M160.211,156.115c0,0-0.029,0.086-0.029,0.087
		c0.127,0.192,0.254,0.383,0.382,0.575c-0.635,0.27-1.039,0.135-1.038-0.626c0.004-5.79,0.013-11.579,0.035-17.368
		c0-0.097,0.205-0.192,0.315-0.287c0.106,0.22,0.212,0.441,0.319,0.661l0.016,0.009c-0.387,0.241-0.31,0.634-0.31,0.989
		c-0.004,4.929-0.002,9.857,0.001,14.786C159.902,155.356,159.854,155.791,160.211,156.115z"/>
	<path fill-rule="evenodd" clip-rule="evenodd" fill="#404040" d="M142.489,140.121c0.059,0.575-0.211,0.987-0.597,1.394
		c-2.402,2.534-2.686,5.553-1.988,8.799c0.086,0.403,0.588,0.865-0.046,1.256C137.951,147.746,139.093,142.776,142.489,140.121z"/>
	<path fill-rule="evenodd" clip-rule="evenodd" fill="#666666" d="M176.722,155.937c0.005-3.498,0.003-6.996,0.021-10.494
		c0.003-0.504-0.2-1.049,0.199-1.504c0.542,2.169,0.223,4.376,0.242,6.563c0.018,1.926,0.224,3.864-0.126,5.784
		C176.946,156.169,176.834,156.053,176.722,155.937z"/>
	<path fill-rule="evenodd" clip-rule="evenodd" fill="#404040" d="M157.174,151.574c-0.079-0.066-0.237-0.157-0.226-0.195
		c0.897-2.865,0.21-5.699-0.155-8.54C158.438,145.684,158.474,148.6,157.174,151.574z"/>
	<path fill-rule="evenodd" clip-rule="evenodd" fill="#262626" d="M192.927,128.726c0.563,0.102,0.563,0.527,0.563,0.965
		c-0.003,3.054-0.003,6.106-0.001,9.16c0,0.44-0.012,0.861-0.58,0.948C192.914,136.109,192.921,132.417,192.927,128.726z"/>
	<path fill-rule="evenodd" clip-rule="evenodd" fill="#262626" d="M164.383,156.745c-0.012-3.245-0.029-6.49-0.034-9.734
		c-0.002-0.503-0.132-1.108,0.665-1.171c0.063,3.37,0.189,6.74-0.068,10.108c-0.074,0.039-0.149,0.079-0.225,0.118
		c0.079,0.073,0.158,0.146,0.238,0.218C165.087,156.839,164.754,156.815,164.383,156.745z"/>
	<path fill-rule="evenodd" clip-rule="evenodd" fill="#404040" d="M237.66,154.751c0.658,0.177,1.187,0.496,1.133,1.277
		c-0.046,0.675-0.495,1.09-1.135,1.074c-0.619-0.014-1.124-0.399-1.159-1.076C236.461,155.272,236.974,154.915,237.66,154.751z"/>
	<path fill-rule="evenodd" clip-rule="evenodd" fill="#262626" d="M125.834,155.319c-0.139-0.141-0.399-0.279-0.4-0.422
		c-0.025-2.459-0.025-4.917-0.001-7.376c0.002-0.142,0.261-0.281,0.4-0.422C125.98,149.839,125.979,152.579,125.834,155.319z"/>
	<path fill-rule="evenodd" clip-rule="evenodd" fill="#262626" d="M160.195,139.157c-0.107-0.22-0.213-0.441-0.319-0.661
		c1.572-0.25,3.15-0.104,4.727-0.074c0.149,0.148,0.299,0.296,0.449,0.443c-0.017,0.104-0.032,0.206-0.048,0.311
		C163.401,139.169,161.799,139.163,160.195,139.157z"/>
	<path fill-rule="evenodd" clip-rule="evenodd" fill="#404040" d="M145.62,156.693c0.654-0.662,1.388-0.075,2.043-0.04
		c1.447,0.077,2.86-0.451,4.299-0.143C149.873,157.418,147.759,157.455,145.62,156.693z"/>
	<path fill-rule="evenodd" clip-rule="evenodd" fill="#404040" d="M149.688,138.289c-0.121,0.324-0.374,0.553-0.698,0.51
		c-1.342-0.18-2.691,0.542-4.021-0.062C146.493,138.063,148.047,137.714,149.688,138.289z"/>
	<path fill-rule="evenodd" clip-rule="evenodd" fill="#404040" d="M140.274,152.475c1.238,0.599,2.319,1.336,2.531,2.846
		C141.664,154.638,140.784,153.722,140.274,152.475z"/>
	<path fill-rule="evenodd" clip-rule="evenodd" fill="#262626" d="M194.055,156.722c1.299-0.735,2.602-0.7,3.911-0.029
		C196.664,156.914,195.359,156.861,194.055,156.722z"/>
	<path fill-rule="evenodd" clip-rule="evenodd" fill="#262626" d="M160.563,156.777c-0.128-0.192-0.255-0.383-0.382-0.575
		c1.142,0.381,2.463-0.449,3.517,0.521C162.653,156.74,161.607,156.758,160.563,156.777z"/>
	<path fill-rule="evenodd" clip-rule="evenodd" fill="#404040" d="M154.89,154.755c-0.063-1.311,0.784-1.884,1.849-2.281
		C156.402,153.461,155.732,154.178,154.89,154.755z"/>
	<path fill-rule="evenodd" clip-rule="evenodd" fill="#262626" d="M120.663,156.268c1.728-0.001,3.456-0.001,5.185-0.002
		c0.018,0.302-0.118,0.524-0.42,0.526c-1.449,0.014-2.898,0.01-4.347-0.006C120.776,156.784,120.634,156.577,120.663,156.268z"/>
	<path fill-rule="evenodd" clip-rule="evenodd" fill="#404040" d="M154.86,140.427c-1.108-0.111-1.993-0.585-2.552-1.582
		C153.348,139.068,154.197,139.597,154.86,140.427z"/>
	<path fill-rule="evenodd" clip-rule="evenodd" fill="#262626" d="M172.908,156.731c0.941-0.713,1.885-0.713,2.827-0.001
		C174.793,156.872,173.85,156.871,172.908,156.731z"/>
	<path fill-rule="evenodd" clip-rule="evenodd" fill="#404040" d="M152.038,138.748c-0.926,0.743-1.596,0.371-2.152-0.497
		C150.679,138.095,151.378,138.336,152.038,138.748z"/>
	<path fill-rule="evenodd" clip-rule="evenodd" fill="#404040" d="M144.704,138.83c-0.459,0.736-0.865,1.57-1.988,1.068
		C143.288,139.374,143.919,138.957,144.704,138.83z"/>
	<path fill-rule="evenodd" clip-rule="evenodd" fill="#666666" d="M170.766,144.212c1.303,0.279,0.767,1.552,1.232,2.283
		c-0.09,0.045-0.17,0.031-0.239-0.041C171.428,145.707,171.097,144.959,170.766,144.212z"/>
	<path fill-rule="evenodd" clip-rule="evenodd" fill="#404040" d="M156.081,141.715c-0.9,0.034-1.31-0.398-1.228-1.295
		C155.391,140.73,155.827,141.137,156.081,141.715z"/>
	<path fill-rule="evenodd" clip-rule="evenodd" fill="#666666" d="M212.301,138.758c-0.633,0.02-1.221-0.1-1.711-0.535
		C211.265,138.068,211.809,138.33,212.301,138.758z"/>
	<path fill-rule="evenodd" clip-rule="evenodd" fill="#666666" d="M167.467,143.395c0.534-0.617,1.098-0.555,1.678-0.07
		C168.586,143.348,168.026,143.372,167.467,143.395z"/>
	<path fill-rule="evenodd" clip-rule="evenodd" fill="#666666" d="M173.667,138.755c-0.637,0.013-1.235-0.095-1.724-0.548
		C172.607,138.109,173.18,138.299,173.667,138.755z"/>
	<path fill-rule="evenodd" clip-rule="evenodd" fill="#262626" d="M171.759,146.455c0.069,0.072,0.149,0.086,0.239,0.041
		c0.395,0.464,0.465,0.887-0.161,1.215C171.812,147.292,171.785,146.874,171.759,146.455z"/>
	<path fill-rule="evenodd" clip-rule="evenodd" fill="#404040" d="M144.021,156.087c0.724-0.543,0.987,0.076,1.32,0.521
		C144.829,156.617,144.397,156.42,144.021,156.087z"/>
	<path fill-rule="evenodd" clip-rule="evenodd" fill="#666666" d="M172.244,156.125c0.017,0.227,0.032,0.454,0.048,0.682
		c-0.818,0.089-0.696-0.369-0.504-0.867C171.94,156,172.092,156.063,172.244,156.125z"/>
	<path fill-rule="evenodd" clip-rule="evenodd" fill="#262626" d="M172.244,156.125c-0.152-0.062-0.304-0.124-0.456-0.186
		c0.017-0.512,0.033-1.024,0.049-1.535C172.584,154.833,172.146,155.542,172.244,156.125z"/>
	<path fill-rule="evenodd" clip-rule="evenodd" fill="#262626" d="M192.904,155.31c0.182-0.015,0.435-0.259,0.526,0.045
		c0.118,0.395-0.153,0.563-0.518,0.6C192.91,155.739,192.906,155.525,192.904,155.31z"/>
	<path fill-rule="evenodd" clip-rule="evenodd" fill="#666666" d="M213.733,155.576c0.157-0.345,0.367-0.658,0.798-0.468
		c0.207,0.092,0.177,0.329,0.007,0.502C214.278,155.397,214.005,155.518,213.733,155.576z"/>
	<path fill-rule="evenodd" clip-rule="evenodd" fill="#666666" d="M169.428,138.128c-0.143,0.298-0.322,0.465-0.631,0.18
		C168.964,138.097,169.151,137.954,169.428,138.128z"/>
	<path fill-rule="evenodd" clip-rule="evenodd" fill="#666666" d="M207.747,138.173c-0.148,0.297-0.337,0.427-0.621,0.146
		C207.294,138.106,207.491,138.017,207.747,138.173z"/>
	<path fill-rule="evenodd" clip-rule="evenodd" fill="#666666" d="M176.765,143.018c-0.351-0.217-0.387-0.511-0.211-0.857
		C176.772,142.41,176.831,142.699,176.765,143.018z"/>
	<path fill-rule="evenodd" clip-rule="evenodd" fill="#666666" d="M165.073,145.894c-0.106-0.217-0.206-0.434,0.029-0.633
		C165.602,145.495,165.196,145.688,165.073,145.894z"/>
	<path fill-rule="evenodd" clip-rule="evenodd" fill="#666666" d="M214.705,138.531c-0.047,0.264-0.094,0.528-0.14,0.792
		c-0.164-0.088-0.268-0.431-0.523-0.122l-0.061,0.024C214.484,139.266,214.26,138.55,214.705,138.531z"/>
	<path fill-rule="evenodd" clip-rule="evenodd" fill="#404040" d="M154.208,155.315c0.028-0.438,0.264-0.627,0.697-0.574
		C154.77,155.049,154.529,155.232,154.208,155.315z"/>
	<path fill-rule="evenodd" clip-rule="evenodd" fill="#666666" d="M206.521,138.458c-0.172,0.345-0.447,0.425-0.798,0.312
		C205.918,138.481,206.188,138.387,206.521,138.458z"/>
	<path fill-rule="evenodd" clip-rule="evenodd" fill="#404040" d="M153.258,155.942c0.063-0.513,0.389-0.622,0.837-0.537
		C153.893,155.704,153.621,155.894,153.258,155.942z"/>
	<path fill-rule="evenodd" clip-rule="evenodd" fill="#666666" d="M165.052,138.865c-0.15-0.147-0.3-0.295-0.449-0.443
		C165.069,138.249,165.172,138.443,165.052,138.865z"/>
	<path fill-rule="evenodd" clip-rule="evenodd" fill="#666666" d="M165.658,140.307c-0.063,0.266-0.186,0.505-0.498,0.358
		c-0.293-0.138-0.192-0.41-0.106-0.648C165.256,140.114,165.457,140.21,165.658,140.307z"/>
	<path fill-rule="evenodd" clip-rule="evenodd" fill="#262626" d="M176.722,155.937c0.112,0.116,0.225,0.232,0.337,0.349
		c-0.016,0.431-0.257,0.541-0.639,0.45C176.393,156.42,176.409,156.124,176.722,155.937z"/>
	<path fill-rule="evenodd" clip-rule="evenodd" fill="#666666" d="M174.505,139.268c-0.053,0.067-0.105,0.135-0.158,0.203
		c-0.04-0.13-0.081-0.261-0.122-0.391C174.318,139.143,174.411,139.206,174.505,139.268z"/>
	<path fill-rule="evenodd" clip-rule="evenodd" fill="#666666" d="M164.959,156.284c-0.08-0.072-0.159-0.145-0.238-0.218
		c0.075-0.039,0.15-0.079,0.225-0.118C164.95,156.06,164.953,156.172,164.959,156.284z"/>
	<path fill-rule="evenodd" clip-rule="evenodd" fill="#373737" d="M125.567,142.253c-0.038,0.087-0.075,0.175-0.113,0.263
		c-0.088-0.038-0.224-0.057-0.249-0.119c-0.025-0.064,0.061-0.171,0.099-0.259C125.393,142.177,125.479,142.214,125.567,142.253z"/>
	<path fill-rule="evenodd" clip-rule="evenodd" fill="#373737" d="M123.493,140.535c0.068,0.061,0.135,0.122,0.203,0.184
		c-0.065,0.044-0.125,0.099-0.197,0.125c-0.023,0.009-0.111-0.068-0.106-0.092C123.41,140.675,123.457,140.606,123.493,140.535z"/>
	<path fill-rule="evenodd" clip-rule="evenodd" fill="#F8F8F8" d="M188.482,143.197c2.42,0.016,4.276,1.882,4.313,4.333
		c0.035,2.428-1.967,4.566-4.313,4.607c-2.459,0.043-4.388-2.032-4.338-4.668C184.19,145.01,186.049,143.18,188.482,143.197z"/>
	<path fill-rule="evenodd" clip-rule="evenodd" fill="#262626" d="M198.092,128.629c-0.101,0.011-0.099,0.296-0.266,0.099
		c-0.006-0.006,0.114-0.119,0.176-0.182C198.004,128.545,198.092,128.629,198.092,128.629z"/>
	<path fill-rule="evenodd" clip-rule="evenodd" fill="#F8F8F8" d="M214.496,147.755c-0.051,2.49-1.974,4.356-4.469,4.335
		c-2.565-0.021-4.574-2.093-4.523-4.665c0.047-2.439,2.125-4.265,4.771-4.191C212.799,143.305,214.55,145.18,214.496,147.755z"/>
	<path fill-rule="evenodd" clip-rule="evenodd" fill="#666666" d="M214.569,139.771c0.264,0.147,0.42,0.384,0.098,0.553
		c-0.345,0.18-0.564-0.057-0.624-0.422C214.219,139.859,214.395,139.814,214.569,139.771z"/>
	<path fill-rule="evenodd" clip-rule="evenodd" fill="#363636" d="M215.536,141.303c-0.038,0.088-0.058,0.224-0.121,0.249
		c-0.062,0.025-0.169-0.063-0.256-0.101c0.038-0.088,0.058-0.224,0.12-0.249S215.449,141.265,215.536,141.303z"/>
	<path fill-rule="evenodd" clip-rule="evenodd" fill="#363636" d="M205.752,151.026c0.088,0.037,0.176,0.075,0.263,0.112
		c-0.037,0.088-0.057,0.225-0.119,0.249c-0.063,0.024-0.17-0.062-0.258-0.099C205.677,151.201,205.714,151.113,205.752,151.026z"/>
	<path fill-rule="evenodd" clip-rule="evenodd" fill="#FEFDFD" d="M214.569,139.771c-0.175,0.043-0.351,0.088-0.526,0.131
		c-0.163-0.233-0.428-0.468-0.001-0.701c0.256-0.309,0.359,0.034,0.523,0.122C214.566,139.473,214.567,139.622,214.569,139.771z"/>
	<path fill-rule="evenodd" clip-rule="evenodd" fill="#363636" d="M219.262,155.88c-0.076,0.066-0.147,0.13-0.222,0.192
		c-0.035-0.077-0.082-0.152-0.102-0.234c-0.005-0.022,0.086-0.1,0.109-0.092C219.123,155.775,219.188,155.832,219.262,155.88z"/>
	<path fill-rule="evenodd" clip-rule="evenodd" fill="#F8F8F8" d="M152.688,147.592c0.002,2.412-1.762,4.25-4.112,4.285
		c-2.404,0.036-4.274-1.866-4.25-4.322c0.023-2.357,1.906-4.259,4.203-4.243C150.833,143.328,152.687,145.236,152.688,147.592z"/>
	<path fill-rule="evenodd" clip-rule="evenodd" fill="#262626" d="M160.211,156.115c-0.357-0.324-0.309-0.759-0.309-1.174
		c-0.003-4.929-0.005-9.857-0.001-14.786c0-0.355-0.077-0.748,0.31-0.989C160.211,144.815,160.211,150.465,160.211,156.115z"/>
	<path fill-rule="evenodd" clip-rule="evenodd" fill="#F4F4F4" d="M257.201,153.027c0.02,1.709-1.16,2.938-2.801,2.921
		c-1.547-0.016-2.688-1.237-2.687-2.875c0.002-1.635,1.159-2.852,2.722-2.86C256.032,150.204,257.181,151.374,257.201,153.027z"/>
</g>
<image overflow="visible" width="380" height="186" xlink:href="amazon.png"  transform="matrix(1 0 0 1 -408 0)">
</image>
</svg>
