<?xml version="1.0" encoding="utf-8"?>
<!-- Generator: Adobe Illustrator 16.0.0, SVG Export Plug-In . SVG Version: 6.00 Build 0)  -->
<!DOCTYPE svg PUBLIC "-//W3C//DTD SVG 1.1//EN" "http://www.w3.org/Graphics/SVG/1.1/DTD/svg11.dtd">
<svg version="1.1" id="Layer_1" xmlns="http://www.w3.org/2000/svg" xmlns:xlink="http://www.w3.org/1999/xlink" x="0px" y="0px"
	 width="60.062px" height="68.166px" viewBox="0 0 60.062 68.166" enable-background="new 0 0 60.062 68.166" xml:space="preserve">
<g>
	<path fill-rule="evenodd" clip-rule="evenodd" fill="#2591B8" d="M15.419,10.699c0.848-1.177,1.569-2.468,2.905-3.205
		c0.438,0.805,0.992,1.591,0.428,2.564c-0.026,0.01-0.057,0.015-0.076,0.031c-0.014,0.01-0.012,0.038-0.017,0.058
		c0.03-0.03,0.061-0.06,0.092-0.09c0.569-0.498,1.136-0.995,1.704-1.491c-0.163,1.015,0.288,1.418,1.278,1.282
		c-0.326,0.367-0.646,0.74-0.982,1.099c-2.491,2.668-3.812,5.845-3.876,9.474c-0.079,4.204,1.479,7.749,4.521,10.69
		c5.996,5.796,16.375,4.852,21.169-1.974c3.753-5.344,3.708-11.518-0.123-16.987c-3.566-5.086-11.25-7.143-16.885-4.544
		c-1.353,0.625-2.585,1.441-3.827,2.246c0.138-0.993-0.264-1.444-1.283-1.277c0.571-0.495,1.143-0.99,1.711-1.484
		c0.094-0.03,0.188-0.06,0.282-0.089c-0.02-0.027-0.052-0.079-0.057-0.077c-0.081,0.047-0.159,0.099-0.235,0.151
		c-0.856,0.221-1.561,0.133-1.87-0.859c-0.03-0.096-0.229-0.14-0.35-0.208c0.947-0.861,2.054-1.46,3.229-1.945
		c0.155,0.089,0.312,0.177,0.469,0.265c0.854,0.898,0.113,1.486-0.409,2.117c-0.026,0.012-0.056,0.018-0.076,0.035
		c-0.013,0.011-0.011,0.037-0.015,0.057c0.028-0.031,0.058-0.063,0.086-0.094c0.795,0.063,1.337-0.709,2.131-0.639
		c-0.068,0.198-0.177,0.39-0.196,0.593c-0.038,0.362,0.135,0.619,0.514,0.667c0.355,0.046,0.633-0.08,0.71-0.462
		c0.069-0.351-0.039-0.643-0.406-0.747c-0.197-0.057-0.419-0.033-0.628-0.045c0.713-0.687,1.745-0.544,2.615-1.059
		c-1.325,0.366-1.87-0.315-2.107-1.423c-0.005-0.025-0.052-0.041-0.081-0.062c0-0.066,0.001-0.133,0.004-0.199
		c3.536-1.095,7.071-1.022,10.605,0.013c-0.22,1.165-0.622,2.105-2.18,1.655c0.87,0.536,1.912,0.384,2.624,1.074
		c-0.245,0.009-0.499-0.019-0.702,0.167c-0.248,0.224-0.462,0.46-0.258,0.818c0.14,0.244,0.377,0.309,0.64,0.273
		c0.385-0.053,0.552-0.309,0.514-0.67c-0.021-0.202-0.131-0.396-0.2-0.594c0.624-0.089,1.078,0.491,1.694,0.441
		c0.1,0.167,0.258,0.203,0.436,0.197c0.029,0.031,0.059,0.063,0.086,0.094c-0.005-0.02-0.002-0.046-0.016-0.056
		c-0.021-0.017-0.049-0.022-0.074-0.033c-0.079-0.177-0.23-0.225-0.406-0.233c-0.732-0.815-0.102-1.519,0.183-2.252
		c1.138,0.501,2.215,1.103,3.198,1.868c-0.287,1.283-0.377,1.33-2.29,1.12c0.707,0.627,1.563,0.921,2.083,1.624
		c-0.47,0.066-1.15-0.246-1.229,0.563c-0.035,0.372,0.291,0.7,0.665,0.661c0.803-0.085,0.492-0.761,0.555-1.232
		c0.617,0.263,0.862,1.065,1.802,1.248c-0.714-0.958-0.372-1.491,0.399-1.894c0.076-0.04,0.101-0.179,0.151-0.271
		c0.922,0.823,1.699,1.769,2.354,2.816c-0.366,1.04-1.044,1.142-1.925,0.638c-0.073-0.066-0.147-0.132-0.225-0.198
		c-0.013-0.026-0.02-0.056-0.038-0.076c-0.012-0.012-0.04-0.009-0.061-0.012c0.031,0.031,0.063,0.062,0.093,0.094
		c0.065,0.076,0.131,0.151,0.196,0.228c0.019,0.581,0.61,0.904,0.66,1.471c-0.069,0.003-0.14,0.013-0.211,0.011
		c-0.478-0.017-0.845,0.1-0.857,0.674c-0.007,0.311,0.058,0.556,0.438,0.589c0.634,0.056,0.758-0.374,0.837-0.854
		c0.728,0.427,0.645,1.383,1.347,2.108c-0.241-1.233-0.038-2.021,1.194-2.101c0.607,1.13,1.041,2.32,1.248,3.59
		c-0.963,0.577-1.689,0.293-2.26-0.74c0.515,1.573,0.528,3.123,0.922,4.66c0.141-1.097,0.672-1.608,1.766-1.336
		c0.121,1.263,0.095,2.526,0,3.789c-1.099,0.28-1.622-0.245-1.777-1.335c-0.318,1.564-0.493,3.091-0.893,4.579
		c1.178-1.261,1.178-1.261,2.114-0.431c-0.223,1.107-0.649,2.139-1.14,3.149c-1.619,0.379-1.16-0.92-1.298-1.816
		c-0.552,0.705-0.514,1.598-1.224,2.037c-0.032-0.136-0.055-0.275-0.101-0.406c-0.141-0.407-0.451-0.513-0.841-0.43
		c-0.312,0.066-0.336,0.315-0.334,0.574c0.003,0.367,0.17,0.604,0.542,0.659c0.174,0.025,0.351,0.018,0.526,0.025
		c-0.075,0.672-0.778,1.027-0.854,1.699c-0.027,0.01-0.057,0.016-0.079,0.034c-0.013,0.01-0.009,0.039-0.015,0.06
		c0.033-0.03,0.065-0.059,0.098-0.088c0.751-0.443,1.501-0.873,2.11,0.195c-0.672,1.016-1.453,1.937-2.343,2.768
		c-1.288-0.283-0.917-1.104-0.616-1.902c0.051-0.077,0.104-0.154,0.156-0.23c-0.026-0.019-0.055-0.037-0.082-0.055
		c-0.026,0.093-0.055,0.186-0.081,0.279c-0.795,0.126-1.03,0.991-1.7,1.283c-0.06-0.473,0.243-1.148-0.558-1.231
		c-0.37-0.038-0.701,0.289-0.664,0.663c0.08,0.809,0.76,0.496,1.229,0.561c-0.568,0.496-1.137,0.992-1.707,1.488
		c-0.094,0.029-0.188,0.057-0.281,0.086c0.02,0.026,0.055,0.078,0.057,0.077c0.079-0.049,0.155-0.103,0.23-0.155
		c0.771,0.022,1.757-0.3,1.701,1.055c-0.589,0.422-1.178,0.843-1.768,1.265c-0.19,0.076-0.383,0.154-0.574,0.23
		c-0.272,0.068-0.543,0.136-0.813,0.203c-0.604-0.624-0.38-1.256-0.02-1.889c0.093-0.035,0.184-0.07,0.277-0.104
		c-0.021-0.026-0.056-0.079-0.06-0.077c-0.084,0.045-0.165,0.098-0.245,0.149c-0.582,0.079-1.08,0.483-1.692,0.442
		c0.069-0.197,0.179-0.391,0.2-0.594c0.038-0.362-0.135-0.614-0.518-0.668c-0.26-0.036-0.497,0.028-0.636,0.273
		c-0.204,0.358,0.01,0.594,0.258,0.816c0.205,0.185,0.457,0.159,0.702,0.166c-0.711,0.696-1.754,0.54-2.604,0.998
		c1.859,0.184,1.859,0.184,1.953,1.549c-1.267,0.213-2.533,0.426-3.801,0.639c-0.479-1.113,0.119-1.68,1.153-2.102
		c-1.662,0.372-3.222,0.167-4.779-0.021c-1.082-0.521-2.388-0.326-3.396-1.068c0.209-0.01,0.428,0.017,0.625-0.039
		c0.365-0.104,0.473-0.397,0.402-0.747c-0.077-0.381-0.354-0.504-0.709-0.461c-0.378,0.048-0.553,0.303-0.516,0.663
		c0.021,0.202,0.13,0.394,0.201,0.59c-0.706-0.218-1.412-0.436-2.116-0.653c-0.038-0.026-0.075-0.052-0.11-0.079
		c0.026,0.037,0.052,0.073,0.077,0.11c0.613,0.607,1.125,1.233,0.42,2.103c-0.416-0.068-0.832-0.137-1.248-0.206
		c-0.1-0.066-0.2-0.134-0.301-0.201c-0.512-0.643-1.406-0.794-1.893-1.471c0.461-0.604,0.834-1.368,1.982-0.805
		c-0.506-0.741-1.294-0.866-1.498-1.562c0.211-0.009,0.43,0.018,0.626-0.037c0.368-0.1,0.479-0.392,0.407-0.742
		c-0.076-0.375-0.35-0.515-0.704-0.469c-0.378,0.049-0.553,0.306-0.52,0.665c0.019,0.201,0.13,0.394,0.2,0.59
		c-0.894-0.171-1.178-1.124-1.919-1.49c-0.012-0.025-0.018-0.054-0.034-0.075c-0.01-0.012-0.036-0.01-0.057-0.016
		c0.033,0.03,0.063,0.059,0.094,0.087c0.123,0.831,0.836,1.846-0.676,2.167c-0.921-0.819-1.77-1.7-2.366-2.792
		c0.596-0.413,1.122-1.159,1.962-0.419c0.076,0.067,0.15,0.134,0.224,0.201c0.035,0.028,0.069,0.057,0.105,0.084
		c-0.031-0.032-0.062-0.063-0.094-0.095c-0.065-0.075-0.131-0.15-0.197-0.227c-0.015-0.641-0.757-0.998-0.662-1.684
		c0.285,0.122,0.569,0.322,0.881,0.059c0.22-0.188,0.433-0.379,0.275-0.715c-0.113-0.239-0.265-0.405-0.557-0.406
		c-0.313-0.001-0.571,0.06-0.592,0.437c-0.013,0.21-0.004,0.422-0.004,0.633c-0.787-0.585-0.854-1.617-1.562-2.415
		c0.502,1.301,0.27,2.134-1.193,2.198c-0.596-1.146-1.123-2.316-1.299-3.612c1.012-0.459,1.781-0.235,2.265,0.8
		c0.012,0.024,0.059,0.031,0.091,0.046c0.01,0.025,0.018,0.053,0.033,0.073c0.01,0.012,0.033,0.012,0.053,0.018
		c-0.031-0.028-0.063-0.056-0.094-0.084c-0.231-1.522-0.705-2.995-0.872-4.594c-0.204,1.333-1.081,1.287-2.001,1.164
		c-0.152-1.19-0.134-2.382-0.037-3.574c0.121-0.076,0.244-0.153,0.365-0.229c0.927-0.172,1.443,0.247,1.76,1.154
		c0.197-1.369,0.399-2.738,0.598-4.107c0.049-0.08,0.101-0.159,0.145-0.241c0.004-0.006-0.047-0.041-0.072-0.062
		c-0.036,0.09-0.072,0.181-0.109,0.272c-0.529,0.976-1.308,0.749-2.104,0.436c-0.048-0.019-0.094-0.021-0.143-0.005
		c0.293-1.406,0.771-2.744,1.442-4.013c0.833,0.629,1.653,1.266,1.27,2.563c0.588-0.812,0.712-1.775,1.465-2.367
		c0.066,0.372-0.237,0.888,0.373,1.049c0.271,0.073,0.561,0.04,0.757-0.219c0.174-0.229,0.123-0.45-0.035-0.669
		c-0.315-0.434-0.691-0.388-1.099-0.154c0.017-0.757,0.826-1.162,0.855-1.914c0.025-0.01,0.056-0.014,0.075-0.031
		c0.013-0.01,0.013-0.037,0.02-0.057c-0.033,0.027-0.067,0.056-0.099,0.084c-0.733,0.553-1.432,0.7-2.079-0.141
		C15.761,10.687,15.557,10.719,15.419,10.699z M33.458,4.707c-0.623-0.484-1.641-0.653-1.168-1.814
		c0.08-0.199-0.269-0.269-0.482-0.272c-0.424-0.005-0.848,0.004-1.27-0.006c-0.504-0.012-0.876,0.067-0.611,0.713
		c0.188,0.459,0.013,0.708-0.451,0.871c-0.271,0.095-0.624,0.147-0.823,0.685C30.294,4.377,31.855,4.571,33.458,4.707z
		 M46.412,18.979c0.388-0.03,0.588-0.237,0.589-0.613c0.001-0.366-0.164-0.642-0.558-0.611c-0.39,0.031-0.66,0.302-0.666,0.692
		C45.77,18.829,46.058,18.981,46.412,18.979z M47.011,23.838c-0.022-0.332-0.186-0.57-0.568-0.596
		c-0.363-0.025-0.656,0.123-0.663,0.506c-0.008,0.394,0.261,0.664,0.646,0.709C46.815,24.505,46.977,24.232,47.011,23.838z
		 M31.072,36.022c-0.288,0.114-0.589,0.282-0.603,0.689c-0.011,0.326,0.206,0.51,0.521,0.536c0.401,0.033,0.677-0.13,0.709-0.568
		C31.729,36.283,31.451,36.144,31.072,36.022z M31.114,6.175c0.329-0.104,0.611-0.229,0.586-0.63
		c-0.027-0.438-0.299-0.602-0.701-0.575c-0.316,0.021-0.539,0.205-0.527,0.527C30.489,5.888,30.744,6.108,31.114,6.175z
		 M15.73,17.766c-0.328,0.108-0.609,0.238-0.58,0.638c0.032,0.439,0.309,0.6,0.708,0.568c0.315-0.025,0.54-0.208,0.521-0.534
		C16.356,18.047,16.101,17.829,15.73,17.766z M15.755,24.45c0.364-0.083,0.621-0.303,0.625-0.696
		c0.002-0.319-0.227-0.497-0.544-0.512c-0.405-0.019-0.667,0.159-0.684,0.593C15.138,24.232,15.425,24.354,15.755,24.45z"/>
	<path fill-rule="evenodd" clip-rule="evenodd" fill="#5BA1BD" d="M22.067,37.477c0.101,0.067,0.201,0.134,0.301,0.201
		c-0.146,0.47,0.404,0.665,0.422,1.068c0,1.729-0.015,3.458,0.011,5.187c0.007,0.474-0.183,0.993,0.201,1.419
		c-0.259,1.113-0.214,2.246-0.214,3.377c0,5.82,0,11.641,0,17.478c0.408-0.041,0.521-0.263,0.643-0.476
		c0.159-0.063,0.363-0.084,0.476-0.196c1.616-1.629,3.221-3.271,4.826-4.909c0-0.073,0-0.146,0-0.219v0.005
		c0.071-0.071,0.144-0.144,0.215-0.215l-0.004,0.003c0.073-0.072,0.144-0.144,0.216-0.216l-0.002,0.003
		c0.071-0.072,0.143-0.144,0.215-0.215l-0.004,0.003c0.072-0.072,0.144-0.144,0.217-0.216l-0.004,0.003
		c0.072-0.072,0.144-0.144,0.217-0.216l-0.005,0.004c0.187-0.089,0.22-0.256,0.219-0.439c0.064-0.066,0.131-0.132,0.197-0.197
		c0.439-0.072,0.883-0.144,1.323-0.215c0.486,0.425,0.972,0.85,1.457,1.275c1.831,1.996,3.738,3.914,5.742,5.736
		c-0.001,0.062-0.002,0.123-0.003,0.185c0.008,0.176-0.001,0.395,0.188,0.457c0.313,0.102,0.214-0.178,0.227-0.316
		c0.021-0.21,0.005-0.423,0.005-0.635c0-8.822,0-17.644,0-26.465c0.07-0.351,0.141-0.701,0.213-1.052
		c0.191-0.077,0.384-0.154,0.574-0.23c0.018,1.095,0.045,2.191,0.045,3.287c0.003,8.741,0.002,17.482,0.002,26.223
		c0,0.377,0,0.754,0,1.146c-0.462-0.009-0.609-0.334-0.818-0.543c-2.436-2.419-4.882-4.828-7.273-7.291
		c-0.646-0.666-1.017-0.773-1.723-0.035c-2.351,2.453-4.785,4.824-7.188,7.225c-0.248,0.246-0.508,0.479-0.742,0.701
		c-0.349-0.116-0.238-0.367-0.239-0.552c-0.012-9.874-0.017-19.747-0.018-29.62C21.979,37.822,22.037,37.649,22.067,37.477z"/>
	<path fill-rule="evenodd" clip-rule="evenodd" fill="#73B0C0" d="M15.419,10.699c0.138,0.021,0.342-0.012,0.402,0.067
		c0.647,0.841,1.346,0.694,2.079,0.141l0.004,0.003c-0.029,0.752-0.839,1.157-0.855,1.914l0.004-0.007
		c-0.753,0.592-0.877,1.555-1.465,2.367c0.384-1.297-0.437-1.934-1.27-2.563C14.583,11.923,14.924,11.266,15.419,10.699z"/>
	<path fill-rule="evenodd" clip-rule="evenodd" fill="#73B0C0" d="M44.046,7.649c-0.051,0.092-0.075,0.232-0.151,0.271
		c-0.771,0.403-1.113,0.937-0.399,1.894c-0.939-0.183-1.185-0.985-1.802-1.248l0.009,0.008c-0.521-0.703-1.376-0.997-2.083-1.624
		c1.913,0.21,2.003,0.164,2.29-1.12C42.737,6.3,43.438,6.921,44.046,7.649z"/>
	<path fill-rule="evenodd" clip-rule="evenodd" fill="#76B1C1" d="M15.354,26.415c-0.032-0.015-0.079-0.022-0.091-0.046
		c-0.483-1.036-1.253-1.259-2.265-0.8c-0.405-0.812-0.495-1.688-0.525-2.577c0.92,0.123,1.797,0.169,2.001-1.164
		c0.167,1.599,0.641,3.072,0.872,4.594L15.354,26.415z"/>
	<path fill-rule="evenodd" clip-rule="evenodd" fill="#73B0C0" d="M20.455,8.567c-0.568,0.497-1.135,0.994-1.704,1.491l0.001,0
		c0.564-0.973,0.011-1.759-0.428-2.564c0.34-0.705,1.128-0.926,1.604-1.484c0.12,0.068,0.319,0.111,0.35,0.208
		c0.31,0.992,1.014,1.08,1.87,0.859l0.01,0.015c-0.568,0.494-1.14,0.989-1.711,1.484L20.455,8.567z"/>
	<path fill-rule="evenodd" clip-rule="evenodd" fill="#76B1C1" d="M45.101,12.61c-0.05-0.567-0.642-0.891-0.66-1.471l0.036-0.036
		c0.879,0.504,1.557,0.403,1.923-0.637c0.634,0.772,1.153,1.61,1.449,2.572c-1.232,0.079-1.436,0.867-1.194,2.101
		c-0.702-0.725-0.619-1.681-1.347-2.108l0.007,0.006c0-0.181-0.036-0.344-0.219-0.432L45.101,12.61z"/>
	<path fill-rule="evenodd" clip-rule="evenodd" fill="#76B1C1" d="M17.673,31.111c-0.84-0.742-1.366,0.004-1.962,0.417
		c-0.653-0.673-1.068-1.491-1.413-2.348c1.463-0.064,1.695-0.897,1.193-2.198c0.707,0.798,0.774,1.83,1.562,2.415l-0.004-0.008
		c-0.095,0.686,0.647,1.042,0.662,1.684C17.711,31.074,17.673,31.111,17.673,31.111z"/>
	<path fill-rule="evenodd" clip-rule="evenodd" fill="#76B1C1" d="M38.711,3.963c-0.284,0.733-0.915,1.437-0.183,2.252l-0.027,0.032
		c-0.614,0.05-1.068-0.531-1.692-0.441l0.007,0.005c-0.712-0.69-1.754-0.538-2.624-1.074c1.558,0.45,1.96-0.491,2.18-1.655
		C37.173,3.319,37.832,3.932,38.711,3.963z"/>
	<path fill-rule="evenodd" clip-rule="evenodd" fill="#76B1C1" d="M44.246,31.303c0.076-0.671,0.779-1.027,0.854-1.699l-0.005,0.005
		c0.183-0.09,0.219-0.252,0.219-0.433l-0.007,0.006c0.71-0.439,0.672-1.332,1.224-2.037c0.138,0.896-0.321,2.195,1.298,1.816
		c-0.276,0.971-0.753,1.827-1.469,2.542c-0.609-1.068-1.359-0.639-2.11-0.195L44.246,31.303z"/>
	<path fill-rule="evenodd" clip-rule="evenodd" fill="#76B1C1" d="M49.524,19.212c-1.094-0.272-1.625,0.239-1.766,1.336
		c-0.394-1.538-0.407-3.087-0.922-4.66c0.57,1.033,1.297,1.316,2.26,0.74C49.388,17.465,49.541,18.324,49.524,19.212z"/>
	<path fill-rule="evenodd" clip-rule="evenodd" fill="#76B1C1" d="M43.401,32.37c-0.301,0.798-0.672,1.619,0.616,1.902
		c-0.598,0.85-1.33,1.537-2.315,1.917c0.056-1.355-0.93-1.033-1.701-1.055l-0.006-0.007c0.57-0.496,1.139-0.992,1.707-1.488
		l-0.008,0.008c0.67-0.292,0.905-1.157,1.7-1.283L43.401,32.37z"/>
	<path fill-rule="evenodd" clip-rule="evenodd" fill="#76B1C1" d="M48.969,25.813c-0.937-0.83-0.937-0.83-2.114,0.431
		c0.399-1.487,0.574-3.015,0.893-4.579c0.155,1.09,0.679,1.615,1.777,1.335C49.519,23.974,49.371,24.919,48.969,25.813z"/>
	<path fill-rule="evenodd" clip-rule="evenodd" fill="#76B1C1" d="M20.659,33.64c0.204,0.695,0.992,0.821,1.498,1.562
		c-1.148-0.563-1.521,0.2-1.982,0.805c-0.896-0.317-1.467-1.04-2.098-1.686c1.512-0.32,0.799-1.335,0.676-2.166l-0.003,0.003
		c0.741,0.367,1.025,1.319,1.919,1.49L20.659,33.64z"/>
	<path fill-rule="evenodd" clip-rule="evenodd" fill="#54A0BC" d="M23.625,4.33c-0.157-0.088-0.313-0.176-0.469-0.265
		c0.808-0.494,1.671-0.843,2.609-0.996c-0.003,0.066-0.004,0.133-0.004,0.199C25.146,3.816,24.144,3.584,23.625,4.33z"/>
	<path fill-rule="evenodd" clip-rule="evenodd" fill="#61A5BD" d="M12.802,19.188c-0.121,0.076-0.244,0.153-0.365,0.229
		c-0.07-0.962,0.146-1.879,0.442-2.783c0.046-0.015,0.092-0.013,0.14,0.006C13.071,17.5,12.669,18.321,12.802,19.188z"/>
	<path fill-rule="evenodd" clip-rule="evenodd" fill="#9AC2CE" d="M21.729,9.853c1.242-0.804,2.475-1.62,3.827-2.246
		c5.635-2.599,13.318-0.542,16.885,4.544c3.831,5.469,3.876,11.643,0.123,16.987c-4.794,6.826-15.173,7.77-21.169,1.974
		c-3.041-2.941-4.6-6.486-4.521-10.69c0.064-3.629,1.385-6.805,3.876-9.474c0.336-0.359,0.656-0.732,0.982-1.099L21.729,9.853z
		 M18.476,24.686c0.021,0.288,0.044,0.577,0.066,0.865c-0.057,0.416,0.154,0.75,0.322,1.101c2.357,4.96,7.541,8.089,13.219,7.664
		c3.331-0.249,6.163-1.483,8.518-3.749c3.37-3.244,4.683-7.363,4.003-11.892c-0.998-6.645-6.23-11.12-12.743-11.56
		c-3.742-0.252-7.092,1.012-9.919,3.495c-1.478,1.296-2.564,2.916-3.339,4.722c-0.087,0.204-0.648,0.734,0.163,0.863
		c0.354,0.002,0.708,0.004,1.06,0.006c1.058,0.142,2.147-0.214,3.185,0.216c-1.216,0.001-2.43,0.004-3.644,0.002
		c-0.385,0-0.79-0.06-0.891,0.47c-0.458,0.028-0.42,0.446-0.491,0.71c-0.439,1.621-0.412,3.292-0.218,4.924
		C17.852,23.23,17.591,24.189,18.476,24.686z"/>
	<path fill-rule="evenodd" clip-rule="evenodd" fill="#5D94A5" d="M39.36,37.685c-0.072,0.351-0.143,0.702-0.213,1.052
		c-0.072,0.002-0.144,0.003-0.214,0.006c-0.456,0.188-0.902,0.408-1.37,0.561c-2.979,0.972-5.993,1.433-9.147,0.974
		c-1.792-0.261-3.476-0.84-5.194-1.332c-0.097-0.169-0.255-0.206-0.432-0.2c-0.018-0.404-0.567-0.599-0.422-1.068
		c0.416,0.069,0.832,0.138,1.248,0.206c0.19,0.39,0.571,0.504,0.936,0.637c1.698,0.618,3.471,0.873,5.255,1.063
		c0.854,0.001,1.706,0.003,2.558,0.004c1.268-0.212,2.534-0.426,3.801-0.639c0.827-0.278,1.767-0.306,2.383-1.061
		C38.817,37.82,39.088,37.752,39.36,37.685z"/>
	<path fill-rule="evenodd" clip-rule="evenodd" fill="#54A0BC" d="M29.807,39.583c-1.784-0.19-3.557-0.445-5.255-1.063
		c-0.364-0.132-0.745-0.247-0.936-0.637c0.705-0.87,0.193-1.496-0.42-2.103l0.033-0.032c0.704,0.218,1.41,0.436,2.116,0.653
		l-0.004-0.006c1.009,0.743,2.314,0.548,3.396,1.069C29.541,37.945,30.453,38.371,29.807,39.583z"/>
	<path fill-rule="evenodd" clip-rule="evenodd" fill="#76B1C1" d="M23.625,4.33c0.519-0.745,1.521-0.513,2.137-1.062
		c0.029,0.021,0.076,0.036,0.081,0.062c0.237,1.107,0.782,1.789,2.107,1.423c-0.87,0.514-1.902,0.372-2.615,1.059l0.007-0.005
		c-0.794-0.071-1.336,0.702-2.131,0.639l0.005,0.002C23.738,5.816,24.479,5.228,23.625,4.33z"/>
	<path fill-rule="evenodd" clip-rule="evenodd" fill="#76B1C1" d="M38.548,37.888c-0.616,0.755-1.556,0.783-2.383,1.061
		c-0.094-1.366-0.094-1.366-1.953-1.549c0.85-0.458,1.893-0.301,2.604-0.998l-0.007,0.006c0.612,0.042,1.11-0.363,1.692-0.442
		l0.027,0.032C38.168,36.632,37.944,37.264,38.548,37.888z"/>
	<path fill-rule="evenodd" clip-rule="evenodd" fill="#76B1C1" d="M33.458,4.707c-1.603-0.136-3.164-0.33-4.806,0.176
		c0.199-0.538,0.552-0.59,0.823-0.685c0.464-0.163,0.64-0.412,0.451-0.871c-0.265-0.646,0.107-0.725,0.611-0.713
		c0.422,0.01,0.846,0.001,1.27,0.006c0.214,0.003,0.563,0.073,0.482,0.272C31.817,4.054,32.835,4.223,33.458,4.707z"/>
	<path fill-rule="evenodd" clip-rule="evenodd" fill="#76B1C1" d="M12.802,19.188c-0.133-0.867,0.27-1.688,0.217-2.548
		c0.796,0.313,1.574,0.54,2.104-0.436l0.037,0.031c-0.198,1.369-0.4,2.738-0.598,4.107C14.245,19.435,13.729,19.016,12.802,19.188z"
		/>
	<path fill-rule="evenodd" clip-rule="evenodd" fill="#76B1C1" d="M29.807,39.583c0.646-1.213-0.266-1.638-1.068-2.119
		c1.558,0.188,3.117,0.392,4.779,0.021c-1.034,0.422-1.632,0.989-1.153,2.102C31.513,39.586,30.66,39.585,29.807,39.583z"/>
	<path fill-rule="evenodd" clip-rule="evenodd" fill="#73B0C0" d="M20.446,8.575c1.02-0.167,1.421,0.285,1.283,1.277l0.004-0.003
		c-0.99,0.136-1.441-0.268-1.278-1.282L20.446,8.575z"/>
	<path fill-rule="evenodd" clip-rule="evenodd" fill="#73B0C0" d="M20.669,33.647c-0.07-0.197-0.182-0.389-0.2-0.59
		c-0.033-0.359,0.142-0.616,0.52-0.665c0.354-0.046,0.628,0.094,0.704,0.469c0.072,0.35-0.039,0.642-0.407,0.742
		c-0.196,0.055-0.415,0.027-0.626,0.037L20.669,33.647z"/>
	<path fill-rule="evenodd" clip-rule="evenodd" fill="#73B0C0" d="M25.335,5.811c0.209,0.012,0.431-0.012,0.628,0.045
		c0.367,0.104,0.476,0.396,0.406,0.747c-0.077,0.382-0.354,0.508-0.71,0.462c-0.379-0.048-0.552-0.305-0.514-0.667
		c0.02-0.203,0.128-0.396,0.196-0.593L25.335,5.811z"/>
	<path fill-rule="evenodd" clip-rule="evenodd" fill="#73B0C0" d="M25.346,36.402c-0.071-0.196-0.181-0.389-0.201-0.59
		c-0.037-0.36,0.138-0.615,0.516-0.663c0.354-0.043,0.632,0.081,0.709,0.461c0.07,0.35-0.037,0.643-0.402,0.747
		c-0.197,0.056-0.416,0.029-0.625,0.039L25.346,36.402z"/>
	<path fill-rule="evenodd" clip-rule="evenodd" fill="#73B0C0" d="M41.702,33.639c-0.47-0.064-1.149,0.248-1.229-0.561
		c-0.037-0.374,0.294-0.701,0.664-0.663c0.801,0.083,0.498,0.758,0.558,1.231L41.702,33.639z"/>
	<path fill-rule="evenodd" clip-rule="evenodd" fill="#76B1C1" d="M41.693,8.567c-0.063,0.471,0.248,1.147-0.555,1.232
		c-0.374,0.039-0.7-0.289-0.665-0.661c0.078-0.809,0.759-0.497,1.229-0.563L41.693,8.567z"/>
	<path fill-rule="evenodd" clip-rule="evenodd" fill="#73B0C0" d="M45.308,13.03c-0.079,0.48-0.203,0.909-0.837,0.854
		c-0.381-0.033-0.445-0.278-0.438-0.589c0.013-0.574,0.38-0.691,0.857-0.674c0.071,0.002,0.142-0.007,0.211-0.011l-0.005-0.005
		c-0.009,0.186,0.035,0.344,0.219,0.432L45.308,13.03z"/>
	<path fill-rule="evenodd" clip-rule="evenodd" fill="#73B0C0" d="M45.101,29.604c-0.176-0.007-0.353,0-0.526-0.025
		c-0.372-0.055-0.539-0.292-0.542-0.659c-0.002-0.259,0.022-0.508,0.334-0.574c0.39-0.083,0.7,0.023,0.841,0.43
		c0.046,0.131,0.068,0.271,0.101,0.406l0.007-0.006c-0.183,0.088-0.228,0.247-0.219,0.433L45.101,29.604z"/>
	<path fill-rule="evenodd" clip-rule="evenodd" fill="#73B0C0" d="M17.049,12.824c0.407-0.233,0.783-0.279,1.099,0.154
		c0.158,0.219,0.209,0.441,0.035,0.669c-0.196,0.259-0.485,0.292-0.757,0.219c-0.61-0.162-0.307-0.677-0.373-1.049L17.049,12.824z"
		/>
	<path fill-rule="evenodd" clip-rule="evenodd" fill="#76B1C1" d="M36.815,36.402c-0.245-0.007-0.497,0.02-0.702-0.166
		c-0.248-0.223-0.462-0.458-0.258-0.816c0.139-0.245,0.376-0.31,0.636-0.273c0.383,0.054,0.556,0.306,0.518,0.668
		c-0.021,0.203-0.131,0.396-0.2,0.594L36.815,36.402z"/>
	<path fill-rule="evenodd" clip-rule="evenodd" fill="#76B1C1" d="M36.809,5.806c0.069,0.198,0.179,0.392,0.2,0.594
		c0.038,0.361-0.129,0.617-0.514,0.67c-0.263,0.036-0.5-0.03-0.64-0.273c-0.204-0.358,0.01-0.594,0.258-0.818
		c0.203-0.186,0.457-0.158,0.702-0.167L36.809,5.806z"/>
	<path fill-rule="evenodd" clip-rule="evenodd" fill="#73B0C0" d="M46.412,18.979c-0.354,0.002-0.643-0.151-0.635-0.533
		c0.006-0.39,0.276-0.661,0.666-0.692c0.394-0.031,0.559,0.246,0.558,0.611C47,18.743,46.8,18.949,46.412,18.979z"/>
	<path fill-rule="evenodd" clip-rule="evenodd" fill="#73B0C0" d="M17.053,29.397c0-0.211-0.009-0.423,0.004-0.633
		c0.021-0.376,0.278-0.438,0.592-0.437c0.292,0,0.443,0.167,0.557,0.406c0.157,0.336-0.056,0.527-0.275,0.715
		c-0.312,0.263-0.596,0.063-0.881-0.059L17.053,29.397z"/>
	<path fill-rule="evenodd" clip-rule="evenodd" fill="#73B0C0" d="M47.011,23.838c-0.034,0.394-0.195,0.667-0.586,0.62
		c-0.385-0.045-0.653-0.316-0.646-0.709c0.007-0.383,0.3-0.531,0.663-0.506C46.825,23.268,46.988,23.507,47.011,23.838z"/>
	<path fill-rule="evenodd" clip-rule="evenodd" fill="#73B0C0" d="M31.072,36.022c0.379,0.122,0.656,0.261,0.627,0.657
		c-0.032,0.438-0.308,0.602-0.709,0.568c-0.314-0.026-0.531-0.21-0.521-0.536C30.483,36.304,30.784,36.136,31.072,36.022z"/>
	<path fill-rule="evenodd" clip-rule="evenodd" fill="#76B1C1" d="M31.114,6.175c-0.37-0.067-0.625-0.287-0.643-0.678
		c-0.012-0.322,0.211-0.505,0.527-0.527c0.402-0.027,0.674,0.137,0.701,0.575C31.726,5.946,31.443,6.071,31.114,6.175z"/>
	<path fill-rule="evenodd" clip-rule="evenodd" fill="#76B1C1" d="M15.73,17.766c0.37,0.063,0.626,0.282,0.649,0.672
		c0.019,0.325-0.206,0.509-0.521,0.534c-0.399,0.032-0.676-0.128-0.708-0.568C15.121,18.004,15.402,17.874,15.73,17.766z"/>
	<path fill-rule="evenodd" clip-rule="evenodd" fill="#76B1C1" d="M15.755,24.45c-0.33-0.096-0.617-0.218-0.603-0.615
		c0.017-0.435,0.278-0.612,0.684-0.593c0.317,0.016,0.546,0.193,0.544,0.512C16.376,24.146,16.119,24.367,15.755,24.45z"/>
	<path fill-rule="evenodd" clip-rule="evenodd" fill="#73B0C0" d="M22.147,7.077c0.076-0.052,0.154-0.104,0.235-0.151
		c0.005-0.002,0.037,0.05,0.057,0.077c-0.094,0.029-0.188,0.059-0.282,0.089L22.147,7.077z"/>
	<path fill-rule="evenodd" clip-rule="evenodd" fill="#76B1C1" d="M43.395,32.364c0.026-0.093,0.055-0.186,0.081-0.279
		c0.027,0.018,0.056,0.036,0.082,0.055c-0.052,0.077-0.105,0.154-0.156,0.23L43.395,32.364z"/>
	<path fill-rule="evenodd" clip-rule="evenodd" fill="#76B1C1" d="M38.501,35.966c0.08-0.051,0.161-0.104,0.245-0.149
		c0.004-0.002,0.039,0.05,0.06,0.077c-0.094,0.035-0.185,0.07-0.277,0.104L38.501,35.966z"/>
	<path fill-rule="evenodd" clip-rule="evenodd" fill="#76B1C1" d="M38.528,6.215c0.176,0.008,0.327,0.056,0.406,0.233l0.004-0.004
		c-0.178,0.006-0.336-0.029-0.436-0.197C38.501,6.247,38.528,6.215,38.528,6.215z"/>
	<path fill-rule="evenodd" clip-rule="evenodd" fill="#76B1C1" d="M15.122,16.204c0.037-0.091,0.073-0.182,0.109-0.272
		c0.025,0.021,0.076,0.056,0.072,0.062c-0.044,0.082-0.096,0.161-0.145,0.241C15.159,16.235,15.122,16.204,15.122,16.204z"/>
	<path fill-rule="evenodd" clip-rule="evenodd" fill="#76B1C1" d="M40.001,35.134c-0.075,0.053-0.151,0.106-0.23,0.155
		c-0.002,0.001-0.037-0.05-0.057-0.077c0.094-0.029,0.188-0.057,0.281-0.086L40.001,35.134z"/>
	<path fill-rule="evenodd" clip-rule="evenodd" fill="#54A0BC" d="M23.196,35.781c-0.025-0.037-0.051-0.073-0.077-0.11
		c0.035,0.026,0.072,0.052,0.11,0.079C23.229,35.749,23.196,35.781,23.196,35.781z"/>
	<path fill-rule="evenodd" clip-rule="evenodd" fill="#76B1C1" d="M44.44,11.139c-0.065-0.077-0.131-0.152-0.196-0.228l0.006-0.006
		c0.077,0.066,0.151,0.132,0.225,0.198C44.477,11.103,44.44,11.139,44.44,11.139z"/>
	<path fill-rule="evenodd" clip-rule="evenodd" fill="#76B1C1" d="M17.896,31.311c-0.073-0.067-0.147-0.134-0.224-0.201
		c0,0.001,0.038-0.036,0.038-0.037c0.066,0.077,0.132,0.152,0.197,0.227L17.896,31.311z"/>
	<path fill-rule="evenodd" clip-rule="evenodd" fill="#76B1C1" d="M17.908,31.3c0.032,0.032,0.063,0.063,0.094,0.095
		c-0.036-0.028-0.07-0.056-0.105-0.084C17.896,31.311,17.908,31.3,17.908,31.3z"/>
	<path fill-rule="evenodd" clip-rule="evenodd" fill="#76B1C1" d="M44.25,31.309c-0.032,0.029-0.064,0.058-0.098,0.088
		c0.006-0.021,0.002-0.049,0.015-0.06c0.022-0.018,0.052-0.024,0.079-0.034L44.25,31.309z"/>
	<path fill-rule="evenodd" clip-rule="evenodd" fill="#76B1C1" d="M44.244,10.911c-0.029-0.032-0.062-0.063-0.093-0.094
		c0.021,0.003,0.049,0,0.061,0.012c0.019,0.02,0.025,0.049,0.038,0.076L44.244,10.911z"/>
	<path fill-rule="evenodd" clip-rule="evenodd" fill="#76B1C1" d="M18.753,32.154c-0.031-0.029-0.061-0.058-0.094-0.087
		c0.021,0.005,0.047,0.003,0.057,0.016c0.017,0.021,0.022,0.05,0.034,0.075L18.753,32.154z"/>
	<path fill-rule="evenodd" clip-rule="evenodd" fill="#73B0C0" d="M17.9,10.907c0.031-0.029,0.065-0.057,0.099-0.084
		c-0.007,0.02-0.007,0.047-0.02,0.057c-0.02,0.017-0.05,0.021-0.075,0.031L17.9,10.907z"/>
	<path fill-rule="evenodd" clip-rule="evenodd" fill="#73B0C0" d="M18.751,10.058c-0.031,0.03-0.062,0.06-0.092,0.09
		c0.005-0.02,0.003-0.048,0.017-0.058C18.695,10.073,18.726,10.068,18.751,10.058L18.751,10.058z"/>
	<path fill-rule="evenodd" clip-rule="evenodd" fill="#76B1C1" d="M38.935,6.448c0.025,0.011,0.054,0.017,0.074,0.033
		c0.014,0.01,0.011,0.037,0.016,0.056c-0.027-0.031-0.057-0.063-0.086-0.094L38.935,6.448z"/>
	<path fill-rule="evenodd" clip-rule="evenodd" fill="#76B1C1" d="M15.347,26.422c0.031,0.028,0.063,0.056,0.094,0.084
		c-0.02-0.005-0.043-0.005-0.053-0.018c-0.016-0.02-0.023-0.048-0.033-0.073L15.347,26.422z"/>
	<path fill-rule="evenodd" clip-rule="evenodd" fill="#76B1C1" d="M23.211,6.444c-0.028,0.031-0.058,0.063-0.086,0.094
		c0.004-0.02,0.002-0.046,0.015-0.057c0.021-0.017,0.05-0.023,0.076-0.035L23.211,6.444z"/>
	<path fill-rule="evenodd" clip-rule="evenodd" fill="#54A0BC" d="M22.788,48.729c0-1.131-0.045-2.264,0.214-3.378
		c0.344-0.308,0.165-0.717,0.214-1.083c4.46,0,8.919,0.007,13.378-0.009c0.816-0.003,1.612,0,2.337,0.435
		c-0.002,1.346-0.005,2.692-0.006,4.038c-5.237-0.001-10.473-0.002-15.708-0.004C23.075,48.728,22.932,48.729,22.788,48.729z"/>
	<path fill-rule="evenodd" clip-rule="evenodd" fill="#3093B9" d="M32.989,59.774c-0.485-0.425-0.971-0.85-1.457-1.275
		c-0.587-0.823-0.95-0.274-1.323,0.215c-0.066,0.065-0.133,0.131-0.197,0.197c-0.161,0.102-0.224,0.254-0.219,0.439l0.005-0.004
		c-0.073,0.072-0.145,0.144-0.217,0.216l0.004-0.003c-0.073,0.072-0.145,0.144-0.217,0.216l0.004-0.003
		c-0.072,0.072-0.144,0.144-0.215,0.215l0.002-0.003c-0.072,0.072-0.143,0.144-0.216,0.216l0.004-0.003
		c-0.071,0.072-0.144,0.144-0.215,0.215v-0.005c-0.069-0.007-0.138-0.004-0.207,0.01c-0.068,0.005-0.137,0.01-0.207,0.015
		c0.046-0.602-0.323-0.665-0.802-0.66c-1.432,0.017-2.867,0.006-4.301,0.006c0-1.204,0-2.408,0.001-3.611
		c5.229,0.001,10.463,0.002,15.694,0.003c-0.002,1.063-0.003,2.124-0.005,3.186c-1.56-0.376-3.148-0.188-4.724-0.195
		C33.736,59.158,33.169,59.152,32.989,59.774z"/>
	<path fill-rule="evenodd" clip-rule="evenodd" fill="#2591B8" d="M32.989,59.774c0.18-0.622,0.747-0.616,1.193-0.614
		c1.575,0.007,3.164-0.181,4.726,0.195c0.003,2.051,0.004,4.102,0.007,6.153c-0.061,0.002-0.123,0.004-0.184,0.002
		C36.728,63.688,34.82,61.77,32.989,59.774z"/>
	<path fill-rule="evenodd" clip-rule="evenodd" fill="#76B1C1" d="M23.217,56.167c-0.001,1.204-0.001,2.408-0.001,3.611
		c-0.102,1.761,0.165,3.534-0.177,5.287c-0.055,0.276-0.055,0.59,0.361,0.629l0.03,0.037c-0.121,0.213-0.234,0.435-0.643,0.476
		c0-5.836,0-11.657,0-17.478c0.144,0,0.287-0.001,0.429-0.001c0,1.205,0,2.409-0.001,3.614
		C23.217,53.617,23.217,54.891,23.217,56.167z"/>
	<path fill-rule="evenodd" clip-rule="evenodd" fill="#76B1C1" d="M38.915,65.508c-0.003-2.051-0.004-4.102-0.007-6.153
		c0-1.062,0.001-2.123,0.003-3.186c0.002-1.204,0.005-2.408,0.006-3.612c0.001-1.275,0.005-2.549,0.008-3.825
		c0.001-1.346,0.004-2.692,0.006-4.038c0.001-1.984,0.001-3.968,0.003-5.951c0.07-0.003,0.142-0.004,0.214-0.006
		c0,8.821,0,17.643,0,26.465c0,0.212,0.016,0.425-0.005,0.635c-0.013,0.138,0.086,0.417-0.227,0.316
		c-0.188-0.062-0.18-0.281-0.188-0.457C38.79,65.633,38.853,65.57,38.915,65.508z"/>
	<path fill-rule="evenodd" clip-rule="evenodd" fill="#73B0C0" d="M28.318,60.431c0.07-0.004,0.139-0.009,0.207-0.015
		c0.07,0.07,0.139,0.14,0.207,0.209c-1.605,1.639-3.21,3.28-4.826,4.909c-0.112,0.112-0.316,0.133-0.476,0.196
		c0,0-0.03-0.037-0.03-0.036c0.065-0.463,0.453-0.692,0.738-0.987C25.527,63.277,26.924,61.856,28.318,60.431z"/>
	<path fill-rule="evenodd" clip-rule="evenodd" fill="#76B1C1" d="M23.216,44.269c-0.049,0.366,0.13,0.774-0.214,1.083
		c-0.384-0.425-0.194-0.945-0.201-1.418c-0.025-1.729-0.011-3.458-0.011-5.187c0.177-0.006,0.335,0.03,0.432,0.2
		C23.221,40.72,23.218,42.494,23.216,44.269z"/>
	<path fill-rule="evenodd" clip-rule="evenodd" fill="#76B1C1" d="M30.209,58.714c0.373-0.489,0.736-1.039,1.323-0.215
		C31.092,58.57,30.648,58.642,30.209,58.714z"/>
	<path fill-rule="evenodd" clip-rule="evenodd" fill="#76B1C1" d="M29.793,59.35c-0.005-0.185,0.058-0.337,0.219-0.439
		C30.013,59.094,29.979,59.261,29.793,59.35z"/>
	<path fill-rule="evenodd" clip-rule="evenodd" fill="#76B1C1" d="M29.581,59.562c0.072-0.072,0.144-0.144,0.217-0.216
		C29.725,59.418,29.653,59.49,29.581,59.562z"/>
	<path fill-rule="evenodd" clip-rule="evenodd" fill="#76B1C1" d="M29.368,59.775c0.072-0.072,0.144-0.144,0.217-0.216
		C29.512,59.631,29.44,59.703,29.368,59.775z"/>
	<path fill-rule="evenodd" clip-rule="evenodd" fill="#76B1C1" d="M29.157,59.987c0.071-0.072,0.143-0.144,0.215-0.215
		C29.3,59.843,29.229,59.915,29.157,59.987z"/>
	<path fill-rule="evenodd" clip-rule="evenodd" fill="#76B1C1" d="M28.943,60.199c0.073-0.072,0.144-0.144,0.216-0.216
		C29.087,60.056,29.017,60.127,28.943,60.199z"/>
	<path fill-rule="evenodd" clip-rule="evenodd" fill="#76B1C1" d="M28.732,60.412c0.071-0.071,0.144-0.144,0.215-0.215
		C28.876,60.268,28.804,60.34,28.732,60.412z"/>
	<path fill-rule="evenodd" clip-rule="evenodd" fill="#76B1C1" d="M28.732,60.625c-0.068-0.069-0.137-0.139-0.207-0.209
		c0.069-0.014,0.138-0.017,0.207-0.01C28.732,60.479,28.732,60.552,28.732,60.625z"/>
	<path fill-rule="evenodd" clip-rule="evenodd" fill="#3C97BA" d="M38.915,65.508c-0.063,0.063-0.125,0.125-0.187,0.188
		c0.001-0.062,0.002-0.123,0.003-0.185C38.792,65.512,38.854,65.51,38.915,65.508z"/>
	<path fill-rule="evenodd" clip-rule="evenodd" fill="#2591B8" d="M45.314,13.037c-0.184-0.088-0.228-0.247-0.219-0.432
		C45.278,12.692,45.314,12.856,45.314,13.037z"/>
	<path fill-rule="evenodd" clip-rule="evenodd" fill="#2591B8" d="M45.096,29.61c-0.009-0.186,0.036-0.344,0.219-0.433
		C45.314,29.357,45.278,29.52,45.096,29.61z"/>
	<path fill-rule="evenodd" clip-rule="evenodd" fill="#FAFCFD" d="M23.01,16.417c-1.037-0.431-2.127-0.075-3.185-0.216
		c-0.122-1.162,0.579-2.108,0.833-3.171c0.737-1.186,1.705-2.162,2.81-2.996c2.853-2.148,6.168-2.66,9.561-2.25
		c3.075,0.372,5.799,1.668,7.796,4.23c0.873,1.118,1.124,2.502,1.845,3.672c0.219,0.356-0.078,0.474-0.408,0.518
		c-0.546,0.072-1.132-0.178-1.642,0.196c-0.659,1.96-1.318,3.92-2.052,6.1c-0.551-1.582-1.042-2.969-1.514-4.362
		c-0.646-1.896-0.64-1.865-2.59-1.861c-0.713,0.001-0.894,0.24-0.883,0.92c0.036,2.475,0.038,4.951-0.002,7.425
		c-0.011,0.717,0.153,0.98,0.924,0.975c0.757-0.005,1.066-0.146,1.028-0.987c-0.07-1.583-0.021-3.173-0.021-4.76
		c0.765,1.611,1.357,3.227,1.9,4.859c0.184,0.555,0.354,0.894,1.06,0.891c0.712-0.003,0.96-0.287,1.158-0.905
		c0.532-1.65,1.14-3.276,1.716-4.911c0.168,0.998,0.125,1.954,0.179,2.904c0.058,0.968-0.244,1.961,0.173,2.907
		c0.046,0.417-0.152,0.761-0.351,1.093c-2.175,3.629-5.42,5.521-9.597,5.89c-0.012-1.512-0.043-3.024-0.025-4.536
		c0.006-0.548-0.087-0.829-0.736-0.823c-0.64,0.005-0.75,0.272-0.745,0.827c0.01,1.652-0.025,3.305-0.043,4.957
		c-3.581-0.271-6.453-1.86-8.677-4.658c-0.658-0.825-1.382-1.613-1.493-2.735c1.021-0.146,0.526-0.94,0.538-1.423
		c0.052-2.132,0.021-2.132,2.095-2.23c1.694-0.08,2.707-1.006,2.811-2.568C25.584,17.716,24.771,16.736,23.01,16.417z
		 M29.022,25.781c0.208,0,0.35,0.004,0.491-0.001c1.774-0.078,2.949-1.08,3.159-2.695c0.187-1.427-0.54-2.338-2.319-2.922
		c-0.436-0.144-0.873-0.287-1.296-0.459c-0.352-0.142-0.588-0.397-0.555-0.813c0.038-0.463,0.357-0.666,0.756-0.773
		c0.386-0.104,0.859-0.177,1.143,0.038c0.958,0.729,1.341-0.054,1.861-0.588c0.435-0.448,0.271-0.703-0.211-0.947
		c-1.27-0.647-2.573-0.728-3.895-0.209c-1.201,0.472-1.902,1.501-1.893,2.69c0.01,1.126,0.618,1.887,1.927,2.383
		c0.561,0.213,1.137,0.385,1.696,0.603c0.387,0.149,0.684,0.424,0.658,0.869c-0.028,0.495-0.401,0.729-0.83,0.849
		c-0.663,0.186-1.289,0.027-1.788-0.41c-0.386-0.339-0.588-0.307-0.938,0.059c-1.163,1.215-1.091,1.561,0.535,2.102
		C28.031,25.723,28.55,25.832,29.022,25.781z"/>
	<path fill-rule="evenodd" clip-rule="evenodd" fill="#B9D5DE" d="M40.619,16.4c0.51-0.375,1.096-0.124,1.642-0.196
		c0.33-0.044,0.627-0.161,0.408-0.518c-0.721-1.17-0.972-2.554-1.845-3.672c-1.997-2.562-4.721-3.858-7.796-4.23
		c-3.393-0.41-6.708,0.101-9.561,2.25c-1.104,0.833-2.072,1.81-2.81,2.996c-1.135,0.754-1.397,2.029-1.893,3.165
		c-0.812-0.129-0.25-0.659-0.163-0.863c0.774-1.806,1.861-3.426,3.339-4.722c2.827-2.482,6.177-3.747,9.919-3.495
		c6.513,0.439,11.745,4.915,12.743,11.56c0.68,4.529-0.633,8.648-4.003,11.892c-2.354,2.266-5.187,3.5-8.518,3.749
		c-5.678,0.425-10.861-2.704-13.219-7.664c-0.168-0.351-0.379-0.685-0.322-1.101c0.142,0.016,0.285,0.032,0.428,0.048
		c0.205,0.595,0.212,1.291,0.846,1.669h0.001c0.001,0.277,0.141,0.42,0.419,0.43c0.001,0.069,0.002,0.138,0.004,0.207
		c0.003,0.278,0.144,0.42,0.422,0.429c0.001,0.069,0.002,0.138,0.004,0.208c0.012,0.435,0.291,0.668,0.64,0.849
		c0.341,0.508,0.765,0.934,1.274,1.274c0.343,0.569,0.867,0.881,1.487,1.063h-0.001c1.023,0.954,2.283,1.402,3.615,1.695
		c0.142,0.002,0.28,0.004,0.42,0.005c0.092,0.177,0.252,0.213,0.433,0.206c0.138,0.001,0.277,0.001,0.416,0.003
		c0.443,0.341,0.88,0.337,1.306-0.031c0.48,0.007,0.963,0.014,1.445,0.021c0.379,0.399,0.867,0.265,1.291,0.182
		c2.697-0.529,5.179-1.533,7.143-3.538c1.323-1.351,2.633-2.726,3.047-4.676c0.358-0.199,0.258-0.547,0.258-0.849
		c0.005-2.461-0.032-4.924,0.019-7.384c0.019-0.833-0.289-1.042-1.043-0.971C41.821,16.446,41.219,16.401,40.619,16.4z
		 M43.787,17.635c-0.128,2.037-0.273,4.068,0.057,6.09C44.378,21.69,44.402,19.657,43.787,17.635z"/>
	<path fill-rule="evenodd" clip-rule="evenodd" fill="#2591B8" d="M18.97,25.599c-0.143-0.016-0.286-0.032-0.428-0.048
		c-0.022-0.288-0.045-0.577-0.066-0.865c0-2.599,0-5.197,0-7.796c0.101-0.53,0.506-0.471,0.891-0.47
		c1.214,0.002,2.428-0.001,3.644-0.002c1.761,0.319,2.574,1.299,2.463,2.971c-0.104,1.562-1.116,2.488-2.811,2.568
		c-2.073,0.098-2.043,0.099-2.095,2.23c-0.012,0.483,0.482,1.277-0.538,1.423c-0.211,0-0.422,0-0.634-0.001
		C19.254,25.605,19.112,25.602,18.97,25.599z M21.447,20.241c0.937-0.007,1.853-0.057,1.835-1.108
		c-0.019-1.075-0.99-0.95-1.766-1.047c-0.937-0.117-0.999,0.359-1.024,1.109C20.465,20.035,20.707,20.406,21.447,20.241z"/>
	<path fill-rule="evenodd" clip-rule="evenodd" fill="#D1E3E9" d="M18.476,16.89c0,2.599,0,5.198,0,7.796
		c-0.885-0.497-0.624-1.456-0.709-2.163c-0.194-1.631-0.222-3.303,0.218-4.924C18.056,17.336,18.018,16.918,18.476,16.89z"/>
	<path fill-rule="evenodd" clip-rule="evenodd" fill="#D1E3E9" d="M18.766,16.194c0.495-1.136,0.758-2.411,1.893-3.165
		c-0.254,1.063-0.955,2.009-0.833,3.171C19.474,16.198,19.119,16.197,18.766,16.194z"/>
	<path fill-rule="evenodd" clip-rule="evenodd" fill="#61A5BD" d="M23.216,44.269c0.002-1.775,0.005-3.549,0.006-5.323
		c1.719,0.492,3.402,1.071,5.194,1.332c3.154,0.459,6.169-0.001,9.147-0.974c0.468-0.153,0.914-0.373,1.37-0.561
		c-0.002,1.983-0.002,3.967-0.003,5.951c-0.725-0.435-1.521-0.438-2.337-0.435C32.135,44.275,27.676,44.268,23.216,44.269z"/>
	<path fill-rule="evenodd" clip-rule="evenodd" fill="#479BBB" d="M38.925,48.732c-0.003,1.276-0.007,2.55-0.008,3.825
		c-1.316-0.289-2.652-0.213-3.982-0.215c-3.906-0.004-7.813-0.001-11.719,0c0.001-1.205,0.001-2.409,0.001-3.614
		C28.452,48.73,33.688,48.731,38.925,48.732z"/>
	<path fill-rule="evenodd" clip-rule="evenodd" fill="#3C97BA" d="M23.216,52.342c3.905,0,7.813-0.003,11.719,0
		c1.33,0.001,2.666-0.074,3.982,0.215c-0.001,1.205-0.004,2.409-0.006,3.612c-5.231,0-10.465-0.002-15.694-0.003
		C23.217,54.891,23.217,53.617,23.216,52.342z"/>
	<path fill-rule="evenodd" clip-rule="evenodd" fill="#2591B8" d="M28.318,60.431c-1.395,1.425-2.791,2.846-4.18,4.276
		c-0.285,0.295-0.673,0.524-0.738,0.987c-0.416-0.04-0.416-0.354-0.361-0.63c0.342-1.753,0.075-3.526,0.177-5.287
		c1.434,0,2.869,0.01,4.301-0.006C27.995,59.767,28.364,59.829,28.318,60.431z"/>
	<path fill-rule="evenodd" clip-rule="evenodd" fill="#2591B8" d="M40.619,16.4c0.6,0,1.202,0.045,1.795-0.009
		c0.754-0.071,1.062,0.139,1.043,0.971c-0.051,2.46-0.014,4.923-0.019,7.384c0,0.302,0.101,0.649-0.258,0.849
		c-0.212,0.002-0.425,0.003-0.638,0.005c-0.282-0.002-0.564-0.004-0.847-0.006c-0.417-0.945-0.115-1.938-0.173-2.907
		c-0.054-0.95-0.011-1.906-0.179-2.904c-0.576,1.635-1.184,3.261-1.716,4.911c-0.198,0.619-0.446,0.902-1.158,0.905
		c-0.706,0.003-0.876-0.336-1.06-0.891c-0.543-1.633-1.136-3.248-1.9-4.859c0,1.587-0.05,3.177,0.021,4.76
		c0.038,0.841-0.271,0.981-1.028,0.987c-0.771,0.006-0.935-0.258-0.924-0.975c0.04-2.475,0.038-4.951,0.002-7.425
		c-0.011-0.681,0.17-0.919,0.883-0.92c1.95-0.004,1.944-0.035,2.59,1.861c0.472,1.393,0.963,2.78,1.514,4.362
		C39.301,20.32,39.96,18.36,40.619,16.4z"/>
	<path fill-rule="evenodd" clip-rule="evenodd" fill="#2591B8" d="M29.022,25.781c-0.473,0.05-0.991-0.058-1.498-0.227
		c-1.626-0.542-1.698-0.887-0.535-2.102c0.351-0.366,0.553-0.397,0.938-0.059c0.499,0.438,1.125,0.596,1.788,0.41
		c0.429-0.12,0.802-0.354,0.83-0.849c0.025-0.445-0.271-0.72-0.658-0.869c-0.56-0.217-1.136-0.39-1.696-0.603
		c-1.309-0.496-1.917-1.257-1.927-2.383c-0.01-1.188,0.691-2.218,1.893-2.69c1.321-0.518,2.625-0.438,3.895,0.209
		c0.481,0.244,0.646,0.499,0.211,0.947c-0.521,0.534-0.903,1.317-1.861,0.588c-0.283-0.214-0.757-0.141-1.143-0.038
		c-0.398,0.108-0.718,0.31-0.756,0.773c-0.033,0.416,0.203,0.671,0.555,0.813c0.423,0.173,0.86,0.316,1.296,0.459
		c1.779,0.583,2.506,1.495,2.319,2.922c-0.21,1.615-1.385,2.617-3.159,2.695C29.372,25.786,29.23,25.781,29.022,25.781z"/>
	<path fill-rule="evenodd" clip-rule="evenodd" fill="#2591B8" d="M31.7,33.626c-0.482-0.007-0.965-0.013-1.445-0.021
		c-0.003-0.063-0.019-0.124-0.049-0.18c-0.004-0.141-0.006-0.282-0.007-0.423c0.018-1.652,0.053-3.305,0.043-4.957
		c-0.005-0.555,0.105-0.822,0.745-0.827c0.649-0.006,0.742,0.275,0.736,0.823c-0.018,1.512,0.014,3.024,0.025,4.536
		c-0.002,0.211-0.004,0.423-0.005,0.635C31.729,33.351,31.714,33.489,31.7,33.626z"/>
	<path fill-rule="evenodd" clip-rule="evenodd" fill="#ECF4F7" d="M31.744,33.212c0.001-0.212,0.003-0.423,0.005-0.635
		c4.177-0.368,7.422-2.261,9.597-5.89c0.198-0.332,0.396-0.677,0.351-1.093c0.282,0.002,0.564,0.004,0.847,0.006
		C41.143,29.718,36.156,33.233,31.744,33.212z"/>
	<path fill-rule="evenodd" clip-rule="evenodd" fill="#ECF4F7" d="M30.199,33.003c0.001,0.141,0.003,0.282,0.007,0.423
		c-0.419,0.073-0.89-0.168-1.257,0.21c-0.139-0.001-0.278-0.002-0.417-0.002c-0.049-0.269-0.1-0.531-0.432-0.207
		c-0.14-0.001-0.278-0.003-0.42-0.005c-1.065-0.865-2.326-1.308-3.615-1.695h0.001c-0.212-0.752-0.8-0.977-1.487-1.063
		c-0.51-0.34-0.934-0.766-1.274-1.274c0.019-0.458-0.091-0.819-0.64-0.849c-0.002-0.069-0.003-0.139-0.004-0.208
		c0-0.281-0.142-0.422-0.422-0.429c-0.002-0.069-0.003-0.138-0.004-0.207c0.001-0.282-0.141-0.423-0.419-0.43c0,0-0.001,0-0.001,0
		c0.097-0.613-0.501-1.05-0.42-1.66c0.212,0.001,0.423,0.001,0.634,0.001c0.111,1.123,0.835,1.911,1.493,2.735
		C23.746,31.143,26.618,32.731,30.199,33.003z"/>
	<path fill-rule="evenodd" clip-rule="evenodd" fill="#D1E3E9" d="M31.744,33.212c4.412,0.021,9.398-3.495,10.799-7.612
		c0.213-0.002,0.426-0.003,0.638-0.005c-0.414,1.95-1.724,3.325-3.047,4.676c-1.964,2.005-4.445,3.009-7.143,3.538
		c-0.424,0.083-0.912,0.217-1.291-0.182C31.714,33.489,31.729,33.351,31.744,33.212z"/>
	<path fill-rule="evenodd" clip-rule="evenodd" fill="#D1E3E9" d="M43.787,17.635c0.615,2.021,0.591,4.055,0.057,6.09
		C43.514,21.704,43.659,19.672,43.787,17.635z"/>
	<path fill-rule="evenodd" clip-rule="evenodd" fill="#D1E3E9" d="M24.065,31.728c1.289,0.387,2.55,0.83,3.615,1.695
		C26.349,33.13,25.089,32.682,24.065,31.728z"/>
	<path fill-rule="evenodd" clip-rule="evenodd" fill="#D1E3E9" d="M22.579,30.665c0.688,0.086,1.275,0.311,1.487,1.063
		C23.446,31.545,22.922,31.233,22.579,30.665z"/>
	<path fill-rule="evenodd" clip-rule="evenodd" fill="#D1E3E9" d="M19.396,25.608c-0.081,0.61,0.517,1.047,0.42,1.66
		c-0.634-0.378-0.641-1.075-0.846-1.669C19.112,25.602,19.254,25.605,19.396,25.608z"/>
	<path fill-rule="evenodd" clip-rule="evenodd" fill="#D1E3E9" d="M28.949,33.637c0.367-0.378,0.838-0.138,1.257-0.21
		c0.03,0.056,0.046,0.116,0.049,0.18C29.829,33.974,29.393,33.978,28.949,33.637z"/>
	<path fill-rule="evenodd" clip-rule="evenodd" fill="#D1E3E9" d="M20.665,28.542c0.549,0.03,0.658,0.392,0.64,0.849
		C20.956,29.209,20.677,28.976,20.665,28.542z"/>
	<path fill-rule="evenodd" clip-rule="evenodd" fill="#D1E3E9" d="M19.816,27.268c0.278,0.007,0.42,0.148,0.419,0.43
		C19.957,27.688,19.817,27.545,19.816,27.268z"/>
	<path fill-rule="evenodd" clip-rule="evenodd" fill="#D1E3E9" d="M20.239,27.905c0.28,0.007,0.422,0.148,0.422,0.429
		C20.383,28.325,20.242,28.183,20.239,27.905z"/>
	<path fill-rule="evenodd" clip-rule="evenodd" fill="#D1E3E9" d="M28.101,33.428c0.332-0.325,0.383-0.062,0.432,0.207
		C28.353,33.641,28.192,33.605,28.101,33.428z"/>
	<path fill-rule="evenodd" clip-rule="evenodd" fill="#ECF4F7" d="M21.447,20.241c-0.74,0.165-0.982-0.207-0.955-1.046
		c0.025-0.75,0.088-1.226,1.024-1.109c0.775,0.098,1.747-0.028,1.766,1.047C23.3,20.185,22.384,20.234,21.447,20.241z"/>
</g>
</svg>
