<?xml version="1.0" encoding="utf-8"?>
<!-- Generator: Adobe Illustrator 16.0.0, SVG Export Plug-In . SVG Version: 6.00 Build 0)  -->
<!DOCTYPE svg PUBLIC "-//W3C//DTD SVG 1.1//EN" "http://www.w3.org/Graphics/SVG/1.1/DTD/svg11.dtd">
<svg version="1.1" id="Layer_1" xmlns="http://www.w3.org/2000/svg" xmlns:xlink="http://www.w3.org/1999/xlink" x="0px" y="0px"
	 width="411.293px" height="466.784px" viewBox="0 0 411.293 466.784" enable-background="new 0 0 411.293 466.784"
	 xml:space="preserve">
<path fill-rule="evenodd" clip-rule="evenodd" fill="#B1AFAE" d="M971.876-27.421c-63.325-1.949-126.667-0.356-189.999-0.888
	c-0.997-0.009-1.993-0.095-2.99-0.145c-0.027-0.276-0.047-0.556-0.059-0.835c-0.008-0.342-0.015-0.684-0.022-1.025
	c1.071-0.242,2.208-0.417,2.011-1.96c60.014,0,120.027,0,180.041,0c-0.046,1.993,1.45,1.797,2.737,1.968
	c2.764,0.367,5.521,0.782,8.279,1.178C971.874-28.56,971.875-27.989,971.876-27.421z"/>
<path fill-rule="evenodd" clip-rule="evenodd" fill="#FEFEFE" d="M772.814,149.769c0-57.347,0-114.693,0-172.039
	c0.604,0.018,1.207,0.035,1.812,0.052c0.002-0.001,0.464,0.038,0.464,0.038l0.461-0.044c0.014,57.319,0.029,114.638,0.044,171.956
	c-0.315-0.057-0.632-0.063-0.948-0.014C774.036,149.735,773.426,149.751,772.814,149.769z"/>
<path fill-rule="evenodd" clip-rule="evenodd" fill="#F0F0F1" d="M1123.082,131.716c0.938,0.016,1.875,0.032,2.813,0.049
	c0,7.334,0,14.67,0,22.004c-0.945,0.011-1.889,0.021-2.836,0.031C1123.064,146.438,1123.074,139.077,1123.082,131.716z"/>
<path fill-rule="evenodd" clip-rule="evenodd" fill="#F0F0F1" d="M971.874-29.128c-2.759-0.396-5.516-0.811-8.279-1.178
	c-1.287-0.171-2.783,0.025-2.737-1.968c5.001,0,10.003,0,15.003,0c0.001,0.996,0.002,1.991,0.002,2.988
	C974.532-29.233,973.204-29.181,971.874-29.128z"/>
<path fill-rule="evenodd" clip-rule="evenodd" fill="#F0F0F1" d="M772.814,149.769c0.611-0.018,1.222-0.033,1.834-0.05
	c0.344,4.359,0.686,8.717,1.027,13.077c-0.954-0.008-1.908-0.016-2.861-0.025C772.814,158.436,772.814,154.103,772.814,149.769z"/>
<path fill-rule="evenodd" clip-rule="evenodd" fill="#F0F0F1" d="M774.625-22.218c-0.604-0.018-1.207-0.035-1.811-0.053
	c0-2.668,0-5.335,0-8.002c1.445,0,2.441-0.673,3.001-2.001c1.667,0,3.334,0,5.001,0c0.197,1.543-0.939,1.718-2.011,1.96
	c-0.337,0.003-0.675,0.006-1.013,0.008C773.48-28.886,775.387-25.029,774.625-22.218z"/>
<path fill-rule="evenodd" clip-rule="evenodd" fill="#FEFEFE" d="M775.815-32.273c-0.56,1.328-1.556,2.001-3.001,2.001
	C772.202-33.358,774.546-32.01,775.815-32.273z"/>
<path fill-rule="evenodd" clip-rule="evenodd" fill="#2A4665" d="M780.879,158.624c-0.061-59.338-0.076-118.679-0.277-178.018
	c-0.014-4.398,0.873-5.821,5.62-5.804c53.344,0.191,106.688,0.122,160.032,0.114c1.832-0.001,3.662-0.092,5.493-0.142
	c2.266,1.106,4.627,0.574,6.969,0.404c3.012,0.199,6.024,0.398,9.037,0.598c0.663,0.137,1.326,0.273,1.989,0.41
	c1.969,0.211,3.938,0.422,5.906,0.632c0.374,0.127,0.749,0.254,1.123,0.381c1.343,0.187,2.686,0.373,4.027,0.56
	c0.666,0.183,1.332,0.365,1.998,0.549c0.986,0.155,1.971,0.312,2.957,0.469c0.324,0.1,0.65,0.199,0.975,0.299
	c1.059,0.215,2.115,0.428,3.174,0.643c0.641,0.23,1.283,0.459,1.924,0.689c42.836,11.922,76.445,36.371,100.393,73.939
	c8.996,14.113,15.379,29.377,19.939,45.438c0.25,0.645,0.498,1.289,0.746,1.934c0.104,0.693,0.207,1.387,0.311,2.08
	c0.219,0.669,0.438,1.338,0.656,2.008c0.59,3.046,1.18,6.093,1.771,9.139c-0.068,0.106-0.219,0.25-0.189,0.313
	c0.098,0.219,0.258,0.409,0.393,0.611c0.143,1.317,0.283,2.636,0.426,3.952c-0.23,1.086,0.004,2.081,0.594,3.006
	c0.135,2,0.271,4,0.406,5.999c0.008,1.386-0.426,2.833,0.561,4.084c0,7.238,0,14.476,0,21.713c-0.986,1.252-0.553,2.697-0.561,4.084
	c-0.135,2-0.271,4-0.406,5.998c-0.59,0.926-0.824,1.92-0.594,3.008c-0.143,1.316-0.283,2.633-0.426,3.951
	c-0.096,0.08-0.27,0.156-0.275,0.244c-0.016,0.223,0.043,0.453,0.072,0.68c-0.59,3.045-1.182,6.092-1.771,9.137
	c-0.109,0.307-0.217,0.613-0.326,0.92c-0.213,1.057-0.428,2.113-0.641,3.17c-0.248,0.645-0.496,1.289-0.746,1.934
	c-11.324,39.908-33.895,71.825-68.029,95.452c-15.992,11.07-33.568,18.771-52.299,23.899c-0.656,0.232-1.313,0.465-1.971,0.699
	c-1.102-0.059-2.191-0.057-3.131,0.658c-0.324,0.1-0.65,0.199-0.975,0.299c-0.979,0.133-1.959,0.265-2.938,0.397
	c-0.688,0.201-1.373,0.402-2.061,0.604c-1.328,0.176-2.656,0.352-3.984,0.527c-0.658,0.164-1.316,0.326-1.976,0.49
	c-1.676,0.17-3.352,0.34-5.027,0.51c-0.752-0.154-1.484-0.217-2.054,0.457c-2.979,0.162-5.959,0.324-8.938,0.486
	c-6.271,0.021-12.544,0.043-18.815,0.063c-3.001-0.178-6.002-0.355-9.004-0.533c-0.918-0.707-1.963-0.748-3.047-0.576
	c-1.616-0.154-3.232-0.311-4.85-0.467c-0.374-0.127-0.748-0.254-1.123-0.381c-1.361-0.178-2.723-0.357-4.084-0.535
	c-0.646-0.191-1.294-0.383-1.94-0.572c-1.021-0.145-2.04-0.286-3.061-0.429c-0.655-0.223-1.312-0.447-1.967-0.672
	c-2.026-0.436-4.053-0.873-6.079-1.311c-0.643-0.238-1.286-0.477-1.929-0.715c-39.187-11.818-70.558-34.382-93.669-68.244
	c-10.3-15.092-17.615-31.592-22.688-49.113c-0.238-0.643-0.477-1.285-0.715-1.928c-0.104-0.693-0.208-1.387-0.312-2.078
	c-0.229-0.641-0.46-1.281-0.689-1.922c-0.172-1.043-0.344-2.084-0.516-3.125c-0.137-0.354-0.274-0.709-0.411-1.063
	c-0.196-1.314-0.393-2.627-0.59-3.939c-0.137-0.354-0.273-0.707-0.41-1.063c-0.146-1.303-0.293-2.605-0.439-3.908
	c0.209-0.814,0.086-1.547-0.533-2.156c-0.156-1.949-0.312-3.9-0.468-5.852C781.549,160.627,781.717,159.536,780.879,158.624z
	 M1100.07,143.861c0.078-81.556-65.313-150.784-151.002-150.586c-87.881,0.202-152.563,72.898-150.38,154.726
	c2.079,77.972,65.712,146.813,152.018,146.67C1032.758,294.535,1100.205,226.43,1100.07,143.861z M835.534,8.181
	c0-5.15-0.024-10.301,0.011-15.451c0.017-2.605-0.94-3.988-3.807-3.967c-10.301,0.082-20.604,0.074-30.904,0.005
	c-2.783-0.019-3.945,1.276-3.945,3.9c-0.003,10.136,0.018,20.271-0.016,30.405c-0.009,2.859,1.252,4.365,4.162,4.365
	c10.135,0.002,20.27,0.004,30.405-0.003c2.851-0.002,4.204-1.313,4.129-4.302C835.443,18.153,835.535,13.166,835.534,8.181z"/>
<path fill-rule="evenodd" clip-rule="evenodd" fill="#D4D3D2" d="M1061.781,274.697c8.814-9.414,18.297-18.191,26.008-28.645
	c11.621-15.752,20.066-33.036,26.023-51.612c0.193-0.604,0.609-1.137,0.924-1.703c0.385,0.014,0.77,0.025,1.154,0.039
	c-0.295,1.342-0.59,2.686-0.885,4.025c-2.742,11.385-8.082,21.658-13.633,31.842c-8.967,16.455-20.744,30.682-34.342,43.483
	c-1.459,1.373-2.754,2.943-5.037,2.781L1061.781,274.697z"/>
<path fill-rule="evenodd" clip-rule="evenodd" fill="#B9B7B7" d="M1108.814,72.778c0.391,0.988,0.781,1.976,1.172,2.963
	c0.594,1.714,1.361,3.391,1.748,5.15c0.764,3.479,3.449,6.58,2.117,10.477c-2.143-5.2-4.236-10.422-6.436-15.598
	c-9.439-22.203-23.434-41.221-40.65-57.975c0.568-0.107,1.135-0.213,1.701-0.32c0.787,0.129,1.574,0.256,2.361,0.384
	c1.328,1.956,2.975,3.598,4.918,4.945c0.811,2.76,2.984,4.337,5.143,5.931c0.568,1.386,1.598,2.342,2.879,3.059
	c0.176,1.364,0.773,2.418,2.131,2.92c0.314,0.35,0.631,0.697,0.945,1.047c0.104,1.391,0.738,2.408,2.057,2.95
	c1.668,2.343,3.338,4.685,5.006,7.027c0.025,1.418,0.658,2.442,1.963,3.032c0,0-0.01-0.007-0.01-0.008
	c0.039,1.257,0.748,1.934,1.912,2.22c-0.023,0.265,0.016,0.519,0.117,0.765c0.285,1.872,0.881,3.541,2.844,4.307
	c-0.039,0.244-0.008,0.479,0.094,0.704C1102.934,62.376,1105.674,67.677,1108.814,72.778z"/>
<path fill-rule="evenodd" clip-rule="evenodd" fill="#D4D3D2" d="M832.809,270.855c12.276,10.768,25.479,20.184,40.153,27.439
	c10.579,5.23,21.832,8.678,32.98,12.397c0.603,0.201,1.333,0.213,1.495,1.357c-1.418,1.586-2.988,0.105-4.287-0.256
	c-25.126-6.972-47.738-18.733-67.528-35.78c-1.22-1.051-2.721-2.021-2.886-3.91C832.762,271.685,832.785,271.271,832.809,270.855z"
	/>
<path fill-rule="evenodd" clip-rule="evenodd" fill="#ADAAA9" d="M775.595,149.731c-0.015-57.318-0.03-114.637-0.042-171.957
	c0.398-0.002,0.796-0.003,1.193-0.005c0.047,39.991,0.115,79.983,0.131,119.975c0.008,17.327-0.096,34.655-0.149,51.983
	C776.351,149.729,775.973,149.73,775.595,149.731z"/>
<path fill-rule="evenodd" clip-rule="evenodd" fill="#ADAAA9" d="M971.874-29.128c1.33-0.053,2.658-0.105,3.988-0.157
	c0.646,0.052,1.295,0.104,1.941,0.157c2.538,1.274,5.216,1.916,8.065,1.791c0.646,0.071,1.291,0.143,1.939,0.213
	c0.416,0.256,0.799,0.646,1.25,0.751c12.137,2.821,23.758,7.087,35.023,12.367c1.66,0.777,3.465,1.415,3.244,3.793
	c-11.074-4.462-21.938-9.515-33.639-12.244c-7.262-1.694-14.541-3.311-21.812-4.962C971.875-27.989,971.874-28.56,971.874-29.128z"
	/>
<path fill-rule="evenodd" clip-rule="evenodd" fill="#CCCACA" d="M1123.082,131.716c-0.008,7.361-0.018,14.723-0.023,22.084
	c-0.061,2.322-0.125,4.642-0.188,6.962c-1.33,1.129-0.869,2.623-0.82,4.031c-0.066,1.322-0.131,2.645-0.195,3.967
	c-0.773,0.488-0.908,1.213-0.75,2.045c-0.084,1.318-0.166,2.637-0.248,3.957c-0.77,0.486-0.9,1.215-0.773,2.041
	c-0.754,4.284-1.51,8.565-2.262,12.848c-0.648,0.043-1.299,0.086-1.947,0.127c-0.045-6.336,2.031-12.333,3.135-18.471
	c2.299-12.809,1.875-25.681,1.924-38.562c0.428-0.431,0.857-0.862,1.287-1.294C1122.506,131.548,1122.793,131.636,1123.082,131.716z
	"/>
<path fill-rule="evenodd" clip-rule="evenodd" fill="#C4C2C1" d="M775.595,149.731c0.378-0.001,0.756-0.002,1.133-0.004
	c2.308,5.156,0.889,10.732,1.812,16.113c1.732,10.088,3.713,20.083,6.371,29.955c-0.855,0.885-1.533,0.939-2.057-0.348
	c-0.638-1.572-0.689-3.398-1.998-4.686c-0.075-0.652-0.15-1.306-0.224-1.958c0.122-0.832-0.021-1.559-0.804-2.029
	c-0.067-0.658-0.134-1.314-0.199-1.973c0.131-0.834-0.031-1.551-0.801-2.029c-0.068-0.99-0.137-1.98-0.203-2.971
	c0.137-0.832-0.01-1.555-0.785-2.035c-0.053-0.658-0.105-1.316-0.156-1.975c0.096-1.111,0.273-2.248-0.833-3.031
	c-0.066-0.988-0.133-1.979-0.198-2.969c0.067-1.412,0.518-2.906-0.85-4.014c-0.042-0.994-0.083-1.988-0.126-2.982
	c-0.343-4.359-0.685-8.717-1.028-13.077C774.963,149.669,775.279,149.675,775.595,149.731z"/>
<path fill-rule="evenodd" clip-rule="evenodd" fill="#B1AFAE" d="M1068.467,17.476c-0.566,0.107-1.133,0.213-1.701,0.32
	c-11.221-10.443-23.969-18.768-37.012-26.684c0.049-0.516,0.1-1.031,0.148-1.545c3.309,1.412,6.617,2.826,9.926,4.238
	c0,0-0.014-0.022-0.012-0.023c0.584,1.301,1.615,1.935,3.014,2.023l-0.014-0.023c0.576,1.313,1.598,1.961,3.014,2.025l-0.014-0.023
	c0.586,1.303,1.639,1.904,3.021,2.014l-0.014-0.021c0.553,1.32,1.609,1.946,2.971,2.149c0.574,0.326,1.15,0.651,1.729,0.977
	c0.543,1.615,1.508,2.74,3.332,2.872c0,0-0.01-0.014-0.01-0.015c1.59,2.166,3.199,4.309,5.996,5.036c0,0-0.012-0.02-0.012-0.021
	C1064.709,13.01,1066.588,15.243,1068.467,17.476z"/>
<path fill-rule="evenodd" clip-rule="evenodd" fill="#F0F0F1" d="M1039.828-6.194c-3.309-1.412-6.617-2.826-9.926-4.237
	c-0.854,0.058-1.707,0.113-2.561,0.169l-0.016,0.049c0.221-2.377-1.584-3.015-3.244-3.792c-11.266-5.28-22.887-9.546-35.023-12.367
	c-0.451-0.104-0.834-0.495-1.25-0.751c0.596-1.045,1.494-1.134,2.557-0.872c16.93,4.165,32.834,10.848,47.955,19.471
	C1039.279-7.978,1039.842-7.306,1039.828-6.194z"/>
<path fill-rule="evenodd" clip-rule="evenodd" fill="#D4D3D2" d="M984.77,312.729c5.52-2.836,11.73-3.322,17.564-5.114
	c8.746-2.689,16.826-7.021,25.488-9.877l0.121,0.139c-3.094,4.357-8.34,5.146-12.709,6.951c-9.764,4.039-19.807,7.544-30.393,9.005
	C984.818,313.465,984.793,313.096,984.77,312.729z"/>
<path fill-rule="evenodd" clip-rule="evenodd" fill="#E5E4E4" d="M960.86,317.807c-15.431,0.393-30.792-0.262-46.019-2.998
	c0-0.67-0.002-1.338-0.002-2.01c12.693,1.279,25.386,2.576,38.083,3.816c1.961,0.191,3.948,0.121,5.924,0.172
	C959.671,316.824,960.431,316.99,960.86,317.807z"/>
<path fill-rule="evenodd" clip-rule="evenodd" fill="#C4C2C1" d="M1122.221,131.451c-0.43,0.432-0.859,0.863-1.287,1.294
	c-0.865-12.396-3.08-24.563-6.375-36.532c-0.445-1.614-0.904-3.181-0.725-4.866c3.227,0.961,2.008,4.703,4.018,6.424
	c0.066,0.654,0.133,1.31,0.195,1.964c-0.111,0.833,0.043,1.56,0.824,2.03c0.096,0.987,0.191,1.975,0.285,2.961
	c-0.193,0.832-0.035,1.541,0.717,2.039c0.061,0.658,0.121,1.316,0.18,1.975c-0.041,1.409-0.5,2.91,0.881,4.006
	c0.047,0.664,0.094,1.328,0.139,1.992c-0.137,1.115-0.311,2.241,0.787,3.035c0.074,1.322,0.148,2.645,0.221,3.967
	c0.053,1.018,0.105,2.035,0.16,3.055C1122.234,127.013,1122.227,129.231,1122.221,131.451z"/>
<path fill-rule="evenodd" clip-rule="evenodd" fill="#C4C2C1" d="M788.964,214.534c0.085-3.969-3.087-6.895-3.433-10.725
	c0.098-0.719,0.194-1.438,0.291-2.156c1.787,0.676,2.25,2.375,2.759,3.887c2.468,7.344,6.325,14.063,9.384,21.137l-0.291,0.324
	c-0.325,0.018-0.629,0.109-0.91,0.273c-0.32-0.16-0.641-0.322-0.96-0.482c0.009-1.442-0.686-2.442-1.934-3.096
	c-0.694-1.635-1.388-3.271-2.083-4.906C791.548,216.905,791.013,215.217,788.964,214.534z"/>
<path fill-rule="evenodd" clip-rule="evenodd" fill="#E5E4E4" d="M984.77,312.729c0.023,0.367,0.049,0.736,0.072,1.104
	c-7.121,2.525-14.501,3.182-21.99,3.053c0.005-0.691,0.011-1.381,0.016-2.07C970.287,315.381,977.409,312.814,984.77,312.729z"/>
<path fill-rule="evenodd" clip-rule="evenodd" fill="#D4D3D2" d="M1061.994,274.908c-4.145,6.333-9.912,10.543-17.025,12.987
	l-0.184-0.188c5.295-4.822,11.195-8.852,16.998-13.01C1061.781,274.697,1061.994,274.908,1061.994,274.908z"/>
<path fill-rule="evenodd" clip-rule="evenodd" fill="#F0F0F1" d="M1117.852,97.771c-2.01-1.721-0.791-5.463-4.018-6.424
	c0-0.001,0.018,0.021,0.018,0.021c1.332-3.896-1.354-6.998-2.117-10.477c-0.387-1.76-1.154-3.437-1.748-5.15
	c1.387,0.057,2.041,1.029,2.422,2.143c2.07,6.063,4.094,12.143,6.123,18.221C1118.771,96.823,1118.439,97.362,1117.852,97.771z"/>
<path fill-rule="evenodd" clip-rule="evenodd" fill="#F0F0F1" d="M785.822,201.653c-0.097,0.719-0.193,1.438-0.291,2.156
	c-3.599-3.619-4.998-8.023-4.676-13.045c1.309,1.285,1.36,3.111,1.998,4.684c0.523,1.287,1.201,1.232,2.057,0.348
	C785.363,197.725,787.175,199.444,785.822,201.653z"/>
<path fill-rule="evenodd" clip-rule="evenodd" fill="#D4D3D2" d="M1044.969,287.895c-2.492,3.432-5.592,5.835-10.051,5.951
	l-0.082-0.082c2.855-2.775,6.234-4.693,9.949-6.054C1044.785,287.707,1044.969,287.895,1044.969,287.895z"/>
<path fill-rule="evenodd" clip-rule="evenodd" fill="#F0F0F1" d="M939.961,312.291c6.271-0.02,12.544-0.041,18.815-0.063
	C952.508,313.285,946.236,313.188,939.961,312.291z"/>
<path fill-rule="evenodd" clip-rule="evenodd" fill="#CCCACA" d="M797.965,226.677c1.869,2.869,3.949,5.617,5.09,8.904
	c-0.18,0.162-0.362,0.316-0.551,0.465c-2.617-1.805-4.367-4.207-5.045-7.344c0.074-0.566,0.145-1.133,0.215-1.701L797.965,226.677z"
	/>
<path fill-rule="evenodd" clip-rule="evenodd" fill="#C4C2C1" d="M776.746-22.23c-0.397,0.002-0.795,0.003-1.193,0.005
	c-0.002,0.001-0.463,0.045-0.463,0.045s-0.462-0.039-0.464-0.038c0.761-2.811-1.146-6.667,3.167-8.087
	c0.346,0.34,0.69,0.68,1.035,1.018c0.012,0.279,0.031,0.559,0.059,0.835C775.338-27.354,777.477-24.299,776.746-22.23z"/>
<path fill-rule="evenodd" clip-rule="evenodd" fill="#CCCACA" d="M817.979,255.623c1.883,1.834,4.251,3.268,4.976,6.055
	c-0.002,0.002-0.27,0.27-0.27,0.27c-2.899-0.939-4.736-2.797-5.104-5.92C817.717,255.896,817.85,255.761,817.979,255.623z"/>
<path fill-rule="evenodd" clip-rule="evenodd" fill="#F0F0F1" d="M1115.875,189.778c0.648-0.041,1.299-0.084,1.947-0.127
	c-0.082,2.72,0.428,5.675-2.818,7.15c0.297-1.34,0.592-2.684,0.887-4.025c0.002-1.008,0.002-2.016,0.004-3.023L1115.875,189.778z"/>
<path fill-rule="evenodd" clip-rule="evenodd" fill="#D4D3D2" d="M1027.822,297.737c1.748-2.367,4.357-3.21,7.014-3.974l0.082,0.082
	c-1.275,3.164-4.115,3.613-6.977,4.029C1027.943,297.876,1027.822,297.737,1027.822,297.737z"/>
<path fill-rule="evenodd" clip-rule="evenodd" fill="#CCCACA" d="M809.046,244.585c1.649,1.422,3.347,2.807,3.972,5.037
	c-0.169,0.15-0.342,0.293-0.52,0.43c-2.4-0.814-3.721-2.471-3.9-5.016C808.74,244.878,808.89,244.728,809.046,244.585z"/>
<path fill-rule="evenodd" clip-rule="evenodd" fill="#F0F0F1" d="M962.867,314.814c-0.005,0.689-0.011,1.379-0.016,2.07
	c-0.454,0.762-1.191,0.91-1.991,0.922c-0.43-0.816-1.189-0.982-2.014-1.02C959.2,314.123,961.29,314.99,962.867,314.814z"/>
<path fill-rule="evenodd" clip-rule="evenodd" fill="#F0F0F1" d="M775.803,165.778c1.367,1.107,0.917,2.602,0.85,4.014
	C774.06,168.942,774.439,167.463,775.803,165.778z"/>
<path fill-rule="evenodd" clip-rule="evenodd" fill="#F0F0F1" d="M1122.051,164.793c-0.049-1.408-0.51-2.902,0.82-4.031
	C1124.281,162.45,1124.662,163.926,1122.051,164.793z"/>
<path fill-rule="evenodd" clip-rule="evenodd" fill="#CCCACA" d="M815.593,254.03c-2.193-0.424-2.839-2.049-3.091-3.98
	c0.174-0.135,0.347-0.277,0.516-0.428c1.341,1.07,2.619,2.189,3.007,3.982C815.877,253.745,815.734,253.888,815.593,254.03z"/>
<path fill-rule="evenodd" clip-rule="evenodd" fill="#F0F0F1" d="M788.964,214.534c2.049,0.684,2.584,2.371,2.823,4.256
	C789.367,218.352,789.014,216.543,788.964,214.534z"/>
<path fill-rule="evenodd" clip-rule="evenodd" fill="#F0F0F1" d="M914.84,312.799c0,0.672,0.002,1.34,0.002,2.01
	c-1.572-0.189-3.672,0.672-3.994-2.006l-0.002,0.002C912.176,312.803,913.508,312.801,914.84,312.799z"/>
<path fill-rule="evenodd" clip-rule="evenodd" fill="#F0F0F1" d="M958.716-24.821c-2.342,0.17-4.703,0.702-6.969-0.404
	C954.074-25.175,956.44-25.795,958.716-24.821z"/>
<path fill-rule="evenodd" clip-rule="evenodd" fill="#F0F0F1" d="M776.851,172.76c1.106,0.783,0.929,1.92,0.833,3.031
	C775.594,175.278,775.23,174.292,776.851,172.76z"/>
<path fill-rule="evenodd" clip-rule="evenodd" fill="#CCCACA" d="M806.477,242.065c-1.602-0.387-1.801-1.662-1.903-2.998
	c0.151-0.172,0.311-0.336,0.479-0.49c1.032,0.758,1.771,1.711,2.006,3.002C806.871,241.749,806.677,241.911,806.477,242.065z"/>
<path fill-rule="evenodd" clip-rule="evenodd" fill="#F0F0F1" d="M793.869,223.696c1.249,0.654,1.943,1.654,1.935,3.096
	C793.727,226.655,793.792,225.178,793.869,223.696z"/>
<path fill-rule="evenodd" clip-rule="evenodd" fill="#CCCACA" d="M807.059,241.579c1.029,0.762,1.742,1.73,1.984,3.008
	c-0.153,0.141-0.303,0.291-0.445,0.449c-1.631-0.334-1.869-1.656-2.118-2.973C806.677,241.911,806.871,241.749,807.059,241.579z"/>
<path fill-rule="evenodd" clip-rule="evenodd" fill="#CCCACA" d="M804.573,239.067c-1.607-0.381-1.856-1.689-2.065-3.023
	c0.185-0.146,0.367-0.301,0.547-0.463c1.021,0.764,1.711,1.746,1.996,2.998C804.884,238.731,804.725,238.896,804.573,239.067z"/>
<path fill-rule="evenodd" clip-rule="evenodd" fill="#F0F0F1" d="M779.828,186.774c0.783,0.471,0.926,1.197,0.804,2.029
	C779.346,188.528,778.318,188.151,779.828,186.774z"/>
<path fill-rule="evenodd" clip-rule="evenodd" fill="#F0F0F1" d="M1121.105,170.805c-0.158-0.832-0.023-1.557,0.75-2.045
	C1123.391,170.098,1122.404,170.508,1121.105,170.805z"/>
<path fill-rule="evenodd" clip-rule="evenodd" fill="#F0F0F1" d="M1117.271,158.708c0.008-1.387-0.426-2.832,0.561-4.084
	C1117.863,156.014,1118.314,157.463,1117.271,158.708z"/>
<path fill-rule="evenodd" clip-rule="evenodd" fill="#F0F0F1" d="M1117.832,132.91c-0.986-1.251-0.553-2.698-0.561-4.084
	C1118.314,130.071,1117.861,131.52,1117.832,132.91z"/>
<path fill-rule="evenodd" clip-rule="evenodd" fill="#F0F0F1" d="M1120.084,176.803c-0.127-0.826,0.004-1.555,0.773-2.041
	C1122.398,176.124,1121.383,176.516,1120.084,176.803z"/>
<path fill-rule="evenodd" clip-rule="evenodd" fill="#F0F0F1" d="M777.84,177.766c0.775,0.48,0.922,1.203,0.785,2.035
	C777.33,179.52,776.316,179.131,777.84,177.766z"/>
<path fill-rule="evenodd" clip-rule="evenodd" fill="#F0F0F1" d="M778.828,182.772c0.77,0.479,0.932,1.195,0.801,2.029
	C778.344,184.526,777.317,184.147,778.828,182.772z"/>
<path fill-rule="evenodd" clip-rule="evenodd" fill="#F0F0F1" d="M1116.865,122.827c-0.59-0.925-0.824-1.92-0.594-3.006
	C1117.129,120.693,1116.938,121.772,1116.865,122.827z"/>
<path fill-rule="evenodd" clip-rule="evenodd" fill="#F0F0F1" d="M780.879,158.624c0.838,0.912,0.67,2.004,0.56,3.086
	C780.566,160.805,780.789,159.704,780.879,158.624z"/>
<path fill-rule="evenodd" clip-rule="evenodd" fill="#F0F0F1" d="M1116.271,167.713c-0.23-1.088,0.004-2.082,0.594-3.008
	C1116.938,165.762,1117.129,166.84,1116.271,167.713z"/>
<path fill-rule="evenodd" clip-rule="evenodd" fill="#CCCACA" d="M1115.895,189.753c-0.002,1.007-0.002,2.015-0.004,3.023
	c-0.385-0.014-0.77-0.025-1.154-0.039C1114.928,191.667,1114.602,190.396,1115.895,189.753z"/>
<path fill-rule="evenodd" clip-rule="evenodd" fill="#F0F0F1" d="M927.91,311.182c1.084-0.172,2.129-0.131,3.047,0.576
	C929.891,311.842,928.799,312.047,927.91,311.182z"/>
<path fill-rule="evenodd" clip-rule="evenodd" fill="#F0F0F1" d="M969.742-23.813c-0.663-0.137-1.326-0.273-1.989-0.41
	C968.417-24.087,969.079-23.95,969.742-23.813z"/>
<path fill-rule="evenodd" clip-rule="evenodd" fill="#F0F0F1" d="M1113.871,105.806c-0.219-0.67-0.438-1.339-0.656-2.008
	C1113.434,104.467,1113.652,105.136,1113.871,105.806z"/>
<path fill-rule="evenodd" clip-rule="evenodd" fill="#F0F0F1" d="M982.797-21.692c-0.666-0.184-1.332-0.366-1.998-0.549
	C981.465-22.059,982.131-21.876,982.797-21.692z"/>
<path fill-rule="evenodd" clip-rule="evenodd" fill="#F0F0F1" d="M1112.904,101.718c-0.248-0.645-0.496-1.289-0.746-1.934
	C1112.406,100.429,1112.656,101.073,1112.904,101.718z"/>
<path fill-rule="evenodd" clip-rule="evenodd" fill="#ADAAA9" d="M1027.342-10.263c0.854-0.056,1.707-0.111,2.561-0.169
	c-0.049,0.513-0.1,1.028-0.148,1.544C1028.836-9.145,1027.846-9.279,1027.342-10.263z"/>
<path fill-rule="evenodd" clip-rule="evenodd" fill="#F0F0F1" d="M967.715,311.742c0.569-0.674,1.302-0.611,2.054-0.457
	C969.084,311.438,968.399,311.59,967.715,311.742z"/>
<path fill-rule="evenodd" clip-rule="evenodd" fill="#F0F0F1" d="M781.906,167.561c0.619,0.609,0.742,1.342,0.533,2.156
	C782.262,168.999,782.084,168.28,781.906,167.561z"/>
<path fill-rule="evenodd" clip-rule="evenodd" fill="#F0F0F1" d="M902.878,306.101c0.643,0.238,1.286,0.477,1.929,0.715
	C904.164,306.577,903.521,306.339,902.878,306.101z"/>
<path fill-rule="evenodd" clip-rule="evenodd" fill="#F0F0F1" d="M989.859,307.8c0.658-0.234,1.314-0.467,1.971-0.699
	C991.174,307.333,990.518,307.565,989.859,307.8z"/>
<path fill-rule="evenodd" clip-rule="evenodd" fill="#F0F0F1" d="M910.886,308.126c0.655,0.225,1.312,0.449,1.967,0.672
	C912.197,308.575,911.541,308.351,910.886,308.126z"/>
<path fill-rule="evenodd" clip-rule="evenodd" fill="#F0F0F1" d="M915.913,309.227c0.646,0.189,1.294,0.381,1.94,0.572
	C917.207,309.607,916.56,309.416,915.913,309.227z"/>
<path fill-rule="evenodd" clip-rule="evenodd" fill="#F0F0F1" d="M980.756,309.758c0.688-0.201,1.373-0.402,2.061-0.604
	C982.129,309.355,981.443,309.557,980.756,309.758z"/>
<path fill-rule="evenodd" clip-rule="evenodd" fill="#F0F0F1" d="M797.674,227.001c-0.07,0.568-0.141,1.135-0.215,1.701
	c-0.233-0.48-0.465-0.959-0.695-1.434C797.045,227.11,797.349,227.019,797.674,227.001z"/>
<path fill-rule="evenodd" clip-rule="evenodd" fill="#F0F0F1" d="M974.796,310.775c0.659-0.164,1.317-0.326,1.976-0.49
	C976.113,310.449,975.454,310.611,974.796,310.775z"/>
<path fill-rule="evenodd" clip-rule="evenodd" fill="#F0F0F1" d="M909.846,312.805c0.166-0.438,0.334-0.873,0.501-1.311
	c0.166,0.438,0.333,0.875,0.499,1.311l0.002-0.002C910.514,312.805,910.18,312.805,909.846,312.805L909.846,312.805z"/>
<path fill-rule="evenodd" clip-rule="evenodd" fill="#F0F0F1" d="M785.807,186.815c0.238,0.643,0.477,1.285,0.715,1.928
	C786.283,188.101,786.045,187.458,785.807,186.815z"/>
<path fill-rule="evenodd" clip-rule="evenodd" fill="#F0F0F1" d="M1112.158,187.749c0.25-0.645,0.498-1.289,0.746-1.934
	C1112.656,186.46,1112.406,187.104,1112.158,187.749z"/>
<path fill-rule="evenodd" clip-rule="evenodd" fill="#F0F0F1" d="M991.826-19.593c-0.641-0.23-1.283-0.459-1.924-0.689
	C990.545-20.052,991.186-19.823,991.826-19.593z"/>
<path fill-rule="evenodd" clip-rule="evenodd" fill="#F0F0F1" d="M784.806,182.815c0.229,0.641,0.46,1.281,0.689,1.922
	C785.266,184.097,785.035,183.456,784.806,182.815z"/>
<path fill-rule="evenodd" clip-rule="evenodd" fill="#CCCACA" d="M831.745,270.892c-0.35-0.324-0.698-0.65-1.046-0.979
	c0.002-0.002,0.229-0.229,0.229-0.229c0.32,0.348,0.643,0.697,0.963,1.047C831.891,270.734,831.745,270.892,831.745,270.892z"/>
<path fill-rule="evenodd" clip-rule="evenodd" fill="#CCCACA" d="M832.809,270.855c-0.023,0.416-0.047,0.83-0.072,1.248
	c-0.33-0.402-0.658-0.809-0.99-1.213c-0.001,0.002,0.145-0.156,0.145-0.158C832.199,270.757,832.506,270.798,832.809,270.855z"/>
<path fill-rule="evenodd" clip-rule="evenodd" fill="#F0F0F1" d="M976.771-22.801c-0.374-0.127-0.749-0.254-1.123-0.381
	C976.022-23.055,976.397-22.928,976.771-22.801z"/>
<path fill-rule="evenodd" clip-rule="evenodd" fill="#F0F0F1" d="M986.729-20.925c-0.324-0.1-0.65-0.199-0.975-0.299
	C986.078-21.124,986.404-21.024,986.729-20.925z"/>
<path fill-rule="evenodd" clip-rule="evenodd" fill="#F0F0F1" d="M783.879,178.627c0.137,0.354,0.274,0.709,0.411,1.063
	C784.152,179.334,784.016,178.981,783.879,178.627z"/>
<path fill-rule="evenodd" clip-rule="evenodd" fill="#F0F0F1" d="M1115.643,172.588c-0.029-0.227-0.088-0.457-0.072-0.68
	c0.006-0.088,0.18-0.164,0.275-0.244C1115.908,172,1115.84,172.309,1115.643,172.588z"/>
<path fill-rule="evenodd" clip-rule="evenodd" fill="#F0F0F1" d="M1113.545,182.646c0.109-0.307,0.217-0.613,0.326-0.92
	C1113.762,182.032,1113.654,182.339,1113.545,182.646z"/>
<path fill-rule="evenodd" clip-rule="evenodd" fill="#F0F0F1" d="M1115.846,115.869c-0.135-0.202-0.295-0.393-0.393-0.611
	c-0.029-0.063,0.121-0.207,0.189-0.313C1115.84,115.224,1115.908,115.532,1115.846,115.869z"/>
<path fill-rule="evenodd" clip-rule="evenodd" fill="#F0F0F1" d="M782.879,173.625c0.137,0.355,0.273,0.709,0.41,1.063
	C783.152,174.334,783.016,173.979,782.879,173.625z"/>
<path fill-rule="evenodd" clip-rule="evenodd" fill="#F0F0F1" d="M985.754,308.757c0.324-0.1,0.65-0.199,0.975-0.299
	C986.404,308.558,986.078,308.657,985.754,308.757z"/>
<path fill-rule="evenodd" clip-rule="evenodd" fill="#CCCACA" d="M816.598,255.031c-0.333-0.334-0.666-0.67-1.002-1.002
	c0.139-0.141,0.281-0.283,0.429-0.424c0.33,0.338,0.659,0.676,0.985,1.016C816.869,254.755,816.732,254.892,816.598,255.031z"/>
<path fill-rule="evenodd" clip-rule="evenodd" fill="#CCCACA" d="M817.581,256.027c-0.326-0.332-0.652-0.668-0.981-0.998
	c0.133-0.137,0.27-0.274,0.41-0.409c0.324,0.334,0.645,0.67,0.968,1.004C817.85,255.761,817.717,255.896,817.581,256.027z"/>
<path fill-rule="evenodd" clip-rule="evenodd" fill="#CCCACA" d="M823.656,262.976c-0.322-0.346-0.645-0.689-0.969-1.031
	c-0.002,0.002,0.266-0.266,0.268-0.268c0.342,0.326,0.682,0.652,1.02,0.98C823.974,262.66,823.656,262.976,823.656,262.976z"/>
<path fill-rule="evenodd" clip-rule="evenodd" fill="#CCCACA" d="M824.639,263.994c-0.326-0.342-0.652-0.682-0.98-1.02
	c-0.002,0.002,0.315-0.314,0.316-0.316c0.34,0.328,0.678,0.656,1.014,0.988C824.986,263.648,824.639,263.994,824.639,263.994z"/>
<path fill-rule="evenodd" clip-rule="evenodd" fill="#CCCACA" d="M825.627,265.003c-0.328-0.338-0.656-0.676-0.986-1.012
	c-0.002,0.002,0.346-0.344,0.348-0.346c0.337,0.328,0.673,0.66,1.007,0.992C825.869,264.759,825.746,264.88,825.627,265.003z"/>
<path fill-rule="evenodd" clip-rule="evenodd" fill="#CCCACA" d="M829.889,268.728c0.346,0.32,0.689,0.641,1.037,0.959
	c0.002-0.002-0.225,0.225-0.227,0.227c-0.317-0.348-0.633-0.697-0.947-1.049L829.889,268.728z"/>
<path fill-rule="evenodd" clip-rule="evenodd" fill="#CCCACA" d="M826.626,266.007c-0.332-0.336-0.663-0.672-0.997-1.006
	c0.117-0.121,0.24-0.242,0.366-0.363c0.335,0.332,0.669,0.666,1.003,0.998C826.871,265.757,826.747,265.88,826.626,266.007z"/>
<path fill-rule="evenodd" clip-rule="evenodd" fill="#F0F0F1" d="M909.846,312.805c-0.077,0.141-0.154,0.281-0.232,0.422
	C909.691,313.086,909.768,312.945,909.846,312.805L909.846,312.805z"/>
<path fill-rule="evenodd" clip-rule="evenodd" fill="#CCCACA" d="M826.998,265.636c0.324,0.344,0.648,0.686,0.971,1.029
	c-0.002,0.002-0.301,0.301-0.301,0.301c-0.346-0.32-0.691-0.643-1.04-0.961C826.747,265.88,826.871,265.757,826.998,265.636z"/>
<path fill-rule="evenodd" clip-rule="evenodd" fill="#CCCACA" d="M828.752,267.88c-0.36-0.307-0.719-0.613-1.081-0.916
	c-0.003,0.002,0.296-0.297,0.298-0.299c0.313,0.354,0.625,0.707,0.934,1.063C828.9,267.73,828.752,267.88,828.752,267.88z"/>
<path fill-rule="evenodd" clip-rule="evenodd" fill="#CCCACA" d="M829.752,268.865c-0.332-0.33-0.664-0.66-0.998-0.988
	c-0.002,0.004,0.146-0.146,0.148-0.148c0.329,0.334,0.656,0.668,0.984,1.002C829.889,268.728,829.752,268.865,829.752,268.865z"/>
<path fill-rule="evenodd" clip-rule="evenodd" fill="#F0F0F1" d="M921.938,310.334c0.375,0.127,0.749,0.254,1.123,0.381
	C922.687,310.588,922.313,310.461,921.938,310.334z"/>
<path fill-rule="evenodd" clip-rule="evenodd" fill="#F0F0F1" d="M1108.814,72.778c-3.141-5.102-5.881-10.402-7.988-16.021
	C1105.5,61.096,1108.264,66.386,1108.814,72.778z"/>
<path fill-rule="evenodd" clip-rule="evenodd" fill="#F0F0F1" d="M1068.467,17.476c-1.879-2.232-3.758-4.466-5.637-6.699
	c4.438,0.359,6.67,3.209,7.998,7.082C1070.041,17.731,1069.254,17.604,1068.467,17.476z"/>
<path fill-rule="evenodd" clip-rule="evenodd" fill="#F0F0F1" d="M985.869-27.337c-2.85,0.125-5.527-0.517-8.065-1.791
	C981.041-31.005,983.682-30.194,985.869-27.337z"/>
<path fill-rule="evenodd" clip-rule="evenodd" fill="#F0F0F1" d="M1062.842,10.797c-2.797-0.728-4.406-2.87-5.996-5.036
	C1060.309,5.696,1062.137,7.577,1062.842,10.797z"/>
<path fill-rule="evenodd" clip-rule="evenodd" fill="#F0F0F1" d="M1080.889,28.735c-2.158-1.594-4.332-3.171-5.143-5.931
	C1079.037,23.413,1080.867,25.289,1080.889,28.735z"/>
<path fill-rule="evenodd" clip-rule="evenodd" fill="#F0F0F1" d="M1100.732,56.054c-1.963-0.766-2.559-2.435-2.844-4.307
	C1100.371,52.169,1100.703,54.012,1100.732,56.054z"/>
<path fill-rule="evenodd" clip-rule="evenodd" fill="#F0F0F1" d="M1120.934,112.745c-1.381-1.096-0.922-2.597-0.881-4.006
	C1122.639,109.571,1122.264,111.054,1120.934,112.745z"/>
<path fill-rule="evenodd" clip-rule="evenodd" fill="#F0F0F1" d="M1056.855,5.775c-1.824-0.132-2.789-1.257-3.332-2.872
	C1055.666,2.659,1056.754,3.644,1056.855,5.775z"/>
<path fill-rule="evenodd" clip-rule="evenodd" fill="#F0F0F1" d="M1121.859,117.772c-1.098-0.794-0.924-1.92-0.787-3.035
	C1123.137,115.284,1123.461,116.279,1121.859,117.772z"/>
<path fill-rule="evenodd" clip-rule="evenodd" fill="#F0F0F1" d="M1122.24,124.794c-0.055-1.02-0.107-2.037-0.16-3.055
	C1124.484,122.636,1124.631,123.649,1122.24,124.794z"/>
<path fill-rule="evenodd" clip-rule="evenodd" fill="#F0F0F1" d="M1042.83-4.194c-1.398-0.089-2.43-0.723-3.014-2.023
	C1041.326-6.298,1042.813-6.342,1042.83-4.194z"/>
<path fill-rule="evenodd" clip-rule="evenodd" fill="#F0F0F1" d="M1045.83-2.192c-1.416-0.064-2.438-0.713-3.014-2.025
	C1044.326-4.296,1045.818-4.345,1045.83-2.192z"/>
<path fill-rule="evenodd" clip-rule="evenodd" fill="#F0F0F1" d="M1048.838-0.202c-1.383-0.109-2.436-0.711-3.021-2.014
	C1047.326-2.299,1048.809-2.34,1048.838-0.202z"/>
<path fill-rule="evenodd" clip-rule="evenodd" fill="#F0F0F1" d="M1051.795,1.927c-1.361-0.203-2.418-0.829-2.971-2.149
	C1050.389-0.301,1051.889-0.289,1051.795,1.927z"/>
<path fill-rule="evenodd" clip-rule="evenodd" fill="#F0F0F1" d="M1085.898,34.714c-1.357-0.502-1.955-1.556-2.131-2.92
	C1085.875,31.747,1085.908,33.214,1085.898,34.714z"/>
<path fill-rule="evenodd" clip-rule="evenodd" fill="#F0F0F1" d="M1088.9,38.711c-1.318-0.542-1.953-1.56-2.057-2.95
	C1088.891,35.796,1088.91,37.243,1088.9,38.711z"/>
<path fill-rule="evenodd" clip-rule="evenodd" fill="#F0F0F1" d="M1095.869,48.771c-1.305-0.59-1.938-1.614-1.963-3.032
	C1095.943,45.854,1095.92,47.305,1095.869,48.771z"/>
<path fill-rule="evenodd" clip-rule="evenodd" fill="#F0F0F1" d="M1097.771,50.982c-1.164-0.286-1.873-0.963-1.912-2.22
	C1097.314,48.799,1097.926,49.562,1097.771,50.982z"/>
<path fill-rule="evenodd" clip-rule="evenodd" fill="#F0F0F1" d="M1119.873,106.765c-0.752-0.498-0.91-1.207-0.717-2.039
	C1120.447,105.036,1121.369,105.478,1119.873,106.765z"/>
<path fill-rule="evenodd" clip-rule="evenodd" fill="#F0F0F1" d="M1118.871,101.765c-0.781-0.471-0.936-1.197-0.824-2.03
	C1119.346,99.997,1120.4,100.358,1118.871,101.765z"/>
<path fill-rule="evenodd" clip-rule="evenodd" fill="#B9B7B7" d="M778.828-29.288c-0.345-0.338-0.689-0.678-1.035-1.018
	c0.338-0.002,0.676-0.005,1.013-0.008C778.813-29.972,778.82-29.63,778.828-29.288z"/>
<path fill-rule="evenodd" clip-rule="evenodd" fill="#E5E4E4" d="M1100.07,143.861c0.135,82.569-67.313,150.673-149.364,150.81
	c-86.306,0.143-149.938-68.698-152.018-146.67C796.506,66.174,861.188-6.522,949.068-6.725
	C1034.758-6.923,1100.148,62.306,1100.07,143.861z M815.943,187.812c0.133,0.645,0.195,1.313,0.408,1.928
	c19.108,55.168,69.969,93.655,130.264,94.839c35.846,0.705,67.727-10.852,94.898-34.349c19.521-16.881,33.645-37.565,41.289-62.416
	c10.738-32.219,9.473-64.095-2.582-95.717c-0.861-2.259-2.188-2.513-4.156-2.493c-5.998,0.06-12.01-0.199-17.994,0.107
	c-3.354,0.172-4.998-1.058-6.514-3.953c-8.24-15.761-16.795-31.358-25.023-47.125c-1.715-3.284-2.748-3.849-5.832-1.263
	c-19.518,16.377-39.268,32.477-58.796,48.842c-3.428,2.872-6.783,4.263-11.138,3.029c0.185-1.514,1.402-1.924,2.259-2.633
	c13.084-10.836,26.076-21.785,39.341-32.396c3.109-2.488,1.439-4.339,0.236-6.273c-1.834-2.948-3.088,0.012-4.168,0.891
	c-15.497,12.619-30.934,25.315-46.349,38.035c-2.227,1.838-4.364,3.617-7.698,2.43c0.691-1.635,2.215-2.438,3.46-3.464
	c16.45-13.56,32.799-27.247,49.479-40.519c3.322-2.645,1.857-4.601,0.484-6.565c-2.09-2.991-3.396,0.312-4.57,1.261
	c-19.156,15.512-38.284,31.06-57.25,46.803c-3.421,2.838-6.787,3.207-11.48,2.381c1.893-1.666,3.199-2.888,4.579-4.021
	c10.036-8.247,19.943-16.66,30.212-24.606c3.395-2.627,2.254-4.921,0.505-7c-2.124-2.524-3.444,0.694-4.614,1.634
	c-13.246,10.636-26.367,21.426-39.472,32.237c-1.957,1.614-3.8,2.972-6.932,1.577c1.726-1.506,3.165-2.826,4.671-4.066
	c13.11-10.803,26.079-21.785,39.444-32.264c4.09-3.206,4.721-5.707,1.212-9.498c-1.189,0.86-2.443,1.673-3.594,2.612
	c-16.771,13.69-33.596,27.32-50.232,41.173c-3.112,2.59-6.07,3.254-10.352,2.02c10.711-8.74,20.877-17.31,31.382-25.443
	c3.19-2.471,2.019-4.423,0.518-6.557c-2.175-3.091-3.454,0.311-4.543,1.178c-11.989,9.539-23.847,19.245-35.707,28.947
	c-2.097,1.715-4.134,3.314-7.458,2.08c1.194-1.11,2.206-2.158,3.326-3.074c12.891-10.545,25.691-21.203,38.774-31.506
	c3.195-2.516,2.634-4.654,0.763-6.988c-2.25-2.808-3.465,0.566-4.572,1.451c-15.751,12.569-31.395,25.273-46.98,38.047
	c-2.188,1.793-4.343,2.627-7.198,2.564c-7.995-0.177-16.003,0.109-23.993-0.141c-3.504-0.109-5.26,0.86-6.498,4.349
	c-4.363,12.297-7.484,24.841-8.493,37.851C807.777,150.86,809.443,169.631,815.943,187.812z"/>
<path fill-rule="evenodd" clip-rule="evenodd" fill="#E3E5E8" d="M835.535,8.181c0,4.985-0.092,9.973,0.034,14.953
	c0.075,2.988-1.278,4.3-4.129,4.302c-10.136,0.007-20.271,0.005-30.405,0.003c-2.91,0-4.171-1.506-4.162-4.365
	c0.033-10.135,0.013-20.27,0.016-30.405c0-2.624,1.162-3.919,3.945-3.9c10.301,0.069,20.604,0.077,30.904-0.005
	c2.866-0.021,3.823,1.361,3.807,3.967C835.51-2.12,835.534,3.03,835.535,8.181z M830.205,7.79c0-3.654-0.059-7.31,0.022-10.962
	c0.046-2.089-0.728-2.97-2.897-2.946c-7.474,0.078-14.949,0.072-22.422,0.002c-2.127-0.021-2.958,0.77-2.938,2.916
	c0.074,7.475,0.076,14.949,0,22.423c-0.023,2.151,0.822,2.935,2.927,2.917c7.474-0.061,14.948-0.072,22.423,0.008
	c2.133,0.021,2.975-0.742,2.914-2.898C830.127,15.433,830.204,11.61,830.205,7.79z"/>
<path fill-rule="evenodd" clip-rule="evenodd" fill="#2A4665" d="M815.943,187.812c-6.5-18.18-8.166-36.951-6.685-56.066
	c1.009-13.01,4.13-25.554,8.493-37.851c1.238-3.488,2.994-4.458,6.498-4.349c7.99,0.25,15.998-0.036,23.993,0.141
	c2.855,0.063,5.011-0.771,7.198-2.564c15.586-12.773,31.229-25.478,46.98-38.047c1.107-0.885,2.322-4.259,4.572-1.451
	c1.871,2.334,2.433,4.473-0.763,6.988c-13.083,10.303-25.884,20.961-38.774,31.506c-1.12,0.916-2.132,1.964-3.326,3.074
	c3.324,1.234,5.361-0.365,7.458-2.08c11.86-9.702,23.718-19.408,35.707-28.947c1.089-0.867,2.368-4.269,4.543-1.178
	c1.501,2.134,2.673,4.086-0.518,6.557c-10.505,8.134-20.671,16.703-31.382,25.443c4.281,1.234,7.239,0.57,10.352-2.02
	c16.637-13.853,33.461-27.482,50.232-41.173c1.15-0.939,2.404-1.752,3.594-2.612c3.509,3.791,2.878,6.292-1.212,9.498
	c-13.365,10.479-26.334,21.461-39.444,32.264c-1.506,1.24-2.945,2.561-4.671,4.066c3.132,1.395,4.975,0.037,6.932-1.577
	c13.104-10.812,26.226-21.602,39.472-32.237c1.17-0.939,2.49-4.158,4.614-1.634c1.749,2.079,2.89,4.373-0.505,7
	c-10.269,7.946-20.176,16.359-30.212,24.606c-1.38,1.134-2.687,2.355-4.579,4.021c4.693,0.826,8.06,0.457,11.48-2.381
	c18.966-15.743,38.094-31.291,57.25-46.803c1.174-0.949,2.48-4.252,4.57-1.261c1.373,1.965,2.838,3.921-0.484,6.565
	c-16.681,13.271-33.029,26.959-49.479,40.519c-1.245,1.026-2.769,1.829-3.46,3.464c3.334,1.188,5.472-0.592,7.698-2.43
	c15.415-12.72,30.852-25.416,46.349-38.035c1.08-0.879,2.334-3.839,4.168-0.891c1.203,1.935,2.873,3.785-0.236,6.273
	c-13.265,10.611-26.257,21.561-39.341,32.396c-0.856,0.709-2.074,1.119-2.259,2.633c4.354,1.233,7.71-0.157,11.138-3.029
	c19.528-16.365,39.278-32.465,58.796-48.842c3.084-2.586,4.117-2.021,5.832,1.263c8.229,15.767,16.783,31.364,25.023,47.125
	c1.516,2.896,3.16,4.125,6.514,3.953c5.984-0.307,11.996-0.048,17.994-0.107c1.969-0.02,3.295,0.234,4.156,2.493
	c12.055,31.622,13.32,63.498,2.582,95.717C993.85,187.812,904.896,187.812,815.943,187.812z M1034.004,133.555
	c-3.633-5.821-7.494-10.72-9.939-16.245c-3.363-7.599-8.604-9.864-16.441-8.897c-3.002,0.37-3.854,0.935-3.824,3.979
	c0.156,15.813,0.072,31.629,0.072,47.445c0,9.063,0.002,8.914,9.119,9.012c3.219,0.035,4.221-0.783,4.156-4.102
	c-0.213-10.891-0.08-21.789-0.08-32.683c5.154,6.15,9.42,12.604,13.674,19.066c3.037,4.613,3.041,4.623,6.182-0.107
	c4.412-6.643,8.809-13.295,13.961-21.076c0,10.978,0,20.442,0,29.906c0,9.051,0.002,8.896,9.135,9
	c3.248,0.035,4.172-0.838,4.137-4.123c-0.172-15.979-0.076-31.962-0.076-47.943c0-8.225-0.014-7.951-8.406-8.332
	c-4.527-0.206-7.23,1.176-9.434,5.184C1042.645,120.176,1038.453,126.386,1034.004,133.555z M948.16,168.514
	c-0.432-1.143-0.742-2.064-1.121-2.955c-7.009-16.481-14.049-32.949-21.029-49.441c-3.555-8.396-3.508-8.266-12.262-8.339
	c-2.834-0.023-4.047,0.978-5.08,3.462c-5.16,12.398-10.52,24.715-15.777,37.074c-2.832,6.66-5.598,13.347-8.463,20.189
	c0.996,0.137,1.482,0.254,1.971,0.264c11.361,0.268,11.434,0.295,15.826-10.141c0.979-2.324,2.154-3.346,4.758-3.271
	c6.154,0.176,12.322,0.184,18.476-0.004c2.66-0.08,3.671,1.045,4.642,3.357c4.367,10.408,4.455,10.373,15.914,10.061
	C946.635,168.752,947.252,168.625,948.16,168.514z M860.035,107.675c-6.307-0.292-11.662,0.918-16.482,4.422
	c-8.787,6.387-9.486,23.607,2.453,28.765c5.844,2.524,12.105,3.53,17.961,5.868c2.688,1.074,5.343,2.252,4.934,5.93
	c-0.404,3.63-3.301,4.419-6.083,4.865c-4.755,0.762-9.237-0.551-13.442-2.732c-7.825-4.058-7.693-3.998-13.147,2.996
	c-1.683,2.156-0.946,2.947,0.792,4.225c8.299,6.09,17.607,8.65,27.74,7.436c7.671-0.918,14.131-4.271,16.828-12.16
	c3.449-10.089-0.532-18.373-10.834-22.378c-5.24-2.039-10.751-3.377-16.105-5.135c-2.601-0.854-4.3-2.512-3.894-5.562
	c0.411-3.085,2.726-3.996,5.276-4.41c3.91-0.635,7.586,0.399,11.127,1.984c7.166,3.206,6.988,3.083,11.689-3.351
	c2.104-2.88,1.223-4.087-1.344-5.594C871.936,109.576,866.031,107.653,860.035,107.675z M975.139,169.735
	c8.068-0.209,16.168-2.256,20.242-11.24c4.75-10.473,0.01-19.889-11.914-24.148c-4.676-1.67-9.499-2.919-14.22-4.463
	c-2.739-0.895-4.896-2.551-4.273-5.799c0.591-3.088,3.115-4.046,5.936-4.367c3.947-0.451,7.587,0.688,11.077,2.309
	c6.498,3.019,6.477,3.067,10.631-2.972c0.188-0.274,0.324-0.6,0.557-0.824c2.516-2.408,1.186-3.83-1.164-5.259
	c-6.754-4.105-14.026-5.771-21.901-5.252c-10.501,0.69-17.456,6.754-18.715,16.539c-1.161,9.017,3.264,15.054,13.713,18.488
	c4.563,1.5,9.24,2.662,13.781,4.221c2.421,0.829,4.509,2.293,4.304,5.396c-0.221,3.334-2.633,4.444-5.345,5.01
	c-5.325,1.111-10.229-0.436-14.848-2.907c-6.666-3.565-6.508-3.529-11.666,2.315c-2.134,2.416-2.297,3.768,0.537,5.693
	C958.671,167.092,966.049,169.616,975.139,169.735z"/>
<path fill-rule="evenodd" clip-rule="evenodd" fill="#F3B74E" d="M815.943,187.812c88.953,0,177.906,0,266.859,0.002
	c-7.645,24.851-21.768,45.535-41.289,62.416c-27.172,23.497-59.053,35.054-94.898,34.349
	c-60.295-1.184-111.155-39.671-130.264-94.839C816.139,189.124,816.076,188.456,815.943,187.812z M988.943,211.917
	c-0.1-0.604-0.008-1.525-0.869-1.416c-0.943,0.121-1.309,1.049-1.143,1.912c0.271,1.402,1.18,0.545,1.871,0.395
	c0.146,0.238,0.334,0.438,0.563,0.6c0.75,1.25,1.467,0.393,2.189-0.037c-0.447,0.328-0.896,0.656-1.344,0.982
	c-0.959,0.043-1.047,0.688-0.99,1.432c-0.213,0.729-0.488,1.609,0.586,1.752c1.016,0.133,1.016-0.887,1.242-1.568
	c0.738,0.572,1.479,1.143,3.092,2.389c-1.309-3.096,1.52-7.547-4.336-6.379C989.521,211.911,989.234,211.891,988.943,211.917z
	 M931.979,243.47c-4.658-10.869-9.19-21.694-13.964-32.409c-1.261-2.832-7.298-2.729-8.568,0.141
	c-4.435,10.016-8.64,20.135-12.925,30.217c-0.363,0.854-1.133,2.295,0.313,2.316c2.834,0.043,6.704,1.926,7.806-2.721
	c0.968-4.08,3.421-5.209,7.278-4.713c1.964,0.252,3.989,0.107,5.982,0.027c1.846-0.072,3.443,0.322,3.825,2.336
	C922.854,244.608,926.896,244.573,931.979,243.47z M883.133,208.95c-7.274-0.129-12.341,3.33-13.248,8.479
	c-1.098,6.232,1.566,9.895,8.885,12.168c2.058,0.639,4.16,1.143,6.193,1.85c1.59,0.553,3.267,1.283,2.822,3.459
	c-0.4,1.969-2.101,2.5-3.78,2.672c-3.478,0.352-6.538-0.926-9.323-2.867c-3.15-2.195-3.443,1.246-4.814,2.42
	c-1.977,1.689-0.688,2.828,0.889,3.787c5.153,3.137,10.605,4.668,16.637,3.092c5.271-1.377,8.255-4.771,8.434-9.732
	c0.181-5.02-2.434-8.108-6.999-9.698c-2.814-0.98-5.673-1.836-8.519-2.729c-1.564-0.49-2.714-1.32-2.564-3.156
	c0.178-2.174,1.85-2.555,3.545-2.723c2.226-0.219,4.438,0.326,6.148,1.605c3.762,2.813,5.045-0.293,6.299-2.604
	c1.781-3.285-1.777-3.238-3.25-4.115C888.049,209.407,885.165,209.094,883.133,208.95z M935.006,226.978
	c0,4.664,0.145,9.334-0.046,13.99c-0.148,3.621,2.278,2.865,4.341,2.98c2.178,0.121,3.811,0.045,3.787-3.012
	c-0.024-3.252-1.658-7.799,0.788-9.457c2.433-1.648,6.718-0.566,10.19-0.678c0.499-0.016,1.005-0.051,1.499,0.006
	c2.54,0.289,3.91-0.25,3.962-3.383c0.056-3.37-1.378-3.872-4.189-3.698c-3.153,0.195-6.336-0.1-9.49,0.086
	c-2.709,0.158-2.908-1.305-2.879-3.395c0.029-2.139-0.086-3.967,2.999-3.83c4.156,0.186,8.334-0.096,12.49,0.09
	c2.79,0.123,3.283-1.158,3.314-3.586c0.031-2.521-0.646-3.576-3.36-3.512c-6.659,0.16-13.328,0.139-19.988,0.008
	c-2.555-0.051-3.568,0.73-3.467,3.396C935.132,217.643,935.006,222.313,935.006,226.978z M1026.01,219.686
	c0-1.83,0.158-3.68-0.049-5.486c-0.188-1.641,1.146-4.084-1.293-4.719c-2.141-0.559-4.582-0.822-6.438,1.361
	c-5.387,6.336-10.834,12.623-16.314,18.879c-1.668,1.902-0.604,3.736-0.162,5.625c0.529,2.266,2.365,1.355,3.67,1.402
	c3.324,0.121,6.662,0.158,9.982,0.002c2.41-0.111,3.912,0.354,3.471,3.199c-0.438,2.82,0.342,4.08,3.66,4.111
	c3.631,0.035,3.654-1.816,3.48-4.34c-0.111-1.604-0.012-3.16,2.232-2.908c2.395,0.27,2.723-1.041,2.656-2.994
	c-0.066-1.893,0.201-3.779-2.666-3.604c-2.172,0.133-2.25-1.438-2.234-3.039C1026.031,224.68,1026.014,222.184,1026.01,219.686z
	 M979.525,233.632c2.164,0,4.33-0.047,6.494,0.014c1.799,0.049,2.686-0.576,2.85-2.535c0.451-5.413-3.48-11.696-8.551-13.362
	c-6.203-2.035-12.358,0.152-15.591,5.545c-3.279,5.467-2.459,13.356,1.824,17.581c4.365,4.303,12.418,5.193,17.581,1.736
	c1.246-0.836,3.969-1.582,2.068-3.973c-1.207-1.52-2.453-3.648-5.242-1.578c-2.571,1.906-5.601,2-8.358-0.037
	c-0.791-0.586-1.68-1.35-1.497-2.418c0.237-1.393,1.54-0.912,2.429-0.943C975.527,233.589,977.527,233.64,979.525,233.632z
	 M989.568,220.25c0.426-0.184,0.932-0.273,1.248-0.566c0.523-0.49,0.064-0.805-0.387-0.773c-0.398,0.029-0.799,0.314-1.143,0.563
	C989.23,219.514,989.453,219.944,989.568,220.25z"/>
<path fill-rule="evenodd" clip-rule="evenodd" fill="#425975" d="M830.205,7.79c-0.001,3.82-0.078,7.643,0.029,11.459
	c0.061,2.156-0.781,2.92-2.914,2.898c-7.475-0.08-14.949-0.068-22.423-0.008c-2.104,0.018-2.95-0.766-2.927-2.917
	c0.076-7.474,0.074-14.948,0-22.423c-0.021-2.146,0.811-2.937,2.938-2.916c7.473,0.07,14.948,0.076,22.422-0.002
	c2.17-0.023,2.943,0.857,2.897,2.946C830.146,0.48,830.205,4.136,830.205,7.79z M804.205,8.146
	c0.002,11.767,0.002,11.767,11.983,11.767c12.255,0,12.255,0,12.255-12.492c0-11.554,0-11.554-11.732-11.554
	C804.205-4.134,804.205-4.134,804.205,8.146z"/>
<path fill-rule="evenodd" clip-rule="evenodd" fill="#FEFEFE" d="M1034.004,133.555c4.449-7.169,8.641-13.379,12.234-19.917
	c2.203-4.008,4.906-5.39,9.434-5.184c8.393,0.381,8.406,0.107,8.406,8.332c0,15.98-0.096,31.964,0.076,47.943
	c0.035,3.285-0.889,4.158-4.137,4.123c-9.133-0.104-9.135,0.051-9.135-9c0-9.463,0-18.928,0-29.906
	c-5.152,7.781-9.549,14.434-13.961,21.076c-3.141,4.73-3.145,4.72-6.182,0.107c-4.254-6.462-8.52-12.916-13.674-19.066
	c0,10.895-0.133,21.792,0.08,32.683c0.064,3.318-0.938,4.137-4.156,4.102c-9.117-0.098-9.119,0.051-9.119-9.012
	c0-15.816,0.084-31.632-0.072-47.445c-0.029-3.045,0.822-3.609,3.824-3.979c7.838-0.967,13.078,1.299,16.441,8.897
	C1026.51,122.835,1030.371,127.733,1034.004,133.555z"/>
<path fill-rule="evenodd" clip-rule="evenodd" fill="#F7F7F8" d="M948.16,168.514c-0.908,0.111-1.525,0.238-2.146,0.256
	c-11.459,0.313-11.547,0.348-15.914-10.061c-0.971-2.313-1.981-3.438-4.642-3.357c-6.153,0.188-12.321,0.18-18.476,0.004
	c-2.604-0.074-3.779,0.947-4.758,3.271c-4.393,10.436-4.465,10.408-15.826,10.141c-0.488-0.01-0.975-0.127-1.971-0.264
	c2.865-6.842,5.631-13.529,8.463-20.189c5.258-12.359,10.617-24.676,15.777-37.074c1.033-2.484,2.246-3.485,5.08-3.462
	c8.754,0.073,8.707-0.058,12.262,8.339c6.98,16.492,14.021,32.96,21.029,49.441C947.418,166.45,947.729,167.372,948.16,168.514z
	 M916.203,124.602c-2.506,6.129-4.458,11.192-6.652,16.147c-1.015,2.293-0.443,2.896,1.891,2.839
	c3.943-0.097,7.892-0.026,12.416-0.026C921.32,137.273,918.934,131.364,916.203,124.602z"/>
<path fill-rule="evenodd" clip-rule="evenodd" fill="#F7F7F8" d="M860.035,107.675c5.996-0.021,11.9,1.901,17.469,5.168
	c2.566,1.507,3.447,2.714,1.344,5.594c-4.701,6.434-4.523,6.557-11.689,3.351c-3.541-1.585-7.217-2.619-11.127-1.984
	c-2.551,0.414-4.865,1.325-5.276,4.41c-0.406,3.05,1.293,4.708,3.894,5.562c5.354,1.758,10.865,3.096,16.105,5.135
	c10.302,4.006,14.283,12.289,10.834,22.378c-2.697,7.889-9.157,11.242-16.828,12.16c-10.133,1.215-19.441-1.346-27.74-7.436
	c-1.738-1.277-2.475-2.068-0.792-4.225c5.454-6.994,5.322-7.054,13.147-2.996c4.205,2.182,8.688,3.494,13.442,2.732
	c2.782-0.445,5.679-1.234,6.083-4.865c0.409-3.678-2.246-4.855-4.934-5.93c-5.855-2.338-12.117-3.344-17.961-5.868
	c-11.939-5.157-11.24-22.378-2.453-28.765C848.373,108.593,853.729,107.383,860.035,107.675z"/>
<path fill-rule="evenodd" clip-rule="evenodd" fill="#F7F7F8" d="M975.139,169.735c-9.09-0.119-16.468-2.643-23.269-7.26
	c-2.834-1.926-2.671-3.277-0.537-5.693c5.158-5.844,5-5.88,11.666-2.315c4.619,2.471,9.522,4.018,14.848,2.907
	c2.712-0.566,5.124-1.676,5.345-5.01c0.205-3.103-1.883-4.566-4.304-5.396c-4.541-1.559-9.218-2.721-13.781-4.221
	c-10.449-3.435-14.874-9.472-13.713-18.488c1.259-9.785,8.214-15.849,18.715-16.539c7.875-0.52,15.147,1.146,21.901,5.252
	c2.35,1.429,3.68,2.851,1.164,5.259c-0.232,0.225-0.369,0.55-0.557,0.824c-4.154,6.039-4.133,5.99-10.631,2.972
	c-3.49-1.62-7.13-2.76-11.077-2.309c-2.82,0.321-5.345,1.279-5.936,4.367c-0.623,3.248,1.534,4.904,4.273,5.799
	c4.721,1.544,9.544,2.793,14.22,4.463c11.924,4.259,16.664,13.675,11.914,24.148C991.307,167.479,983.207,169.526,975.139,169.735z"
	/>
<path fill-rule="evenodd" clip-rule="evenodd" fill="#2F4863" d="M931.979,243.47c-5.082,1.104-9.124,1.139-10.253-4.805
	c-0.382-2.014-1.979-2.408-3.825-2.336c-1.993,0.08-4.019,0.225-5.982-0.027c-3.857-0.496-6.311,0.633-7.278,4.713
	c-1.102,4.646-4.972,2.764-7.806,2.721c-1.445-0.021-0.676-1.463-0.313-2.316c4.285-10.082,8.49-20.202,12.925-30.217
	c1.271-2.869,7.308-2.973,8.568-0.141C922.788,221.776,927.32,232.601,931.979,243.47z M917.967,229.421
	c-1.311-3.303-2.534-6.389-3.759-9.475c-1.845,3.209-4.973,6.031-3.765,9.245C910.969,230.591,914.982,229.716,917.967,229.421z"/>
<path fill-rule="evenodd" clip-rule="evenodd" fill="#2F4863" d="M883.133,208.95c2.032,0.145,4.916,0.457,7.354,1.908
	c1.473,0.877,5.031,0.83,3.25,4.115c-1.254,2.311-2.537,5.416-6.299,2.604c-1.711-1.279-3.923-1.824-6.148-1.605
	c-1.695,0.168-3.367,0.549-3.545,2.723c-0.149,1.836,1,2.666,2.564,3.156c2.846,0.893,5.704,1.748,8.519,2.729
	c4.565,1.59,7.18,4.678,6.999,9.698c-0.179,4.961-3.163,8.355-8.434,9.732c-6.031,1.576-11.483,0.045-16.637-3.092
	c-1.576-0.959-2.865-2.098-0.889-3.787c1.371-1.174,1.664-4.615,4.814-2.42c2.785,1.941,5.846,3.219,9.323,2.867
	c1.68-0.172,3.38-0.703,3.78-2.672c0.444-2.176-1.232-2.906-2.822-3.459c-2.033-0.707-4.136-1.211-6.193-1.85
	c-7.318-2.273-9.982-5.936-8.885-12.168C870.792,212.28,875.858,208.821,883.133,208.95z"/>
<path fill-rule="evenodd" clip-rule="evenodd" fill="#2F4863" d="M935.006,226.978c0-4.665,0.126-9.334-0.049-13.993
	c-0.102-2.666,0.912-3.447,3.467-3.396c6.66,0.131,13.329,0.152,19.988-0.008c2.714-0.064,3.392,0.99,3.36,3.512
	c-0.031,2.428-0.524,3.709-3.314,3.586c-4.156-0.186-8.334,0.096-12.49-0.09c-3.085-0.137-2.97,1.691-2.999,3.83
	c-0.029,2.09,0.17,3.553,2.879,3.395c3.154-0.186,6.337,0.109,9.49-0.086c2.812-0.174,4.245,0.328,4.189,3.698
	c-0.052,3.133-1.422,3.672-3.962,3.383c-0.494-0.057-1-0.021-1.499-0.006c-3.473,0.111-7.758-0.971-10.19,0.678
	c-2.446,1.658-0.813,6.205-0.788,9.457c0.023,3.057-1.609,3.133-3.787,3.012c-2.063-0.115-4.489,0.641-4.341-2.98
	C935.15,236.312,935.006,231.642,935.006,226.978z"/>
<path fill-rule="evenodd" clip-rule="evenodd" fill="#2A4665" d="M1026.012,219.686c0.002,2.498,0.02,4.994-0.006,7.491
	c-0.016,1.602,0.063,3.172,2.234,3.039c2.867-0.176,2.6,1.711,2.666,3.604c0.066,1.953-0.262,3.264-2.656,2.994
	c-2.244-0.252-2.344,1.305-2.232,2.908c0.174,2.523,0.15,4.375-3.48,4.34c-3.318-0.031-4.098-1.291-3.66-4.111
	c0.441-2.846-1.061-3.311-3.471-3.199c-3.32,0.156-6.658,0.119-9.982-0.002c-1.305-0.047-3.141,0.863-3.67-1.402
	c-0.441-1.889-1.506-3.723,0.162-5.625c5.48-6.256,10.928-12.543,16.314-18.879c1.855-2.184,4.297-1.92,6.438-1.361
	c2.439,0.635,1.105,3.078,1.293,4.719C1026.168,216.006,1026.01,217.856,1026.012,219.686z M1018.709,220.295
	c-1.943,2.166-3.352,3.508-4.479,5.055c-1.115,1.53-2.979,2.588-3.289,4.729C1020.488,230.933,1018.969,231.354,1018.709,220.295z"
	/>
<path fill-rule="evenodd" clip-rule="evenodd" fill="#2F4863" d="M979.525,233.636c-1.998,0.004-3.998-0.047-5.993,0.025
	c-0.889,0.031-2.191-0.449-2.429,0.943c-0.183,1.068,0.706,1.832,1.497,2.418c2.758,2.037,5.787,1.943,8.358,0.037
	c2.789-2.07,4.035,0.059,5.242,1.578c1.9,2.391-0.822,3.137-2.068,3.973c-5.163,3.457-13.216,2.566-17.581-1.736
	c-4.283-4.225-5.104-12.113-1.824-17.581c3.232-5.393,9.388-7.58,15.591-5.545c5.07,1.666,9.002,7.949,8.551,13.362
	c-0.164,1.959-1.051,2.584-2.85,2.535C983.855,233.585,981.689,233.632,979.525,233.636z M976.259,229.042
	c1.278-1.354,4.146,1.164,4.384-1.645c0.221-2.616-2.198-4.018-4.662-4.114c-2.491-0.098-5.077,1.291-4.94,3.786
	C971.229,230.521,974.511,227.741,976.259,229.042z"/>
<path fill-rule="evenodd" clip-rule="evenodd" fill="#2F4863" d="M991.555,213.37c-0.723,0.43-1.439,1.287-2.186,0.035
	c0.146-0.477,0.291-0.951,0.434-1.428c5.857-1.168,3.029,3.283,4.338,6.379c-1.613-1.246-2.354-1.816-3.092-2.389
	c-0.607-0.063-1.219-0.123-1.828-0.184c-0.057-0.744,0.031-1.389,0.992-1.424C991.092,214.614,991.91,214.784,991.555,213.37z"/>
<path fill-rule="evenodd" clip-rule="evenodd" fill="#DFAB4F" d="M988.803,212.807c-0.691,0.15-1.6,1.008-1.871-0.395
	c-0.166-0.863,0.199-1.791,1.143-1.912c0.861-0.109,0.77,0.813,0.869,1.416C989.002,212.231,988.955,212.528,988.803,212.807z"/>
<path fill-rule="evenodd" clip-rule="evenodd" fill="#425975" d="M989.221,215.784c0.609,0.061,1.221,0.121,1.828,0.184
	c-0.227,0.682-0.227,1.701-1.242,1.568C988.732,217.393,989.008,216.512,989.221,215.784z"/>
<path fill-rule="evenodd" clip-rule="evenodd" fill="#DFAB4F" d="M989.568,220.25c-0.115-0.307-0.338-0.736-0.281-0.777
	c0.344-0.248,0.744-0.533,1.143-0.563c0.451-0.031,0.91,0.283,0.387,0.773C990.5,219.977,989.994,220.067,989.568,220.25z"/>
<path fill-rule="evenodd" clip-rule="evenodd" fill="#425975" d="M991.555,213.37c0.355,1.414-0.463,1.244-1.342,0.99
	C990.658,214.026,991.107,213.698,991.555,213.37z"/>
<path fill-rule="evenodd" clip-rule="evenodd" fill="#425975" d="M988.803,212.807c0.152-0.279,0.199-0.576,0.141-0.891
	c0.291-0.025,0.578-0.006,0.859,0.061c-0.143,0.477-0.287,0.951-0.434,1.428C989.137,213.245,988.949,213.045,988.803,212.807z"/>
<path fill-rule="evenodd" clip-rule="evenodd" fill="#E3E5E8" d="M804.205,8.146c0-12.279,0-12.279,12.506-12.279
	c11.732,0,11.732,0,11.732,11.554c0,12.492,0,12.492-12.255,12.492C804.207,19.912,804.207,19.912,804.205,8.146z M820.869,15.958
	c3.196,0.215,4.692-0.741,4.325-4.157c-0.352-3.27-0.044-6.607-0.095-9.915c-0.021-1.406,0.336-3.043-2.032-3.133
	c-2.329-0.088-2.21,1.349-2.204,2.896C820.879,6.422,820.869,11.194,820.869,15.958z M817.365,11.589
	c-3.498-0.882-7.009-1.584-11.837,0.35C810.472,12.943,813.931,13.058,817.365,11.589z M816.945,16.446
	c-4.166-1.46-7.027-1.496-11.189,0.034C809.926,17.94,812.787,17.967,816.945,16.446z M816.141,7.126
	c-3.885-2.014-6.508-1.135-9.115-0.571C809.52,8.149,812.107,7.954,816.141,7.126z"/>
<path fill-rule="evenodd" clip-rule="evenodd" fill="#2F4863" d="M916.203,124.602c2.73,6.763,5.117,12.672,7.654,18.96
	c-4.524,0-8.473-0.07-12.416,0.026c-2.334,0.058-2.905-0.546-1.891-2.839C911.745,135.794,913.697,130.73,916.203,124.602z"/>
<path fill-rule="evenodd" clip-rule="evenodd" fill="#DFAB4F" d="M917.967,229.421c-2.984,0.295-6.998,1.17-7.523-0.23
	c-1.208-3.213,1.92-6.036,3.765-9.245C915.433,223.032,916.656,226.118,917.967,229.421z"/>
<path fill-rule="evenodd" clip-rule="evenodd" fill="#DFAB4F" d="M1018.709,220.295c0.26,11.059,1.779,10.637-7.768,9.784
	c0.311-2.141,2.174-3.199,3.289-4.729C1015.357,223.803,1016.766,222.461,1018.709,220.295z"/>
<path fill-rule="evenodd" clip-rule="evenodd" fill="#DFAB4F" d="M976.259,229.042c-1.748-1.301-5.03,1.479-5.219-1.973
	c-0.137-2.495,2.449-3.883,4.94-3.786c2.464,0.096,4.883,1.498,4.662,4.114C980.404,230.206,977.537,227.688,976.259,229.042z"/>
<path fill-rule="evenodd" clip-rule="evenodd" fill="#2A4665" d="M820.869,15.958c0-4.764,0.01-9.536-0.006-14.309
	c-0.006-1.548-0.125-2.984,2.204-2.896c2.368,0.09,2.011,1.727,2.032,3.133c0.051,3.308-0.257,6.646,0.095,9.915
	C825.562,15.217,824.065,16.173,820.869,15.958z"/>
<path fill-rule="evenodd" clip-rule="evenodd" fill="#2A4665" d="M817.365,11.589c-3.435,1.469-6.894,1.354-11.837,0.35
	C810.356,10.005,813.867,10.707,817.365,11.589z"/>
<path fill-rule="evenodd" clip-rule="evenodd" fill="#425975" d="M816.945,16.446c-4.158,1.521-7.02,1.494-11.189,0.034
	C809.918,14.95,812.779,14.986,816.945,16.446z"/>
<path fill-rule="evenodd" clip-rule="evenodd" fill="#2A4665" d="M816.141,7.126c-4.033,0.828-6.621,1.023-9.115-0.571
	C809.633,5.991,812.256,5.112,816.141,7.126z"/>
<path fill-rule="evenodd" clip-rule="evenodd" fill="#2A4665" d="M15.418,244.832c0-14.091,0-28.182,0-42.272
	c1.798-1.406,1.44-3.5,1.785-5.402c14.18-78.085,58.518-130.194,133.93-155.622c11.985-4.042,24.689-4.551,36.759-8.068
	c11.836,0,23.673,0,35.509,0c1.258,0.522,2.475,1.361,3.775,1.521c82.067,10.086,145.136,66.713,163.934,147.294
	c1.702,7.297,3.182,14.644,4.766,21.968c0,13.527,0,27.055,0,40.582c-1.799,1.406-1.439,3.5-1.786,5.403
	c-14.194,78.072-58.503,130.217-133.936,155.604c-11.973,4.029-24.587,5.008-36.753,8.086c-12.399,0-24.8,0-37.2,0
	c-1.253-0.533-2.464-1.383-3.765-1.555C101.258,401.615,38.885,344.967,20.062,265.12C18.47,258.366,18.663,251.197,15.418,244.832z
	 M384.004,224.002c0.089-97.632-80.215-178.483-177.424-178.634c-98.357-0.152-179.075,79.809-179.289,177.607
	c-0.215,98.115,80.091,178.967,177.842,179.053C303.297,402.114,383.914,321.878,384.004,224.002z"/>
<path fill-rule="evenodd" clip-rule="evenodd" fill="#E6E6E6" d="M384.004,224.002c-0.09,97.876-80.707,178.112-178.871,178.026
	c-97.751-0.086-178.057-80.938-177.842-179.053c0.214-97.798,80.932-177.76,179.289-177.607
	C303.789,45.519,384.093,126.37,384.004,224.002z M363.102,275.508c0.15-0.633,0.303-1.266,0.455-1.9
	c11.807-37.786,10.795-75.066-4.422-111.783c-0.301-1.091-0.902-1.758-2.143-1.52c-7.031-0.13-14.084-0.658-21.084-0.261
	c-5.207,0.296-8.05-1.398-10.461-6.083c-8.854-17.215-18.478-34.039-27.146-51.344c-3.188-6.362-4.974-7.569-10.936-2.472
	c-22.034,18.835-44.671,36.967-66.888,55.591c-4.128,3.459-8.055,5.264-14.147,3.351c1.715-1.559,2.861-2.686,4.097-3.709
	c14.95-12.402,29.786-24.946,44.971-37.056c3.322-2.651,3.542-4.854,1.271-7.522c-2.414-2.834-4.232-0.446-6.236,1.239
	c-9.389,7.889-18.846,15.721-28.338,23.457c-9.313,7.59-18.621,15.198-27.886,22.853c-1.366,1.126-3.359,2.785-5.012,0.52
	c-1.893-2.594,0.977-2.827,2.29-3.893c19.325-15.694,38.602-31.45,57.944-47.124c2.876-2.331,3.948-4.872,1.406-7.845
	c-3.088-3.609-4.274,0.908-5.605,1.977c-21.948,17.625-43.744,35.436-65.509,53.287c-4.331,3.554-8.59,6.578-15.055,3.53
	c2.957-2.544,5.461-4.766,8.038-6.898c10.839-8.975,21.551-18.118,32.645-26.77c3.587-2.797,2.768-5.426,0.803-7.749
	c-2.192-2.588-4.868-0.87-6.26,1.342c-2.356,3.744-6.519,4.977-9.63,7.667c-12.615,10.909-25.52,21.486-38.416,32.067
	c-1.331,1.093-3.435,2.649-5.037,0.277c-1.766-2.613,1.45-2.273,2.313-2.993c16.327-13.628,32.769-27.122,49.191-40.634
	c2.702-2.222,5.534-4.696,2.388-8.229c-3.268-3.67-4.8,0.934-6.476,2.275c-19.124,15.296-38.115,30.759-57.063,46.274
	c-3.945,3.232-7.824,5.668-13.781,3.032c12.352-10.157,24.062-19.817,35.813-29.425c2.514-2.056,5.105-4.027,2.24-7.531
	c-3.058-3.737-5.809-0.141-7.579,1.23c-7.83,6.058-15.414,12.47-22.729,19.144c-6.479,5.91-14.321,10.135-20.201,16.794
	c-0.96,1.087-3.668,2.506-4.935-0.215c-1.105-2.372,1.741-2.195,2.739-3.025c15.268-12.689,30.557-25.356,46.061-37.752
	c3.071-2.454,2.727-4.566,0.978-7.054c-2.298-3.27-3.881-0.031-5.254,1.068c-11.65,9.318-23.96,17.99-34.569,28.388
	c-15.799,15.486-33.395,23.782-55.777,19.891c-1.881-0.327-3.908,0.201-5.869,0.331c-1.246-0.235-1.85,0.437-2.152,1.53
	c-15.186,36.709-16.494,73.971-4.438,111.762c0.165,0.642,0.332,1.284,0.499,1.926c1.146,3.467,2.096,7.015,3.473,10.388
	c30.26,74.214,107.214,116.749,186.173,100.425C299.958,373.498,342.106,335.906,363.102,275.508z"/>
<path fill-rule="evenodd" clip-rule="evenodd" fill="#284463" d="M54.302,160.306c1.961-0.13,3.988-0.658,5.869-0.331
	c22.383,3.891,39.979-4.405,55.777-19.891c10.609-10.398,22.919-19.069,34.569-28.388c1.373-1.099,2.956-4.338,5.254-1.068
	c1.749,2.488,2.094,4.6-0.978,7.054c-15.504,12.396-30.793,25.063-46.061,37.752c-0.998,0.83-3.845,0.653-2.739,3.025
	c1.267,2.721,3.975,1.302,4.935,0.215c5.88-6.659,13.722-10.885,20.201-16.794c7.315-6.674,14.899-13.085,22.729-19.144
	c1.771-1.371,4.521-4.968,7.579-1.23c2.865,3.504,0.273,5.475-2.24,7.531c-11.752,9.607-23.462,19.268-35.813,29.425
	c5.957,2.637,9.836,0.2,13.781-3.032c18.947-15.515,37.938-30.978,57.063-46.274c1.676-1.341,3.208-5.945,6.476-2.275
	c3.146,3.532,0.314,6.006-2.388,8.229c-16.423,13.512-32.864,27.005-49.191,40.634c-0.862,0.72-4.078,0.38-2.313,2.993
	c1.603,2.372,3.706,0.816,5.037-0.277c12.896-10.581,25.801-21.158,38.416-32.067c3.111-2.69,7.273-3.923,9.63-7.667
	c1.392-2.212,4.067-3.93,6.26-1.342c1.965,2.323,2.784,4.952-0.803,7.749c-11.094,8.652-21.806,17.795-32.645,26.77
	c-2.577,2.133-5.081,4.354-8.038,6.898c6.465,3.048,10.724,0.024,15.055-3.53c21.765-17.851,43.561-35.662,65.509-53.287
	c1.331-1.068,2.518-5.585,5.605-1.977c2.542,2.973,1.47,5.514-1.406,7.845c-19.343,15.674-38.619,31.43-57.944,47.124
	c-1.313,1.066-4.183,1.298-2.29,3.893c1.652,2.265,3.646,0.607,5.012-0.52c9.265-7.655,18.573-15.263,27.886-22.853
	c9.492-7.736,18.949-15.568,28.338-23.457c2.004-1.685,3.822-4.073,6.236-1.239c2.271,2.667,2.051,4.871-1.271,7.522
	c-15.185,12.109-30.021,24.654-44.971,37.056c-1.235,1.023-2.382,2.15-4.097,3.709c6.093,1.913,10.02,0.108,14.147-3.351
	c22.217-18.625,44.854-36.756,66.888-55.591c5.962-5.097,7.747-3.89,10.936,2.472c8.668,17.305,18.291,34.129,27.146,51.344
	c2.411,4.685,5.254,6.379,10.461,6.083c7-0.397,14.053,0.131,21.084,0.261c0.713,0.506,1.428,1.013,2.143,1.52
	c15.217,36.716,16.229,73.997,4.422,111.783c-105.282-0.003-210.563-0.007-315.845-0.011
	c-12.057-37.791-10.748-75.052,4.438-111.762C52.865,161.326,53.585,160.816,54.302,160.306z M137.384,245.908
	c7.041,6.752,15.36,8.927,23.65,11.729c11.86,4.009,28.463-2.057,33.518-13.462c5.542-12.511,0.327-24.043-13.733-29.44
	c-6.254-2.4-12.869-3.843-19.229-5.995c-3.266-1.105-5.118-3.695-4.28-7.261c0.739-3.144,3.416-3.74,6.312-4.039
	c6.279-0.651,12.44-0.403,17.742,3.334c3.362,2.371,4.949,1.637,7.261-1.547c6.391-8.799,6.342-9.107-3.817-13.951
	c-4.95-2.361-10.15-3.364-15.434-3.914c-13.498-1.406-26.352,6.433-28.606,17.143c-2.938,13.953,3.27,22.721,19.438,27.406
	c4.302,1.247,8.637,2.38,12.939,3.624c3.852,1.115,6.621,3.806,6.002,7.703c-0.678,4.272-4.103,6.036-8.63,6.044
	c-5.47,0.009-11.174-0.238-15.318-3.608c-7.074-5.752-11.538-3.958-15.351,3.325C139.339,243.968,138.411,244.717,137.384,245.908z
	 M277.834,256.941c-10.349-24.394-20.331-47.481-29.871-70.75c-2.135-5.21-5.88-4.141-9.589-4.161
	c-3.739-0.02-7.551-1.025-9.669,4.125c-9.039,21.989-18.461,43.822-27.749,65.708c-0.629,1.482-1.957,3.027-0.544,4.555
	c2.64,2.851,16.632-0.178,17.354-4.172c2.002-11.039,8.76-13.605,18.662-12.088c2.747,0.422,5.686,0.463,8.414-0.013
	c7.204-1.256,11.022,1.863,12.35,8.707c1.293,6.672,5.183,9.327,11.949,8.156C271.579,256.587,274.152,256.941,277.834,256.941z"/>
<path fill-rule="evenodd" clip-rule="evenodd" fill="#F3B94E" d="M363.102,275.508c-20.995,60.397-63.144,97.99-125.246,110.828
	C158.896,402.66,81.942,360.125,51.683,285.911c-1.377-3.373-2.326-6.921-3.472-10.387c11.539-0.07,23.073-0.205,34.608-0.2
	C176.248,275.371,269.675,275.443,363.102,275.508z M270.707,332.639c2.508,0.117,5.015,0.271,7.523,0.344
	c4.685,0.136,10.638-1.821,9.686,6.732c-0.246,2.218,2.204,1.986,3.819,2.094c2.33,0.155,4.197-1.129,4.126-3.213
	c-0.146-4.357,1.967-7.084,5.614-8.681c-1.215-3.264-6.522-1.22-5.582-5.666c-0.057-7.262-0.111-14.525-0.168-21.787
	c-3.494-2.816-6.553-1.691-9.108,1.289c-6.347,7.398-12.566,14.904-18.838,22.368C267.394,328.903,265.42,332.401,270.707,332.639z
	 M184.629,341.316c-5.362-12.718-10.49-24.79-15.532-36.899c-1.12-2.696-2.837-3.702-5.805-3.652
	c-2.655,0.044-4.07,0.953-5.063,3.349c-4.61,11.137-9.286,22.249-14.042,33.324c-1.929,4.488,0.659,4.479,3.892,4.458
	c3.312-0.021,4.32-2.164,4.934-4.739c1.315-5.521,5.724-4.566,9.446-4.257c4.017,0.333,9.574-2.527,11.25,3.957
	C175.209,342.666,179.139,342.319,184.629,341.316z M125.772,341.891c9.005,0.312,14.795-3.42,16.021-10.308
	c1.186-6.658-2.569-11.22-11.506-13.963c-2.14-0.658-4.313-1.21-6.429-1.937c-1.981-0.68-3.752-1.935-3.172-4.243
	c0.546-2.169,2.664-2.728,4.721-2.785c3.16-0.089,6.099,0.798,8.83,2.344c3.173,1.798,3.688-1.281,5.011-2.747
	c2.225-2.466-0.04-3.455-1.719-4.249c-5.149-2.437-10.406-3.946-16.235-2.262c-5.815,1.679-9.173,5.216-9.513,11.291
	c-0.337,6.027,3.28,9.238,8.46,11.087c3.417,1.218,6.943,2.138,10.351,3.382c1.63,0.594,3.017,1.859,2.551,3.816
	c-0.411,1.729-1.787,2.746-3.627,2.983c-4.351,0.562-8.303-0.39-11.98-2.845c-3.253-2.17-4.509,0.908-5.917,2.735
	c-1.985,2.58,0.705,3.326,2.18,4.304C117.405,340.886,121.482,341.804,125.772,341.891z M189.305,321.767
	c0,4.777,0.093,9.556-0.031,14.329c-0.09,3.399,0.056,5.924,4.718,5.891c4.414-0.032,4.552-2.616,4.047-5.47
	c-1.595-9.01,2.305-11.839,10.839-10.617c3.456,0.495,7.92,0.896,8.083-4.521c0.183-6.058-4.813-2.619-7.422-3.63
	c-3.762-1.46-10.928,3.836-11.142-3.963c-0.241-8.821,7.471-3.072,11.381-4.455c3.523-1.246,9.965,2.01,9.923-4.348
	c-0.045-6.958-6.589-3.288-9.878-3.358C189.308,301.188,189.304,301.396,189.305,321.767z M229.762,329.45
	c6.9,0,12.422-0.187,17.926,0.063c3.971,0.179,4.917-1.515,4.187-5.032c-1.403-6.751-4.225-12.448-11.743-13.708
	c-7.406-1.241-13.412,1.396-16.819,8.29c-3.541,7.165-2.017,13.884,3.662,19.194c5.436,5.083,11.964,6,18.659,2.339
	c1.646-0.9,4.779-1.667,3.422-4.476c-1.094-2.262-3.109-3.715-6.2-1.853C237.976,337.205,233.769,336.222,229.762,329.45z
	 M255.377,303.905c-2.293,0.079-2.98,1.309-3.05,3.188c-0.074,1.954,0.493,2.699,2.717,2.643c2.237-0.057,3.026-1.38,3.144-2.896
	C258.322,305.104,257.015,304.008,255.377,303.905z"/>
<path fill-rule="evenodd" clip-rule="evenodd" fill="#133F67" d="M363.102,275.508c-93.427-0.065-186.854-0.138-280.282-0.185
	c-11.535-0.005-23.069,0.13-34.608,0.2c-0.168-0.642-0.335-1.284-0.5-1.926c105.282,0.004,210.563,0.007,315.846,0.011
	C363.404,274.242,363.252,274.875,363.102,275.508z"/>
<path fill-rule="evenodd" clip-rule="evenodd" fill="#13385A" d="M54.302,160.306c-0.717,0.511-1.437,1.021-2.152,1.53
	C52.452,160.742,53.056,160.07,54.302,160.306z"/>
<path fill-rule="evenodd" clip-rule="evenodd" fill="#13385A" d="M359.135,161.826c-0.715-0.507-1.43-1.014-2.143-1.52
	C358.232,160.067,358.834,160.734,359.135,161.826z"/>
<path fill-rule="evenodd" clip-rule="evenodd" fill="#F4F4F5" d="M137.384,245.908c1.027-1.191,1.955-1.94,2.464-2.909
	c3.813-7.282,8.276-9.077,15.351-3.325c4.145,3.37,9.849,3.617,15.318,3.608c4.527-0.008,7.952-1.772,8.63-6.044
	c0.619-3.897-2.15-6.588-6.002-7.703c-4.303-1.244-8.638-2.376-12.939-3.624c-16.169-4.685-22.376-13.454-19.438-27.406
	c2.255-10.71,15.108-18.548,28.606-17.143c5.283,0.55,10.483,1.553,15.434,3.914c10.159,4.843,10.208,5.151,3.817,13.951
	c-2.312,3.185-3.898,3.918-7.261,1.547c-5.302-3.737-11.463-3.986-17.742-3.334c-2.896,0.299-5.572,0.895-6.312,4.039
	c-0.838,3.566,1.015,6.156,4.28,7.261c6.359,2.151,12.975,3.595,19.229,5.995c14.061,5.397,19.275,16.929,13.733,29.44
	c-5.055,11.405-21.657,17.472-33.518,13.462C152.744,254.835,144.425,252.66,137.384,245.908z"/>
<path fill-rule="evenodd" clip-rule="evenodd" fill="#F8F8F8" d="M277.834,256.941c-3.682,0-6.255-0.354-8.692,0.068
	c-6.767,1.171-10.656-1.483-11.949-8.156c-1.327-6.844-5.146-9.963-12.35-8.707c-2.729,0.477-5.667,0.435-8.414,0.013
	c-9.902-1.517-16.66,1.049-18.662,12.088c-0.723,3.994-14.715,7.023-17.354,4.172c-1.413-1.527-0.085-3.072,0.544-4.555
	c9.288-21.887,18.71-43.719,27.749-65.708c2.118-5.15,5.93-4.145,9.669-4.125c3.709,0.02,7.454-1.049,9.589,4.161
	C257.503,209.46,267.485,232.548,277.834,256.941z M237.764,202.028c-2.845,8.981-7.199,15.793-8.695,23.789
	c18.956,0.364,18.959,0.363,11.975-16.364C240.194,207.421,239.265,205.421,237.764,202.028z"/>
<path fill-rule="evenodd" clip-rule="evenodd" fill="#2D4662" d="M184.629,341.316c-5.49,1.003-9.42,1.35-10.92-4.459
	c-1.676-6.483-7.233-3.623-11.25-3.957c-3.723-0.31-8.131-1.265-9.446,4.257c-0.613,2.575-1.622,4.718-4.934,4.739
	c-3.232,0.021-5.82,0.03-3.892-4.458c4.756-11.076,9.432-22.187,14.042-33.324c0.992-2.396,2.407-3.305,5.063-3.349
	c2.968-0.05,4.685,0.956,5.805,3.652C174.139,316.526,179.267,328.598,184.629,341.316z M163.845,311.287
	c-2.271,5.359-5.92,8.719-4.202,12.875c0.759,1.838,5.772,1.687,6.84,0.355C169.746,320.451,164.863,317.375,163.845,311.287z"/>
<path fill-rule="evenodd" clip-rule="evenodd" fill="#2F4762" d="M125.772,341.891c-4.29-0.087-8.367-1.005-11.975-3.396
	c-1.475-0.978-4.165-1.724-2.18-4.304c1.408-1.827,2.664-4.905,5.917-2.735c3.678,2.455,7.63,3.407,11.98,2.845
	c1.84-0.238,3.216-1.255,3.627-2.983c0.466-1.957-0.921-3.222-2.551-3.816c-3.407-1.245-6.934-2.165-10.351-3.382
	c-5.18-1.849-8.797-5.06-8.46-11.087c0.34-6.075,3.697-9.612,9.513-11.291c5.829-1.684,11.086-0.174,16.235,2.262
	c1.679,0.794,3.943,1.782,1.719,4.249c-1.323,1.466-1.838,4.545-5.011,2.747c-2.731-1.546-5.67-2.433-8.83-2.344
	c-2.057,0.058-4.175,0.616-4.721,2.785c-0.58,2.308,1.19,3.563,3.172,4.243c2.115,0.726,4.289,1.279,6.429,1.937
	c8.937,2.743,12.691,7.305,11.506,13.963C140.567,338.471,134.777,342.203,125.772,341.891z"/>
<path fill-rule="evenodd" clip-rule="evenodd" fill="#2F4762" d="M189.304,321.767c0-20.371,0.004-20.578,20.519-20.142
	c3.289,0.07,9.833-3.599,9.878,3.358c0.042,6.357-6.399,3.102-9.923,4.348c-3.91,1.382-11.622-4.367-11.381,4.455
	c0.214,7.799,7.38,2.503,11.142,3.963c2.608,1.011,7.604-2.428,7.422,3.63c-0.163,5.416-4.627,5.016-8.083,4.521
	c-8.534-1.222-12.434,1.606-10.839,10.617c0.505,2.854,0.367,5.438-4.047,5.47c-4.662,0.034-4.808-2.492-4.718-5.891
	C189.397,331.323,189.305,326.543,189.304,321.767z"/>
<path fill-rule="evenodd" clip-rule="evenodd" fill="#284463" d="M229.762,329.45c4.007,6.772,8.214,7.755,13.093,4.817
	c3.091-1.862,5.106-0.409,6.2,1.853c1.357,2.809-1.776,3.575-3.422,4.476c-6.695,3.66-13.224,2.744-18.659-2.339
	c-5.679-5.31-7.203-12.03-3.662-19.194c3.407-6.895,9.413-9.531,16.819-8.29c7.519,1.26,10.34,6.958,11.743,13.708
	c0.73,3.517-0.216,5.211-4.187,5.032C242.184,329.263,236.662,329.45,229.762,329.45z M237.792,324.27
	c1.135-0.536,4.253,1.144,4.196-2.609c-0.049-3.222-2.324-4.063-5.044-4.122c-3.119-0.066-6.114,1.538-5.934,4.382
	C231.189,324.77,234.688,324.37,237.792,324.27z"/>
<path fill-rule="evenodd" clip-rule="evenodd" fill="#2D4662" d="M267.779,326.119c6.271-7.464,12.491-14.969,18.838-22.368
	c2.556-2.979,5.614-4.104,9.108-1.289c-2.037,7.278-2.284,14.543,0.168,21.787c-0.94,4.445,4.367,2.402,5.582,5.666
	c-3.647,1.597-5.76,4.324-5.614,8.681c0.071,2.084-1.796,3.369-4.126,3.213c-1.615-0.108-4.065,0.124-3.819-2.094
	c0.952-8.553-5.001-6.596-9.686-6.732c-2.509-0.074-5.016-0.227-7.522-0.344C269.731,330.465,268.755,328.291,267.779,326.119z
	 M287.301,313.957c-4.204,4.791-7.885,8-9.934,12.813C287.959,328.314,288.046,328.21,287.301,313.957z"/>
<path fill-rule="evenodd" clip-rule="evenodd" fill="#133F67" d="M295.894,324.25c-2.452-7.244-2.205-14.509-0.168-21.787
	C295.782,309.725,295.837,316.987,295.894,324.25z"/>
<path fill-rule="evenodd" clip-rule="evenodd" fill="#7B705C" d="M255.377,303.905c1.638,0.103,2.945,1.2,2.811,2.936
	c-0.117,1.515-0.906,2.838-3.144,2.896c-2.224,0.056-2.791-0.689-2.717-2.643C252.396,305.214,253.084,303.984,255.377,303.905z"/>
<path fill-rule="evenodd" clip-rule="evenodd" fill="#163C63" d="M267.779,326.119c0.976,2.172,1.952,4.346,2.929,6.521
	C265.42,332.401,267.394,328.903,267.779,326.119z"/>
<path fill-rule="evenodd" clip-rule="evenodd" fill="#304A67" d="M237.764,202.028c1.501,3.393,2.431,5.393,3.279,7.424
	c6.984,16.727,6.981,16.729-11.975,16.364C230.564,217.821,234.919,211.009,237.764,202.028z"/>
<path fill-rule="evenodd" clip-rule="evenodd" fill="#E2AE50" d="M163.845,311.287c1.019,6.088,5.901,9.165,2.638,13.23
	c-1.067,1.332-6.081,1.482-6.84-0.355C157.925,320.005,161.574,316.646,163.845,311.287z"/>
<path fill-rule="evenodd" clip-rule="evenodd" fill="#F3B94E" d="M237.792,324.27c-3.104,0.1-6.603,0.5-6.781-2.349
	c-0.181-2.845,2.814-4.449,5.934-4.382c2.72,0.059,4.995,0.9,5.044,4.122C242.045,325.414,238.927,323.734,237.792,324.27z"/>
<path fill-rule="evenodd" clip-rule="evenodd" fill="#F3B94E" d="M287.301,313.957c0.745,14.253,0.658,14.357-9.934,12.813
	C279.416,321.957,283.097,318.748,287.301,313.957z"/>
</svg>
