<?xml version="1.0" encoding="utf-8"?>
<!-- Generator: Adobe Illustrator 16.0.0, SVG Export Plug-In . SVG Version: 6.00 Build 0)  -->
<!DOCTYPE svg PUBLIC "-//W3C//DTD SVG 1.1//EN" "http://www.w3.org/Graphics/SVG/1.1/DTD/svg11.dtd">
<svg version="1.1" id="Layer_1" xmlns="http://www.w3.org/2000/svg" xmlns:xlink="http://www.w3.org/1999/xlink" x="0px" y="0px"
	 width="411.293px" height="466.784px" viewBox="0 0 411.293 466.784" enable-background="new 0 0 411.293 466.784"
	 xml:space="preserve">
<g>
	<path fill-rule="evenodd" clip-rule="evenodd" fill="#B1AFAE" d="M229.413,66.598c-63.325-1.949-126.667-0.356-189.999-0.888
		c-0.997-0.009-1.993-0.095-2.99-0.145c-0.027-0.276-0.047-0.556-0.059-0.835c-0.008-0.342-0.015-0.684-0.022-1.025
		c1.071-0.242,2.208-0.417,2.011-1.96c60.014,0,120.027,0,180.041,0c-0.046,1.993,1.45,1.797,2.737,1.968
		c2.764,0.367,5.521,0.782,8.279,1.178C229.411,65.459,229.412,66.03,229.413,66.598z"/>
	<path fill-rule="evenodd" clip-rule="evenodd" fill="#FEFEFE" d="M30.352,243.788c0-57.347,0-114.693,0-172.039
		c0.604,0.018,1.207,0.035,1.812,0.052c0.002-0.001,0.464,0.038,0.464,0.038l0.461-0.044c0.014,57.319,0.029,114.638,0.044,171.956
		c-0.315-0.057-0.632-0.063-0.948-0.014C31.573,243.754,30.963,243.77,30.352,243.788z"/>
	<path fill-rule="evenodd" clip-rule="evenodd" fill="#F0F0F1" d="M380.619,225.735c0.938,0.016,1.875,0.032,2.813,0.049
		c0,7.334,0,14.67,0,22.004c-0.945,0.011-1.889,0.021-2.836,0.031C380.602,240.458,380.611,233.096,380.619,225.735z"/>
	<path fill-rule="evenodd" clip-rule="evenodd" fill="#F0F0F1" d="M229.411,64.891c-2.759-0.396-5.516-0.811-8.279-1.178
		c-1.287-0.171-2.783,0.025-2.737-1.968c5.001,0,10.003,0,15.003,0c0.001,0.996,0.002,1.991,0.002,2.988
		C232.069,64.786,230.741,64.838,229.411,64.891z"/>
	<path fill-rule="evenodd" clip-rule="evenodd" fill="#F0F0F1" d="M30.352,243.788c0.611-0.018,1.222-0.033,1.834-0.05
		c0.344,4.359,0.686,8.717,1.027,13.077c-0.954-0.008-1.908-0.016-2.861-0.025C30.352,252.455,30.352,248.122,30.352,243.788z"/>
	<path fill-rule="evenodd" clip-rule="evenodd" fill="#F0F0F1" d="M32.162,71.801c-0.604-0.018-1.207-0.035-1.811-0.053
		c0-2.668,0-5.335,0-8.002c1.445,0,2.441-0.673,3.001-2.001c1.667,0,3.334,0,5.001,0c0.197,1.543-0.939,1.718-2.011,1.96
		c-0.337,0.003-0.675,0.006-1.013,0.008C31.018,65.133,32.924,68.99,32.162,71.801z"/>
	<path fill-rule="evenodd" clip-rule="evenodd" fill="#FEFEFE" d="M33.353,61.746c-0.56,1.328-1.556,2.001-3.001,2.001
		C29.739,60.661,32.083,62.009,33.353,61.746z"/>
	<path fill-rule="evenodd" clip-rule="evenodd" fill="#2A4665" d="M38.416,252.643c-0.061-59.338-0.076-118.679-0.277-178.018
		c-0.014-4.398,0.873-5.821,5.62-5.804c53.344,0.191,106.688,0.122,160.032,0.114c1.832-0.001,3.662-0.092,5.493-0.142
		c2.266,1.106,4.627,0.574,6.969,0.404c3.012,0.199,6.024,0.398,9.037,0.598c0.663,0.137,1.326,0.273,1.989,0.41
		c1.969,0.211,3.938,0.422,5.906,0.632c0.374,0.127,0.749,0.254,1.123,0.381c1.343,0.187,2.686,0.373,4.027,0.56
		c0.666,0.183,1.332,0.365,1.998,0.549c0.986,0.155,1.971,0.312,2.957,0.469c0.324,0.1,0.65,0.199,0.975,0.299
		c1.059,0.215,2.115,0.428,3.174,0.643c0.641,0.23,1.283,0.459,1.924,0.689c42.836,11.922,76.445,36.371,100.393,73.939
		c8.996,14.113,15.379,29.377,19.939,45.438c0.25,0.645,0.498,1.289,0.746,1.934c0.104,0.693,0.207,1.387,0.311,2.08
		c0.219,0.669,0.438,1.338,0.656,2.008c0.59,3.046,1.18,6.093,1.771,9.139c-0.068,0.106-0.219,0.25-0.189,0.313
		c0.098,0.219,0.258,0.409,0.393,0.611c0.143,1.317,0.283,2.636,0.426,3.952c-0.23,1.086,0.004,2.081,0.594,3.006
		c0.135,2,0.271,4,0.406,5.999c0.008,1.386-0.426,2.833,0.561,4.084c0,7.238,0,14.476,0,21.713
		c-0.986,1.252-0.553,2.697-0.561,4.084c-0.135,2-0.271,4-0.406,5.998c-0.59,0.926-0.824,1.92-0.594,3.008
		c-0.143,1.316-0.283,2.633-0.426,3.951c-0.096,0.08-0.27,0.156-0.275,0.244c-0.016,0.223,0.043,0.453,0.072,0.68
		c-0.59,3.045-1.182,6.092-1.771,9.137c-0.109,0.307-0.217,0.613-0.326,0.92c-0.213,1.057-0.428,2.113-0.641,3.17
		c-0.248,0.645-0.496,1.289-0.746,1.934c-11.324,39.908-33.895,71.825-68.029,95.452c-15.992,11.07-33.568,18.771-52.299,23.899
		c-0.656,0.232-1.313,0.465-1.971,0.699c-1.102-0.059-2.191-0.057-3.131,0.658c-0.324,0.1-0.65,0.199-0.975,0.299
		c-0.979,0.133-1.959,0.265-2.938,0.397c-0.688,0.201-1.373,0.402-2.061,0.604c-1.328,0.176-2.656,0.352-3.984,0.527
		c-0.658,0.164-1.316,0.326-1.976,0.49c-1.676,0.17-3.352,0.34-5.027,0.51c-0.752-0.154-1.484-0.217-2.054,0.457
		c-2.979,0.162-5.959,0.324-8.938,0.486c-6.271,0.021-12.544,0.043-18.815,0.063c-3.001-0.178-6.002-0.355-9.004-0.533
		c-0.918-0.707-1.963-0.748-3.047-0.576c-1.616-0.154-3.232-0.311-4.85-0.467c-0.374-0.127-0.748-0.254-1.123-0.381
		c-1.361-0.178-2.723-0.357-4.084-0.535c-0.646-0.191-1.294-0.383-1.94-0.572c-1.021-0.145-2.04-0.286-3.061-0.429
		c-0.655-0.223-1.312-0.447-1.967-0.672c-2.026-0.436-4.053-0.873-6.079-1.311c-0.643-0.238-1.286-0.477-1.929-0.715
		c-39.187-11.818-70.558-34.382-93.669-68.244c-10.3-15.092-17.615-31.592-22.688-49.113c-0.238-0.643-0.477-1.285-0.715-1.928
		c-0.104-0.693-0.208-1.387-0.312-2.078c-0.229-0.641-0.46-1.281-0.689-1.922c-0.172-1.043-0.344-2.084-0.516-3.125
		c-0.137-0.354-0.274-0.709-0.411-1.063c-0.196-1.314-0.393-2.627-0.59-3.939c-0.137-0.354-0.273-0.707-0.41-1.063
		c-0.146-1.303-0.293-2.605-0.439-3.908c0.209-0.814,0.086-1.547-0.533-2.156c-0.156-1.949-0.312-3.9-0.468-5.852
		C39.086,254.646,39.254,253.555,38.416,252.643z M357.607,237.88c0.078-81.556-65.313-150.784-151.002-150.586
		c-87.881,0.202-152.563,72.898-150.38,154.726c2.079,77.972,65.712,146.813,152.018,146.67
		C290.295,388.554,357.742,320.449,357.607,237.88z M93.071,102.2c0-5.15-0.024-10.301,0.011-15.451
		c0.017-2.605-0.94-3.988-3.807-3.967c-10.301,0.082-20.604,0.074-30.904,0.005c-2.783-0.019-3.945,1.276-3.945,3.9
		c-0.003,10.136,0.018,20.271-0.016,30.405c-0.009,2.859,1.252,4.365,4.162,4.365c10.135,0.002,20.27,0.004,30.405-0.003
		c2.851-0.002,4.204-1.313,4.129-4.302C92.98,112.172,93.072,107.185,93.071,102.2z"/>
	<path fill-rule="evenodd" clip-rule="evenodd" fill="#D4D3D2" d="M319.318,368.716c8.814-9.414,18.297-18.191,26.008-28.645
		c11.621-15.752,20.066-33.036,26.023-51.612c0.193-0.604,0.609-1.137,0.924-1.703c0.385,0.014,0.77,0.025,1.154,0.039
		c-0.295,1.342-0.59,2.686-0.885,4.025c-2.742,11.385-8.082,21.658-13.633,31.842c-8.967,16.455-20.744,30.682-34.342,43.483
		c-1.459,1.373-2.754,2.943-5.037,2.781L319.318,368.716z"/>
	<path fill-rule="evenodd" clip-rule="evenodd" fill="#B9B7B7" d="M366.352,166.797c0.391,0.988,0.781,1.976,1.172,2.963
		c0.594,1.714,1.361,3.391,1.748,5.15c0.764,3.479,3.449,6.58,2.117,10.477c-2.143-5.2-4.236-10.422-6.436-15.598
		c-9.439-22.203-23.434-41.221-40.65-57.975c0.568-0.107,1.135-0.213,1.701-0.32c0.787,0.129,1.574,0.256,2.361,0.384
		c1.328,1.956,2.975,3.598,4.918,4.945c0.811,2.76,2.984,4.337,5.143,5.931c0.568,1.386,1.598,2.342,2.879,3.059
		c0.176,1.364,0.773,2.418,2.131,2.92c0.314,0.35,0.631,0.697,0.945,1.047c0.104,1.391,0.738,2.408,2.057,2.95
		c1.668,2.343,3.338,4.685,5.006,7.027c0.025,1.418,0.658,2.442,1.963,3.032c0,0-0.01-0.007-0.01-0.008
		c0.039,1.257,0.748,1.934,1.912,2.22c-0.023,0.265,0.016,0.519,0.117,0.765c0.285,1.872,0.881,3.541,2.844,4.307
		c-0.039,0.244-0.008,0.479,0.094,0.704C360.471,156.395,363.211,161.696,366.352,166.797z"/>
	<path fill-rule="evenodd" clip-rule="evenodd" fill="#D4D3D2" d="M90.346,364.874c12.276,10.768,25.479,20.184,40.153,27.439
		c10.579,5.23,21.832,8.678,32.98,12.397c0.603,0.201,1.333,0.213,1.495,1.357c-1.418,1.586-2.988,0.105-4.287-0.256
		c-25.126-6.972-47.738-18.733-67.528-35.78c-1.22-1.051-2.721-2.021-2.886-3.91C90.299,365.704,90.322,365.29,90.346,364.874z"/>
	<path fill-rule="evenodd" clip-rule="evenodd" fill="#ADAAA9" d="M33.132,243.75c-0.015-57.318-0.03-114.637-0.042-171.957
		c0.398-0.002,0.796-0.003,1.193-0.005c0.047,39.991,0.115,79.983,0.131,119.975c0.008,17.327-0.096,34.655-0.149,51.983
		C33.888,243.749,33.51,243.75,33.132,243.75z"/>
	<path fill-rule="evenodd" clip-rule="evenodd" fill="#ADAAA9" d="M229.411,64.891c1.33-0.053,2.658-0.105,3.988-0.157
		c0.646,0.052,1.295,0.104,1.941,0.157c2.538,1.274,5.216,1.916,8.065,1.791c0.646,0.071,1.291,0.143,1.939,0.213
		c0.416,0.256,0.799,0.646,1.25,0.751c12.137,2.821,23.758,7.087,35.023,12.367c1.66,0.777,3.465,1.415,3.244,3.793
		c-11.074-4.462-21.938-9.515-33.639-12.244c-7.262-1.694-14.541-3.311-21.812-4.962C229.412,66.03,229.411,65.459,229.411,64.891z"
		/>
	<path fill-rule="evenodd" clip-rule="evenodd" fill="#CCCACA" d="M380.619,225.735c-0.008,7.361-0.018,14.723-0.023,22.084
		c-0.061,2.322-0.125,4.642-0.188,6.962c-1.33,1.129-0.869,2.623-0.82,4.031c-0.066,1.322-0.131,2.645-0.195,3.967
		c-0.773,0.488-0.908,1.213-0.75,2.045c-0.084,1.318-0.166,2.637-0.248,3.957c-0.77,0.486-0.9,1.215-0.773,2.041
		c-0.754,4.284-1.51,8.565-2.262,12.848c-0.648,0.043-1.299,0.086-1.947,0.127c-0.045-6.336,2.031-12.333,3.135-18.471
		c2.299-12.809,1.875-25.681,1.924-38.562c0.428-0.431,0.857-0.862,1.287-1.294C380.043,225.567,380.33,225.655,380.619,225.735z"/>
	<path fill-rule="evenodd" clip-rule="evenodd" fill="#C4C2C1" d="M33.132,243.75c0.378-0.001,0.756-0.002,1.133-0.004
		c2.308,5.156,0.889,10.732,1.812,16.113c1.732,10.088,3.713,20.083,6.371,29.955c-0.855,0.885-1.533,0.939-2.057-0.348
		c-0.638-1.572-0.689-3.398-1.998-4.686c-0.075-0.652-0.15-1.306-0.224-1.958c0.122-0.832-0.021-1.559-0.804-2.029
		c-0.067-0.658-0.134-1.314-0.199-1.973c0.131-0.834-0.031-1.551-0.801-2.029c-0.068-0.99-0.137-1.98-0.203-2.971
		c0.137-0.832-0.01-1.555-0.785-2.035c-0.053-0.658-0.105-1.316-0.156-1.975c0.096-1.111,0.273-2.248-0.833-3.031
		c-0.066-0.988-0.133-1.979-0.198-2.969c0.067-1.412,0.518-2.906-0.85-4.014c-0.042-0.994-0.083-1.988-0.126-2.982
		c-0.343-4.359-0.685-8.717-1.028-13.077C32.5,243.688,32.816,243.694,33.132,243.75z"/>
	<path fill-rule="evenodd" clip-rule="evenodd" fill="#B1AFAE" d="M326.004,111.495c-0.566,0.107-1.133,0.213-1.701,0.32
		c-11.221-10.443-23.969-18.768-37.012-26.684c0.049-0.516,0.1-1.031,0.148-1.545c3.309,1.412,6.617,2.826,9.926,4.238
		c0,0-0.014-0.022-0.012-0.023c0.584,1.301,1.615,1.935,3.014,2.023l-0.014-0.023c0.576,1.313,1.598,1.961,3.014,2.025l-0.014-0.023
		c0.586,1.303,1.639,1.904,3.021,2.014l-0.014-0.021c0.553,1.32,1.609,1.946,2.971,2.149c0.574,0.326,1.15,0.651,1.729,0.977
		c0.543,1.615,1.508,2.74,3.332,2.872c0,0-0.01-0.014-0.01-0.015c1.59,2.166,3.199,4.309,5.996,5.036c0,0-0.012-0.02-0.012-0.021
		C322.246,107.029,324.125,109.262,326.004,111.495z"/>
	<path fill-rule="evenodd" clip-rule="evenodd" fill="#F0F0F1" d="M297.365,87.825c-3.309-1.412-6.617-2.826-9.926-4.237
		c-0.854,0.058-1.707,0.113-2.561,0.169l-0.016,0.049c0.221-2.377-1.584-3.015-3.244-3.792c-11.266-5.28-22.887-9.546-35.023-12.367
		c-0.451-0.104-0.834-0.495-1.25-0.751c0.596-1.045,1.494-1.134,2.557-0.872c16.93,4.165,32.834,10.848,47.955,19.471
		C296.816,86.042,297.379,86.713,297.365,87.825z"/>
	<path fill-rule="evenodd" clip-rule="evenodd" fill="#D4D3D2" d="M242.307,406.748c5.52-2.836,11.73-3.322,17.564-5.114
		c8.746-2.689,16.826-7.021,25.488-9.877l0.121,0.139c-3.094,4.357-8.34,5.146-12.709,6.951c-9.764,4.039-19.807,7.544-30.393,9.005
		C242.355,407.484,242.33,407.115,242.307,406.748z"/>
	<path fill-rule="evenodd" clip-rule="evenodd" fill="#E5E4E4" d="M218.397,411.826c-15.431,0.393-30.792-0.262-46.019-2.998
		c0-0.67-0.002-1.338-0.002-2.01c12.693,1.279,25.386,2.576,38.083,3.816c1.961,0.191,3.948,0.121,5.924,0.172
		C217.208,410.843,217.968,411.009,218.397,411.826z"/>
	<path fill-rule="evenodd" clip-rule="evenodd" fill="#C4C2C1" d="M379.758,225.47c-0.43,0.432-0.859,0.863-1.287,1.294
		c-0.865-12.396-3.08-24.563-6.375-36.532c-0.445-1.614-0.904-3.181-0.725-4.866c3.227,0.961,2.008,4.703,4.018,6.424
		c0.066,0.654,0.133,1.31,0.195,1.964c-0.111,0.833,0.043,1.56,0.824,2.03c0.096,0.987,0.191,1.975,0.285,2.961
		c-0.193,0.832-0.035,1.541,0.717,2.039c0.061,0.658,0.121,1.316,0.18,1.975c-0.041,1.409-0.5,2.91,0.881,4.006
		c0.047,0.664,0.094,1.328,0.139,1.992c-0.137,1.115-0.311,2.241,0.787,3.035c0.074,1.322,0.148,2.645,0.221,3.967
		c0.053,1.018,0.105,2.035,0.16,3.055C379.771,221.032,379.764,223.25,379.758,225.47z"/>
	<path fill-rule="evenodd" clip-rule="evenodd" fill="#C4C2C1" d="M46.501,308.553c0.085-3.969-3.087-6.895-3.433-10.725
		c0.098-0.719,0.194-1.438,0.291-2.156c1.787,0.676,2.25,2.375,2.759,3.887c2.468,7.344,6.325,14.063,9.384,21.137l-0.291,0.324
		c-0.325,0.018-0.629,0.109-0.91,0.273c-0.32-0.16-0.641-0.322-0.96-0.482c0.009-1.442-0.686-2.442-1.934-3.096
		c-0.694-1.635-1.388-3.271-2.083-4.906C49.085,310.924,48.55,309.236,46.501,308.553z"/>
	<path fill-rule="evenodd" clip-rule="evenodd" fill="#E5E4E4" d="M242.307,406.748c0.023,0.367,0.049,0.736,0.072,1.104
		c-7.121,2.525-14.501,3.182-21.99,3.053c0.005-0.691,0.011-1.381,0.016-2.07C227.824,409.4,234.946,406.833,242.307,406.748z"/>
	<path fill-rule="evenodd" clip-rule="evenodd" fill="#D4D3D2" d="M319.531,368.927c-4.145,6.333-9.912,10.543-17.025,12.987
		l-0.184-0.188c5.295-4.822,11.195-8.852,16.998-13.01C319.318,368.716,319.531,368.927,319.531,368.927z"/>
	<path fill-rule="evenodd" clip-rule="evenodd" fill="#F0F0F1" d="M375.389,191.79c-2.01-1.721-0.791-5.463-4.018-6.424
		c0-0.001,0.018,0.021,0.018,0.021c1.332-3.896-1.354-6.998-2.117-10.477c-0.387-1.76-1.154-3.437-1.748-5.15
		c1.387,0.057,2.041,1.029,2.422,2.143c2.07,6.063,4.094,12.143,6.123,18.221C376.309,190.842,375.977,191.381,375.389,191.79z"/>
	<path fill-rule="evenodd" clip-rule="evenodd" fill="#F0F0F1" d="M43.359,295.672c-0.097,0.719-0.193,1.438-0.291,2.156
		c-3.599-3.619-4.998-8.023-4.676-13.045c1.309,1.285,1.36,3.111,1.998,4.684c0.523,1.287,1.201,1.232,2.057,0.348
		C42.9,291.744,44.712,293.463,43.359,295.672z"/>
	<path fill-rule="evenodd" clip-rule="evenodd" fill="#D4D3D2" d="M302.506,381.914c-2.492,3.432-5.592,5.835-10.051,5.951
		l-0.082-0.082c2.855-2.775,6.234-4.693,9.949-6.054C302.322,381.726,302.506,381.914,302.506,381.914z"/>
	<path fill-rule="evenodd" clip-rule="evenodd" fill="#F0F0F1" d="M197.498,406.31c6.271-0.02,12.544-0.041,18.815-0.063
		C210.045,407.304,203.773,407.207,197.498,406.31z"/>
	<path fill-rule="evenodd" clip-rule="evenodd" fill="#CCCACA" d="M55.502,320.696c1.869,2.869,3.949,5.617,5.09,8.904
		c-0.18,0.162-0.362,0.316-0.551,0.465c-2.617-1.805-4.367-4.207-5.045-7.344c0.074-0.566,0.145-1.133,0.215-1.701L55.502,320.696z"
		/>
	<path fill-rule="evenodd" clip-rule="evenodd" fill="#C4C2C1" d="M34.283,71.789c-0.397,0.002-0.795,0.003-1.193,0.005
		c-0.002,0.001-0.463,0.045-0.463,0.045s-0.462-0.039-0.464-0.038c0.761-2.811-1.146-6.667,3.167-8.087
		c0.346,0.34,0.69,0.68,1.035,1.018c0.012,0.279,0.031,0.559,0.059,0.835C32.875,66.665,35.014,69.72,34.283,71.789z"/>
	<path fill-rule="evenodd" clip-rule="evenodd" fill="#CCCACA" d="M75.517,349.642c1.883,1.834,4.251,3.268,4.976,6.055
		c-0.002,0.002-0.27,0.27-0.27,0.27c-2.899-0.939-4.736-2.797-5.104-5.92C75.254,349.915,75.387,349.78,75.517,349.642z"/>
	<path fill-rule="evenodd" clip-rule="evenodd" fill="#F0F0F1" d="M373.412,283.797c0.648-0.041,1.299-0.084,1.947-0.127
		c-0.082,2.72,0.428,5.675-2.818,7.15c0.297-1.34,0.592-2.684,0.887-4.025c0.002-1.008,0.002-2.016,0.004-3.023L373.412,283.797z"/>
	<path fill-rule="evenodd" clip-rule="evenodd" fill="#D4D3D2" d="M285.359,391.756c1.748-2.367,4.357-3.21,7.014-3.974l0.082,0.082
		c-1.275,3.164-4.115,3.613-6.977,4.029C285.48,391.895,285.359,391.756,285.359,391.756z"/>
	<path fill-rule="evenodd" clip-rule="evenodd" fill="#CCCACA" d="M66.583,338.604c1.649,1.422,3.347,2.807,3.972,5.037
		c-0.169,0.15-0.342,0.293-0.52,0.43c-2.4-0.814-3.721-2.471-3.9-5.016C66.277,338.897,66.427,338.747,66.583,338.604z"/>
	<path fill-rule="evenodd" clip-rule="evenodd" fill="#F0F0F1" d="M220.404,408.833c-0.005,0.689-0.011,1.379-0.016,2.07
		c-0.454,0.762-1.191,0.91-1.991,0.922c-0.43-0.816-1.189-0.982-2.014-1.02C216.737,408.142,218.827,409.009,220.404,408.833z"/>
	<path fill-rule="evenodd" clip-rule="evenodd" fill="#F0F0F1" d="M33.34,259.797c1.367,1.107,0.917,2.602,0.85,4.014
		C31.597,262.961,31.977,261.482,33.34,259.797z"/>
	<path fill-rule="evenodd" clip-rule="evenodd" fill="#F0F0F1" d="M379.588,258.813c-0.049-1.408-0.51-2.902,0.82-4.031
		C381.818,256.469,382.199,257.945,379.588,258.813z"/>
	<path fill-rule="evenodd" clip-rule="evenodd" fill="#CCCACA" d="M73.13,348.049c-2.193-0.424-2.839-2.049-3.091-3.98
		c0.174-0.135,0.347-0.277,0.516-0.428c1.341,1.07,2.619,2.189,3.007,3.982C73.414,347.764,73.271,347.907,73.13,348.049z"/>
	<path fill-rule="evenodd" clip-rule="evenodd" fill="#F0F0F1" d="M46.501,308.553c2.049,0.684,2.584,2.371,2.823,4.256
		C46.904,312.371,46.551,310.563,46.501,308.553z"/>
	<path fill-rule="evenodd" clip-rule="evenodd" fill="#F0F0F1" d="M172.377,406.818c0,0.672,0.002,1.34,0.002,2.01
		c-1.572-0.189-3.672,0.672-3.994-2.006l-0.002,0.002C169.713,406.822,171.045,406.82,172.377,406.818z"/>
	<path fill-rule="evenodd" clip-rule="evenodd" fill="#F0F0F1" d="M216.253,69.198c-2.342,0.17-4.703,0.702-6.969-0.404
		C211.611,68.844,213.978,68.224,216.253,69.198z"/>
	<path fill-rule="evenodd" clip-rule="evenodd" fill="#F0F0F1" d="M34.388,266.779c1.106,0.783,0.929,1.92,0.833,3.031
		C33.131,269.297,32.768,268.311,34.388,266.779z"/>
	<path fill-rule="evenodd" clip-rule="evenodd" fill="#CCCACA" d="M64.014,336.084c-1.602-0.387-1.801-1.662-1.903-2.998
		c0.151-0.172,0.311-0.336,0.479-0.49c1.032,0.758,1.771,1.711,2.006,3.002C64.408,335.768,64.214,335.93,64.014,336.084z"/>
	<path fill-rule="evenodd" clip-rule="evenodd" fill="#F0F0F1" d="M51.406,317.715c1.249,0.654,1.943,1.654,1.935,3.096
		C51.264,320.674,51.329,319.197,51.406,317.715z"/>
	<path fill-rule="evenodd" clip-rule="evenodd" fill="#CCCACA" d="M64.596,335.598c1.029,0.762,1.742,1.73,1.984,3.008
		c-0.153,0.141-0.303,0.291-0.445,0.449c-1.631-0.334-1.869-1.656-2.118-2.973C64.214,335.93,64.408,335.768,64.596,335.598z"/>
	<path fill-rule="evenodd" clip-rule="evenodd" fill="#CCCACA" d="M62.11,333.086c-1.607-0.381-1.856-1.689-2.065-3.023
		c0.185-0.146,0.367-0.301,0.547-0.463c1.021,0.764,1.711,1.746,1.996,2.998C62.421,332.75,62.262,332.915,62.11,333.086z"/>
	<path fill-rule="evenodd" clip-rule="evenodd" fill="#F0F0F1" d="M37.365,280.793c0.783,0.471,0.926,1.197,0.804,2.029
		C36.883,282.547,35.855,282.17,37.365,280.793z"/>
	<path fill-rule="evenodd" clip-rule="evenodd" fill="#F0F0F1" d="M378.643,264.824c-0.158-0.832-0.023-1.557,0.75-2.045
		C380.928,264.117,379.941,264.527,378.643,264.824z"/>
	<path fill-rule="evenodd" clip-rule="evenodd" fill="#F0F0F1" d="M374.809,252.727c0.008-1.387-0.426-2.832,0.561-4.084
		C375.4,250.033,375.852,251.482,374.809,252.727z"/>
	<path fill-rule="evenodd" clip-rule="evenodd" fill="#F0F0F1" d="M375.369,226.929c-0.986-1.251-0.553-2.698-0.561-4.084
		C375.852,224.09,375.398,225.539,375.369,226.929z"/>
	<path fill-rule="evenodd" clip-rule="evenodd" fill="#F0F0F1" d="M377.621,270.822c-0.127-0.826,0.004-1.555,0.773-2.041
		C379.936,270.143,378.92,270.535,377.621,270.822z"/>
	<path fill-rule="evenodd" clip-rule="evenodd" fill="#F0F0F1" d="M35.377,271.785c0.775,0.48,0.922,1.203,0.785,2.035
		C34.867,273.539,33.854,273.15,35.377,271.785z"/>
	<path fill-rule="evenodd" clip-rule="evenodd" fill="#F0F0F1" d="M36.365,276.792c0.77,0.479,0.932,1.195,0.801,2.029
		C35.881,278.545,34.854,278.167,36.365,276.792z"/>
	<path fill-rule="evenodd" clip-rule="evenodd" fill="#F0F0F1" d="M374.402,216.846c-0.59-0.925-0.824-1.92-0.594-3.006
		C374.666,214.712,374.475,215.792,374.402,216.846z"/>
	<path fill-rule="evenodd" clip-rule="evenodd" fill="#F0F0F1" d="M38.416,252.643c0.838,0.912,0.67,2.004,0.56,3.086
		C38.104,254.824,38.326,253.723,38.416,252.643z"/>
	<path fill-rule="evenodd" clip-rule="evenodd" fill="#F0F0F1" d="M373.809,261.732c-0.23-1.088,0.004-2.082,0.594-3.008
		C374.475,259.781,374.666,260.859,373.809,261.732z"/>
	<path fill-rule="evenodd" clip-rule="evenodd" fill="#CCCACA" d="M373.432,283.772c-0.002,1.007-0.002,2.015-0.004,3.023
		c-0.385-0.014-0.77-0.025-1.154-0.039C372.465,285.686,372.139,284.415,373.432,283.772z"/>
	<path fill-rule="evenodd" clip-rule="evenodd" fill="#F0F0F1" d="M185.447,405.201c1.084-0.172,2.129-0.131,3.047,0.576
		C187.428,405.861,186.336,406.066,185.447,405.201z"/>
	<path fill-rule="evenodd" clip-rule="evenodd" fill="#F0F0F1" d="M227.279,70.206c-0.663-0.137-1.326-0.273-1.989-0.41
		C225.954,69.932,226.616,70.069,227.279,70.206z"/>
	<path fill-rule="evenodd" clip-rule="evenodd" fill="#F0F0F1" d="M371.408,199.825c-0.219-0.67-0.438-1.339-0.656-2.008
		C370.971,198.486,371.189,199.155,371.408,199.825z"/>
	<path fill-rule="evenodd" clip-rule="evenodd" fill="#F0F0F1" d="M240.334,72.327c-0.666-0.184-1.332-0.366-1.998-0.549
		C239.002,71.96,239.668,72.143,240.334,72.327z"/>
	<path fill-rule="evenodd" clip-rule="evenodd" fill="#F0F0F1" d="M370.441,195.737c-0.248-0.645-0.496-1.289-0.746-1.934
		C369.943,194.448,370.193,195.092,370.441,195.737z"/>
	<path fill-rule="evenodd" clip-rule="evenodd" fill="#ADAAA9" d="M284.879,83.756c0.854-0.056,1.707-0.111,2.561-0.169
		c-0.049,0.513-0.1,1.028-0.148,1.544C286.373,84.875,285.383,84.74,284.879,83.756z"/>
	<path fill-rule="evenodd" clip-rule="evenodd" fill="#F0F0F1" d="M225.252,405.761c0.569-0.674,1.302-0.611,2.054-0.457
		C226.621,405.457,225.937,405.609,225.252,405.761z"/>
	<path fill-rule="evenodd" clip-rule="evenodd" fill="#F0F0F1" d="M39.443,261.58c0.619,0.609,0.742,1.342,0.533,2.156
		C39.799,263.018,39.621,262.299,39.443,261.58z"/>
	<path fill-rule="evenodd" clip-rule="evenodd" fill="#F0F0F1" d="M160.415,400.12c0.643,0.238,1.286,0.477,1.929,0.715
		C161.701,400.596,161.058,400.358,160.415,400.12z"/>
	<path fill-rule="evenodd" clip-rule="evenodd" fill="#F0F0F1" d="M247.396,401.819c0.658-0.234,1.314-0.467,1.971-0.699
		C248.711,401.352,248.055,401.584,247.396,401.819z"/>
	<path fill-rule="evenodd" clip-rule="evenodd" fill="#F0F0F1" d="M168.423,402.145c0.655,0.225,1.312,0.449,1.967,0.672
		C169.734,402.594,169.078,402.37,168.423,402.145z"/>
	<path fill-rule="evenodd" clip-rule="evenodd" fill="#F0F0F1" d="M173.45,403.246c0.646,0.189,1.294,0.381,1.94,0.572
		C174.744,403.626,174.097,403.435,173.45,403.246z"/>
	<path fill-rule="evenodd" clip-rule="evenodd" fill="#F0F0F1" d="M238.293,403.777c0.688-0.201,1.373-0.402,2.061-0.604
		C239.666,403.375,238.98,403.576,238.293,403.777z"/>
	<path fill-rule="evenodd" clip-rule="evenodd" fill="#F0F0F1" d="M55.211,321.02c-0.07,0.568-0.141,1.135-0.215,1.701
		c-0.233-0.48-0.465-0.959-0.695-1.434C54.582,321.129,54.886,321.038,55.211,321.02z"/>
	<path fill-rule="evenodd" clip-rule="evenodd" fill="#F0F0F1" d="M232.333,404.794c0.659-0.164,1.317-0.326,1.976-0.49
		C233.65,404.468,232.991,404.63,232.333,404.794z"/>
	<path fill-rule="evenodd" clip-rule="evenodd" fill="#F0F0F1" d="M167.383,406.824c0.166-0.438,0.334-0.873,0.501-1.311
		c0.166,0.438,0.333,0.875,0.499,1.311l0.002-0.002C168.051,406.824,167.717,406.824,167.383,406.824L167.383,406.824z"/>
	<path fill-rule="evenodd" clip-rule="evenodd" fill="#F0F0F1" d="M43.344,280.834c0.238,0.643,0.477,1.285,0.715,1.928
		C43.82,282.12,43.582,281.477,43.344,280.834z"/>
	<path fill-rule="evenodd" clip-rule="evenodd" fill="#F0F0F1" d="M369.695,281.768c0.25-0.645,0.498-1.289,0.746-1.934
		C370.193,280.479,369.943,281.124,369.695,281.768z"/>
	<path fill-rule="evenodd" clip-rule="evenodd" fill="#F0F0F1" d="M249.363,74.426c-0.641-0.23-1.283-0.459-1.924-0.689
		C248.082,73.967,248.723,74.196,249.363,74.426z"/>
	<path fill-rule="evenodd" clip-rule="evenodd" fill="#F0F0F1" d="M42.343,276.834c0.229,0.641,0.46,1.281,0.689,1.922
		C42.803,278.116,42.572,277.475,42.343,276.834z"/>
	<path fill-rule="evenodd" clip-rule="evenodd" fill="#CCCACA" d="M89.282,364.911c-0.35-0.324-0.698-0.65-1.046-0.979
		c0.002-0.002,0.229-0.229,0.229-0.229c0.32,0.348,0.643,0.697,0.963,1.047C89.428,364.753,89.282,364.911,89.282,364.911z"/>
	<path fill-rule="evenodd" clip-rule="evenodd" fill="#CCCACA" d="M90.346,364.874c-0.023,0.416-0.047,0.83-0.072,1.248
		c-0.33-0.402-0.658-0.809-0.99-1.213c-0.001,0.002,0.145-0.156,0.145-0.158C89.736,364.776,90.043,364.817,90.346,364.874z"/>
	<path fill-rule="evenodd" clip-rule="evenodd" fill="#F0F0F1" d="M234.309,71.218c-0.374-0.127-0.749-0.254-1.123-0.381
		C233.56,70.964,233.935,71.091,234.309,71.218z"/>
	<path fill-rule="evenodd" clip-rule="evenodd" fill="#F0F0F1" d="M244.266,73.094c-0.324-0.1-0.65-0.199-0.975-0.299
		C243.615,72.895,243.941,72.995,244.266,73.094z"/>
	<path fill-rule="evenodd" clip-rule="evenodd" fill="#F0F0F1" d="M41.416,272.646c0.137,0.354,0.274,0.709,0.411,1.063
		C41.689,273.354,41.553,273,41.416,272.646z"/>
	<path fill-rule="evenodd" clip-rule="evenodd" fill="#F0F0F1" d="M373.18,266.607c-0.029-0.227-0.088-0.457-0.072-0.68
		c0.006-0.088,0.18-0.164,0.275-0.244C373.445,266.02,373.377,266.328,373.18,266.607z"/>
	<path fill-rule="evenodd" clip-rule="evenodd" fill="#F0F0F1" d="M371.082,276.665c0.109-0.307,0.217-0.613,0.326-0.92
		C371.299,276.051,371.191,276.358,371.082,276.665z"/>
	<path fill-rule="evenodd" clip-rule="evenodd" fill="#F0F0F1" d="M373.383,209.888c-0.135-0.202-0.295-0.393-0.393-0.611
		c-0.029-0.063,0.121-0.207,0.189-0.313C373.377,209.243,373.445,209.551,373.383,209.888z"/>
	<path fill-rule="evenodd" clip-rule="evenodd" fill="#F0F0F1" d="M40.416,267.645c0.137,0.355,0.273,0.709,0.41,1.063
		C40.689,268.354,40.553,267.998,40.416,267.645z"/>
	<path fill-rule="evenodd" clip-rule="evenodd" fill="#F0F0F1" d="M243.291,402.776c0.324-0.1,0.65-0.199,0.975-0.299
		C243.941,402.577,243.615,402.676,243.291,402.776z"/>
	<path fill-rule="evenodd" clip-rule="evenodd" fill="#CCCACA" d="M74.135,349.05c-0.333-0.334-0.666-0.67-1.002-1.002
		c0.139-0.141,0.281-0.283,0.429-0.424c0.33,0.338,0.659,0.676,0.985,1.016C74.406,348.774,74.27,348.911,74.135,349.05z"/>
	<path fill-rule="evenodd" clip-rule="evenodd" fill="#CCCACA" d="M75.118,350.046c-0.326-0.332-0.652-0.668-0.981-0.998
		c0.133-0.137,0.27-0.274,0.41-0.409c0.324,0.334,0.645,0.67,0.968,1.004C75.387,349.78,75.254,349.915,75.118,350.046z"/>
	<path fill-rule="evenodd" clip-rule="evenodd" fill="#CCCACA" d="M81.193,356.995c-0.322-0.346-0.645-0.689-0.969-1.031
		c-0.002,0.002,0.266-0.266,0.268-0.268c0.342,0.326,0.682,0.652,1.02,0.98C81.511,356.679,81.193,356.995,81.193,356.995z"/>
	<path fill-rule="evenodd" clip-rule="evenodd" fill="#CCCACA" d="M82.176,358.013c-0.326-0.342-0.652-0.682-0.98-1.02
		c-0.002,0.002,0.315-0.314,0.316-0.316c0.34,0.328,0.678,0.656,1.014,0.988C82.523,357.667,82.176,358.013,82.176,358.013z"/>
	<path fill-rule="evenodd" clip-rule="evenodd" fill="#CCCACA" d="M83.164,359.022c-0.328-0.338-0.656-0.676-0.986-1.012
		c-0.002,0.002,0.346-0.344,0.348-0.346c0.337,0.328,0.673,0.66,1.007,0.992C83.406,358.778,83.283,358.899,83.164,359.022z"/>
	<path fill-rule="evenodd" clip-rule="evenodd" fill="#CCCACA" d="M87.426,362.747c0.346,0.32,0.689,0.641,1.037,0.959
		c0.002-0.002-0.225,0.225-0.227,0.227c-0.317-0.348-0.633-0.697-0.947-1.049L87.426,362.747z"/>
	<path fill-rule="evenodd" clip-rule="evenodd" fill="#CCCACA" d="M84.163,360.026c-0.332-0.336-0.663-0.672-0.997-1.006
		c0.117-0.121,0.24-0.242,0.366-0.363c0.335,0.332,0.669,0.666,1.003,0.998C84.408,359.776,84.284,359.899,84.163,360.026z"/>
	<path fill-rule="evenodd" clip-rule="evenodd" fill="#F0F0F1" d="M167.383,406.824c-0.077,0.141-0.154,0.281-0.232,0.422
		C167.229,407.105,167.305,406.964,167.383,406.824L167.383,406.824z"/>
	<path fill-rule="evenodd" clip-rule="evenodd" fill="#CCCACA" d="M84.535,359.655c0.324,0.344,0.648,0.686,0.971,1.029
		c-0.002,0.002-0.301,0.301-0.301,0.301c-0.346-0.32-0.691-0.643-1.04-0.961C84.284,359.899,84.408,359.776,84.535,359.655z"/>
	<path fill-rule="evenodd" clip-rule="evenodd" fill="#CCCACA" d="M86.289,361.899c-0.36-0.307-0.719-0.613-1.081-0.916
		c-0.003,0.002,0.296-0.297,0.298-0.299c0.313,0.354,0.625,0.707,0.934,1.063C86.438,361.749,86.289,361.899,86.289,361.899z"/>
	<path fill-rule="evenodd" clip-rule="evenodd" fill="#CCCACA" d="M87.289,362.884c-0.332-0.33-0.664-0.66-0.998-0.988
		c-0.002,0.004,0.146-0.146,0.148-0.148c0.329,0.334,0.656,0.668,0.984,1.002C87.426,362.747,87.289,362.884,87.289,362.884z"/>
	<path fill-rule="evenodd" clip-rule="evenodd" fill="#F0F0F1" d="M179.475,404.353c0.375,0.127,0.749,0.254,1.123,0.381
		C180.224,404.607,179.85,404.48,179.475,404.353z"/>
	<path fill-rule="evenodd" clip-rule="evenodd" fill="#F0F0F1" d="M366.352,166.797c-3.141-5.102-5.881-10.402-7.988-16.021
		C363.037,155.115,365.801,160.405,366.352,166.797z"/>
	<path fill-rule="evenodd" clip-rule="evenodd" fill="#F0F0F1" d="M326.004,111.495c-1.879-2.232-3.758-4.466-5.637-6.699
		c4.438,0.359,6.67,3.209,7.998,7.082C327.578,111.75,326.791,111.624,326.004,111.495z"/>
	<path fill-rule="evenodd" clip-rule="evenodd" fill="#F0F0F1" d="M243.406,66.682c-2.85,0.125-5.527-0.517-8.065-1.791
		C238.578,63.014,241.219,63.825,243.406,66.682z"/>
	<path fill-rule="evenodd" clip-rule="evenodd" fill="#F0F0F1" d="M320.379,104.816c-2.797-0.728-4.406-2.87-5.996-5.036
		C317.846,99.715,319.674,101.596,320.379,104.816z"/>
	<path fill-rule="evenodd" clip-rule="evenodd" fill="#F0F0F1" d="M338.426,122.754c-2.158-1.594-4.332-3.171-5.143-5.931
		C336.574,117.432,338.404,119.308,338.426,122.754z"/>
	<path fill-rule="evenodd" clip-rule="evenodd" fill="#F0F0F1" d="M358.27,150.073c-1.963-0.766-2.559-2.435-2.844-4.307
		C357.908,146.188,358.24,148.031,358.27,150.073z"/>
	<path fill-rule="evenodd" clip-rule="evenodd" fill="#F0F0F1" d="M378.471,206.764c-1.381-1.096-0.922-2.597-0.881-4.006
		C380.176,203.59,379.801,205.073,378.471,206.764z"/>
	<path fill-rule="evenodd" clip-rule="evenodd" fill="#F0F0F1" d="M314.393,99.794c-1.824-0.132-2.789-1.257-3.332-2.872
		C313.203,96.678,314.291,97.663,314.393,99.794z"/>
	<path fill-rule="evenodd" clip-rule="evenodd" fill="#F0F0F1" d="M379.396,211.792c-1.098-0.794-0.924-1.92-0.787-3.035
		C380.674,209.303,380.998,210.298,379.396,211.792z"/>
	<path fill-rule="evenodd" clip-rule="evenodd" fill="#F0F0F1" d="M379.777,218.813c-0.055-1.02-0.107-2.037-0.16-3.055
		C382.021,216.655,382.168,217.668,379.777,218.813z"/>
	<path fill-rule="evenodd" clip-rule="evenodd" fill="#F0F0F1" d="M300.367,89.825c-1.398-0.089-2.43-0.723-3.014-2.023
		C298.863,87.721,300.35,87.677,300.367,89.825z"/>
	<path fill-rule="evenodd" clip-rule="evenodd" fill="#F0F0F1" d="M303.367,91.827c-1.416-0.064-2.438-0.713-3.014-2.025
		C301.863,89.723,303.355,89.674,303.367,91.827z"/>
	<path fill-rule="evenodd" clip-rule="evenodd" fill="#F0F0F1" d="M306.375,93.817c-1.383-0.109-2.436-0.711-3.021-2.014
		C304.863,91.72,306.346,91.679,306.375,93.817z"/>
	<path fill-rule="evenodd" clip-rule="evenodd" fill="#F0F0F1" d="M309.332,95.946c-1.361-0.203-2.418-0.829-2.971-2.149
		C307.926,93.718,309.426,93.73,309.332,95.946z"/>
	<path fill-rule="evenodd" clip-rule="evenodd" fill="#F0F0F1" d="M343.436,128.733c-1.357-0.502-1.955-1.556-2.131-2.92
		C343.412,125.766,343.445,127.233,343.436,128.733z"/>
	<path fill-rule="evenodd" clip-rule="evenodd" fill="#F0F0F1" d="M346.438,132.73c-1.318-0.542-1.953-1.56-2.057-2.95
		C346.428,129.815,346.447,131.262,346.438,132.73z"/>
	<path fill-rule="evenodd" clip-rule="evenodd" fill="#F0F0F1" d="M353.406,142.79c-1.305-0.59-1.938-1.614-1.963-3.032
		C353.48,139.874,353.457,141.324,353.406,142.79z"/>
	<path fill-rule="evenodd" clip-rule="evenodd" fill="#F0F0F1" d="M355.309,145.001c-1.164-0.286-1.873-0.963-1.912-2.22
		C354.852,142.818,355.463,143.581,355.309,145.001z"/>
	<path fill-rule="evenodd" clip-rule="evenodd" fill="#F0F0F1" d="M377.41,200.784c-0.752-0.498-0.91-1.207-0.717-2.039
		C377.984,199.055,378.906,199.497,377.41,200.784z"/>
	<path fill-rule="evenodd" clip-rule="evenodd" fill="#F0F0F1" d="M376.408,195.784c-0.781-0.471-0.936-1.197-0.824-2.03
		C376.883,194.016,377.938,194.377,376.408,195.784z"/>
	<path fill-rule="evenodd" clip-rule="evenodd" fill="#B9B7B7" d="M36.365,64.731c-0.345-0.338-0.689-0.678-1.035-1.018
		c0.338-0.002,0.676-0.005,1.013-0.008C36.351,64.047,36.357,64.389,36.365,64.731z"/>
	<path fill-rule="evenodd" clip-rule="evenodd" fill="#E5E4E4" d="M357.607,237.88c0.135,82.569-67.313,150.673-149.364,150.81
		c-86.306,0.143-149.938-68.698-152.018-146.67c-2.183-81.827,62.499-154.523,150.38-154.726
		C292.295,87.096,357.686,156.325,357.607,237.88z M73.48,281.831c0.133,0.645,0.195,1.313,0.408,1.928
		c19.108,55.168,69.969,93.655,130.264,94.839c35.846,0.705,67.727-10.852,94.898-34.349c19.521-16.881,33.645-37.565,41.289-62.416
		c10.738-32.219,9.473-64.095-2.582-95.717c-0.861-2.259-2.188-2.513-4.156-2.493c-5.998,0.06-12.01-0.199-17.994,0.107
		c-3.354,0.172-4.998-1.058-6.514-3.953c-8.24-15.761-16.795-31.358-25.023-47.125c-1.715-3.284-2.748-3.849-5.832-1.263
		c-19.518,16.377-39.268,32.477-58.796,48.842c-3.428,2.872-6.783,4.263-11.138,3.029c0.185-1.514,1.402-1.924,2.259-2.633
		c13.084-10.836,26.076-21.785,39.341-32.396c3.109-2.488,1.439-4.339,0.236-6.273c-1.834-2.948-3.088,0.012-4.168,0.891
		c-15.497,12.619-30.934,25.315-46.349,38.035c-2.227,1.838-4.364,3.617-7.698,2.43c0.691-1.635,2.215-2.438,3.46-3.464
		c16.45-13.56,32.799-27.247,49.479-40.519c3.322-2.645,1.857-4.601,0.484-6.565c-2.09-2.991-3.396,0.312-4.57,1.261
		c-19.156,15.512-38.284,31.06-57.25,46.803c-3.421,2.838-6.787,3.207-11.48,2.381c1.893-1.666,3.199-2.888,4.579-4.021
		c10.036-8.247,19.943-16.66,30.212-24.606c3.395-2.627,2.254-4.921,0.505-7c-2.124-2.524-3.444,0.694-4.614,1.634
		c-13.246,10.636-26.367,21.426-39.472,32.237c-1.957,1.614-3.8,2.972-6.932,1.577c1.726-1.506,3.165-2.826,4.671-4.066
		c13.11-10.803,26.079-21.785,39.444-32.264c4.09-3.206,4.721-5.707,1.212-9.498c-1.189,0.86-2.443,1.673-3.594,2.612
		c-16.771,13.69-33.596,27.32-50.232,41.173c-3.112,2.59-6.07,3.254-10.352,2.02c10.711-8.74,20.877-17.31,31.382-25.443
		c3.19-2.471,2.019-4.423,0.518-6.557c-2.175-3.091-3.454,0.311-4.543,1.178c-11.989,9.539-23.847,19.245-35.707,28.947
		c-2.097,1.715-4.134,3.314-7.458,2.08c1.194-1.11,2.206-2.158,3.326-3.074c12.891-10.545,25.691-21.203,38.774-31.506
		c3.195-2.516,2.634-4.654,0.763-6.988c-2.25-2.808-3.465,0.566-4.572,1.451c-15.751,12.569-31.395,25.273-46.98,38.047
		c-2.188,1.793-4.343,2.627-7.198,2.564c-7.995-0.177-16.003,0.109-23.993-0.141c-3.504-0.109-5.26,0.86-6.498,4.349
		c-4.363,12.297-7.484,24.841-8.493,37.851C65.314,244.879,66.98,263.65,73.48,281.831z"/>
	<path fill-rule="evenodd" clip-rule="evenodd" fill="#E3E5E8" d="M93.072,102.2c0,4.985-0.092,9.973,0.034,14.953
		c0.075,2.988-1.278,4.3-4.129,4.302c-10.136,0.007-20.271,0.005-30.405,0.003c-2.91,0-4.171-1.506-4.162-4.365
		c0.033-10.135,0.013-20.27,0.016-30.405c0-2.624,1.162-3.919,3.945-3.9c10.301,0.069,20.604,0.077,30.904-0.005
		c2.866-0.021,3.823,1.361,3.807,3.967C93.047,91.899,93.071,97.049,93.072,102.2z M87.742,101.809c0-3.654-0.059-7.31,0.022-10.962
		c0.046-2.089-0.728-2.97-2.897-2.946c-7.474,0.078-14.949,0.072-22.422,0.002c-2.127-0.021-2.958,0.77-2.938,2.916
		c0.074,7.475,0.076,14.949,0,22.423c-0.023,2.151,0.822,2.935,2.927,2.917c7.474-0.061,14.948-0.072,22.423,0.008
		c2.133,0.021,2.975-0.742,2.914-2.898C87.664,109.452,87.741,105.629,87.742,101.809z"/>
	<path fill-rule="evenodd" clip-rule="evenodd" fill="#2A4665" d="M73.48,281.831c-6.5-18.18-8.166-36.951-6.685-56.066
		c1.009-13.01,4.13-25.554,8.493-37.851c1.238-3.488,2.994-4.458,6.498-4.349c7.99,0.25,15.998-0.036,23.993,0.141
		c2.855,0.063,5.011-0.771,7.198-2.564c15.586-12.773,31.229-25.478,46.98-38.047c1.107-0.885,2.322-4.259,4.572-1.451
		c1.871,2.334,2.433,4.473-0.763,6.988c-13.083,10.303-25.884,20.961-38.774,31.506c-1.12,0.916-2.132,1.964-3.326,3.074
		c3.324,1.234,5.361-0.365,7.458-2.08c11.86-9.702,23.718-19.408,35.707-28.947c1.089-0.867,2.368-4.269,4.543-1.178
		c1.501,2.134,2.673,4.086-0.518,6.557c-10.505,8.134-20.671,16.703-31.382,25.443c4.281,1.234,7.239,0.57,10.352-2.02
		c16.637-13.853,33.461-27.482,50.232-41.173c1.15-0.939,2.404-1.752,3.594-2.612c3.509,3.791,2.878,6.292-1.212,9.498
		c-13.365,10.479-26.334,21.461-39.444,32.264c-1.506,1.24-2.945,2.561-4.671,4.066c3.132,1.395,4.975,0.037,6.932-1.577
		c13.104-10.812,26.226-21.602,39.472-32.237c1.17-0.939,2.49-4.158,4.614-1.634c1.749,2.079,2.89,4.373-0.505,7
		c-10.269,7.946-20.176,16.359-30.212,24.606c-1.38,1.134-2.687,2.355-4.579,4.021c4.693,0.826,8.06,0.457,11.48-2.381
		c18.966-15.743,38.094-31.291,57.25-46.803c1.174-0.949,2.48-4.252,4.57-1.261c1.373,1.965,2.838,3.921-0.484,6.565
		c-16.681,13.271-33.029,26.959-49.479,40.519c-1.245,1.026-2.769,1.829-3.46,3.464c3.334,1.188,5.472-0.592,7.698-2.43
		c15.415-12.72,30.852-25.416,46.349-38.035c1.08-0.879,2.334-3.839,4.168-0.891c1.203,1.935,2.873,3.785-0.236,6.273
		c-13.265,10.611-26.257,21.561-39.341,32.396c-0.856,0.709-2.074,1.119-2.259,2.633c4.354,1.233,7.71-0.157,11.138-3.029
		c19.528-16.365,39.278-32.465,58.796-48.842c3.084-2.586,4.117-2.021,5.832,1.263c8.229,15.767,16.783,31.364,25.023,47.125
		c1.516,2.896,3.16,4.125,6.514,3.953c5.984-0.307,11.996-0.048,17.994-0.107c1.969-0.02,3.295,0.234,4.156,2.493
		c12.055,31.622,13.32,63.498,2.582,95.717C251.387,281.831,162.434,281.831,73.48,281.831z M291.541,227.574
		c-3.633-5.821-7.494-10.72-9.939-16.245c-3.363-7.599-8.604-9.864-16.441-8.897c-3.002,0.37-3.854,0.935-3.824,3.979
		c0.156,15.813,0.072,31.629,0.072,47.445c0,9.063,0.002,8.914,9.119,9.012c3.219,0.035,4.221-0.783,4.156-4.102
		c-0.213-10.891-0.08-21.789-0.08-32.683c5.154,6.15,9.42,12.604,13.674,19.066c3.037,4.613,3.041,4.623,6.182-0.107
		c4.412-6.643,8.809-13.295,13.961-21.076c0,10.978,0,20.442,0,29.906c0,9.051,0.002,8.896,9.135,9
		c3.248,0.035,4.172-0.838,4.137-4.123c-0.172-15.979-0.076-31.962-0.076-47.943c0-8.225-0.014-7.951-8.406-8.332
		c-4.527-0.206-7.23,1.176-9.434,5.184C300.182,214.195,295.99,220.405,291.541,227.574z M205.697,262.533
		c-0.432-1.143-0.742-2.064-1.121-2.955c-7.009-16.481-14.049-32.949-21.029-49.441c-3.555-8.396-3.508-8.266-12.262-8.339
		c-2.834-0.023-4.047,0.978-5.08,3.462c-5.16,12.398-10.52,24.715-15.777,37.074c-2.832,6.66-5.598,13.347-8.463,20.189
		c0.996,0.137,1.482,0.254,1.971,0.264c11.361,0.268,11.434,0.295,15.826-10.141c0.979-2.324,2.154-3.346,4.758-3.271
		c6.154,0.176,12.322,0.184,18.476-0.004c2.66-0.08,3.671,1.045,4.642,3.357c4.367,10.408,4.455,10.373,15.914,10.061
		C204.172,262.771,204.789,262.645,205.697,262.533z M117.572,201.694c-6.307-0.292-11.662,0.918-16.482,4.422
		c-8.787,6.387-9.486,23.607,2.453,28.765c5.844,2.524,12.105,3.53,17.961,5.868c2.688,1.074,5.343,2.252,4.934,5.93
		c-0.404,3.63-3.301,4.419-6.083,4.865c-4.755,0.762-9.237-0.551-13.442-2.732c-7.825-4.058-7.693-3.998-13.147,2.996
		c-1.683,2.156-0.946,2.947,0.792,4.225c8.299,6.09,17.607,8.65,27.74,7.436c7.671-0.918,14.131-4.271,16.828-12.16
		c3.449-10.089-0.532-18.373-10.834-22.378c-5.24-2.039-10.751-3.377-16.105-5.135c-2.601-0.854-4.3-2.512-3.894-5.562
		c0.411-3.085,2.726-3.996,5.276-4.41c3.91-0.635,7.586,0.399,11.127,1.984c7.166,3.206,6.988,3.083,11.689-3.351
		c2.104-2.88,1.223-4.087-1.344-5.594C129.473,203.595,123.568,201.672,117.572,201.694z M232.676,263.754
		c8.068-0.209,16.168-2.256,20.242-11.24c4.75-10.473,0.01-19.889-11.914-24.148c-4.676-1.67-9.499-2.919-14.22-4.463
		c-2.739-0.895-4.896-2.551-4.273-5.799c0.591-3.088,3.115-4.046,5.936-4.367c3.947-0.451,7.587,0.688,11.077,2.309
		c6.498,3.019,6.477,3.067,10.631-2.972c0.188-0.274,0.324-0.6,0.557-0.824c2.516-2.408,1.186-3.83-1.164-5.259
		c-6.754-4.105-14.026-5.771-21.901-5.252c-10.501,0.69-17.456,6.754-18.715,16.539c-1.161,9.017,3.264,15.054,13.713,18.488
		c4.563,1.5,9.24,2.662,13.781,4.221c2.421,0.829,4.509,2.293,4.304,5.396c-0.221,3.334-2.633,4.444-5.345,5.01
		c-5.325,1.111-10.229-0.436-14.848-2.907c-6.666-3.565-6.508-3.529-11.666,2.315c-2.134,2.416-2.297,3.768,0.537,5.693
		C216.208,261.111,223.586,263.635,232.676,263.754z"/>
	<path fill-rule="evenodd" clip-rule="evenodd" fill="#F3B74E" d="M73.48,281.831c88.953,0,177.906,0,266.859,0.002
		c-7.645,24.851-21.768,45.535-41.289,62.416c-27.172,23.497-59.053,35.054-94.898,34.349
		c-60.295-1.184-111.155-39.671-130.264-94.839C73.676,283.143,73.613,282.475,73.48,281.831z M246.48,305.936
		c-0.1-0.604-0.008-1.525-0.869-1.416c-0.943,0.121-1.309,1.049-1.143,1.912c0.271,1.402,1.18,0.545,1.871,0.395
		c0.146,0.238,0.334,0.438,0.563,0.6c0.75,1.25,1.467,0.393,2.189-0.037c-0.447,0.328-0.896,0.656-1.344,0.982
		c-0.959,0.043-1.047,0.688-0.99,1.432c-0.213,0.729-0.488,1.609,0.586,1.752c1.016,0.133,1.016-0.887,1.242-1.568
		c0.738,0.572,1.479,1.143,3.092,2.389c-1.309-3.096,1.52-7.547-4.336-6.379C247.059,305.93,246.771,305.91,246.48,305.936z
		 M189.516,337.489c-4.658-10.869-9.19-21.694-13.964-32.409c-1.261-2.832-7.298-2.729-8.568,0.141
		c-4.435,10.016-8.64,20.135-12.925,30.217c-0.363,0.854-1.133,2.295,0.313,2.316c2.834,0.043,6.704,1.926,7.806-2.721
		c0.968-4.08,3.421-5.209,7.278-4.713c1.964,0.252,3.989,0.107,5.982,0.027c1.846-0.072,3.443,0.322,3.825,2.336
		C180.392,338.627,184.434,338.592,189.516,337.489z M140.67,302.969c-7.274-0.129-12.341,3.33-13.248,8.479
		c-1.098,6.232,1.566,9.895,8.885,12.168c2.058,0.639,4.16,1.143,6.193,1.85c1.59,0.553,3.267,1.283,2.822,3.459
		c-0.4,1.969-2.101,2.5-3.78,2.672c-3.478,0.352-6.538-0.926-9.323-2.867c-3.15-2.195-3.443,1.246-4.814,2.42
		c-1.977,1.689-0.688,2.828,0.889,3.787c5.153,3.137,10.605,4.668,16.637,3.092c5.271-1.377,8.255-4.771,8.434-9.732
		c0.181-5.02-2.434-8.108-6.999-9.698c-2.814-0.98-5.673-1.836-8.519-2.729c-1.564-0.49-2.714-1.32-2.564-3.156
		c0.178-2.174,1.85-2.555,3.545-2.723c2.226-0.219,4.438,0.326,6.148,1.605c3.762,2.813,5.045-0.293,6.299-2.604
		c1.781-3.285-1.777-3.238-3.25-4.115C145.586,303.426,142.702,303.113,140.67,302.969z M192.543,320.997
		c0,4.664,0.145,9.334-0.046,13.99c-0.148,3.621,2.278,2.865,4.341,2.98c2.178,0.121,3.811,0.045,3.787-3.012
		c-0.024-3.252-1.658-7.799,0.788-9.457c2.433-1.648,6.718-0.566,10.19-0.678c0.499-0.016,1.005-0.051,1.499,0.006
		c2.54,0.289,3.91-0.25,3.962-3.383c0.056-3.37-1.378-3.872-4.189-3.698c-3.153,0.195-6.336-0.1-9.49,0.086
		c-2.709,0.158-2.908-1.305-2.879-3.395c0.029-2.139-0.086-3.967,2.999-3.83c4.156,0.186,8.334-0.096,12.49,0.09
		c2.79,0.123,3.283-1.158,3.314-3.586c0.031-2.521-0.646-3.576-3.36-3.512c-6.659,0.16-13.328,0.139-19.988,0.008
		c-2.555-0.051-3.568,0.73-3.467,3.396C192.669,311.662,192.543,316.332,192.543,320.997z M283.547,313.705
		c0-1.83,0.158-3.68-0.049-5.486c-0.188-1.641,1.146-4.084-1.293-4.719c-2.141-0.559-4.582-0.822-6.438,1.361
		c-5.387,6.336-10.834,12.623-16.314,18.879c-1.668,1.902-0.604,3.736-0.162,5.625c0.529,2.266,2.365,1.355,3.67,1.402
		c3.324,0.121,6.662,0.158,9.982,0.002c2.41-0.111,3.912,0.354,3.471,3.199c-0.438,2.82,0.342,4.08,3.66,4.111
		c3.631,0.035,3.654-1.816,3.48-4.34c-0.111-1.604-0.012-3.16,2.232-2.908c2.395,0.27,2.723-1.041,2.656-2.994
		c-0.066-1.893,0.201-3.779-2.666-3.604c-2.172,0.133-2.25-1.438-2.234-3.039C283.568,318.699,283.551,316.203,283.547,313.705z
		 M237.063,327.651c2.164,0,4.33-0.047,6.494,0.014c1.799,0.049,2.686-0.576,2.85-2.535c0.451-5.413-3.48-11.696-8.551-13.362
		c-6.203-2.035-12.358,0.152-15.591,5.545c-3.279,5.467-2.459,13.356,1.824,17.581c4.365,4.303,12.418,5.193,17.581,1.736
		c1.246-0.836,3.969-1.582,2.068-3.973c-1.207-1.52-2.453-3.648-5.242-1.578c-2.571,1.906-5.601,2-8.358-0.037
		c-0.791-0.586-1.68-1.35-1.497-2.418c0.237-1.393,1.54-0.912,2.429-0.943C233.064,327.608,235.064,327.659,237.063,327.651z
		 M247.105,314.27c0.426-0.184,0.932-0.273,1.248-0.566c0.523-0.49,0.064-0.805-0.387-0.773c-0.398,0.029-0.799,0.314-1.143,0.563
		C246.768,313.533,246.99,313.963,247.105,314.27z"/>
	<path fill-rule="evenodd" clip-rule="evenodd" fill="#425975" d="M87.742,101.809c-0.001,3.82-0.078,7.643,0.029,11.459
		c0.061,2.156-0.781,2.92-2.914,2.898c-7.475-0.08-14.949-0.068-22.423-0.008c-2.104,0.018-2.95-0.766-2.927-2.917
		c0.076-7.474,0.074-14.948,0-22.423c-0.021-2.146,0.811-2.937,2.938-2.916c7.473,0.07,14.948,0.076,22.422-0.002
		c2.17-0.023,2.943,0.857,2.897,2.946C87.684,94.5,87.742,98.155,87.742,101.809z M61.742,102.165
		c0.002,11.767,0.002,11.767,11.983,11.767c12.255,0,12.255,0,12.255-12.492c0-11.554,0-11.554-11.732-11.554
		C61.742,89.885,61.742,89.885,61.742,102.165z"/>
	<path fill-rule="evenodd" clip-rule="evenodd" fill="#FEFEFE" d="M291.541,227.574c4.449-7.169,8.641-13.379,12.234-19.917
		c2.203-4.008,4.906-5.39,9.434-5.184c8.393,0.381,8.406,0.107,8.406,8.332c0,15.98-0.096,31.964,0.076,47.943
		c0.035,3.285-0.889,4.158-4.137,4.123c-9.133-0.104-9.135,0.051-9.135-9c0-9.463,0-18.928,0-29.906
		c-5.152,7.781-9.549,14.434-13.961,21.076c-3.141,4.73-3.145,4.72-6.182,0.107c-4.254-6.462-8.52-12.916-13.674-19.066
		c0,10.895-0.133,21.792,0.08,32.683c0.064,3.318-0.938,4.137-4.156,4.102c-9.117-0.098-9.119,0.051-9.119-9.012
		c0-15.816,0.084-31.632-0.072-47.445c-0.029-3.045,0.822-3.609,3.824-3.979c7.838-0.967,13.078,1.299,16.441,8.897
		C284.047,216.854,287.908,221.752,291.541,227.574z"/>
	<path fill-rule="evenodd" clip-rule="evenodd" fill="#F7F7F8" d="M205.697,262.533c-0.908,0.111-1.525,0.238-2.146,0.256
		c-11.459,0.313-11.547,0.348-15.914-10.061c-0.971-2.313-1.981-3.438-4.642-3.357c-6.153,0.188-12.321,0.18-18.476,0.004
		c-2.604-0.074-3.779,0.947-4.758,3.271c-4.393,10.436-4.465,10.408-15.826,10.141c-0.488-0.01-0.975-0.127-1.971-0.264
		c2.865-6.842,5.631-13.529,8.463-20.189c5.258-12.359,10.617-24.676,15.777-37.074c1.033-2.484,2.246-3.485,5.08-3.462
		c8.754,0.073,8.707-0.058,12.262,8.339c6.98,16.492,14.021,32.96,21.029,49.441C204.955,260.469,205.266,261.391,205.697,262.533z
		 M173.74,218.621c-2.506,6.129-4.458,11.192-6.652,16.147c-1.015,2.293-0.443,2.896,1.891,2.839
		c3.943-0.097,7.892-0.026,12.416-0.026C178.857,231.292,176.471,225.383,173.74,218.621z"/>
	<path fill-rule="evenodd" clip-rule="evenodd" fill="#F7F7F8" d="M117.572,201.694c5.996-0.021,11.9,1.901,17.469,5.168
		c2.566,1.507,3.447,2.714,1.344,5.594c-4.701,6.434-4.523,6.557-11.689,3.351c-3.541-1.585-7.217-2.619-11.127-1.984
		c-2.551,0.414-4.865,1.325-5.276,4.41c-0.406,3.05,1.293,4.708,3.894,5.562c5.354,1.758,10.865,3.096,16.105,5.135
		c10.302,4.006,14.283,12.289,10.834,22.378c-2.697,7.889-9.157,11.242-16.828,12.16c-10.133,1.215-19.441-1.346-27.74-7.436
		c-1.738-1.277-2.475-2.068-0.792-4.225c5.454-6.994,5.322-7.054,13.147-2.996c4.205,2.182,8.688,3.494,13.442,2.732
		c2.782-0.445,5.679-1.234,6.083-4.865c0.409-3.678-2.246-4.855-4.934-5.93c-5.855-2.338-12.117-3.344-17.961-5.868
		c-11.939-5.157-11.24-22.378-2.453-28.765C105.91,202.612,111.266,201.402,117.572,201.694z"/>
	<path fill-rule="evenodd" clip-rule="evenodd" fill="#F7F7F8" d="M232.676,263.754c-9.09-0.119-16.468-2.643-23.269-7.26
		c-2.834-1.926-2.671-3.277-0.537-5.693c5.158-5.844,5-5.88,11.666-2.315c4.619,2.471,9.522,4.018,14.848,2.907
		c2.712-0.566,5.124-1.676,5.345-5.01c0.205-3.103-1.883-4.566-4.304-5.396c-4.541-1.559-9.218-2.721-13.781-4.221
		c-10.449-3.435-14.874-9.472-13.713-18.488c1.259-9.785,8.214-15.849,18.715-16.539c7.875-0.52,15.147,1.146,21.901,5.252
		c2.35,1.429,3.68,2.851,1.164,5.259c-0.232,0.225-0.369,0.55-0.557,0.824c-4.154,6.039-4.133,5.99-10.631,2.972
		c-3.49-1.62-7.13-2.76-11.077-2.309c-2.82,0.321-5.345,1.279-5.936,4.367c-0.623,3.248,1.534,4.904,4.273,5.799
		c4.721,1.544,9.544,2.793,14.22,4.463c11.924,4.259,16.664,13.675,11.914,24.148C248.844,261.498,240.744,263.545,232.676,263.754z
		"/>
	<path fill-rule="evenodd" clip-rule="evenodd" fill="#2F4863" d="M189.516,337.489c-5.082,1.104-9.124,1.139-10.253-4.805
		c-0.382-2.014-1.979-2.408-3.825-2.336c-1.993,0.08-4.019,0.225-5.982-0.027c-3.857-0.496-6.311,0.633-7.278,4.713
		c-1.102,4.646-4.972,2.764-7.806,2.721c-1.445-0.021-0.676-1.463-0.313-2.316c4.285-10.082,8.49-20.202,12.925-30.217
		c1.271-2.869,7.308-2.973,8.568-0.141C180.325,315.795,184.857,326.62,189.516,337.489z M175.504,323.44
		c-1.311-3.303-2.534-6.389-3.759-9.475c-1.845,3.209-4.973,6.031-3.765,9.245C168.506,324.61,172.52,323.735,175.504,323.44z"/>
	<path fill-rule="evenodd" clip-rule="evenodd" fill="#2F4863" d="M140.67,302.969c2.032,0.145,4.916,0.457,7.354,1.908
		c1.473,0.877,5.031,0.83,3.25,4.115c-1.254,2.311-2.537,5.416-6.299,2.604c-1.711-1.279-3.923-1.824-6.148-1.605
		c-1.695,0.168-3.367,0.549-3.545,2.723c-0.149,1.836,1,2.666,2.564,3.156c2.846,0.893,5.704,1.748,8.519,2.729
		c4.565,1.59,7.18,4.678,6.999,9.698c-0.179,4.961-3.163,8.355-8.434,9.732c-6.031,1.576-11.483,0.045-16.637-3.092
		c-1.576-0.959-2.865-2.098-0.889-3.787c1.371-1.174,1.664-4.615,4.814-2.42c2.785,1.941,5.846,3.219,9.323,2.867
		c1.68-0.172,3.38-0.703,3.78-2.672c0.444-2.176-1.232-2.906-2.822-3.459c-2.033-0.707-4.136-1.211-6.193-1.85
		c-7.318-2.273-9.982-5.936-8.885-12.168C128.329,306.299,133.396,302.84,140.67,302.969z"/>
	<path fill-rule="evenodd" clip-rule="evenodd" fill="#2F4863" d="M192.543,320.997c0-4.665,0.126-9.334-0.049-13.993
		c-0.102-2.666,0.912-3.447,3.467-3.396c6.66,0.131,13.329,0.152,19.988-0.008c2.714-0.064,3.392,0.99,3.36,3.512
		c-0.031,2.428-0.524,3.709-3.314,3.586c-4.156-0.186-8.334,0.096-12.49-0.09c-3.085-0.137-2.97,1.691-2.999,3.83
		c-0.029,2.09,0.17,3.553,2.879,3.395c3.154-0.186,6.337,0.109,9.49-0.086c2.812-0.174,4.245,0.328,4.189,3.698
		c-0.052,3.133-1.422,3.672-3.962,3.383c-0.494-0.057-1-0.021-1.499-0.006c-3.473,0.111-7.758-0.971-10.19,0.678
		c-2.446,1.658-0.813,6.205-0.788,9.457c0.023,3.057-1.609,3.133-3.787,3.012c-2.063-0.115-4.489,0.641-4.341-2.98
		C192.688,330.331,192.543,325.661,192.543,320.997z"/>
	<path fill-rule="evenodd" clip-rule="evenodd" fill="#2A4665" d="M283.549,313.705c0.002,2.498,0.02,4.994-0.006,7.491
		c-0.016,1.602,0.063,3.172,2.234,3.039c2.867-0.176,2.6,1.711,2.666,3.604c0.066,1.953-0.262,3.264-2.656,2.994
		c-2.244-0.252-2.344,1.305-2.232,2.908c0.174,2.523,0.15,4.375-3.48,4.34c-3.318-0.031-4.098-1.291-3.66-4.111
		c0.441-2.846-1.061-3.311-3.471-3.199c-3.32,0.156-6.658,0.119-9.982-0.002c-1.305-0.047-3.141,0.863-3.67-1.402
		c-0.441-1.889-1.506-3.723,0.162-5.625c5.48-6.256,10.928-12.543,16.314-18.879c1.855-2.184,4.297-1.92,6.438-1.361
		c2.439,0.635,1.105,3.078,1.293,4.719C283.705,310.025,283.547,311.875,283.549,313.705z M276.246,314.314
		c-1.943,2.166-3.352,3.508-4.479,5.055c-1.115,1.53-2.979,2.588-3.289,4.729C278.025,324.952,276.506,325.374,276.246,314.314z"/>
	<path fill-rule="evenodd" clip-rule="evenodd" fill="#2F4863" d="M237.063,327.655c-1.998,0.004-3.998-0.047-5.993,0.025
		c-0.889,0.031-2.191-0.449-2.429,0.943c-0.183,1.068,0.706,1.832,1.497,2.418c2.758,2.037,5.787,1.943,8.358,0.037
		c2.789-2.07,4.035,0.059,5.242,1.578c1.9,2.391-0.822,3.137-2.068,3.973c-5.163,3.457-13.216,2.566-17.581-1.736
		c-4.283-4.225-5.104-12.113-1.824-17.581c3.232-5.393,9.388-7.58,15.591-5.545c5.07,1.666,9.002,7.949,8.551,13.362
		c-0.164,1.959-1.051,2.584-2.85,2.535C241.393,327.604,239.227,327.651,237.063,327.655z M233.796,323.061
		c1.278-1.354,4.146,1.164,4.384-1.645c0.221-2.616-2.198-4.018-4.662-4.114c-2.491-0.098-5.077,1.291-4.94,3.786
		C228.766,324.54,232.048,321.76,233.796,323.061z"/>
	<path fill-rule="evenodd" clip-rule="evenodd" fill="#2F4863" d="M249.092,307.389c-0.723,0.43-1.439,1.287-2.186,0.035
		c0.146-0.477,0.291-0.951,0.434-1.428c5.857-1.168,3.029,3.283,4.338,6.379c-1.613-1.246-2.354-1.816-3.092-2.389
		c-0.607-0.063-1.219-0.123-1.828-0.184c-0.057-0.744,0.031-1.389,0.992-1.424C248.629,308.633,249.447,308.803,249.092,307.389z"/>
	<path fill-rule="evenodd" clip-rule="evenodd" fill="#DFAB4F" d="M246.34,306.826c-0.691,0.15-1.6,1.008-1.871-0.395
		c-0.166-0.863,0.199-1.791,1.143-1.912c0.861-0.109,0.77,0.813,0.869,1.416C246.539,306.25,246.492,306.547,246.34,306.826z"/>
	<path fill-rule="evenodd" clip-rule="evenodd" fill="#425975" d="M246.758,309.803c0.609,0.061,1.221,0.121,1.828,0.184
		c-0.227,0.682-0.227,1.701-1.242,1.568C246.27,311.412,246.545,310.531,246.758,309.803z"/>
	<path fill-rule="evenodd" clip-rule="evenodd" fill="#DFAB4F" d="M247.105,314.27c-0.115-0.307-0.338-0.736-0.281-0.777
		c0.344-0.248,0.744-0.533,1.143-0.563c0.451-0.031,0.91,0.283,0.387,0.773C248.037,313.996,247.531,314.086,247.105,314.27z"/>
	<path fill-rule="evenodd" clip-rule="evenodd" fill="#425975" d="M249.092,307.389c0.355,1.414-0.463,1.244-1.342,0.99
		C248.195,308.045,248.645,307.717,249.092,307.389z"/>
	<path fill-rule="evenodd" clip-rule="evenodd" fill="#425975" d="M246.34,306.826c0.152-0.279,0.199-0.576,0.141-0.891
		c0.291-0.025,0.578-0.006,0.859,0.061c-0.143,0.477-0.287,0.951-0.434,1.428C246.674,307.264,246.486,307.064,246.34,306.826z"/>
	<path fill-rule="evenodd" clip-rule="evenodd" fill="#E3E5E8" d="M61.742,102.165c0-12.279,0-12.279,12.506-12.279
		c11.732,0,11.732,0,11.732,11.554c0,12.492,0,12.492-12.255,12.492C61.744,113.931,61.744,113.931,61.742,102.165z M78.406,109.977
		c3.196,0.215,4.692-0.741,4.325-4.157c-0.352-3.27-0.044-6.607-0.095-9.915c-0.021-1.406,0.336-3.043-2.032-3.133
		c-2.329-0.088-2.21,1.349-2.204,2.896C78.416,100.441,78.406,105.213,78.406,109.977z M74.902,105.608
		c-3.498-0.882-7.009-1.584-11.837,0.35C68.009,106.962,71.468,107.077,74.902,105.608z M74.482,110.465
		c-4.166-1.46-7.027-1.496-11.189,0.034C67.463,111.959,70.324,111.986,74.482,110.465z M73.678,101.145
		c-3.885-2.014-6.508-1.135-9.115-0.571C67.057,102.168,69.645,101.973,73.678,101.145z"/>
	<path fill-rule="evenodd" clip-rule="evenodd" fill="#2F4863" d="M173.74,218.621c2.73,6.763,5.117,12.672,7.654,18.96
		c-4.524,0-8.473-0.07-12.416,0.026c-2.334,0.058-2.905-0.546-1.891-2.839C169.282,229.813,171.234,224.75,173.74,218.621z"/>
	<path fill-rule="evenodd" clip-rule="evenodd" fill="#DFAB4F" d="M175.504,323.44c-2.984,0.295-6.998,1.17-7.523-0.23
		c-1.208-3.213,1.92-6.036,3.765-9.245C172.97,317.051,174.193,320.137,175.504,323.44z"/>
	<path fill-rule="evenodd" clip-rule="evenodd" fill="#DFAB4F" d="M276.246,314.314c0.26,11.059,1.779,10.637-7.768,9.784
		c0.311-2.141,2.174-3.199,3.289-4.729C272.895,317.822,274.303,316.48,276.246,314.314z"/>
	<path fill-rule="evenodd" clip-rule="evenodd" fill="#DFAB4F" d="M233.796,323.061c-1.748-1.301-5.03,1.479-5.219-1.973
		c-0.137-2.495,2.449-3.883,4.94-3.786c2.464,0.096,4.883,1.498,4.662,4.114C237.941,324.225,235.074,321.708,233.796,323.061z"/>
	<path fill-rule="evenodd" clip-rule="evenodd" fill="#2A4665" d="M78.406,109.977c0-4.764,0.01-9.536-0.006-14.309
		c-0.006-1.548-0.125-2.984,2.204-2.896c2.368,0.09,2.011,1.727,2.032,3.133c0.051,3.308-0.257,6.646,0.095,9.915
		C83.099,109.236,81.603,110.192,78.406,109.977z"/>
	<path fill-rule="evenodd" clip-rule="evenodd" fill="#2A4665" d="M74.902,105.608c-3.435,1.469-6.894,1.354-11.837,0.35
		C67.894,104.024,71.404,104.726,74.902,105.608z"/>
	<path fill-rule="evenodd" clip-rule="evenodd" fill="#425975" d="M74.482,110.465c-4.158,1.521-7.02,1.494-11.189,0.034
		C67.455,108.969,70.316,109.005,74.482,110.465z"/>
	<path fill-rule="evenodd" clip-rule="evenodd" fill="#2A4665" d="M73.678,101.145c-4.033,0.828-6.621,1.023-9.115-0.571
		C67.17,100.01,69.793,99.131,73.678,101.145z"/>
</g>
</svg>
