<?xml version="1.0" encoding="utf-8"?>
<!-- Generator: Adobe Illustrator 16.0.0, SVG Export Plug-In . SVG Version: 6.00 Build 0)  -->
<!DOCTYPE svg PUBLIC "-//W3C//DTD SVG 1.1//EN" "http://www.w3.org/Graphics/SVG/1.1/DTD/svg11.dtd">
<svg version="1.1" id="Layer_1" xmlns="http://www.w3.org/2000/svg" xmlns:xlink="http://www.w3.org/1999/xlink" x="0px" y="0px"
	 width="486.081px" height="505.438px" viewBox="0 0 486.081 505.438" enable-background="new 0 0 486.081 505.438"
	 xml:space="preserve">
<g>
	<g>
		<path fill="#303F58" d="M242.062,480.399c-125.116,0-226.933-101.764-226.933-226.906c0-125.09,101.817-226.882,226.933-226.882
			c125.085,0,226.89,101.792,226.89,226.882C468.951,378.636,367.146,480.399,242.062,480.399z M242.062,41.812
			c-116.758,0-211.736,94.976-211.736,211.681c0,116.741,94.978,211.738,211.736,211.738c116.657,0,211.682-94.997,211.682-211.738
			C453.743,136.788,358.719,41.812,242.062,41.812z"/>
	</g>
	<g>
		<polygon fill="#303F58" points="102.397,162.158 102.397,100.059 364.642,100.059 55.575,449.768 67.782,373.858 264.184,164.465 
					"/>
	</g>
	<g>
		<polygon fill="#303F58" points="372.423,333.95 372.423,396.079 110.166,396.188 419.1,46.355 406.932,122.265 210.568,331.717 		
			"/>
	</g>
</g>
</svg>
