<?xml version="1.0" encoding="utf-8"?>
<!-- Generator: Adobe Illustrator 16.0.0, SVG Export Plug-In . SVG Version: 6.00 Build 0)  -->
<!DOCTYPE svg PUBLIC "-//W3C//DTD SVG 1.1//EN" "http://www.w3.org/Graphics/SVG/1.1/DTD/svg11.dtd">
<svg version="1.1" id="Layer_1" xmlns="http://www.w3.org/2000/svg" xmlns:xlink="http://www.w3.org/1999/xlink" x="0px" y="0px"
	 width="380px" height="186px" viewBox="0 0 380 186" enable-background="new 0 0 380 186" xml:space="preserve">
<path fill-rule="evenodd" clip-rule="evenodd" fill="#018FFE" d="M258.725,63.047c-0.05-6.511-0.092-13.023-0.156-19.535
	c-0.016-1.534,0.188-2.452,2.172-1.797c3.833,1.267,7.995,1.714,11.259,4.352c1.463,1.183,2.863,0.521,3.878-0.126
	c9.692-6.176,19.711-5.64,29.765-1.362c4.177,1.778,7.776,4.66,10.822,8.388c10.295-10.897,22.604-14.438,36.77-9.751
	c11.45,3.789,18,12.414,21.445,23.66c-3.428,0.004-6.859-0.092-10.281,0.055c-1.792,0.077-3.86-0.85-5.317,1.051
	c-3.965-6.656-9.075-11.57-17.503-11.208c-5.215,0.223-9.773,1.937-13.038,6.274c-7.732,0.021-15.464,0.042-23.196,0.063
	c-9.646-8.897-18.43-8.657-28.091,0.768C271.08,63.511,264.849,64.474,258.725,63.047z"/>
<path fill-rule="evenodd" clip-rule="evenodd" fill="#02A3FE" d="M39.797,98.414c-3.353,3.761-6.706,7.521-10.121,11.351
	c1.457,1.048,2.771,0.625,3.986,0.628c12.157,0.039,24.313,0.003,36.469,0.031c8.229,0.019,13.462,4.821,14.364,12.918
	c0.215,1.933-0.068,2.731-2.285,2.723c-21.369-0.077-42.739,0.061-64.107-0.114c-7.018-0.057-13.119-7.582-12.41-14.527
	c0.083-0.808,0.348-1.479,0.905-2.048c4.194-4.281,7.981-8.961,12.543-12.884c5.499-0.021,10.925,1.366,16.476,0.694
	C36.971,97.021,38.63,97.242,39.797,98.414z"/>
<path fill-rule="evenodd" clip-rule="evenodd" fill="#0590FE" d="M47.317,66.604c2.093-3.66,5.881-5.861,8.611-9.844
	c-5.55,0-10.601,0-15.651,0c-7.926,0-15.854,0.036-23.78-0.013C8.973,56.701,3.259,50.976,2.842,43.438
	c-0.134-2.423,1.164-2.357,2.813-2.352c8.054,0.025,16.109,0.013,24.163,0.015c11.634,0.002,23.269-0.039,34.903,0.024
	c6.816,0.037,10.83,3.028,13.156,9.089c1.526,3.975,1.552,7.231-2.135,10.188c-2.664,2.136-4.835,4.886-7.227,7.362
	c-5.806-0.037-11.611-0.05-17.416-0.125C49.776,67.622,48.259,68.099,47.317,66.604z"/>
<path fill-rule="evenodd" clip-rule="evenodd" fill="#0391FE" d="M79.032,73.799c3.073-18.686,22.252-33.224,42.538-32.568
	c18.579,0.6,32.964,13.25,38.116,27.935c-5.599,0.006-11.198,0.013-16.797,0.019c-2.485-3.238-5.163-6.263-8.692-8.442
	c-13.204-8.153-32.449-4.018-39.613,13.917C89.399,74.372,84.215,74.085,79.032,73.799z"/>
<path fill-rule="evenodd" clip-rule="evenodd" fill="#04A3FE" d="M160.497,95.311c-2.483,13.483-16.177,26.424-31.377,29.65
	c-20.239,4.298-41.459-6.766-47.984-25.017c5.758,0.022,11.528,1.685,17.273-0.126c8.08,9.239,18.025,12.64,29.932,9.209
	c7.705-2.221,12.717-7.729,16.473-14.543C149.974,96.049,155.271,94.996,160.497,95.311z"/>
<path fill-rule="evenodd" clip-rule="evenodd" fill="#0391FE" d="M170.893,69.136c5.647-15.622,16.986-24.635,33.075-27.376
	c18.649-3.178,36.63,6.574,44.883,23.692c0.381,0.791,0.55,1.683,0.816,2.529c-0.982,1.729-2.669,1.074-4.116,1.208
	c-3.888,0.36-7.886-0.816-11.682,0.84c-5.974-8.86-14.086-13.769-24.988-13.206c-9.48,0.49-16.409,5.413-21.678,13.012
	C181.819,68.368,176.318,69.641,170.893,69.136z"/>
<path fill-rule="evenodd" clip-rule="evenodd" fill="#0399FE" d="M47.317,66.604c0.942,1.496,2.459,1.019,3.783,1.036
	c5.804,0.075,11.61,0.089,17.416,0.125C58.942,77.981,49.37,88.197,39.797,98.414c-1.167-1.172-2.826-1.393-4.18-1.229
	c-5.551,0.672-10.977-0.715-16.476-0.694C28.163,86.179,37.665,76.32,47.317,66.604z"/>
<path fill-rule="evenodd" clip-rule="evenodd" fill="#03A4FE" d="M241.375,112.394c-15.333,18.019-45.639,18.063-61.669,0.091
	c0.956-0.304,1.906-0.854,2.867-0.873c6.203-0.125,12.409-0.125,18.613-0.188c1.224-0.013,2.688,0.336,2.947-1.551
	c4.345,0.45,8.688,0.482,13.026-0.069c0.753,1.82,2.351,1.63,3.873,1.629c4.308-0.002,8.616-0.046,12.923,0.017
	C236.454,111.485,239.049,110.941,241.375,112.394z"/>
<path fill-rule="evenodd" clip-rule="evenodd" fill="#01A0FE" d="M273.888,87.622c0.038,9.183,0.216,18.368,0.067,27.548
	c-0.103,6.34-8.396,12.408-14.274,10.83c-1.537-0.413-1.106-1.522-1.104-2.416c0.021-12.243,0.087-24.486,0.142-36.729
	C263.725,88.102,268.825,87.486,273.888,87.622z"/>
<path fill-rule="evenodd" clip-rule="evenodd" fill="#0298FE" d="M359.08,67.98c1.457-1.901,3.525-0.974,5.317-1.051
	c3.422-0.146,6.854-0.05,10.281-0.055c1.118,1.807,1.252,3.896,1.27,5.877c0.076,8.534-0.03,17.07-0.071,25.605
	c-5.158-0.003-10.316-0.006-15.476-0.009c-0.063-7.631-0.163-15.262-0.172-22.894C360.226,72.887,360.012,70.387,359.08,67.98z"/>
<path fill-rule="evenodd" clip-rule="evenodd" fill="#049BFE" d="M98.409,99.818c-5.745,1.811-11.515,0.148-17.273,0.126
	c-3.657-8.478-4.954-17.145-2.104-26.146c5.184,0.287,10.367,0.573,15.551,0.86C92.091,83.618,93.212,92.028,98.409,99.818z"/>
<path fill-rule="evenodd" clip-rule="evenodd" fill="#0399FE" d="M160.497,95.311c-5.226-0.314-10.523,0.738-15.683-0.826
	c3.039-8.714,2.691-17.17-1.926-25.301c5.599-0.006,11.198-0.012,16.797-0.019C163.044,77.785,163.428,86.496,160.497,95.311z"/>
<path fill-rule="evenodd" clip-rule="evenodd" fill="#0CA4FE" d="M360.401,98.348c5.159,0.003,10.317,0.006,15.476,0.009
	c0.059,8.439,0.076,16.881,0.206,25.319c0.028,1.87-0.606,2.393-2.448,2.331c-8.616-0.288-13.45-5.179-13.436-13.859
	C360.207,107.548,360.33,102.947,360.401,98.348z"/>
<path fill-rule="evenodd" clip-rule="evenodd" fill="#04A0FE" d="M241.375,112.394c-2.326-1.452-4.921-0.908-7.42-0.944
	c-4.307-0.063-8.615-0.019-12.923-0.017c-1.522,0.001-3.12,0.191-3.873-1.629c9.381-3.004,15.762-9.156,19.254-18.341
	c5.178,0.018,10.355,0.037,15.533,0.056C250.749,99.655,247.088,106.544,241.375,112.394z"/>
<path fill-rule="evenodd" clip-rule="evenodd" fill="#04A0FE" d="M204.133,109.873c-0.26,1.887-1.724,1.538-2.947,1.551
	c-6.204,0.063-12.41,0.063-18.613,0.188c-0.961,0.02-1.911,0.569-2.867,0.873c-5.558-5.649-9.164-12.312-10.463-20.171
	c5.181-0.14,10.378,0.041,15.518-0.85C188.02,100.966,194.723,106.844,204.133,109.873z"/>
<path fill-rule="evenodd" clip-rule="evenodd" fill="#0195FE" d="M273.888,87.622c-5.063-0.136-10.163,0.48-15.17-0.767
	c0.003-7.937,0.005-15.872,0.007-23.808c6.124,1.427,12.355,0.464,18.527,0.831c-3.955,5.907-3.231,12.602-3.245,19.177
	C274.004,84.577,273.929,86.1,273.888,87.622z"/>
<path fill-rule="evenodd" clip-rule="evenodd" fill="#0298FE" d="M184.76,91.464c-5.139,0.89-10.337,0.71-15.518,0.85
	c-2.165-7.919-1.395-15.629,1.651-23.178c5.425,0.505,10.926-0.768,16.31,0.7C183.517,76.72,182.68,83.927,184.76,91.464z"/>
<path fill-rule="evenodd" clip-rule="evenodd" fill="#0298FE" d="M251.946,91.519c-5.178-0.019-10.355-0.038-15.533-0.056
	c1.463-7.419,1.103-14.621-2.544-21.434c3.796-1.656,7.794-0.48,11.682-0.84c1.447-0.134,3.134,0.521,4.116-1.208
	C253.229,75.555,253.472,83.451,251.946,91.519z"/>
<path fill-rule="evenodd" clip-rule="evenodd" fill="#009BFE" d="M324.799,81.504c0.316,7.417,0.249,14.833-0.059,22.249
	c-5.075-0.003-10.149-0.005-15.225-0.007c0-7.422-0.001-14.844-0.001-22.266C314.609,81.489,319.704,81.496,324.799,81.504z"/>
<path fill-rule="evenodd" clip-rule="evenodd" fill="#0195FE" d="M324.799,81.504c-5.095-0.008-10.189-0.016-15.284-0.024
	c-0.118-6.413,0.404-12.971-4.172-18.371c7.732-0.021,15.464-0.042,23.196-0.063c-3.053,4.33-3.682,9.227-3.448,14.357
	C325.152,78.763,324.905,80.137,324.799,81.504z"/>
<path fill-rule="evenodd" clip-rule="evenodd" fill="#04A3FE" d="M309.516,103.746c5.075,0.002,10.149,0.004,15.225,0.007
	c0.043,6.73,0.049,13.463,0.15,20.193c0.026,1.726-0.668,2.097-2.274,2.031c-8.581-0.353-13.242-5.166-13.235-13.853
	C309.383,109.332,309.469,106.539,309.516,103.746z"/>
<image overflow="visible" width="380" height="186" xlink:href="amazon.png"  transform="matrix(1 0 0 1 22 235)">
</image>
</svg>
